<svg width="108" height="18" viewBox="0 0 108 18" xmlns="http://www.w3.org/2000/svg"><g fill="#92A0B2"><path d="M14.007 8.801c1.165-.48 2-1.777 2-3.301 0-1.933-1.343-3.5-3-3.5s-3 1.567-3 3.5c0 1.524.835 2.82 2 3.301v1.199l-2.051.684c-.524.175-1.152.721-1.397 1.211l-.105.211c-.247.494.008.895.548.895h8.009c.55 0 .793-.405.548-.895l-.105-.211c-.247-.494-.864-1.034-1.397-1.211l-2.051-.684v-1.199zm-8 3c1.165-.48 2-1.777 2-3.301 0-1.933-1.343-3.5-3-3.5s-3 1.567-3 3.5c0 1.524.835 2.82 2 3.301v1.199l-2.051.684c-.524.175-1.152.721-1.397 1.211l-.105.211c-.247.494.008.895.548.895h8.009c.55 0 .793-.405.548-.895l-.105-.211c-.247-.494-.864-1.034-1.397-1.211l-2.051-.684v-1.199z"/><path d="M19 6.997c0-.551.456-.997.995-.997h8.009c.55 0 .995.453.995.997v6.006c0 .551-.443.997-.999.997h-2.001l-5 4v-4h-1c-.552 0-1-.453-1-.997v-6.006zm6-1.997v-2.001c0-.552.456-.999.995-.999h8.009c.55 0 .995.453.995.997v6.006c0 .551-.444.997-1 .997h-1v4l-3-3v-5.009c0-.547-.444-.991-1-.991h-4z"/><path d="M47.5 7l1.5 1v-7h2.001c.552 0 .999.456.999 1.002v9.995c0 .554-.456 1.002-1.002 1.002h-9.995c-.554 0-1.002.444-1.002 1 0 .552.456 1 1.002 1h9.995c.554 0 1.002.444 1.002 1 0 .552-.45 1-1.007 1h-10.987c-1.108 0-2.006-.895-2.006-1.994v-12.012c0-1.101.887-1.994 1.998-1.994h6.002v7l1.5-1z"/><path d="M55 4c0-.552.445-1 1.001-1h13.998c.553 0 1.001.444 1.001 1v1l-8 4-8-4v-1zm0 3l8 4 8-4v7.003c0 .551-.445.997-1.001.997h-13.998c-.553 0-1.001-.453-1.001-.997v-7.003z"/><path d="M87.115 4.056c.678-.406 1.198-1.049 1.443-1.816-.634.376-1.337.65-2.084.797-.599-.638-1.452-1.037-2.396-1.037-1.813 0-3.282 1.47-3.282 3.283 0 .257.029.507.085.748-2.728-.137-5.147-1.444-6.766-3.43-.283.485-.444 1.048-.444 1.651 0 1.139.579 2.144 1.46 2.732-.538-.017-1.044-.165-1.487-.411v.042c0 1.59 1.132 2.917 2.633 3.219-.275.075-.565.115-.865.115-.212 0-.417-.02-.618-.059.418 1.304 1.63 2.253 3.066 2.28-1.123.88-2.539 1.405-4.077 1.405-.265 0-.526-.016-.783-.046 1.453.932 3.178 1.475 5.032 1.475 6.038 0 9.34-5.002 9.34-9.34l-.009-.425c.641-.462 1.198-1.04 1.638-1.699-.588.261-1.221.438-1.885.517z"/><path d="M100 1h1.509c.263 0 .491.222.491.495v2.009c0 .28-.22.495-.491.495h-5.018c-.263 0-.491-.222-.491-.495v-2.009c0-.28.22-.495.491-.495h1.509v-.495c0-.291.226-.505.505-.505h.991c.291 0 .505.226.505.505v.495zm3 1h1.993c.557 0 1.007.451 1.007 1.007v12.985c0 .559-.451 1.007-1.007 1.007h-11.986c-.557 0-1.007-.451-1.007-1.007v-12.985c0-.559.451-1.007 1.007-1.007h1.993v1.99c0 .557.453 1.009.997 1.009h6.006c.551 0 .997-.443.997-1.009v-1.99zm-8 5v1h8v-1h-8zm0 2v1h6v-1h-6zm0 2v1h8v-1h-8zm0 2v1h6v-1h-6z"/></g></svg>
