<?xml version="1.0" encoding="UTF-8" standalone="no"?>
<svg width="150px" height="25px" viewBox="0 0 600 100" version="1.1" xmlns="http://www.w3.org/2000/svg" xmlns:xlink="http://www.w3.org/1999/xlink" xmlns:sketch="http://www.bohemiancoding.com/sketch/ns">
    <!-- Generator: Sketch 3.4 (15575) - http://www.bohemiancoding.com/sketch -->
    <title>sprite-home-icons</title>
    <desc>Created with Sketch.</desc>
    <defs>
        <linearGradient x1="145.441303%" y1="59.143333%" x2="-39.4835869%" y2="59.1433346%" id="linearGradient-1">
            <stop stop-color="#FD7461" offset="0%"></stop>
            <stop stop-color="#FC4C83" offset="100%"></stop>
        </linearGradient>
        <linearGradient x1="120.345052%" y1="67.7891195%" x2="0%" y2="67.7891225%" id="linearGradient-2">
            <stop stop-color="#4DCEC5" offset="0%"></stop>
            <stop stop-color="#40DE8E" offset="100%"></stop>
        </linearGradient>
        <linearGradient x1="100%" y1="15.2970329%" x2="-90.2750651%" y2="15.2970323%" id="linearGradient-3">
            <stop stop-color="#4DCEC5" offset="0%"></stop>
            <stop stop-color="#40DE8E" offset="100%"></stop>
        </linearGradient>
        <linearGradient x1="100%" y1="57.6506674%" x2="0%" y2="57.6506696%" id="linearGradient-4">
            <stop stop-color="#FF5F1A" offset="0%"></stop>
            <stop stop-color="#FF8C3D" offset="100%"></stop>
        </linearGradient>
        <linearGradient x1="128.650949%" y1="57.6506674%" x2="-18.9620536%" y2="57.6506674%" id="linearGradient-5">
            <stop stop-color="#FF5F1A" offset="0%"></stop>
            <stop stop-color="#FF8C3D" offset="100%"></stop>
        </linearGradient>
        <linearGradient x1="0%" y1="50%" x2="100%" y2="50%" id="linearGradient-6">
            <stop stop-color="#FF8D3E" offset="0%"></stop>
            <stop stop-color="#FF5E19" offset="100%"></stop>
        </linearGradient>
        <linearGradient x1="94.4291857%" y1="63.3104742%" x2="5.83835178%" y2="63.3104729%" id="linearGradient-7">
            <stop stop-color="#A75BCB" offset="0%"></stop>
            <stop stop-color="#855CEA" offset="100%"></stop>
        </linearGradient>
        <linearGradient x1="100%" y1="50%" x2="0%" y2="50%" id="linearGradient-8">
            <stop stop-color="#3C9DE7" offset="0%"></stop>
            <stop stop-color="#55ACEE" offset="100%"></stop>
        </linearGradient>
        <linearGradient x1="100%" y1="90.0242856%" x2="0%" y2="90.0242865%" id="linearGradient-9">
            <stop stop-color="#FFC644" offset="0%"></stop>
            <stop stop-color="#FFAE5F" offset="100%"></stop>
        </linearGradient>
    </defs>
    <g id="Page-1" stroke="none" stroke-width="1" fill="none" fill-rule="evenodd" sketch:type="MSPage">
        <g id="colors" sketch:type="MSLayerGroup" transform="translate(13.000000, 0.000000)">
            <g id="forum-copy" transform="translate(0.000000, 13.000000)" fill="url(#linearGradient-1)" sketch:type="MSShapeGroup">
                <path d="M37,74 C57.4345357,74 74,57.4345357 74,37 C74,16.5654643 57.4345357,0 37,0 C16.5654643,0 0,16.5654643 0,37 C0,57.4345357 16.5654643,74 37,74 Z M37,70 C18.7746033,70 4,55.2253967 4,37 C4,18.7746033 18.7746033,4 37,4 C55.2253967,4 70,18.7746033 70,37 C70,55.2253967 55.2253967,70 37,70 Z M15.6344503,45.6207044 C15.8247447,46.0393522 16.1980072,46.7156159 16.776284,47.5637552 C17.7229839,48.9522484 18.9179561,50.3359005 20.3840582,51.6260703 C24.5567201,55.2980128 30.0616881,57.5 37,57.5 C43.9553457,57.5 49.2934002,55.2842038 53.161834,51.5839628 C54.5238247,50.281189 55.6034592,48.884015 56.4320148,47.481844 C56.9386965,46.6243826 57.2544778,45.9394486 57.4096901,45.5126146 C57.6927994,44.7340642 57.291165,43.8734191 56.5126146,43.5903099 C55.7340642,43.3072006 54.8734191,43.708835 54.5903099,44.4873854 C54.572948,44.5351305 54.5227561,44.6578218 54.4366303,44.84463 C54.284079,45.1755158 54.0892753,45.5494344 53.8492352,45.955656 C53.1543533,47.13161 52.2418003,48.312561 51.088166,49.4160372 C47.7690998,52.5907962 43.1696543,54.5 37,54.5 C30.8133119,54.5 26.0057799,52.5769872 22.3659418,49.3739297 C21.0976689,48.2578495 20.0660786,47.0633766 19.254966,45.8737448 C18.9745209,45.4624253 18.7426866,45.0835417 18.5573828,44.7478148 C18.4521129,44.5570906 18.388893,44.4306507 18.3655497,44.3792956 C18.0227441,43.6251233 17.1334679,43.2916447 16.3792956,43.6344503 C15.6251233,43.9772559 15.2916447,44.8665321 15.6344503,45.6207044 Z M45.5,31 C45.5,30.9369181 45.5151333,30.7603627 45.564621,30.5129242 C45.6500515,30.085772 45.8033951,29.6598175 46.0362394,29.2717436 C46.7002505,28.1650585 47.8973557,27.5 50,27.5 C52.1026443,27.5 53.2997495,28.1650585 53.9637606,29.2717436 C54.1966049,29.6598175 54.3499485,30.085772 54.435379,30.5129242 C54.4848667,30.7603627 54.5,30.9369181 54.5,31 C54.5,31.8284271 55.1715729,32.5 56,32.5 C56.8284271,32.5 57.5,31.8284271 57.5,31 C57.5,30.1274511 57.2621219,28.9380605 56.5362394,27.7282564 C55.3252505,25.7099415 53.1473557,24.5 50,24.5 C46.8526443,24.5 44.6747495,25.7099415 43.4637606,27.7282564 C42.7378781,28.9380605 42.5,30.1274511 42.5,31 C42.5,31.8284271 43.1715729,32.5 44,32.5 C44.8284271,32.5 45.5,31.8284271 45.5,31 Z M23,35 C19.6862915,35 17,32.3137085 17,29 C17,25.6862915 19.6862915,23 23,23 C26.3137085,23 29,25.6862915 29,29 C29,32.3137085 26.3137085,35 23,35 Z M23,32 C24.6568542,32 26,30.6568542 26,29 C26,27.3431458 24.6568542,26 23,26 C21.3431458,26 20,27.3431458 20,29 C20,30.6568542 21.3431458,32 23,32 Z" id="Shape"></path>
            </g>
            <g id="IRC" transform="translate(102.000000, 20.000000)" stroke-width="4" stroke-linecap="round" sketch:type="MSShapeGroup">
                <path d="M57,19 L57,0.994771168 C57,0.445374222 56.5577194,0 55.9985969,0 L1.00140315,0 C0.448343461,0 0,0.455173016 0,1.00041944 L0,34.9995806 C0,35.552097 0.446311399,36 0.997544646,36 L8.00245535,36 C8.55338405,36 9,36.455761 9,37.0024733 L9,46.9975267 C9,47.5511774 9.32097101,47.679029 9.70585426,47.2941457 L20.2941457,36.7058543 C20.6839783,36.3160217 21.4438648,36 22,36 L23,36" id="Path-13" stroke="url(#linearGradient-2)"></path>
                <path d="M47.4991283,51.5 C48.0518945,51.5 48.8460693,51.7966309 49.2527008,52.1451721 L61.7472992,62.8548279 C62.1630044,63.2111466 62.5,63.044239 62.5,62.4975267 L62.5,52.5024733 C62.5,51.9488226 62.9509752,51.5 63.490778,51.5 L67.509222,51.5 C68.0564136,51.5 68.5,51.0525308 68.5,50.4993054 L68.5,28.5006946 C68.5,27.9480262 68.044827,27.5 67.4995806,27.5 L33.5004194,27.5 C32.947903,27.5 32.5,27.9474692 32.5,28.5006946 L32.5,50.4993054 C32.5,51.0519738 32.9446309,51.5 33.5008717,51.5 L47.4991283,51.5 Z" id="Path-14" stroke="url(#linearGradient-3)"></path>
            </g>
            <g id="wiki" transform="translate(212.000000, 15.000000)" sketch:type="MSShapeGroup">
                <path d="M48,12 L48,1.00247329 C48,0.448822582 47.5461844,5.55763851e-17 47.0003895,1.2241698e-16 L5,5.26598124e-15 C5,5.26598124e-15 -1.13644483e-13,1 0,6.5 C1.13686838e-13,12 5,13 5,13 L49.9964448,13 C50.550693,13 51,13.4422806 51,14.0014031 L51,68.9985969 C51,69.5516565 50.5591021,70 50.0041233,70 L7.99678336,70 C3.58028186,70 9.69356556e-14,66.4094864 9.8177543e-14,62.0050275 L1.13686838e-13,7" id="Path-9" stroke="url(#linearGradient-4)" stroke-width="4"></path>
                <path d="M6.5,6.5 L41.5,6.5 L41.5,12.5" id="Path-10" stroke="url(#linearGradient-5)" stroke-width="4" stroke-linecap="round" stroke-linejoin="round"></path>
                <path d="M25.2059199,42.9988947 L21.9138115,50.4061385 L20.9384383,52.6007282 L20.0679953,50.3624463 L13.3195356,33 L11,33 L11,31 L14,31 L14.6840671,31 L14.9320047,31.6375537 L21,47.5 L24.1897318,40.3844445 L21.3195356,33 L19,33 L19,31 L22,31 L22.6840671,31 L22.9320047,31.6375537 L25.3164964,37.8708927 L27.5,33 L26,33 L26,31 L29,31 L30.538762,31 L29.9138115,32.4061385 L26.3195984,40.4931181 L29,47.5 L35.5,33 L34,33 L34,31 L37,31 L38.538762,31 L37.9138115,32.4061385 L29.9138115,50.4061385 L28.9384383,52.6007282 L28.0679953,50.3624463 L25.2059199,42.9988947 Z" id="Shape" fill="url(#linearGradient-6)"></path>
            </g>
            <g id="contact-copy-2" transform="translate(300.000000, 14.000000)" fill="url(#linearGradient-7)" sketch:type="MSShapeGroup">
                <path d="M0.846633605,25.3660643 L0,25.963688 L0,27 L0,58.9997559 C0,63.4179195 3.58441005,67 8.00471685,67 L63.9952831,67 C68.4170885,67 72,63.4190247 72,58.9997559 L72,27 L72,25.963688 L71.1533664,25.3660643 L37.1533664,1.36606427 L36,0.551923289 L34.8466336,1.36606427 L0.846633605,25.3660643 Z M36,5.5 L68.8466336,28.6339357 L68,27 L68,58.9997559 C68,61.2094015 66.2084334,63 63.9952831,63 L8.00471685,63 C5.79296712,63 4,61.2081982 4,58.9997559 L4,27 L3.1533664,28.6339357 L36,5.5 Z M12.853815,54.2332883 L25.853815,45.2332883 L25,45.5 L46,45.5 L45.146185,45.2332883 L58.146185,54.2332883 C58.8273113,54.7048373 59.7617393,54.5349413 60.2332883,53.853815 C60.7048373,53.1726887 60.5349413,52.2382607 59.853815,51.7667117 L46.853815,42.7667117 C46.6029586,42.5930419 46.3051067,42.5 46,42.5 L25,42.5 C24.6948933,42.5 24.3970414,42.5930419 24.146185,42.7667117 L11.146185,51.7667117 C10.4650587,52.2382607 10.2951627,53.1726887 10.7667117,53.853815 C11.2382607,54.5349413 12.1726887,54.7048373 12.853815,54.2332883 Z" id="Shape"></path>
                <path d="M2.66794971,29.7480754 L17.6679497,39.7480754 C18.3572427,40.2076041 19.2885468,40.0213433 19.7480754,39.3320503 C20.2076041,38.6427573 20.0213433,37.7114532 19.3320503,37.2519246 L4.33205029,27.2519246 C3.64275726,26.7923959 2.71145325,26.9786567 2.25192456,27.6679497 C1.79239587,28.3572427 1.97865667,29.2885468 2.66794971,29.7480754 Z M67.6679497,27.2519246 L52.6679497,37.2519246 C51.9786567,37.7114532 51.7923959,38.6427573 52.2519246,39.3320503 C52.7114532,40.0213433 53.6427573,40.2076041 54.3320503,39.7480754 L69.3320503,29.7480754 C70.0213433,29.2885468 70.2076041,28.3572427 69.7480754,27.6679497 C69.2885468,26.9786567 68.3572427,26.7923959 67.6679497,27.2519246 Z" id="Shape"></path>
            </g>
            <path d="M470.448569,29.3922166 C468.005795,30.4780437 465.37688,31.2104711 462.618474,31.5382425 C465.43488,29.8521757 467.594395,27.1814458 468.612779,23.9954539 C465.978468,25.558775 463.062247,26.6931608 459.955838,27.3055403 C457.469901,24.6563921 453.926463,23 450.005345,23 C442.477394,23 436.373832,29.103562 436.373832,36.6328621 C436.373832,37.6998052 436.49388,38.7397712 436.727232,39.7392716 C425.396863,39.1700555 415.350602,33.7436179 408.626567,25.4953789 C407.453065,27.5078683 406.781336,29.8494779 406.781336,32.3502523 C406.781336,37.0793326 409.18769,41.2526852 412.845781,43.6968077 C410.61208,43.6253185 408.509217,43.0115901 406.67073,41.9905081 C406.669381,42.0471599 406.669381,42.1051606 406.669381,42.1631613 C406.669381,48.7671479 411.368787,54.2758655 417.605885,55.5302992 C416.462057,55.8405355 415.257531,56.0077934 414.013888,56.0077934 C413.134436,56.0077934 412.280611,55.9228156 411.448369,55.762302 C413.184343,61.1779487 418.218264,65.1206474 424.182895,65.2299046 C419.51721,68.8866464 413.640256,71.0663936 407.252086,71.0663936 C406.15277,71.0663936 405.066943,71.0016486 404,70.8748564 C410.03477,74.744717 417.19988,77 424.897787,77 C449.974322,77 463.685417,56.2276565 463.685417,38.2123695 C463.685417,37.6215717 463.673278,37.0321227 463.647649,36.4467203 C466.310286,34.5286506 468.622221,32.1263426 470.448569,29.3922166 L470.448569,29.3922166 Z" id="twitter" stroke="url(#linearGradient-8)" stroke-width="3" stroke-linejoin="round" sketch:type="MSShapeGroup"></path>
            <g id="doc" transform="translate(499.000000, 11.000000)" fill="url(#linearGradient-9)" sketch:type="MSShapeGroup">
                <path d="M34,24 L34,2.9904144 C34,1.33527075 32.7195235,0 31.1426658,0 L15.8573342,0 C14.2807275,0 13,1.3375113 13,2.9904144 L13,8 L2.99850233,8 C1.33986181,8 0,9.34855132 0,11.0052872 L0,72.9947128 C0,74.6584089 1.33917999,76 2.99850233,76 L14.0014977,76 C14.3333017,76 14.6523487,75.9460333 14.9504645,75.8464284 C15.2354555,75.9460615 15.5404087,76 15.8573342,76 L31.1426658,76 C31.4749729,76 31.7941354,75.9405804 32.0909314,75.831312 C32.4156774,75.9405794 32.7651394,76 33.1294612,76 L49.8705388,76 C51.6030165,76 53,74.6516216 53,72.9974518 L53,41.1895167 L61.7465097,73.8319351 C62.1734171,75.4251753 63.8180308,76.3737487 65.4140605,75.9460938 L73.1503584,73.8731591 C74.7372466,73.4479536 75.6974573,71.8057341 75.2694712,70.2084685 L60.2534903,14.1680649 C59.8265829,12.5748247 58.1819692,11.6262513 56.5859395,12.0539062 L48.8496416,14.1268409 C47.2627534,14.5520464 46.3025427,16.1942659 46.7305288,17.7915315 L46.7305288,17.7915315 L48.3940829,24 L34,24 Z M50.5942321,16.7562553 C50.7405766,17.3024206 50.4224431,17.8465148 49.8849178,17.9905442 L57.6212157,15.9176095 C57.0841261,16.0615222 56.5348467,15.7447111 56.389787,15.2033411 L71.4057679,71.2437447 C71.2594234,70.6975794 71.5775569,70.1534852 72.1150822,70.0094558 L64.3787843,72.0823905 C64.9158739,71.9384778 65.4651533,72.2552889 65.610213,72.7966589 L50.5942321,16.7562553 L50.5942321,16.7562553 Z M4,11.0052872 C4,11.5519226 3.55480987,12 2.99850233,12 L14.0014977,12 C13.4500687,12 13,11.549121 13,11.0052872 L13,72.9947128 C13,72.4480774 13.4451901,72 14.0014977,72 L2.99850233,72 C3.54993132,72 4,72.450879 4,72.9947128 L4,11.0052872 Z M34.0692617,27 C34.0692617,27.5469159 33.5949872,27.9974518 33,27.9974518 L50.0100002,27.9974518 C49.4180891,27.9974518 48.9407386,27.5452865 48.9407386,27 L48.9407386,72.9949036 C48.9407386,72.4479876 49.415013,71.9974518 50.0100002,71.9974518 L33,71.9974518 C33.5919111,71.9974518 34.0692617,72.4496171 34.0692617,72.9949036 L34.0692617,27 Z M16.9369378,2.9904144 C16.9369378,3.54946472 16.5133008,4 15.9933977,4 L31.0033979,4 C30.4849787,4 30.0598578,3.54855553 30.0598578,2.9904144 L30.0598578,73.0095856 C30.0598578,72.4505353 30.4834948,72 31.0033979,72 L15.9933977,72 C16.5118169,72 16.9369378,72.4514445 16.9369378,73.0095856 L16.9369378,2.9904144 Z M19,53.9940603 C19,52.8927712 19.79869,52 20.7996535,52 L26.2003465,52 C27.1942677,52 28,52.8945138 28,53.9940603 L28,66.0059397 C28,67.1072288 27.20131,68 26.2003465,68 L20.7996535,68 C19.8057323,68 19,67.1054862 19,66.0059397 L19,53.9940603 Z M21.8331622,53.9940603 L21.8331622,66.0059397 C21.8331622,65.4477692 21.4592555,65 20.999615,65 L25.999615,65 C25.5435697,65 25.1660678,65.4530264 25.1660678,66.0059397 L25.1660678,53.9940603 C25.1660678,54.5522308 25.5399745,55 25.999615,55 L20.999615,55 C21.4556603,55 21.8331622,54.5469736 21.8331622,53.9940603 Z M37,65.5 C37,64.6715729 37.6764628,64 38.5063976,64 L44.4936024,64 C45.3255628,64 46,64.6657972 46,65.5 C46,66.3284271 45.3235372,67 44.4936024,67 L38.5063976,67 C37.6744372,67 37,66.3342028 37,65.5 Z M7,20.4972305 C7,19.6703329 7.66579723,19 8.5,19 C9.32842712,19 10,19.6710478 10,20.4972305 L10,62.5027695 C10,63.3296671 9.33420277,64 8.5,64 C7.67157288,64 7,63.3289522 7,62.5027695 L7,20.4972305 Z M22,8.50783642 C22,7.67508136 22.6657972,7 23.5,7 C24.3284271,7 25,7.67742421 25,8.50783642 L25,46.4921636 C25,47.3249186 24.3342028,48 23.5,48 C22.6715729,48 22,47.3225758 22,46.4921636 L22,8.50783642 Z M40,32.5082641 C40,31.6752728 40.6657972,31 41.5,31 C42.3284271,31 43,31.6686549 43,32.5082641 L43,59.4917359 C43,60.3247272 42.3342028,61 41.5,61 C40.6715729,61 40,60.3313451 40,59.4917359 L40,32.5082641 Z" id="Shape"></path>
            </g>
        </g>
    </g>
</svg>
