<?xml version="1.0" encoding="utf-8"?>
<!-- Generator: Adobe Illustrator 18.1.0, SVG Export Plug-In . SVG Version: 6.00 Build 0)  -->
<!DOCTYPE svg PUBLIC "-//W3C//DTD SVG 1.1//EN" "http://www.w3.org/Graphics/SVG/1.1/DTD/svg11.dtd">
<svg version="1.1" id="Layer_1" xmlns="http://www.w3.org/2000/svg" xmlns:xlink="http://www.w3.org/1999/xlink" x="0px" y="0px"
	 viewBox="0 0 100 100" enable-background="new 0 0 100 100" xml:space="preserve">
<path d="M81.7,48.6L54.1,20.9l0,0c-0.9-0.9-2.5-0.9-3.4,0L20.2,51.2c-0.5,0.5-0.7,1.1-0.7,1.8v27.7c0,1.3,1.1,2.4,2.4,2.4h27.6h0.1
	c0.6,0,1.3-0.3,1.8-0.8L81.7,52C82.7,51.1,82.7,49.5,81.7,48.6L81.7,48.6z M48.6,78.3L48.6,78.3H24.3V54l28-28l24.3,24.3L48.6,78.3
	L48.6,78.3z M34.7,60.6L34.7,60.6c-4,0-7.3,3.3-7.3,7.2c0,4,3.3,7.2,7.3,7.2s7.3-3.2,7.3-7.2C42,63.9,38.7,60.6,34.7,60.6L34.7,60.6
	z M34.7,72.2L34.7,72.2c-2.4,0-4.3-2-4.3-4.3s1.9-4.3,4.3-4.3c2.4,0,4.4,2,4.4,4.3C39.1,70.3,37.1,72.2,34.7,72.2L34.7,72.2z"/>
</svg>
