<?xml version="1.0" encoding="UTF-8" standalone="no"?>
<svg width="60px" height="60px" viewBox="0 0 60 60" version="1.1" xmlns="http://www.w3.org/2000/svg" xmlns:xlink="http://www.w3.org/1999/xlink" xmlns:sketch="http://www.bohemiancoding.com/sketch/ns">
    <!-- Generator: Sketch 3.3.2 (12043) - http://www.bohemiancoding.com/sketch -->
    <title>bookmarks</title>
    <desc>Created with Sketch.</desc>
    <defs></defs>
    <g id="Page-1" stroke="none" stroke-width="1" fill="none" fill-rule="evenodd" sketch:type="MSPage">
        <g id="bookmarks" sketch:type="MSLayerGroup">
            <path d="M30,58.75 L30,58.75 C45.8781866,58.75 58.75,45.8781866 58.75,30 C58.75,14.1218134 45.8781866,1.25 30,1.25 C14.1218134,1.25 1.25,14.1218134 1.25,30 C1.25,45.8781866 14.1218134,58.75 30,58.75 L30,58.75 Z M30,60 L30,60 C13.4314575,60 0,46.5685425 0,30 C0,13.4314575 13.4314575,0 30,0 C46.5685425,0 60,13.4314575 60,30 C60,46.5685425 46.5685425,60 30,60 L30,60 Z" id="Shape" fill-opacity="0.0107280344" fill="#FFFFFF" sketch:type="MSShapeGroup"></path>
            <path d="M49.5234313,28.0516899 L31.9857029,10.4294235 C31.4138205,9.85685885 30.3971406,9.85685885 29.8252581,10.4294235 L10.4447975,29.7057654 C10.127085,30.0238569 10,30.4055666 10,30.8508946 L10,48.473161 C10,49.3001988 10.6989674,50 11.5250199,50 L29.0627482,50 L29.1262907,50 C29.5075457,50 29.9523431,49.8091451 30.2700556,49.4910537 L49.5234313,30.2147117 C50.1588562,29.6421471 50.1588562,28.6242545 49.5234313,28.0516899 L49.5234313,28.0516899 L49.5234313,28.0516899 Z M28.4908658,46.9463221 L28.4908658,46.9463221 L13.0500397,46.9463221 L13.0500397,31.4870775 L30.841938,13.6739563 L46.2827641,29.1332008 L28.4908658,46.9463221 L28.4908658,46.9463221 Z M19.6584591,35.6858847 L19.6584591,35.6858847 C17.1167593,35.6858847 15.019857,37.7852883 15.019857,40.2664016 C15.019857,42.8111332 17.1167593,44.8469185 19.6584591,44.8469185 C22.2001589,44.8469185 24.2970612,42.8111332 24.2970612,40.2664016 C24.2970612,37.7852883 22.2001589,35.6858847 19.6584591,35.6858847 L19.6584591,35.6858847 L19.6584591,35.6858847 Z M19.6584591,43.0656064 L19.6584591,43.0656064 C18.1334392,43.0656064 16.9261319,41.7932406 16.9261319,40.3300199 C16.9261319,38.8667992 18.1334392,37.5944334 19.6584591,37.5944334 C21.183479,37.5944334 22.4543288,38.8667992 22.4543288,40.3300199 C22.4543288,41.8568588 21.183479,43.0656064 19.6584591,43.0656064 L19.6584591,43.0656064 L19.6584591,43.0656064 Z" id="Shape" fill="#000000" sketch:type="MSShapeGroup"></path>
        </g>
    </g>
</svg>