<?xml version="1.0" encoding="utf-8"?>
<!-- Generator: Adobe Illustrator 18.1.0, SVG Export Plug-In . SVG Version: 6.00 Build 0)  -->
<!DOCTYPE svg PUBLIC "-//W3C//DTD SVG 1.1//EN" "http://www.w3.org/Graphics/SVG/1.1/DTD/svg11.dtd">
<svg version="1.1" id="Layer_1" xmlns="http://www.w3.org/2000/svg" xmlns:xlink="http://www.w3.org/1999/xlink" x="0px" y="0px"
	 viewBox="0 0 100 100" enable-background="new 0 0 100 100" xml:space="preserve">
<path d="M44.5,50.7c0.6,0.6,1.5,1,2.4,1c0.9,0,1.8-0.4,2.4-1c0.6-0.6,1-1.5,1-2.4c0-0.9-0.4-1.8-1-2.4l0,0c-0.6-0.6-1.5-1-2.4-1
	c-0.9,0-1.8,0.4-2.4,1l0,0c-0.6,0.6-1,1.5-1,2.4C43.5,49.2,43.9,50.1,44.5,50.7L44.5,50.7L44.5,50.7z M46.1,47.6L46.1,47.6
	L46.1,47.6c0.2-0.2,0.4-0.3,0.7-0.3c0.3,0,0.5,0.1,0.7,0.3l0,0c0.2,0.2,0.3,0.4,0.3,0.7c0,0.3-0.1,0.5-0.3,0.7
	c-0.2,0.2-0.4,0.3-0.7,0.3c-0.3,0-0.5-0.1-0.7-0.3c-0.2-0.2-0.3-0.4-0.3-0.7C45.9,48,46,47.8,46.1,47.6L46.1,47.6z M44.5,59.6
	L44.5,59.6c0.6,0.6,1.5,1,2.4,1c0.9,0,1.8-0.4,2.4-1l0,0c0.6-0.6,1-1.5,1-2.4c0-0.9-0.4-1.8-1-2.4h0c-0.6-0.6-1.5-1-2.4-1
	c-0.9,0-1.8,0.4-2.4,1h0c-0.6,0.6-1,1.5-1,2.4C43.5,58.2,43.9,59,44.5,59.6L44.5,59.6L44.5,59.6z M46.1,56.6L46.1,56.6L46.1,56.6
	c0.2-0.2,0.4-0.3,0.7-0.3c0.3,0,0.5,0.1,0.7,0.3v0c0.2,0.2,0.3,0.4,0.3,0.7c0,0.3-0.1,0.5-0.3,0.7l0,0c-0.2,0.2-0.4,0.3-0.7,0.3
	c-0.3,0-0.5-0.1-0.7-0.3l0,0c-0.2-0.2-0.3-0.4-0.3-0.7C45.9,57,46,56.7,46.1,56.6L46.1,56.6z M62.7,50.7L62.7,50.7
	c0.6,0.6,1.5,1,2.4,1c0.9,0,1.8-0.4,2.4-1c0.6-0.6,1-1.5,1-2.4c0-0.9-0.4-1.8-1-2.4l0,0c-0.6-0.6-1.5-1-2.4-1s-1.8,0.4-2.4,1l0,0
	c-0.6,0.6-1,1.5-1,2.4C61.7,49.2,62.1,50.1,62.7,50.7L62.7,50.7L62.7,50.7z M64.4,47.6L64.4,47.6L64.4,47.6c0.2-0.2,0.4-0.3,0.7-0.3
	c0.3,0,0.5,0.1,0.7,0.3l0,0c0.2,0.2,0.3,0.4,0.3,0.7c0,0.3-0.1,0.5-0.3,0.7c-0.2,0.2-0.4,0.3-0.7,0.3c-0.3,0-0.5-0.1-0.7-0.3
	c-0.2-0.2-0.3-0.4-0.3-0.7C64.1,48,64.2,47.8,64.4,47.6L64.4,47.6z M53.6,50.7L53.6,50.7c0.6,0.6,1.4,1,2.4,1c0.9,0,1.8-0.4,2.4-1
	c0.6-0.6,1-1.5,1-2.4c0-0.9-0.4-1.8-1-2.4l0,0c-0.6-0.6-1.5-1-2.4-1c-0.9,0-1.8,0.4-2.4,1l0,0c-0.6,0.6-1,1.5-1,2.4
	C52.6,49.2,53,50.1,53.6,50.7L53.6,50.7L53.6,50.7z M55.3,47.6L55.3,47.6L55.3,47.6c0.2-0.2,0.4-0.3,0.7-0.3c0.3,0,0.5,0.1,0.7,0.3
	h0c0.2,0.2,0.3,0.4,0.3,0.7c0,0.3-0.1,0.5-0.3,0.7c-0.2,0.2-0.4,0.3-0.7,0.3c-0.3,0-0.5-0.1-0.7-0.3c-0.2-0.2-0.3-0.4-0.3-0.7
	C55,48,55.1,47.8,55.3,47.6L55.3,47.6z M44.5,68.6L44.5,68.6c0.6,0.6,1.5,1,2.4,1c0.9,0,1.8-0.4,2.4-1h0c0.6-0.6,1-1.5,1-2.4
	c0-0.9-0.4-1.8-1-2.4l0,0c-0.6-0.6-1.5-1-2.4-1c-0.9,0-1.8,0.4-2.4,1l0,0c-0.6,0.6-1,1.4-1,2.4C43.5,67.1,43.9,68,44.5,68.6
	L44.5,68.6L44.5,68.6z M46.1,65.5L46.1,65.5L46.1,65.5c0.2-0.2,0.4-0.3,0.7-0.3c0.3,0,0.5,0.1,0.7,0.3v0c0.2,0.2,0.3,0.4,0.3,0.7
	c0,0.3-0.1,0.5-0.3,0.7v0c-0.2,0.2-0.4,0.3-0.7,0.3c-0.3,0-0.5-0.1-0.7-0.3v0c-0.2-0.2-0.3-0.4-0.3-0.7C45.9,65.9,46,65.7,46.1,65.5
	L46.1,65.5z M75.1,25.8L75.1,25.8H27.7c-1.1,0-2,0.9-2,2v47.4c0,1.1,0.9,2,2,2h47.4c1.1,0,2-0.9,2-2V27.7
	C77.1,26.6,76.2,25.8,75.1,25.8L75.1,25.8z M73.1,73.1L73.1,73.1H29.7V41.2h43.4V73.1L73.1,73.1z M73.1,38.9L73.1,38.9H29.7v-9.2
	h3.9v2.9c0,1.1,0.9,2,2,2s2-0.9,2-2v-2.9h6.6v2.9c0,1.1,0.9,2,2,2c1.1,0,2-0.9,2-2v-2.9h6.6v2.9c0,1.1,0.9,2,2,2c1.1,0,2-0.9,2-2
	v-2.9h6.6v2.9c0,1.1,0.9,2,2,2c1.1,0,2-0.9,2-2v-2.9h3.9V38.9L73.1,38.9z M53.6,68.6L53.6,68.6c0.6,0.6,1.4,1,2.4,1
	c0.9,0,1.8-0.4,2.4-1h0c0.6-0.6,1-1.5,1-2.4c0-0.9-0.4-1.8-1-2.4l0,0c-0.6-0.6-1.5-1-2.4-1c-0.9,0-1.8,0.4-2.4,1l0,0
	c-0.6,0.6-1,1.4-1,2.4C52.6,67.1,53,68,53.6,68.6L53.6,68.6L53.6,68.6z M55.3,65.5L55.3,65.5L55.3,65.5c0.2-0.2,0.4-0.3,0.7-0.3
	c0.3,0,0.5,0.1,0.7,0.3l0,0c0.2,0.2,0.3,0.4,0.3,0.7c0,0.3-0.1,0.5-0.3,0.7l0,0c-0.2,0.2-0.4,0.3-0.7,0.3c-0.3,0-0.5-0.1-0.7-0.3v0
	c-0.2-0.2-0.3-0.4-0.3-0.7C55,65.9,55.1,65.7,55.3,65.5L55.3,65.5z M35.4,59.6L35.4,59.6c0.6,0.6,1.5,1,2.4,1c0.9,0,1.8-0.4,2.4-1
	l0,0c0.6-0.6,1-1.5,1-2.4c0-0.9-0.4-1.8-1-2.4h0c-0.6-0.6-1.5-1-2.4-1c-0.9,0-1.8,0.4-2.4,1h0c-0.6,0.6-1,1.5-1,2.4
	C34.4,58.2,34.8,59,35.4,59.6L35.4,59.6L35.4,59.6z M37,56.6L37,56.6L37,56.6c0.2-0.2,0.4-0.3,0.7-0.3c0.3,0,0.5,0.1,0.7,0.3l0,0
	c0.2,0.2,0.3,0.4,0.3,0.7c0,0.3-0.1,0.5-0.3,0.7h0c-0.2,0.2-0.4,0.3-0.7,0.3c-0.3,0-0.5-0.1-0.7-0.3l0,0c-0.2-0.2-0.3-0.4-0.3-0.7
	C36.8,57,36.9,56.7,37,56.6L37,56.6z M35.4,68.6L35.4,68.6c0.6,0.6,1.5,1,2.4,1c0.9,0,1.8-0.4,2.4-1h0c0.6-0.6,1-1.5,1-2.4
	c0-0.9-0.4-1.8-1-2.4l0,0c-0.6-0.6-1.5-1-2.4-1c-0.9,0-1.8,0.4-2.4,1l0,0c-0.6,0.6-1,1.4-1,2.4C34.4,67.1,34.8,68,35.4,68.6
	L35.4,68.6L35.4,68.6z M37,65.5L37,65.5L37,65.5c0.2-0.2,0.4-0.3,0.7-0.3c0.3,0,0.5,0.1,0.7,0.3l0,0c0.2,0.2,0.3,0.4,0.3,0.7
	c0,0.3-0.1,0.5-0.3,0.7l0,0c-0.2,0.2-0.4,0.3-0.7,0.3c-0.3,0-0.5-0.1-0.7-0.3v0c-0.2-0.2-0.3-0.4-0.3-0.7
	C36.8,65.9,36.9,65.7,37,65.5L37,65.5z M53.6,59.6L53.6,59.6c0.6,0.6,1.4,1,2.4,1c0.9,0,1.8-0.4,2.4-1l0,0c0.6-0.6,1-1.5,1-2.4
	c0-0.9-0.4-1.8-1-2.4h0c-0.6-0.6-1.5-1-2.4-1c-0.9,0-1.8,0.4-2.4,1h0c-0.6,0.6-1,1.5-1,2.4C52.6,58.2,53,59,53.6,59.6L53.6,59.6
	L53.6,59.6z M55.3,56.6L55.3,56.6L55.3,56.6c0.2-0.2,0.4-0.3,0.7-0.3c0.3,0,0.5,0.1,0.7,0.3l0,0c0.2,0.2,0.3,0.4,0.3,0.7
	c0,0.3-0.1,0.5-0.3,0.7h0c-0.2,0.2-0.4,0.3-0.7,0.3c-0.3,0-0.5-0.1-0.7-0.3l0,0c-0.2-0.2-0.3-0.4-0.3-0.7C55,57,55.1,56.7,55.3,56.6
	L55.3,56.6z M62.7,59.6L62.7,59.6c0.6,0.6,1.4,1,2.4,1s1.8-0.4,2.4-1l0,0c0.6-0.6,1-1.5,1-2.4c0-0.9-0.4-1.8-1-2.4h0
	c-0.6-0.6-1.5-1-2.4-1s-1.8,0.4-2.4,1h0c-0.6,0.6-1,1.5-1,2.4C61.7,58.2,62.1,59,62.7,59.6L62.7,59.6L62.7,59.6z M64.4,56.6
	L64.4,56.6L64.4,56.6c0.2-0.2,0.4-0.3,0.7-0.3c0.3,0,0.5,0.1,0.7,0.3v0c0.2,0.2,0.3,0.4,0.3,0.7c0,0.3-0.1,0.5-0.3,0.7l0,0
	c-0.2,0.2-0.4,0.3-0.7,0.3c-0.3,0-0.5-0.1-0.7-0.3l0,0c-0.2-0.2-0.3-0.4-0.3-0.7C64.1,57,64.2,56.7,64.4,56.6L64.4,56.6z"/>
</svg>
