<?xml version="1.0" encoding="UTF-8" standalone="no"?>
<svg width="60px" height="60px" viewBox="0 0 60 60" version="1.1" xmlns="http://www.w3.org/2000/svg" xmlns:xlink="http://www.w3.org/1999/xlink" xmlns:sketch="http://www.bohemiancoding.com/sketch/ns">
    <!-- Generator: Sketch 3.3.2 (12043) - http://www.bohemiancoding.com/sketch -->
    <title>contacts</title>
    <desc>Created with Sketch.</desc>
    <defs></defs>
    <g id="Page-1" stroke="none" stroke-width="1" fill="none" fill-rule="evenodd" sketch:type="MSPage">
        <g id="contacts" sketch:type="MSLayerGroup">
            <path d="M30,58.75 L30,58.75 C45.8781866,58.75 58.75,45.8781866 58.75,30 C58.75,14.1218134 45.8781866,1.25 30,1.25 C14.1218134,1.25 1.25,14.1218134 1.25,30 C1.25,45.8781866 14.1218134,58.75 30,58.75 L30,58.75 Z M30,60 L30,60 C13.4314575,60 0,46.5685425 0,30 C0,13.4314575 13.4314575,0 30,0 C46.5685425,0 60,13.4314575 60,30 C60,46.5685425 46.5685425,60 30,60 L30,60 Z" id="Shape-Copy" fill-opacity="0.0107280344" fill="#FFFFFF" sketch:type="MSShapeGroup"></path>
            <path d="M49,13.7626459 L49,51.2023346 C49,52.229572 48.2227273,53 47.2727273,53 L17.7363636,53 C16.0954545,53 14.5409091,52.6575875 13.4181818,52.0583658 C11.95,51.2879377 11,50.1750973 11,48.8054475 L11,11 C11,9.54474708 11.95,8.71206226 13.4181818,7.94163424 C14.5409091,7.34241245 16.0954545,7 17.7363636,7 L45,7 C45.95,7 46.5,7.55836576 46.5,8.5 C46.5,9.44163424 45.95,10 45,10 L18,10 C16.8772727,10 15.5772728,10.1575875 14.8863637,10.5 L14,11 C14,11 14.6272728,11.3287938 14.8863637,11.5 C15.5772728,11.8424125 16.6136364,12.1361868 17.7363636,12.1361868 L47.2727273,12.1361868 C48.2227273,12.0505837 49,12.8210117 49,13.7626459 Z M17.0000001,14.8754864 C15.7909092,14.8754864 14.95,14.3424125 14,14 L14,48.5 C14,48.5 15.8772727,50 17,50 L46.0000006,49.9999981 L46.0000006,14.8754864 L17.0000001,14.8754864 Z M22.4863636,42.6692607 C22.4863636,43.2684825 22.0545455,43.6964981 21.45,43.6964981 C20.8454545,43.6964981 20.4136364,43.2684825 20.4136364,42.6692607 C20.4136364,41.1284047 21.0181818,39.9299611 21.9681818,39.1595331 C23.1772727,37.9610895 24.9045455,37.4474708 25.8545455,37.3618677 C26.0272727,37.3618677 26.1136364,37.2762646 26.2,37.1906615 L26.2863636,37.1050584 C25.5090909,36.4202335 25.1636364,35.5642023 24.9045455,34.8793774 C24.7318182,34.536965 24.6454545,34.2801556 24.6454545,34.1945525 C24.3,33.8521401 23.7818182,33.2529183 23.5227273,32.5680934 C23.2636364,31.8832685 23.1772727,31.1128405 23.5227273,30.4280156 C23.35,29.8287938 23.2636364,29.1439689 23.2636364,28.459144 C23.2636364,27.6031128 23.4363636,26.6614786 23.6954545,25.8054475 C24.1272727,24.6070039 24.8181818,23.6653696 25.7681818,23.0661479 C26.7181818,22.4669261 27.9272727,22.1245136 29.2227273,22.1245136 C29.7409091,22.1245136 30.3454545,22.1245136 31.0363636,22.2101167 C31.7272727,22.381323 32.5045455,22.6381323 32.9363636,23.2373541 C33.8,23.2373541 34.5772727,23.6653696 35.1818182,24.4357977 C35.9590909,25.2918288 36.4772727,26.5758755 36.5636364,27.2607004 C36.65,27.8599222 36.65,28.3735409 36.5636364,28.9727626 C36.4772727,29.4007782 36.3909091,29.9143969 36.3045455,30.3424125 C36.7363636,31.1128405 36.65,31.8832685 36.3909091,32.5680934 L36.3909091,32.6536965 C36.1318182,33.3385214 35.6136364,33.9377432 35.2681818,34.2801556 C35.1818182,34.3657588 35.0954545,34.6225681 35.0090909,34.9649805 C34.75,35.6498054 34.4045455,36.5058366 33.6272727,37.1906615 C33.6272727,37.1906615 33.6272727,37.2762646 33.7136364,37.2762646 C33.8,37.3618677 33.9727273,37.4474708 34.0590909,37.4474708 C35.0954545,37.5330739 36.7363636,38.0466926 38.0318182,39.2451362 C38.8954545,40.1011673 39.5863636,41.2140078 39.5863636,42.7548638 C39.5863636,43.3540856 39.1545455,43.7821012 38.55,43.7821012 C37.9454545,43.7821012 37.5136364,43.3540856 37.5136364,42.7548638 C37.5136364,41.8132296 37.1681818,41.1284047 36.65,40.7003891 C35.7863636,39.9299611 34.6636364,39.5875486 33.9727273,39.5019455 C33.3681818,39.4163424 32.7636364,39.1595331 32.3318182,38.7315175 C31.9,38.3035019 31.6409091,37.7042802 31.6409091,37.1050584 L31.6409091,36.7626459 C31.6409091,36.4202335 31.8136364,36.077821 32.1590909,35.9066148 C32.6772727,35.5642023 32.9363636,34.8793774 33.1954545,34.2801556 C33.4545455,33.766537 33.6272727,33.2529183 33.9727273,32.9105058 C34.1454545,32.7392996 34.4045455,32.3968872 34.5772727,32.0544747 L34.5772727,31.9688716 C34.6636364,31.7120623 34.6636364,31.540856 34.5772727,31.3696498 C34.4045455,31.1984436 34.3181818,31.0272374 34.3181818,30.770428 L34.3181818,30.6848249 L34.3181818,30.2568093 C34.4909091,29.7431907 34.5772727,29.3151751 34.6636364,28.8015564 C34.75,28.3735409 34.75,27.9455253 34.6636364,27.6031128 C34.5772727,27.0894942 34.2318182,26.3190661 33.7136364,25.7198444 C33.3681818,25.2918288 33.1090909,25.1206226 32.9363636,25.1206226 C32.5909091,25.2062257 32.2454545,25.1206226 31.9863636,24.9494163 C31.7272727,24.8638132 31.4681818,24.6070039 31.2954545,24.3501946 L31.2954545,24.2645914 C31.2090909,24.0933852 30.95,24.0077821 30.6045455,24.0077821 C30.1727273,23.922179 29.5681818,23.922179 29.2227273,23.922179 C28.2727273,23.922179 27.4954545,24.1789883 26.8045455,24.5214008 C26.2863636,24.8638132 25.8545455,25.463035 25.5954545,26.233463 C25.4227273,26.8326848 25.25,27.5175097 25.25,28.2023346 C25.25,28.8015564 25.3363636,29.4007782 25.5954545,29.9143969 C25.7681818,30.2568093 25.6818182,30.770428 25.4227273,31.0272374 C25.25,31.1984436 25.3363636,31.4552529 25.4227273,31.6264591 C25.5954545,31.9688716 25.8545455,32.311284 26.0272727,32.4824903 C26.4590909,32.8249027 26.6318182,33.3385214 26.8909091,33.9377432 C27.15,34.536965 27.4090909,35.2217899 27.9272727,35.5642023 C28.1863636,35.7354086 28.4454545,36.077821 28.4454545,36.4202335 L28.4454545,36.6770428 L28.4454545,36.7626459 C28.4454545,37.4474708 28.1863636,37.9610895 27.7545455,38.3891051 C27.3227273,38.8171206 26.7181818,39.07393 26.1136364,39.1595331 C25.4227273,39.2451362 24.2136364,39.5875486 23.4363636,40.3579767 C22.9181818,41.0428016 22.4863636,41.7276265 22.4863636,42.6692607 Z" id="Shape" fill="#000000" sketch:type="MSShapeGroup"></path>
        </g>
    </g>
</svg>