<?xml version="1.0" encoding="utf-8"?>
<!-- Generator: Adobe Illustrator 18.1.0, SVG Export Plug-In . SVG Version: 6.00 Build 0)  -->
<!DOCTYPE svg PUBLIC "-//W3C//DTD SVG 1.1//EN" "http://www.w3.org/Graphics/SVG/1.1/DTD/svg11.dtd">
<svg version="1.1" id="Layer_1" xmlns="http://www.w3.org/2000/svg" xmlns:xlink="http://www.w3.org/1999/xlink" x="0px" y="0px"
	 viewBox="0 0 100 100" enable-background="new 0 0 100 100" xml:space="preserve">
<path d="M62.1,35.4c-0.7,0-1.3-0.6-1.3-1.2c0-0.7,0.6-1.3,1.3-1.3h13.3c0.7,0,1.3,0.6,1.3,1.3c0,0.7-0.6,1.2-1.3,1.2H62.1L62.1,35.4
	z M42,61.2V25.9v-0.1c0-1.2,0.9-2.1,2.1-2.1c1.2,0,2.1,0.9,2.1,2.1v0c0,0.2,0.2,1.5,4.7,3c1.2,0.4,2.3,0.9,3.2,1.6l0,0
	c1,0.7,1.8,1.5,2.4,2.3c1.8,2.6,1.8,5.7,0.9,8.9c-1.1,3.7-3.6,7.4-6.1,10.1c-0.8,0.9-2.1,0.9-2.9,0.2c-0.9-0.8-0.9-2.1-0.2-2.9
	c2.1-2.3,4.3-5.5,5.2-8.5c0.6-2,0.7-3.9-0.3-5.3c-0.3-0.5-0.7-0.9-1.3-1.3h0h0c-0.6-0.4-1.3-0.8-2.2-1.1c-1.3-0.5-2.5-1-3.4-1.5
	v37.2l0,0.1c0,2.7-1.4,5.1-3.5,6.8c-4.4,3.5-11.4,3.5-15.9,0c-4.7-3.7-4.6-10.1,0-13.8C31,58.3,37.5,58.1,42,61.2L42,61.2z M40,64.9
	c-2.9-2.3-7.7-2.3-10.7,0c-2.6,2-2.6,5.3,0,7.3c2.9,2.3,7.7,2.3,10.7,0C42.6,70.1,42.6,66.9,40,64.9L40,64.9z M62.1,43.8
	c-0.7,0-1.3-0.6-1.3-1.3c0-0.7,0.6-1.3,1.3-1.3h13.3c0.7,0,1.3,0.6,1.3,1.3c0,0.7-0.6,1.3-1.3,1.3H62.1L62.1,43.8z M57.1,52.2
	c-0.7,0-1.3-0.6-1.3-1.2c0-0.7,0.6-1.3,1.3-1.3h18.3c0.7,0,1.3,0.6,1.3,1.3c0,0.7-0.6,1.2-1.3,1.2H57.1L57.1,52.2z M50.5,60.5
	c-0.7,0-1.3-0.6-1.3-1.3c0-0.7,0.6-1.3,1.3-1.3h25c0.7,0,1.3,0.6,1.3,1.3c0,0.7-0.6,1.3-1.3,1.3H50.5L50.5,60.5z M50.5,68.9
	c-0.7,0-1.3-0.6-1.3-1.2c0-0.7,0.6-1.3,1.3-1.3h25c0.7,0,1.3,0.6,1.3,1.3c0,0.7-0.6,1.2-1.3,1.2H50.5L50.5,68.9z"/>
</svg>
