<?xml version="1.0" encoding="UTF-8" standalone="no"?>
<svg width="60px" height="60px" viewBox="0 0 60 60" version="1.1" xmlns="http://www.w3.org/2000/svg" xmlns:xlink="http://www.w3.org/1999/xlink" xmlns:sketch="http://www.bohemiancoding.com/sketch/ns">
    <!-- Generator: Sketch 3.3.2 (12043) - http://www.bohemiancoding.com/sketch -->
    <title>cozic</title>
    <desc>Created with Sketch.</desc>
    <defs></defs>
    <g id="Page-1" stroke="none" stroke-width="1" fill="none" fill-rule="evenodd" sketch:type="MSPage">
        <g id="cozic" sketch:type="MSLayerGroup">
            <path d="M30,58.75 L30,58.75 C45.8781866,58.75 58.75,45.8781866 58.75,30 C58.75,14.1218134 45.8781866,1.25 30,1.25 C14.1218134,1.25 1.25,14.1218134 1.25,30 C1.25,45.8781866 14.1218134,58.75 30,58.75 L30,58.75 Z M30,60 L30,60 C13.4314575,60 0,46.5685425 0,30 C0,13.4314575 13.4314575,0 30,0 C46.5685425,0 60,13.4314575 60,30 C60,46.5685425 46.5685425,60 30,60 L30,60 Z" id="Shape-Copy" fill-opacity="0.0107280344" fill="#FFFFFF" sketch:type="MSShapeGroup"></path>
            <path d="M24,10.7008744 C23.9752769,9.69581224 24.6483301,9 25.5457343,9 C26.4431386,9 27.1161918,9.69581224 27.1161918,10.6235619 C27.1161918,10.7781868 27.2657591,11.783249 30.6310251,12.942936 C31.5284293,13.2521859 32.3510499,13.6387483 33.024103,14.1799356 C33.7719399,14.7211229 34.3702094,15.3396226 34.8189115,15.9581224 C36.1650179,17.9682467 36.1650179,20.3649333 35.4919647,22.8389324 C34.6693442,25.6994938 32.799752,28.5600552 30.9301598,30.6474919 C30.3318903,31.3433042 29.3597024,31.3433042 28.7614329,30.8021169 C28.0883797,30.1836171 28.0883797,29.178555 28.6118655,28.5600552 C30.1823229,26.7818684 31.827564,24.3078693 32.5006172,21.9884952 C32.9493193,20.4422457 33.024103,18.9733088 32.2762662,17.8909342 C32.0519151,17.5043718 31.7527804,17.195122 31.3040782,16.8858721 C30.8553761,16.5766222 30.3318903,16.2673723 29.6588371,16.0354349 C28.6866492,15.6488725 27.7892449,15.2623102 27,14.8757478 L27,43.6359871 C27.1161918,45.8007363 26.0692201,47.6562356 24.4987627,48.9705476 C21.2082805,51.6764841 15.9734224,51.6764841 12.6081565,48.9705476 C9.09332318,46.1099862 9.16810686,41.161988 12.6081565,38.3014266 C15.7490713,35.750115 20.610011,35.5954901 24,37.9921767 L24,10.7008744 Z M22.4796032,40.8527382 C20.3108762,39.0745513 16.7212593,39.0745513 14.4777486,40.8527382 C12.5333728,42.3989876 12.5333728,44.9502991 14.4777486,46.4965486 C16.6464756,48.2747354 20.2360925,48.2747354 22.4796032,46.4965486 C24.423979,44.8729867 24.423979,42.3989876 22.4796032,40.8527382 L22.4796032,40.8527382 L22.4796032,40.8527382 Z M38.9811321,19 C38.4528302,19 38,18.52 38,18.04 C38,17.48 38.4528302,17 38.9811321,17 L49.0188679,17 C49.5471698,17 50,17.48 50,18.04 C50,18.6 49.5471698,19 49.0188679,19 L38.9811321,19 L38.9811321,19 Z M38.9811321,25 C38.4528302,25 38,24.5384615 38,24 C38,23.4615385 38.4528302,23 38.9811321,23 L49.0188679,23 C49.5471698,23 50,23.4615385 50,24 C50,24.5384615 49.5471698,25 49.0188679,25 L38.9811321,25 L38.9811321,25 Z M35.9330144,31 C35.430622,31 35,30.52 35,30.04 C35,29.48 35.430622,29 35.9330144,29 L49.0669856,29 C49.569378,29 50,29.48 50,30.04 C50,30.6 49.569378,31 49.0669856,31 L35.9330144,31 L35.9330144,31 Z M30.942029,37 C30.4347826,37 30,36.5384615 30,36 C30,35.4615385 30.4347826,35 30.942029,35 L49.057971,35 C49.5652174,35 50,35.4615385 50,36 C50,36.5384615 49.5652174,37 49.057971,37 L30.942029,37 L30.942029,37 Z M30.942029,43 C30.4347826,43 30,42.52 30,42.04 C30,41.48 30.4347826,41 30.942029,41 L49.057971,41 C49.5652174,41 50,41.48 50,42.04 C50,42.6 49.5652174,43 49.057971,43 L30.942029,43 L30.942029,43 Z" id="Shape" fill="#000000" sketch:type="MSShapeGroup"></path>
        </g>
    </g>
</svg>