<?xml version="1.0" encoding="UTF-8" standalone="no"?>
<svg width="60px" height="60px" viewBox="0 0 60 60" version="1.1" xmlns="http://www.w3.org/2000/svg" xmlns:xlink="http://www.w3.org/1999/xlink" xmlns:sketch="http://www.bohemiancoding.com/sketch/ns">
    <!-- Generator: Sketch 3.3.2 (12043) - http://www.bohemiancoding.com/sketch -->
    <title>emails</title>
    <desc>Created with Sketch.</desc>
    <defs></defs>
    <g id="Page-1" stroke="none" stroke-width="1" fill="none" fill-rule="evenodd" sketch:type="MSPage">
        <g id="emails" sketch:type="MSLayerGroup">
            <path d="M30,58.75 L30,58.75 C45.8781866,58.75 58.75,45.8781866 58.75,30 C58.75,14.1218134 45.8781866,1.25 30,1.25 C14.1218134,1.25 1.25,14.1218134 1.25,30 C1.25,45.8781866 14.1218134,58.75 30,58.75 L30,58.75 Z M30,60 L30,60 C13.4314575,60 0,46.5685425 0,30 C0,13.4314575 13.4314575,0 30,0 C46.5685425,0 60,13.4314575 60,30 C60,46.5685425 46.5685425,60 30,60 L30,60 Z" id="Shape" fill-opacity="0.0107280344" fill="#FFFFFF" sketch:type="MSShapeGroup"></path>
            <path d="M50.8356164,21.607052 L51,21.7715743 L51,21.9360965 L51,47.2725168 C51,48.2596501 50.260274,49 49.2739726,49 L10.7260274,49 C9.73972603,49 9,48.2596501 9,47.2725168 L9,22.8409686 C9,22.2651409 9.24657534,21.7715743 9.73972603,21.4425298 L12,19 L12,12 C12,11.4241723 12.4246575,11 13,11 L23,11 C23.0821918,10.9177389 29.1369863,5.40161437 29.1369863,5.40161437 C29.7945205,4.90804774 30.6986301,4.82578664 31.3561644,5.40161437 C31.3561644,5.40161437 36.9178082,10.8354778 37,11 L47,11 C47.5753425,11 48,11.4241723 48,12 L48,19 L50.6712329,21.4425298 C50.7534247,21.5247909 50.8356164,21.5247909 50.8356164,21.607052 Z M14,24 L30.0410959,37.3189231 L30.369863,37.3189231 L46,24 L46,13 L14,13 L14,24 Z M12,45.9999992 L48.0410975,45.9999992 L48.0410959,25.5 C42.5342466,30.0799459 36.9452055,34.6043066 31.4383562,39.1286674 C31.2739726,39.2931896 31.0273973,39.3754507 30.7808219,39.3754507 L29.7123288,39.3754507 C29.4657534,39.3754507 29.2191781,39.2931896 29.0547945,39.1286674 C23.4657534,34.6043066 17.5068493,30.0799459 12,25.5 L12,45.9999992 Z M27.9863014,10.9131084 L27.9863014,10.9131084 L32.4246575,10.9131084 L30.2054795,9.1033641 L27.9863014,10.9131084 L27.9863014,10.9131084 Z" id="Shape" fill="#000000" sketch:type="MSShapeGroup"></path>
        </g>
    </g>
</svg>