<?xml version="1.0" encoding="UTF-8" standalone="no"?>
<svg width="60px" height="60px" viewBox="0 0 60 60" version="1.1" xmlns="http://www.w3.org/2000/svg" xmlns:xlink="http://www.w3.org/1999/xlink" xmlns:sketch="http://www.bohemiancoding.com/sketch/ns">
    <!-- Generator: Sketch 3.3.2 (12043) - http://www.bohemiancoding.com/sketch -->
    <title>feed</title>
    <desc>Created with Sketch.</desc>
    <defs></defs>
    <g id="Page-1" stroke="none" stroke-width="1" fill="none" fill-rule="evenodd" sketch:type="MSPage">
        <g id="feed" sketch:type="MSLayerGroup">
            <path d="M30,58.75 L30,58.75 C45.8781866,58.75 58.75,45.8781866 58.75,30 C58.75,14.1218134 45.8781866,1.25 30,1.25 C14.1218134,1.25 1.25,14.1218134 1.25,30 C1.25,45.8781866 14.1218134,58.75 30,58.75 L30,58.75 Z M30,60 L30,60 C13.4314575,60 0,46.5685425 0,30 C0,13.4314575 13.4314575,0 30,0 C46.5685425,0 60,13.4314575 60,30 C60,46.5685425 46.5685425,60 30,60 L30,60 Z" id="Shape-Copy" fill-opacity="0.0107280344" fill="#FFFFFF" sketch:type="MSShapeGroup"></path>
            <path d="M9.51434034,49.3878788 C8.58891013,48.4545455 8,47.0969697 8,45.6545455 L8,20.030303 C8,19.0969697 9.07456979,18 10,18 L15.0669217,18 L15.0669216,10.6969697 C15.0669216,9.76363636 15.8240918,9 16.749522,9 L50.3173996,9 C51.2428298,9 52,9.76363636 52,10.6969697 L52,45.7393939 C52,47.1818182 51.4110899,48.5393939 50.4856597,49.4727273 C49.5602294,50.4060606 48.2141491,51 46.7839388,51 L13.2160612,51 C11.7858509,50.9151515 10.4397706,50.3212121 9.51434034,49.3878788 Z M49.0000003,12 L18,12 C18.0956023,23.1151515 18.0956023,34.5393953 18,45.5 C18.0956023,46.2484862 17.7523901,47.4060606 17.5,48 L47,48 C47.5047801,48 48.1634799,47.8393939 48.5,47.5 C48.8365201,47.1606061 49,46.5939394 49,46 L49.0000003,12 Z M21.6290631,44.6363636 C21.040153,44.6363636 20.6195029,44.2121212 20.6195029,43.6181818 C20.6195029,43.0242424 21.040153,42.6 21.6290631,42.6 L45.6902486,42.6 C46.2791587,42.6 46.6998088,43.1090909 46.6998088,43.6181818 C46.6998088,44.2121212 46.2791587,44.6363636 45.6902486,44.6363636 L21.6290631,44.6363636 L21.6290631,44.6363636 Z M21.6290631,14.769697 C21.040153,14.769697 20.6195029,15.1939394 20.6195029,15.7878788 L20.6195029,15.7878788 L20.6195029,23 C20.6195029,23.5939394 21.040153,24.0181818 21.6290631,24.0181818 L21.6290631,24.0181818 L45.6061185,24.0181818 C46.1950287,24.0181818 46.6156788,23.5939394 46.6156788,23 L46.6156788,15.7878788 C46.6156788,15.1939394 46.1950287,14.769697 45.6061185,14.769697 L21.6290631,14.769697 L21.6290631,14.769697 Z M22.6386233,21.9818182 L22.6386233,16.8060606 L44.5965583,16.8060606 L44.5965583,21.9818182 L22.6386233,21.9818182 L22.6386233,21.9818182 Z M15.0669217,21 L11,21 L11,45.6545448 C11,48.0303024 15.0669216,48.1151515 15.0669216,45.6545455 L15.0669216,21.7272727 L15.0669217,21 Z M34.7533461,26.1393939 L34.7533461,26.1393939 L45.6061185,26.1393939 C46.1950287,26.1393939 46.6156788,26.5636364 46.6156788,27.1575758 L46.6156788,27.1575758 L46.6156788,32.5878788 C46.6156788,33.1818182 46.1950287,33.6060606 45.6061185,33.6060606 L45.6061185,33.6060606 L34.7533461,33.6060606 C34.1644359,33.6060606 33.7437859,33.1818182 33.7437859,32.5878788 L33.7437859,32.5878788 L33.7437859,27.1575758 C33.7437859,26.5636364 34.1644359,26.1393939 34.7533461,26.1393939 L34.7533461,26.1393939 L34.7533461,26.1393939 Z M44.5965583,28.1757576 L35.7629063,28.1757576 L35.7629063,31.569697 L44.5965583,31.569697 L44.5965583,28.1757576 L44.5965583,28.1757576 Z M21.6290631,28.1757576 C21.040153,28.1757576 20.6195029,27.7515152 20.6195029,27.1575758 C20.6195029,26.5636364 21.040153,26.1393939 21.6290631,26.1393939 L31.5564054,26.1393939 C32.1453155,26.1393939 32.5659656,26.6484848 32.5659656,27.1575758 C32.5659656,27.7515152 32.1453155,28.1757576 31.5564054,28.1757576 L21.6290631,28.1757576 L21.6290631,28.1757576 Z M21.6290631,33.6909091 C21.040153,33.6909091 20.6195029,33.2666667 20.6195029,32.6727273 C20.6195029,32.0787879 21.040153,31.6545455 21.6290631,31.6545455 L31.5564054,31.6545455 C32.1453155,31.6545455 32.5659656,32.0787879 32.5659656,32.6727273 C32.5659656,33.2666667 32.1453155,33.6909091 31.5564054,33.6909091 L21.6290631,33.6909091 L21.6290631,33.6909091 Z M21.6290631,39.1212121 C21.040153,39.1212121 20.6195029,38.6121212 20.6195029,38.1030303 C20.6195029,37.5090909 21.040153,37.0848485 21.6290631,37.0848485 L45.6902486,37.0848485 C46.2791587,37.0848485 46.6998088,37.5090909 46.6998088,38.1030303 C46.6998088,38.6969697 46.2791587,39.1212121 45.6902486,39.1212121 L21.6290631,39.1212121 L21.6290631,39.1212121 Z" id="Shape" fill="#000000" sketch:type="MSShapeGroup"></path>
        </g>
    </g>
</svg>