<svg width="60" height="60" viewBox="0 0 60 60" xmlns="http://www.w3.org/2000/svg" xmlns:sketch="http://www.bohemiancoding.com/sketch/ns"><title>feed</title><desc>Created with Sketch.</desc><g sketch:type="MSLayerGroup" fill="none"><path d="M30 58.75c15.878 0 28.75-12.872 28.75-28.75s-12.872-28.75-28.75-28.75-28.75 12.872-28.75 28.75 12.872 28.75 28.75 28.75zm0 1.25c-16.569 0-30-13.431-30-30 0-16.569 13.431-30 30-30 16.569 0 30 13.431 30 30 0 16.569-13.431 30-30 30z" fill-opacity=".011" fill="#fff" sketch:type="MSShapeGroup"/><path d="M9.514 49.388c-.925-.933-1.514-2.291-1.514-3.733v-25.624c0-.933 1.075-2.03 2-2.03h5.067v-7.303c0-.933.757-1.697 1.683-1.697h33.568c.925 0 1.683.764 1.683 1.697v35.042c0 1.442-.589 2.8-1.514 3.733-.925.933-2.272 1.527-3.702 1.527h-33.568c-1.43-.085-2.776-.679-3.702-1.612zm39.486-37.388h-31c.096 11.115.096 22.539 0 33.5.096.748-.248 1.906-.5 2.5h29.5c.505 0 1.163-.161 1.5-.5.337-.339.5-.906.5-1.5v-34zm-27.371 32.636c-.589 0-1.01-.424-1.01-1.018 0-.594.421-1.018 1.01-1.018h24.061c.589 0 1.01.509 1.01 1.018 0 .594-.421 1.018-1.01 1.018h-24.061zm0-29.867c-.589 0-1.01.424-1.01 1.018v7.212c0 .594.421 1.018 1.01 1.018h23.977c.589 0 1.01-.424 1.01-1.018v-7.212c0-.594-.421-1.018-1.01-1.018h-23.977zm1.01 7.212v-5.176h21.958v5.176h-21.958zm-7.572-.982h-4.067v24.655c0 2.376 4.067 2.461 4.067 0v-24.654zm19.686 5.139h10.853c.589 0 1.01.424 1.01 1.018v5.43c0 .594-.421 1.018-1.01 1.018h-10.853c-.589 0-1.01-.424-1.01-1.018v-5.43c0-.594.421-1.018 1.01-1.018zm9.843 2.036h-8.834v3.394h8.834v-3.394zm-22.967 0c-.589 0-1.01-.424-1.01-1.018 0-.594.421-1.018 1.01-1.018h9.927c.589 0 1.01.509 1.01 1.018 0 .594-.421 1.018-1.01 1.018h-9.927zm0 5.515c-.589 0-1.01-.424-1.01-1.018 0-.594.421-1.018 1.01-1.018h9.927c.589 0 1.01.424 1.01 1.018 0 .594-.421 1.018-1.01 1.018h-9.927zm0 5.43c-.589 0-1.01-.509-1.01-1.018 0-.594.421-1.018 1.01-1.018h24.061c.589 0 1.01.424 1.01 1.018 0 .594-.421 1.018-1.01 1.018h-24.061z" fill="#000" sketch:type="MSShapeGroup"/></g></svg>