<?xml version="1.0" encoding="UTF-8" standalone="no"?>
<svg
   xmlns:dc="http://purl.org/dc/elements/1.1/"
   xmlns:cc="http://creativecommons.org/ns#"
   xmlns:rdf="http://www.w3.org/1999/02/22-rdf-syntax-ns#"
   xmlns:svg="http://www.w3.org/2000/svg"
   xmlns="http://www.w3.org/2000/svg"
   xmlns:sodipodi="http://sodipodi.sourceforge.net/DTD/sodipodi-0.dtd"
   xmlns:inkscape="http://www.inkscape.org/namespaces/inkscape"
   version="1.1"
   x="0px"
   y="0px"
   viewBox="0 0 60 60"
   enable-background="new 0 0 100 100"
   xml:space="preserve"
   id="svg2"
   inkscape:version="0.48.4 r9939"
   width="100%"
   height="100%"
   sodipodi:docname="frost.svg"><metadata
     id="metadata10"><rdf:RDF><cc:Work
         rdf:about=""><dc:format>image/svg+xml</dc:format><dc:type
           rdf:resource="http://purl.org/dc/dcmitype/StillImage" /></cc:Work></rdf:RDF></metadata><defs
     id="defs8" /><sodipodi:namedview
     pagecolor="#ffffff"
     bordercolor="#666666"
     borderopacity="1"
     objecttolerance="10"
     gridtolerance="10"
     guidetolerance="10"
     inkscape:pageopacity="0"
     inkscape:pageshadow="2"
     inkscape:window-width="640"
     inkscape:window-height="480"
     id="namedview6"
     showgrid="false"
     inkscape:zoom="1.888"
     inkscape:cx="50"
     inkscape:cy="62.5"
     inkscape:window-x="0"
     inkscape:window-y="23"
     inkscape:window-maximized="0"
     inkscape:current-layer="svg2" /><path
     d="m 49.94508,31.041568 h 4.84468 c 0.375758,0 0.68072,-0.304962 0.68072,-0.68072 0,-0.375757 -0.304962,-0.680719 -0.68072,-0.680719 h -4.84468 l 5.985566,-5.985566 c 0.266162,-0.266161 0.266162,-0.696376 0,-0.962537 -0.266161,-0.266161 -0.696376,-0.266161 -0.962537,0 l -6.948103,6.948103 h -2.159242 l 5.985566,-5.985566 c 0.266161,-0.266161 0.266161,-0.696376 0,-0.962537 -0.266162,-0.266161 -0.696376,-0.266161 -0.962538,0 l -6.948103,6.948103 h -2.159242 l 5.985566,-5.985566 c 0.266162,-0.266161 0.266162,-0.696376 0,-0.962537 -0.266161,-0.266161 -0.696376,-0.266161 -0.962537,0 l -6.948103,6.948103 h -8.504908 l 11.57223,-11.57223 h 9.828907 c 0.375757,0 0.68072,-0.304962 0.68072,-0.680719 0,-0.375758 -0.304963,-0.68072 -0.68072,-0.68072 h -8.467469 l 3.854915,-3.854914 c 0.266161,-0.266161 0.266161,-0.696376 0,-0.962537 -0.266162,-0.266161 -0.696376,-0.266161 -0.962538,0 l -3.95498,3.954299 V 7.2163878 c 0,-0.375757 -0.304962,-0.680719 -0.680719,-0.680719 -0.375757,0 -0.680719,0.304962 -0.680719,0.680719 V 17.244747 l -11.57223,11.57223 v -8.555282 l 6.948103,-6.948103 c 0.266161,-0.266161 0.266161,-0.696376 0,-0.962537 -0.266162,-0.266161 -0.696376,-0.266161 -0.962538,0 l -5.985565,5.985566 v -2.159242 l 6.948103,-6.9481032 c 0.266161,-0.266162 0.266161,-0.696376 0,-0.962538 -0.266162,-0.266161 -0.696376,-0.266161 -0.962538,0 l -5.985565,5.9855662 v -2.159242 l 6.948103,-6.9481032 c 0.266161,-0.266161 0.266161,-0.696376 0,-0.962537 -0.266162,-0.266161 -0.696376,-0.266161 -0.962538,0 L 30.283862,10.167988 V 5.1742298 c 0,-0.375757 -0.304963,-0.680719 -0.68072,-0.680719 -0.375757,0 -0.680719,0.304962 -0.680719,0.680719 V 10.167988 L 22.936857,4.1824218 c -0.266161,-0.266161 -0.696376,-0.266161 -0.962537,0 -0.266162,0.266161 -0.266162,0.696376 0,0.962537 l 6.948103,6.9481032 v 2.159242 L 22.936857,8.2667378 c -0.266161,-0.266161 -0.696376,-0.266161 -0.962537,0 -0.266162,0.266162 -0.266162,0.696376 0,0.962538 l 6.948103,6.9481032 v 2.159242 l -5.985566,-5.985566 c -0.266161,-0.266161 -0.696376,-0.266161 -0.962537,0 -0.266162,0.266161 -0.266162,0.696376 0,0.962537 l 6.948103,6.948103 v 8.655348 L 17.350193,17.344813 V 7.2163878 c 0,-0.375757 -0.304963,-0.680719 -0.68072,-0.680719 -0.375757,0 -0.680719,0.304962 -0.680719,0.680719 v 8.7669862 l -4.054365,-4.054365 c -0.266161,-0.266161 -0.696376,-0.266161 -0.962537,0 -0.266162,0.266161 -0.266162,0.696376 0,0.962537 l 3.854914,3.854914 H 6.4586817 c -0.375757,0 -0.680719,0.304962 -0.680719,0.68072 0,0.375757 0.304962,0.680719 0.680719,0.680719 h 9.7295233 l 11.57223,11.57223 h -7.767009 l -6.948103,-6.948103 c -0.266161,-0.266161 -0.696376,-0.266161 -0.962537,0 -0.266161,0.266161 -0.266161,0.696376 0,0.962537 l 5.985566,5.985566 H 15.90911 L 8.961007,22.732026 c -0.266162,-0.266161 -0.696376,-0.266161 -0.9625383,0 -0.266161,0.266161 -0.266161,0.696376 0,0.962537 l 5.9855663,5.985566 H 11.824793 L 4.8766897,22.732026 c -0.266161,-0.266161 -0.696376,-0.266161 -0.962537,0 -0.266161,0.266161 -0.266161,0.696376 0,0.962537 L 9.899719,29.680129 H 3.7358037 c -0.375757,0 -0.680719,0.304962 -0.680719,0.680719 0,0.375758 0.304962,0.68072 0.680719,0.68072 H 9.899719 l -5.9855663,5.985566 c -0.266161,0.266161 -0.266161,0.696376 0,0.962537 0.13274,0.13274 0.307004,0.199451 0.481269,0.199451 0.174264,0 0.348528,-0.06671 0.481268,-0.199451 l 6.9481033,-6.948103 h 2.159242 l -5.9855663,5.985566 c -0.266161,0.266161 -0.266161,0.696376 0,0.962537 0.1327413,0.13274 0.3070053,0.199451 0.4812693,0.199451 0.174264,0 0.348528,-0.06671 0.481269,-0.199451 l 6.948103,-6.948103 h 2.159242 l -5.985566,5.985566 c -0.266161,0.266161 -0.266161,0.696376 0,0.962537 0.13274,0.13274 0.307004,0.199451 0.481269,0.199451 0.174264,0 0.348528,-0.06671 0.481268,-0.199451 l 6.948103,-6.948103 h 8.066525 l -11.57223,11.57223 H 6.4586817 c -0.375757,0 -0.680719,0.304962 -0.680719,0.680719 0,0.375757 0.304962,0.68072 0.680719,0.68072 h 8.6669203 l -4.054365,4.054364 c -0.266161,0.266162 -0.266161,0.696376 0,0.962538 0.13274,0.13274 0.307004,0.199451 0.481268,0.199451 0.174265,0 0.348529,-0.06671 0.481269,-0.199451 l 3.95498,-3.95498 v 8.468149 c 0,0.375758 0.304962,0.68072 0.680719,0.68072 0.375757,0 0.68072,-0.304962 0.68072,-0.68072 v -9.828907 l 11.57223,-11.57223 v 8.015471 l -6.948103,6.948103 c -0.266162,0.266161 -0.266162,0.696376 0,0.962537 0.13274,0.13274 0.307004,0.199451 0.481268,0.199451 0.174264,0 0.348529,-0.06671 0.481269,-0.199451 l 5.985566,-5.985565 v 2.159242 l -6.948103,6.948102 c -0.266162,0.266162 -0.266162,0.696376 0,0.962538 0.13274,0.13274 0.307004,0.19945 0.481268,0.19945 0.174264,0 0.348529,-0.06671 0.481269,-0.19945 l 5.985566,-5.985566 v 2.159242 l -6.948103,6.948103 c -0.266162,0.266161 -0.266162,0.696376 0,0.962537 0.13274,0.13274 0.307004,0.199451 0.481268,0.199451 0.174264,0 0.348529,-0.06671 0.481269,-0.199451 l 5.985566,-5.985566 v 6.014837 c 0,0.375757 0.304962,0.680719 0.680719,0.680719 0.375757,0 0.68072,-0.304962 0.68072,-0.680719 v -6.014837 l 5.985565,5.985566 c 0.132741,0.13274 0.307005,0.199451 0.481269,0.199451 0.174264,0 0.348528,-0.06671 0.481269,-0.199451 0.266161,-0.266161 0.266161,-0.696376 0,-0.962537 l -6.948103,-6.948103 v -2.159242 l 5.985565,5.985566 c 0.132741,0.13274 0.307005,0.19945 0.481269,0.19945 0.174264,0 0.348528,-0.06671 0.481269,-0.19945 0.266161,-0.266162 0.266161,-0.696376 0,-0.962538 l -6.948103,-6.948102 v -2.159242 l 5.985565,5.985565 c 0.132741,0.13274 0.307005,0.199451 0.481269,0.199451 0.174264,0 0.348528,-0.06671 0.481269,-0.199451 0.266161,-0.266161 0.266161,-0.696376 0,-0.962537 l -6.948103,-6.948103 v -7.916086 l 11.57223,11.57223 v 9.729522 c 0,0.375758 0.304962,0.68072 0.680719,0.68072 0.375757,0 0.680719,-0.304962 0.680719,-0.68072 v -8.368083 l 3.854914,3.854914 c 0.132741,0.13274 0.307005,0.199451 0.481269,0.199451 0.174264,0 0.348528,-0.06671 0.481269,-0.199451 0.266161,-0.266162 0.266161,-0.696376 0,-0.962538 l -4.054365,-4.054364 h 8.766985 c 0.375757,0 0.68072,-0.304963 0.68072,-0.68072 0,-0.375757 -0.304963,-0.680719 -0.68072,-0.680719 H 42.619178 l -11.57223,-11.57223 h 8.804425 l 6.948103,6.948103 c 0.13274,0.13274 0.307004,0.199451 0.481269,0.199451 0.174264,0 0.348528,-0.06671 0.481268,-0.199451 0.266162,-0.266161 0.266162,-0.696376 0,-0.962537 l -5.985566,-5.985566 h 2.159242 l 6.948103,6.948103 c 0.132741,0.13274 0.307005,0.199451 0.481269,0.199451 0.174264,0 0.348528,-0.06671 0.481269,-0.199451 0.266161,-0.266161 0.266161,-0.696376 0,-0.962537 l -5.985566,-5.985566 h 2.159242 l 6.948103,6.948103 c 0.13274,0.13274 0.307004,0.199451 0.481269,0.199451 0.174264,0 0.348528,-0.06671 0.481268,-0.199451 0.266162,-0.266161 0.266162,-0.696376 0,-0.962537 L 49.94508,31.041568 z"
     id="path4"
     inkscape:connector-curvature="0" /></svg>