<?xml version="1.0" encoding="UTF-8" standalone="no"?>
<svg width="60px" height="60px" viewBox="0 0 60 60" version="1.1" xmlns="http://www.w3.org/2000/svg" xmlns:xlink="http://www.w3.org/1999/xlink" xmlns:sketch="http://www.bohemiancoding.com/sketch/ns">
    <!-- Generator: Sketch 3.3.2 (12043) - http://www.bohemiancoding.com/sketch -->
    <title>ghost</title>
    <desc>Created with Sketch.</desc>
    <defs></defs>
    <g id="Page-1" stroke="none" stroke-width="1" fill="none" fill-rule="evenodd" sketch:type="MSPage">
        <g id="ghost" sketch:type="MSLayerGroup">
            <path d="M30,58.75 L30,58.75 C45.8781866,58.75 58.75,45.8781866 58.75,30 C58.75,14.1218134 45.8781866,1.25 30,1.25 C14.1218134,1.25 1.25,14.1218134 1.25,30 C1.25,45.8781866 14.1218134,58.75 30,58.75 L30,58.75 Z M30,60 L30,60 C13.4314575,60 0,46.5685425 0,30 C0,13.4314575 13.4314575,0 30,0 C46.5685425,0 60,13.4314575 60,30 C60,46.5685425 46.5685425,60 30,60 L30,60 Z" id="Shape-Copy" fill-opacity="0.0107280344" fill="#FFFFFF" sketch:type="MSShapeGroup"></path>
            <path d="M20.0060545,24.9997981 L28.0037841,24.9997981 L28.0037841,29 L20.0060545,29 L20.0060545,24.9997981 Z M32.0022704,24.9997981 L39.9949546,24.9997981 L39.9949546,29 L32.0022704,29 L32.0022704,24.9997981 Z M20,16.9996467 L39.9974773,16.9996467 L39.9974773,20.9998486 L20,20.9998486 L20,16.9996467 Z M20.0060545,9 L32.0037841,9 L32.0037841,12.9999495 L20.0060545,12.9999495 L20.0060545,9 Z M36.0012614,9 L40,9 L40,12.9999495 L36.0012614,12.9999495 L36.0012614,9 Z M18.4060479,38.2121123 C18.4060479,38.0117203 18.2348392,37.8970471 18.0715272,37.9157016 C17.3494981,37.9984448 16.8343844,38.3382299 16.5011226,38.6545539 C15.8467301,38.1418435 14.9383857,37.8970471 13.918916,37.8970471 C11.8749409,37.8970471 10.2779852,38.883557 10.2779852,41.0346519 C10.2779852,42.2695058 10.8036278,43.1203992 11.6383845,43.6213219 C11.0184398,43.914757 10.6055248,44.5374484 10.6055248,45.149611 C10.6055248,46.1736585 11.4145315,46.4943314 11.4145315,46.4943314 C11.4145315,46.4943314 10,47.1808827 10,48.5544432 C10,50.3127653 11.6181279,51.0236932 13.5953819,51.0236932 C16.4455026,51.0236932 18.4063912,49.8465192 18.4063912,47.6850099 C18.4063912,46.3547094 17.3884092,45.6203203 15.170021,45.5329993 C13.8535683,45.4810416 13.0008438,45.4336617 12.7895797,45.3637362 C12.51045,45.2710364 12.3732313,45.0475266 12.3732313,44.8007847 C12.3732313,44.5284073 12.5969699,44.2690766 12.9496872,44.0910012 C13.2573135,44.1454767 13.581992,44.1723711 13.9191449,44.1723711 C15.9648366,44.1723711 17.5601901,43.1887224 17.5601901,41.0347664 C17.5601901,40.5124426 17.465888,40.0590143 17.2944504,39.6716204 C17.5949811,39.5112839 17.9647507,39.3984418 18.4062767,39.3984418 C18.4060479,39.3984418 18.4060479,38.3948798 18.4060479,38.2121123 Z M12.7732141,46.9930796 C12.7732141,46.9930796 13.8465872,47.0337074 14.9191591,47.0833762 C16.1241431,47.1391106 16.4996348,47.3987847 16.4996348,48.022735 C16.4996348,48.7850484 15.4524695,49.526533 13.9890703,49.526533 C12.5999455,49.526533 11.9060697,49.0432347 11.9060697,48.2385769 C11.9060697,47.7769086 12.1498361,47.2604215 12.7732141,46.9930796 L12.7732141,46.9930796 Z M13.9228071,42.670862 C12.9544939,42.670862 12.1990471,42.1565493 12.1990471,41.0346519 C12.1990471,39.9126401 12.9551806,39.3983274 13.9228071,39.3983274 C14.890548,39.3983274 15.646567,39.9112667 15.646567,41.0346519 C15.646567,42.1580371 14.8914636,42.670862 13.9228071,42.670862 Z M19.2464148,46.9819786 L19.2464148,34.2582908 C19.2464148,34.2582908 20.9246259,34.0199033 21.0547491,34.0023934 C21.2021534,33.9824801 21.3978531,34.0874255 21.3978531,34.294913 L21.3978531,39.0116201 C21.7461071,38.6805328 22.1296099,38.4136487 22.5475605,38.2102812 C22.9658544,38.0071426 23.4563626,37.9054016 24.0198863,37.9054016 C24.5077624,37.9054016 24.9400185,37.9881448 25.3174557,38.1537457 C25.6951219,38.3190033 26.0101871,38.5515541 26.2627656,38.8503681 C26.5153442,39.1496399 26.7070384,39.5067061 26.8377337,39.92191 C26.9683147,40.3371139 27.0336624,40.7944333 27.0336624,41.2938682 L27.0336624,46.9818641 L24.8821096,46.9818641 L24.8821096,41.2938682 C24.8821096,40.7480834 24.7557631,40.3255551 24.5031846,40.0262832 C24.2504916,39.7273547 23.8715665,39.5777761 23.3661805,39.5777761 C22.9945799,39.5777761 22.6463259,39.6620071 22.3213041,39.8305835 C21.995939,39.9990455 21.6881983,40.228163 21.3978531,40.518737 L21.3978531,46.9819786 L19.2464148,46.9819786 L19.2464148,46.9819786 Z M32.2920344,37.9012816 C29.3785115,37.9012816 27.8737979,39.9616222 27.8737979,42.5032011 C27.8737979,45.0448944 29.3414316,47.1054639 32.2920344,47.1054639 C35.2426372,47.1054639 36.7102708,45.0448944 36.7102708,42.5032011 C36.7103852,39.9616222 35.2054428,37.9012816 32.2920344,37.9012816 Z M34.4962315,42.5114411 C34.4941715,44.1458201 33.9434655,45.4695972 32.2920344,45.4695972 C30.6406032,45.4695972 30.0897828,44.1459345 30.0880661,42.5114411 L30.0880661,42.5074355 L30.0880661,42.5033155 C30.0897828,40.869051 30.6407176,39.5453883 32.2921488,39.5453883 C33.9434655,39.5453883 34.4941715,40.869051 34.4962315,42.5033155 L34.4962315,42.5074355 C34.4962315,42.5088089 34.4962315,42.5100678 34.4962315,42.5114411 Z M42.7103562,39.899479 C42.2910323,39.7632903 41.5028545,39.5452739 40.7531299,39.5452739 C39.9892143,39.5452739 39.3881528,39.8091824 39.3881528,40.4443482 C39.3881528,41.2376761 40.6835478,41.4686247 41.5702622,41.7920443 C42.1630836,42.0082295 43.7528293,42.4297279 43.7528293,44.1395256 C43.7528293,46.2164607 42.0280394,47.1044339 40.1881184,47.1044339 C38.3479686,47.1044339 37.2608623,46.4200571 37.2608623,46.4200571 C37.2608623,46.4200571 37.5462864,45.4118028 37.6040807,45.2127842 C37.6563818,45.0336789 37.8645559,44.970849 37.9971969,45.0217767 C38.4707674,45.2043153 39.3258951,45.4580383 40.2924916,45.4580383 C41.2711048,45.4580383 41.7445608,45.1592243 41.7445608,44.5222273 C41.7445608,43.674424 40.4230726,43.4153221 39.5490615,43.1396258 C38.9469701,42.9498772 37.3533333,42.5073211 37.3533333,40.6268869 C37.3533333,38.7744915 38.97993,37.9054016 40.7183389,37.9054016 C42.1898636,37.9054016 42.9116638,38.2131423 43.4508108,38.4878086 C43.4508108,38.4878086 43.1503945,39.5348594 43.1057613,39.690847 C43.0531169,39.8762468 42.9010204,39.9612789 42.7103562,39.899479 Z M47.9697582,47.1045484 C46.4891924,47.1045484 45.561278,46.2428973 45.561278,44.6354127 L45.561278,39.8713257 L43.8926802,39.8713257 C43.8926802,39.8713257 44.2473431,38.6447117 44.275382,38.5481207 C44.3035353,38.4516442 44.376894,38.3479577 44.5241839,38.3274721 C44.6714737,38.3069866 45.5592181,38.1831579 45.5592181,38.1831579 L45.969272,35.5745146 C45.969272,35.5745146 47.174027,35.4046793 47.3650346,35.3761827 C47.5453988,35.3491738 47.7089397,35.4790681 47.7089397,35.675569 L47.7089397,38.1831579 L49.8192925,38.1831579 L49.8192925,39.8713257 L47.7089397,39.8713257 L47.7089397,44.5712095 C47.7089397,45.2128987 48.0996525,45.4581528 48.4741142,45.4581528 C48.7030028,45.4581528 49.0164657,45.3366129 49.2503899,45.2281197 C49.394933,45.1612843 49.6189005,45.2108387 49.6768093,45.4126039 C49.7279659,45.5913659 50,46.5402236 50,46.5402236 C49.7652748,46.6917478 49.0233324,47.1045484 47.9697582,47.1045484 Z" id="Rectangle-path" fill="#000000" sketch:type="MSShapeGroup"></path>
        </g>
    </g>
</svg>