<?xml version="1.0" encoding="utf-8"?>
<!-- Generator: Adobe Illustrator 16.0.0, SVG Export Plug-In . SVG Version: 6.00 Build 0)  -->
<!DOCTYPE svg PUBLIC "-//W3C//DTD SVG 1.1//EN" "http://www.w3.org/Graphics/SVG/1.1/DTD/svg11.dtd">
<svg version="1.1" id="Layer_1" xmlns:sketch="http://www.bohemiancoding.com/sketch/ns"
	 xmlns="http://www.w3.org/2000/svg" xmlns:xlink="http://www.w3.org/1999/xlink" x="0px" y="0px" width="60px" height="60px"
	 viewBox="0 0 60 60" enable-background="new 0 0 60 60" xml:space="preserve">
<title>konnectors</title>
<desc>Created with Sketch.</desc>
<path sketch:type="MSShapeGroup" fill="#FFFFFF" fill-opacity="0.011" d="M30,58.75c15.878,0,28.75-12.872,28.75-28.75
	S45.878,1.25,30,1.25S1.25,14.122,1.25,30S14.122,58.75,30,58.75z M30,60C13.431,60,0,46.568,0,30C0,13.431,13.431,0,30,0
	c16.568,0,30,13.431,30,30C60,46.568,46.568,60,30,60z"/>
<g>
	<circle fill="none" cx="31.5" cy="44.5" r="4.5"/>
	<rect x="41.289" y="43" width="0.001" height="0.001"/>
	<path d="M37.819,43.001C37.142,40.135,34.573,38,31.5,38c-3.59,0-6.5,2.91-6.5,6.5s2.91,6.5,6.5,6.5c3.072,0,5.641-2.135,6.319-5
		h3.468v0.001h0.001V46h0.001v-2.999c-0.001,0-0.001,0-0.002,0H37.819z M31.5,49c-2.485,0-4.5-2.016-4.5-4.5s2.015-4.5,4.5-4.5
		c2.484,0,4.5,2.016,4.5,4.5S33.984,49,31.5,49z"/>
	<path d="M42.432,20.996c-0.348-2.814-1.644-5.415-3.728-7.425C36.314,11.266,33.158,10,29.816,10c-3.343,0-6.499,1.267-8.888,3.572
		c-2.092,2.018-3.393,4.634-3.732,7.463c-2.87,0.334-5.523,1.616-7.572,3.677c-2.338,2.355-3.625,5.466-3.625,8.761
		c0,6.908,5.7,12.527,12.71,12.527h1.41c0.73,5.086,5.093,9,10.381,9v-2c0,0-8.5,0-8.5-8.5s8.5-8.5,8.5-8.5v-2
		c-5.288,0-9.651,3.914-10.381,9h-1.41c-5.362,0-9.71-4.286-9.71-9.527c0-2.502,0.973-4.854,2.754-6.646
		c1.564-1.574,3.587-2.555,5.789-2.811l2.351-0.273l0.282-2.35c0.257-2.149,1.245-4.126,2.835-5.66
		c1.828-1.764,4.236-2.731,6.805-2.731c2.568,0,4.978,0.968,6.805,2.73c1.583,1.527,2.569,3.494,2.833,5.634l0.297,2.407
		l2.416,0.213c4.98,0.44,8.832,4.568,8.832,9.49c0,5.238-4.348,9.524-9.708,9.526V46C48.297,45.999,54,40.38,54,33.473
		C54,26.945,48.907,21.568,42.432,20.996z"/>
</g>
</svg>
