<?xml version="1.0" encoding="UTF-8" standalone="no"?>
<svg width="60px" height="60px" viewBox="0 0 60 60" version="1.1" xmlns="http://www.w3.org/2000/svg" xmlns:xlink="http://www.w3.org/1999/xlink" xmlns:sketch="http://www.bohemiancoding.com/sketch/ns">
    <!-- Generator: Sketch 3.3.2 (12043) - http://www.bohemiancoding.com/sketch -->
    <title>kresus</title>
    <desc>Created with Sketch.</desc>
    <defs></defs>
    <g id="Page-1" stroke="none" stroke-width="1" fill="none" fill-rule="evenodd" sketch:type="MSPage">
        <g id="kresus" sketch:type="MSLayerGroup">
            <path d="M30,58.75 L30,58.75 C45.8781866,58.75 58.75,45.8781866 58.75,30 C58.75,14.1218134 45.8781866,1.25 30,1.25 C14.1218134,1.25 1.25,14.1218134 1.25,30 C1.25,45.8781866 14.1218134,58.75 30,58.75 L30,58.75 Z M30,60 L30,60 C13.4314575,60 0,46.5685425 0,30 C0,13.4314575 13.4314575,0 30,0 C46.5685425,0 60,13.4314575 60,30 C60,46.5685425 46.5685425,60 30,60 L30,60 Z" id="Shape-Copy" fill-opacity="0.0107280344" fill="#FFFFFF" sketch:type="MSShapeGroup"></path>
            <path d="M29.6737589,8 C31.8758865,8 33.9148936,8.88650465 35.3014184,10.3371486 L35.3829787,10.4177399 C36.7695035,11.8683839 37.6666667,13.8025759 37.6666667,15.9785418 L37.6666667,16.3009071 C37.9929078,16.3814985 38.3191489,16.5426811 38.6453901,16.6232725 L44.0283688,13.4802105 C44.8439716,12.9966626 45.9858156,13.2384365 46.4751773,14.1249412 C46.7198582,14.5278978 46.8014184,14.9308545 46.6382979,15.4144025 L45.4964539,20.8140217 C46.2304965,21.5393437 46.8829787,22.2646657 47.4539007,22.9899877 C48.0248227,23.7153096 48.4326241,24.4406316 48.8404255,25.2465449 L49.0851064,25.2465449 C50.1453901,25.2465449 51.1241135,25.6495016 51.858156,26.3748236 C52.5921986,27.1001456 53,28.0672415 53,29.1149288 L53,34.5145481 C53,35.5622354 52.5921986,36.5293313 51.858156,37.2546533 L51.858156,37.2546533 C51.1241135,37.9799753 50.1453901,38.382932 49.0851064,38.382932 L48.8404255,38.382932 C48.3510638,39.3500279 47.7801418,40.2365326 47.1276596,41.0424459 C46.5567376,41.8483592 45.822695,42.5736812 45.0886525,43.2184119 L45.9042553,44.5078732 L45.9858156,44.6690558 C46.6382979,45.7973345 46.7198582,47.0867958 46.393617,48.2956657 C46.0673759,49.5045357 45.251773,50.6328144 44.0283688,51.277545 L43.9468085,51.3581363 C42.8049645,52.002867 41.4184397,52.0834583 40.2765957,51.761093 L40.2765957,51.761093 C39.0531915,51.4387277 37.9113475,50.6328144 37.2588652,49.4239444 L37.177305,49.343353 L36.2801418,47.8121177 C35.6276596,47.9733004 34.893617,48.1344831 34.1595745,48.2150744 C32.9361702,48.3762571 31.712766,48.5374397 30.4893617,48.5374397 C29.2659574,48.5374397 28.0425532,48.4568484 26.8191489,48.2150744 C26.0851064,48.1344831 25.3510638,47.9733004 24.6985816,47.8121177 L23.7198582,49.5045357 C23.0673759,50.7134057 21.9255319,51.519319 20.7021277,51.8416843 L20.6205674,51.8416843 C19.3971631,52.1640496 18.0921986,52.002867 16.9503546,51.277545 L16.8687943,51.277545 C15.7269504,50.6328144 14.9113475,49.5045357 14.5851064,48.2956657 C14.2588652,47.0867958 14.4219858,45.7167431 15.0744681,44.5884645 L15.0744681,44.5884645 L15.8900709,43.2990032 C14.4219858,41.9289506 13.1170213,40.3977153 12.2198582,38.7052973 C11.2411348,36.8516967 10.5886525,34.7563221 10.5070922,32.6609474 L10.2624113,32.5803561 L10.1808511,32.5803561 C9.60992908,32.3385821 9.03900709,31.9356254 8.54964539,31.4520775 C7.57092199,30.4849815 7,29.1955202 7,27.8254675 C7,26.4554149 7.57092199,25.1659536 8.54964539,24.1988576 C8.95744681,23.795901 9.69148936,23.795901 10.0992908,24.1988576 C10.5070922,24.6018143 10.5070922,25.2465449 10.0992908,25.7300929 C9.52836879,26.2942322 9.20212766,27.1001456 9.20212766,27.9060589 C9.20212766,28.7119722 9.52836879,29.5178855 10.0992908,30.0820248 C10.2624113,30.2432075 10.4255319,30.3237988 10.5886525,30.4849815 C10.9964539,26.4554149 13.1985816,22.828805 16.4609929,20.1692911 C18.0106383,18.8798297 19.8049645,17.8321424 21.7624113,17.0262291 L21.7624113,16.2203158 C21.7624113,14.0443499 22.6595745,12.1101579 24.1276596,10.6595139 L24.1276596,10.6595139 C25.4326241,8.88650465 27.4716312,8 29.6737589,8 L29.6737589,8 L29.6737589,8 Z M30.4078014,15.0920372 L30.4078014,15.0920372 C31.9574468,15.0920372 33.5886525,15.2532198 35.0567376,15.5755852 L35.464539,15.6561765 C35.3829787,14.2055325 34.8120567,12.8354799 33.8333333,11.8683839 L33.751773,11.7877926 C32.6914894,10.7401053 31.2234043,10.0953746 29.5921986,10.0953746 C27.9609929,10.0953746 26.4929078,10.7401053 25.4326241,11.7877926 C24.3723404,12.8354799 23.7198582,14.2861239 23.7198582,15.8979505 L23.7198582,15.9785418 C25.8404255,15.4144025 28.1241135,15.0920372 30.4078014,15.0920372 L30.4078014,15.0920372 L30.4078014,15.0920372 Z M34.322695,19.0410124 L34.322695,19.0410124 C33.0992908,18.7992384 31.712766,18.6380558 30.3262411,18.6380558 C25.7588652,18.6380558 21.5992908,20.1692911 18.5815603,22.587031 C15.7269504,24.9241796 13.9326241,28.2284242 13.9326241,31.7744428 C13.9326241,33.6280434 14.4219858,35.4010527 15.2375887,36.932288 C16.1347518,38.624706 17.4397163,40.0753499 19.070922,41.3648112 C19.8049645,41.9289506 19.9680851,42.8960465 19.5602837,43.7019598 L18.0921986,46.2002911 C18.0921986,46.2808825 18.0106383,46.3614738 18.0106383,46.4420651 C17.8475177,46.7644304 17.8475177,47.0867958 17.929078,47.4091611 C18.0106383,47.7315264 18.2553191,48.0538917 18.5,48.2150744 L18.6631206,48.2956657 C18.9893617,48.4568484 19.3156028,48.4568484 19.641844,48.3762571 L19.7234043,48.3762571 C20.0496454,48.2956657 20.3758865,48.0538917 20.5390071,47.7315264 L22.1702128,44.9108298 C22.5780142,44.1049165 23.4751773,43.7825512 24.2907801,44.0243252 C25.2695035,44.3466905 26.248227,44.5884645 27.3085106,44.7496472 C28.287234,44.9108298 29.3475177,44.9914211 30.4078014,44.9914211 C31.4680851,44.9914211 32.5283688,44.9108298 33.5070922,44.7496472 C34.4858156,44.5884645 35.464539,44.3466905 36.5248227,44.0243252 C37.3404255,43.7825512 38.1560284,44.1049165 38.6453901,44.8302385 L40.2765957,47.5703438 C40.358156,47.6509351 40.358156,47.7315264 40.4397163,47.8121177 C40.6028369,48.1344831 40.929078,48.2956657 41.2553191,48.3762571 L41.2553191,48.3762571 C41.5815603,48.4568484 41.9078014,48.4568484 42.2340426,48.2956657 L42.3971631,48.2150744 C42.641844,48.0538917 42.8865248,47.7315264 42.9680851,47.4091611 C43.0496454,47.0867958 43.0496454,46.7644304 42.8865248,46.4420651 C42.8865248,46.3614738 42.8049645,46.2808825 42.7234043,46.2002911 L41.2553191,43.7019598 C40.8475177,42.9766379 41.0106383,41.9289506 41.7446809,41.3648112 C42.7234043,40.6394892 43.6205674,39.7529846 44.3546099,38.7858886 C45.0886525,37.899384 45.6595745,36.932288 46.0673759,35.965192 C46.3120567,35.23987 46.964539,34.7563221 47.7801418,34.7563221 L49.1666667,34.7563221 C49.248227,34.7563221 49.3297872,34.6757307 49.4113475,34.6757307 L49.4113475,34.6757307 C49.4929078,34.5951394 49.4929078,34.5145481 49.4929078,34.4339567 L49.4929078,29.1149288 C49.4929078,29.0343375 49.4929078,28.9537462 49.4113475,28.8731549 C49.3297872,28.7925635 49.248227,28.7925635 49.1666667,28.7925635 L47.7801418,28.7925635 C47.0460993,28.7925635 46.393617,28.3896069 46.1489362,27.6642849 C45.7411348,26.7777802 45.251773,25.8912756 44.6808511,25.0853623 C44.1099291,24.279449 43.3758865,23.4735356 42.5602837,22.828805 C42.070922,22.4258483 41.8262411,21.7811177 41.9078014,21.136387 L42.4787234,18.5574644 L39.7056738,20.0081084 C39.2163121,20.3304737 38.5638298,20.411065 37.9929078,20.1692911 C36.9326241,19.6857431 35.6276596,19.2827864 34.322695,19.0410124 L34.322695,19.0410124 L34.322695,19.0410124 Z M41.0921986,25.6495016 L41.0921986,25.6495016 C40.1950355,25.6495016 39.4609929,25.9718669 38.8900709,26.5360062 C38.3191489,27.1001456 37.9929078,27.8254675 37.9929078,28.7119722 C37.9929078,29.5984768 38.3191489,30.3237988 38.8900709,30.8879381 L38.8900709,30.8879381 C39.4609929,31.4520775 40.1950355,31.7744428 41.0921986,31.7744428 C41.9078014,31.7744428 42.7234043,31.4520775 43.2943262,30.8879381 C43.8652482,30.3237988 44.1914894,29.5984768 44.1914894,28.7119722 C44.1914894,27.9060589 43.8652482,27.1807369 43.3758865,26.6165976 L43.2943262,26.5360062 C42.7234043,25.9718669 41.9078014,25.6495016 41.0921986,25.6495016 L41.0921986,25.6495016 L41.0921986,25.6495016 Z M41.7446809,28.0672415 L41.7446809,28.0672415 C41.5815603,27.9060589 41.3368794,27.8254675 41.0921986,27.8254675 C40.8475177,27.8254675 40.6028369,27.9060589 40.4397163,28.0672415 C40.2765957,28.2284242 40.1950355,28.4701982 40.1950355,28.7119722 C40.1950355,28.9537462 40.2765957,29.1955202 40.4397163,29.3567028 L40.4397163,29.3567028 C40.6028369,29.5178855 40.8475177,29.5984768 41.0921986,29.5984768 C41.3368794,29.5984768 41.5815603,29.5178855 41.7446809,29.3567028 C41.9078014,29.1955202 41.9893617,28.9537462 41.9893617,28.7119722 C41.9893617,28.4701982 41.9078014,28.2284242 41.7446809,28.0672415 L41.7446809,28.0672415 L41.7446809,28.0672415 Z" id="Shape" fill="#000000" sketch:type="MSShapeGroup"></path>
        </g>
    </g>
</svg>