<?xml version="1.0" encoding="utf-8"?>
<!-- Generator: Adobe Illustrator 18.1.0, SVG Export Plug-In . SVG Version: 6.00 Build 0)  -->
<!DOCTYPE svg PUBLIC "-//W3C//DTD SVG 1.1//EN" "http://www.w3.org/Graphics/SVG/1.1/DTD/svg11.dtd">
<svg version="1.1" id="Layer_1" xmlns="http://www.w3.org/2000/svg" xmlns:xlink="http://www.w3.org/1999/xlink" x="0px" y="0px"
	 viewBox="0 0 100 100" enable-background="new 0 0 100 100" xml:space="preserve">
<path d="M76.9,72.7c0.7,0,1.3,0.6,1.3,1.3c0,0.7-0.6,1.4-1.3,1.4H23c-0.7,0-1.3-0.6-1.3-1.4v0V27.6c0-0.7,0.6-1.3,1.3-1.3
	c0.7,0,1.3,0.6,1.3,1.3v45.1H76.9L76.9,72.7z M55.4,55.9l0.1,0.1c0.5,0.3,1.2,0.3,1.7,0.2l0,0c0.6-0.2,1.1-0.6,1.5-1.1l0,0
	c0.3-0.6,0.4-1.3,0.2-1.9c-0.2-0.6-0.5-1.1-1.1-1.5l0,0c-0.6-0.3-1.2-0.4-1.8-0.3h0c-0.6,0.2-1.1,0.5-1.5,1.1l-0.1,0.1
	c-0.3,0.6-0.3,1.2-0.2,1.8C54.4,55,54.8,55.6,55.4,55.9L55.4,55.9z M69.1,44.5l-7.6,7.6l0.1,0.4c0.3,1.3,0.2,2.7-0.5,3.9v0l0,0
	c-0.7,1.2-1.8,2.1-3.1,2.4l-0.1,0c-1.2,0.3-2.6,0.2-3.8-0.5h0l0,0c-1.2-0.7-2.1-1.8-2.4-3.1c-0.3-1-0.2-2,0.1-3l-3.2-3.2L48.2,49
	c-1,0.3-2,0.2-3-0.1l-8.6,8.6l0.1,0.4c0.3,1.3,0.2,2.7-0.5,3.9h0h0c-0.7,1.2-1.9,2.1-3.1,2.4l-0.1,0c-1.2,0.3-2.6,0.2-3.8-0.5
	l-0.1-0.1c-1.2-0.7-2-1.8-2.3-3.1c-0.3-1.3-0.2-2.7,0.5-3.9c0.7-1.2,1.8-2,3.1-2.4l0.1,0c1-0.2,2-0.2,3,0.1l8.6-8.6l-0.1-0.4
	c-0.3-1.3-0.2-2.7,0.5-3.9l0,0l0,0c0.7-1.2,1.8-2.1,3.1-2.4c1.3-0.3,2.7-0.2,3.9,0.5c1.2,0.7,2.1,1.8,2.4,3.1c0.3,1,0.2,2-0.1,3
	L55,49l0.3-0.1l0.1,0c1-0.2,2-0.2,3,0.1l7.6-7.6L65.8,41l0,0c-0.3-1.3-0.2-2.7,0.5-3.9h0v0c0.7-1.2,1.8-2,3.1-2.4
	c1.3-0.3,2.7-0.2,3.9,0.5l0,0l0,0c1.2,0.7,2.1,1.8,2.4,3.1c0.3,1.3,0.2,2.7-0.5,3.9l0,0h0c-0.7,1.2-1.8,2-3.1,2.4
	C71.2,44.9,70.1,44.9,69.1,44.5L69.1,44.5z M55.4,55.9L55.4,55.9L55.4,55.9L55.4,55.9z M54.6,52.5L54.6,52.5L54.6,52.5L54.6,52.5z
	 M44.5,44.7c0.2,0.6,0.6,1.2,1.1,1.5c0.6,0.3,1.3,0.4,1.9,0.2c0.6-0.2,1.2-0.6,1.5-1.1c0.3-0.6,0.4-1.3,0.2-1.8
	c-0.2-0.6-0.6-1.2-1.1-1.5c-0.6-0.3-1.3-0.4-1.9-0.2c-0.6,0.2-1.2,0.6-1.5,1.1l0,0C44.4,43.4,44.4,44.1,44.5,44.7L44.5,44.7z
	 M29.4,59.8c0.2,0.6,0.5,1.1,1.1,1.5l0,0c0.6,0.3,1.2,0.4,1.8,0.3l0,0c0.6-0.2,1.2-0.6,1.5-1.1h0c0.3-0.6,0.4-1.3,0.2-1.9
	c-0.2-0.6-0.6-1.2-1.1-1.5c-0.6-0.3-1.2-0.4-1.8-0.3l0,0C30.5,57,30,57.4,29.6,58C29.3,58.5,29.2,59.2,29.4,59.8L29.4,59.8z
	 M68.4,40.3c0.2,0.6,0.5,1.1,1.1,1.4l0.1,0.1c0.6,0.3,1.2,0.3,1.8,0.2c0.6-0.2,1.1-0.5,1.4-1.1l0.1-0.1c0.3-0.6,0.3-1.2,0.2-1.8
	c-0.2-0.6-0.5-1.1-1.1-1.4l-0.1-0.1c-0.6-0.3-1.2-0.4-1.8-0.2c-0.6,0.2-1.1,0.5-1.4,1.1l-0.1,0.1C68.3,39.1,68.3,39.7,68.4,40.3
	L68.4,40.3L68.4,40.3L68.4,40.3z M69.5,41.7L69.5,41.7L69.5,41.7L69.5,41.7z M68.7,38.4L68.7,38.4L68.7,38.4L68.7,38.4z"/>
</svg>
