<svg xmlns="http://www.w3.org/2000/svg" width="60" height="60" viewBox="0 0 60 60">
  <g fill="none" fill-rule="evenodd" transform="translate(7 7)">
    <polygon fill="#E30613" points="2.5 38 23 0 43.5 38"/>
    <path fill="#FFFFFF" d="M0.5,30 L2.375,30 L2.375,22.5 L6.125,30 L8,30 L11.75,22.5 L11.75,30 L15.5,30 L15.5,20 L11.125,20 L8,26.25 L4.875,20 L0.5,20 L0.5,30 Z M16.125,30 L18.4374695,30 L19.25,28.125 L24.25,28.125 L24.875,30 L28.625,30 L24.25,20 L20.5,20 L16.125,30 Z M19.875,26.25 L21.75,22.5 L23.625,26.25 L19.875,26.25 Z M29.875,20 L33,20 L33,30 L29.875,30 L29.875,20 Z M35.5,20 L45.5,20 L45.5,21.875 L38.625,21.875 L38.625,25 L45.5,25 L45.5,26.875 L38.625,26.875 L38.625,30 L35.5,30 L35.5,20 Z"/>
  </g>
</svg>
