<svg xmlns="http://www.w3.org/2000/svg" width="60" height="60" viewBox="0 0 60 60">
  <path fill="#000000" fill-rule="evenodd" d="M30.0750469,37.9299562 C30.0750469,38.1100697 29.9249546,38.1801128 29.6247655,38.1400876 L29.0844278,38.1400876 L28.2138837,38.1100688 C27.633518,38.0900562 26.9330873,38.08005 26.1125704,38.08005 L24.4315197,38.08005 C24.3714819,38.08005 24.2213896,38.0900562 23.9812383,38.1100688 L22.9305816,38.1100688 C22.6504051,38.1100688 22.5103189,38.0500319 22.5103189,37.9299562 C22.5103189,37.8298932 22.7404605,37.7698563 23.2007505,37.7498437 C23.7811161,37.729831 24.0712946,37.5497203 24.0712946,37.2095059 L24.0712946,30.5153221 C24.0712946,28.4540235 24.0012515,27.2132604 23.8611632,26.7929956 C23.6610371,26.21263 23.1607295,25.9224515 22.3602251,25.9224515 C21.6197586,25.9224515 21.0394017,26.2426485 20.619137,26.8830519 C20.4390235,27.1432158 20.338962,27.4333943 20.3189493,27.753596 C20.2789241,28.1338355 20.2589118,29.1644694 20.2589118,30.8455285 L20.2589118,36.5490932 C20.2589118,37.1494714 20.3139457,37.4996868 20.424015,37.5997498 C20.5340844,37.6998129 20.9093151,37.7498437 21.5497186,37.7498437 C21.729832,37.7498437 21.8198874,37.7998744 21.8198874,37.8999375 C21.8198874,38.0600383 21.7098197,38.1400876 21.4896811,38.1400876 C21.289555,38.1400876 21.1294565,38.1300814 21.0093809,38.1100688 L15.1857411,38.0500313 C15.0056276,38.0500313 14.9155722,37.9899943 14.9155722,37.8699187 C14.9155722,37.7498431 15.1557199,37.6898061 15.6360225,37.6898061 C15.9962495,37.6898061 16.2063787,37.6397754 16.2664165,37.5397123 L16.326454,37.2395247 L16.326454,29.8849281 C16.326454,28.0037429 16.2163863,26.8680445 15.9962477,26.4777986 C15.776109,26.0875528 15.325832,25.8924328 14.6454034,25.8924328 C13.8248865,25.8924328 13.2145111,26.232642 12.8142589,26.9130707 C12.6741707,27.1732346 12.5891183,27.4383976 12.5590994,27.7085679 C12.5290805,27.9787381 12.5140713,28.7642211 12.5140713,30.0650407 L12.5140713,36.0087555 C12.5140713,36.9293354 12.5691051,37.4346462 12.6791745,37.5247029 C12.7892438,37.6147597 13.0644131,37.6597874 13.5046904,37.6597874 L13.9549719,37.6597874 C14.1550979,37.6597874 14.2551595,37.7198243 14.2551595,37.8398999 C14.2551595,37.9799882 14.1651041,38.0500313 13.9849906,38.0500313 C13.7248267,38.0500313 13.484679,38.0400251 13.2645403,38.0200125 L12.0037523,38.0200125 C10.4027437,38.0600377 9.55222064,38.0900562 9.4521576,38.1100688 C8.49155242,38.150094 7.7811155,38.1701063 7.32082552,38.1701063 L6.90056285,38.1701063 C6.64039895,38.1701063 6.51031895,38.0900571 6.51031895,37.9299562 C6.51031895,37.789868 6.60037433,37.7198249 6.7804878,37.7198249 L7.47091932,37.7498437 C7.81113366,37.7698563 8.09130597,37.689807 8.31144465,37.5096936 C8.47154552,37.3696053 8.55159475,36.9493468 8.55159475,36.2489056 L8.55159475,31.2958099 C8.55159475,28.5140574 8.51157013,27.0231405 8.4315197,26.8230144 C8.27141884,26.6429009 7.6510373,26.5528455 6.57035647,26.5528455 C6.29017996,26.5528455 6.15009381,26.4828025 6.15009381,26.3427142 C6.15009381,26.1826133 6.28017381,26.1025641 6.54033771,26.1025641 C8.5415985,26.0625389 10.3226939,25.6222681 11.8836773,24.7817386 C12.0637908,24.6816755 12.1938708,24.6316448 12.2739212,24.6316448 C12.3739842,24.6316448 12.424015,24.711694 12.424015,24.8717949 C12.424015,25.171984 12.4140089,25.4221378 12.3939962,25.6222639 L12.3939962,26.8830519 C13.3145762,25.4021189 14.6754131,24.6616635 16.4765478,24.6616635 C18.4978212,24.6616635 19.6885535,25.472162 20.0487805,27.0931832 C20.5090705,26.2326411 21.0694151,25.6172626 21.7298311,25.2470294 C22.3902472,24.8767961 23.2607826,24.6916823 24.3414634,24.6916823 C26.8830646,24.6916823 28.1538462,26.0925438 28.1538462,28.8943089 L28.1538462,29.3445904 C28.1338335,29.5847417 28.1238274,29.7848647 28.1238274,29.9449656 L28.1238274,36.2789243 C28.1238274,36.9193278 28.1488428,37.3095678 28.1988743,37.449656 C28.2489058,37.5897443 28.4140074,37.6697935 28.6941839,37.6898061 C29.094436,37.7298313 29.4546576,37.7498437 29.7748593,37.7498437 C29.9749854,37.7498437 30.0750469,37.8098806 30.0750469,37.9299562 Z M44.5741088,31.6860538 C44.5741088,33.8274028 43.7335919,35.5584674 42.0525328,36.8792996 C40.7317007,37.9199552 39.2808084,38.4402752 37.6998124,38.4402752 C35.8186272,38.4402752 34.1926272,37.7648598 32.8217636,36.4140088 C31.4509,35.0631577 30.7654784,33.4671762 30.7654784,31.6260163 C30.7654784,29.7048059 31.4509,28.0687997 32.8217636,26.7179487 C34.1926272,25.3670977 35.8486457,24.6916823 37.7898687,24.6916823 C39.6510412,24.6916823 41.2470227,25.3771038 42.5778612,26.7479675 C43.9086996,28.1188311 44.5741088,29.7648434 44.5741088,31.6860538 Z M40.0412758,31.7160725 C40.0412758,29.2345092 39.8711712,27.533463 39.5309568,26.6128831 C39.1507173,25.5922401 38.5403419,25.0819262 37.6998124,25.0819262 C36.9193207,25.0819262 36.3089453,25.6172554 35.8686679,26.68793 C35.4283905,27.7586045 35.2082552,29.2345122 35.2082552,31.1156973 C35.2082552,33.7373489 35.4684152,35.5984936 35.988743,36.699187 C36.4090077,37.5797417 36.9993708,38.0200125 37.7598499,38.0200125 C38.7004425,38.0200125 39.320824,37.4596679 39.6210131,36.3389619 C39.9011896,35.2782936 40.0412758,33.7373459 40.0412758,31.7160725 Z M51.8386492,18.8380238 C51.8386492,19.3983768 51.6485322,19.8786722 51.2682927,20.2789243 C50.8880531,20.6791765 50.4277701,20.8792996 49.8874296,20.8792996 C49.3270766,20.8792996 48.8567874,20.6891826 48.4765478,20.3089431 C48.0963083,19.9287035 47.9061914,19.4484082 47.9061914,18.8680425 C47.9061914,18.3076895 48.0963083,17.8474064 48.4765478,17.4871795 C48.8567874,17.1269525 49.3470889,16.9468418 49.9474672,16.9468418 C50.4878076,16.9468418 50.9380845,17.1269525 51.2983114,17.4871795 C51.6585384,17.8474064 51.8386492,18.2976834 51.8386492,18.8380238 Z M54,37.8699187 C54,38.010007 53.9099446,38.08005 53.7298311,38.08005 L49.7373358,38.0200125 L46.8555347,38.08005 C46.7354591,38.08005 46.5853668,38.0900562 46.4052533,38.1100688 L46.1350844,38.1100688 C45.8949331,38.1100688 45.7748593,38.0300196 45.7748593,37.8699187 C45.7748593,37.7498431 46.0050008,37.6798 46.4652908,37.6597874 C47.1457195,37.6397748 47.5459656,37.5647286 47.6660413,37.4346467 C47.7861169,37.3045647 47.8461538,36.9093216 47.8461538,36.2489056 L47.8461538,27.633521 C47.8461538,26.8730419 47.7811138,26.4177619 47.6510319,26.2676673 C47.5209499,26.1175727 47.1257069,26.0425266 46.4652908,26.0425266 C46.045026,26.0425266 45.7998753,26.0325204 45.7298311,26.0125078 C45.659787,25.9924952 45.6247655,25.9224521 45.6247655,25.8023765 C45.6247655,25.6622882 45.7748578,25.5922452 46.0750469,25.5922452 C48.2764338,25.5722325 50.1575907,25.2320233 51.7185741,24.5716073 C51.7585993,24.8117585 51.8086301,25.4721647 51.8686679,26.5528455 L51.8986867,30.3652283 L51.8986867,36.0087555 C51.8986867,36.8292724 51.9737328,37.3095678 52.1238274,37.449656 C52.273922,37.5897443 52.7892389,37.6597874 53.6697936,37.6597874 C53.8899323,37.6597874 54,37.7298304 54,37.8699187 Z M6,41.5522201 L30.0150094,41.5522201 L30.0150094,43.0531582 L6,43.0531582 L6,41.5522201 Z"/>
</svg>
