<?xml version="1.0" encoding="UTF-8" standalone="no"?>
<svg width="60px" height="60px" viewBox="0 0 60 60" version="1.1" xmlns="http://www.w3.org/2000/svg" xmlns:xlink="http://www.w3.org/1999/xlink" xmlns:sketch="http://www.bohemiancoding.com/sketch/ns">
    <!-- Generator: Sketch 3.3.2 (12043) - http://www.bohemiancoding.com/sketch -->
    <title>nirc</title>
    <desc>Created with Sketch.</desc>
    <defs></defs>
    <g id="Page-1" stroke="none" stroke-width="1" fill="none" fill-rule="evenodd" sketch:type="MSPage">
        <g id="nirc" sketch:type="MSLayerGroup">
            <path d="M30,58.75 L30,58.75 C45.8781866,58.75 58.75,45.8781866 58.75,30 C58.75,14.1218134 45.8781866,1.25 30,1.25 C14.1218134,1.25 1.25,14.1218134 1.25,30 C1.25,45.8781866 14.1218134,58.75 30,58.75 L30,58.75 Z M30,60 L30,60 C13.4314575,60 0,46.5685425 0,30 C0,13.4314575 13.4314575,0 30,0 C46.5685425,0 60,13.4314575 60,30 C60,46.5685425 46.5685425,60 30,60 L30,60 Z" id="Shape-Copy" fill-opacity="0.0107280344" fill="#FFFFFF" sketch:type="MSShapeGroup"></path>
            <path d="M21.8482143,26.039604 C22.7321429,26.039604 23.5178571,26.4356436 24.1071429,27.029703 C24.6964286,27.6237624 25.0892857,28.4158416 25.0892857,29.3069307 C25.0892857,30.1980198 24.6964286,30.990099 24.1071429,31.5841584 C23.5178571,32.1782178 22.7321429,32.5742574 21.8482143,32.5742574 C20.9642857,32.5742574 20.1785714,32.1782178 19.5892857,31.5841584 C19,30.990099 18.6071429,30.1980198 18.6071429,29.3069307 C18.6071429,28.4158416 19,27.6237624 19.5892857,27.029703 C20.1785714,26.4356436 20.9642857,26.039604 21.8482143,26.039604 L21.8482143,26.039604 L21.8482143,26.039604 Z M30,10 C35.9910714,10 41.4910714,12.1782178 45.4196429,15.5445545 C49.4464286,19.009901 52,23.8613861 52,29.3069307 C52,34.6534653 49.5446429,39.5049505 45.4196429,43.0693069 C41.4910714,46.5346535 35.9910714,48.6138614 30,48.6138614 C28.2321429,48.6138614 26.4642857,48.4158416 24.6964286,48.019802 C23.2232143,47.7227723 21.8482143,47.2277228 20.5714286,46.7326733 L15.2678571,49.6039604 C14.7767857,49.9009901 14.1875,50 13.6964286,50 L13.6964286,50 C13.1071429,50 12.6160714,49.7029703 12.125,49.4059406 C11.6339286,49.009901 11.3392857,48.6138614 11.1428571,48.019802 L11.1428571,48.019802 C10.9464286,47.5247525 10.9464286,46.9306931 11.0446429,46.3366337 L12.3214286,40.6930693 C11.0446429,39.2079208 10.0625,37.5247525 9.27678571,35.7425743 C8.49107143,33.7623762 8,31.5841584 8,29.3069307 C8,23.960396 10.4553571,19.1089109 14.5803571,15.5445545 C18.5089286,12.1782178 23.9107143,10 30,10 L30,10 L30,10 Z M43.2589286,18.1188119 C39.9196429,15.1485149 35.2053571,13.3663366 30,13.3663366 C24.7946429,13.3663366 20.0803571,15.1485149 16.7410714,18.1188119 C13.4017857,20.990099 11.4375,24.950495 11.4375,29.3069307 C11.4375,31.0891089 11.8303571,32.8712871 12.4196429,34.4554455 C13.1071429,36.1386139 14.0892857,37.6237624 15.2678571,39.009901 C15.6607143,39.4059406 15.8571429,40 15.7589286,40.5940594 L14.4821429,46.1386139 L19.6875,43.3663366 C20.1785714,43.1683168 20.6696429,43.0693069 21.1607143,43.2673267 C22.5357143,43.8613861 23.9107143,44.3564356 25.3839286,44.6534653 C26.8571429,44.950495 28.3303571,45.1485149 29.9017857,45.1485149 C35.1071429,45.1485149 39.8214286,43.3663366 43.1607143,40.3960396 C46.5,37.5247525 48.4642857,33.5643564 48.4642857,29.2079208 C48.5625,24.950495 46.5,20.990099 43.2589286,18.1188119 L43.2589286,18.1188119 L43.2589286,18.1188119 Z M22.6339286,28.4158416 C22.4375,28.2178218 22.1428571,28.1188119 21.8482143,28.1188119 C21.5535714,28.1188119 21.2589286,28.2178218 20.9642857,28.4158416 C20.7678571,28.6138614 20.5714286,28.9108911 20.5714286,29.2079208 C20.5714286,29.5049505 20.6696429,29.8019802 20.9642857,30.0990099 C21.1607143,30.2970297 21.4553571,30.4950495 21.8482143,30.4950495 C22.1428571,30.4950495 22.4375,30.3960396 22.6339286,30.0990099 C22.8303571,29.9009901 22.9285714,29.6039604 22.9285714,29.2079208 C23.0267857,29.009901 22.8303571,28.7128713 22.6339286,28.4158416 L22.6339286,28.4158416 L22.6339286,28.4158416 Z M30,26.039604 C30.8839286,26.039604 31.6696429,26.4356436 32.2589286,27.029703 C32.8482143,27.6237624 33.2410714,28.4158416 33.2410714,29.3069307 C33.2410714,30.1980198 32.8482143,30.990099 32.2589286,31.5841584 C31.6696429,32.1782178 30.8839286,32.5742574 30,32.5742574 C29.1160714,32.5742574 28.3303571,32.1782178 27.7410714,31.5841584 C27.1517857,30.990099 26.7589286,30.1980198 26.7589286,29.3069307 C26.7589286,28.4158416 27.1517857,27.6237624 27.7410714,27.029703 C28.2321429,26.4356436 29.0178571,26.039604 30,26.039604 L30,26.039604 L30,26.039604 Z M30.7857143,28.4158416 C30.5892857,28.2178218 30.2946429,28.1188119 30,28.1188119 C29.7053571,28.1188119 29.4107143,28.2178218 29.1160714,28.4158416 C28.9196429,28.6138614 28.8214286,28.9108911 28.8214286,29.2079208 C28.8214286,29.5049505 28.9196429,29.8019802 29.1160714,30.0990099 C29.3125,30.2970297 29.6071429,30.4950495 30,30.4950495 C30.2946429,30.4950495 30.5892857,30.3960396 30.7857143,30.0990099 C30.9821429,29.9009901 31.0803571,29.6039604 31.0803571,29.2079208 C31.1785714,29.009901 30.9821429,28.7128713 30.7857143,28.4158416 L30.7857143,28.4158416 L30.7857143,28.4158416 Z M38.0535714,26.039604 C38.9375,26.039604 39.7232143,26.4356436 40.3125,27.029703 C40.9017857,27.6237624 41.2946429,28.4158416 41.2946429,29.3069307 C41.2946429,30.1980198 40.9017857,30.990099 40.3125,31.5841584 C39.7232143,32.1782178 38.9375,32.5742574 38.0535714,32.5742574 C37.1696429,32.5742574 36.3839286,32.1782178 35.7946429,31.5841584 C35.2053571,30.990099 34.8125,30.1980198 34.8125,29.3069307 C34.8125,28.4158416 35.2053571,27.6237624 35.7946429,27.029703 C36.3839286,26.4356436 37.1696429,26.039604 38.0535714,26.039604 L38.0535714,26.039604 L38.0535714,26.039604 Z M38.9375,28.4158416 C38.7410714,28.2178218 38.4464286,28.1188119 38.1517857,28.1188119 C37.8571429,28.1188119 37.5625,28.2178218 37.2678571,28.4158416 C37.0714286,28.6138614 36.875,28.9108911 36.875,29.2079208 C36.875,29.5049505 36.9732143,29.8019802 37.2678571,30.0990099 C37.4642857,30.2970297 37.7589286,30.4950495 38.1517857,30.4950495 C38.4464286,30.4950495 38.7410714,30.3960396 38.9375,30.0990099 C39.1339286,29.9009901 39.2321429,29.6039604 39.2321429,29.2079208 C39.2321429,29.009901 39.1339286,28.7128713 38.9375,28.4158416 L38.9375,28.4158416 L38.9375,28.4158416 Z" id="Shape" fill="#000000" sketch:type="MSShapeGroup"></path>
        </g>
    </g>
</svg>