<?xml version="1.0" encoding="UTF-8" standalone="no"?>
<svg width="60px" height="60px" viewBox="0 0 60 60" version="1.1" xmlns="http://www.w3.org/2000/svg" xmlns:xlink="http://www.w3.org/1999/xlink" xmlns:sketch="http://www.bohemiancoding.com/sketch/ns">
    <!-- Generator: Sketch 3.3.2 (12043) - http://www.bohemiancoding.com/sketch -->
    <title>notes</title>
    <desc>Created with Sketch.</desc>
    <defs></defs>
    <g id="Page-1" stroke="none" stroke-width="1" fill="none" fill-rule="evenodd" sketch:type="MSPage">
        <g id="notes" sketch:type="MSLayerGroup">
            <path d="M30,58.75 L30,58.75 C45.8781866,58.75 58.75,45.8781866 58.75,30 C58.75,14.1218134 45.8781866,1.25 30,1.25 C14.1218134,1.25 1.25,14.1218134 1.25,30 C1.25,45.8781866 14.1218134,58.75 30,58.75 L30,58.75 Z M30,60 L30,60 C13.4314575,60 0,46.5685425 0,30 C0,13.4314575 13.4314575,0 30,0 C46.5685425,0 60,13.4314575 60,30 C60,46.5685425 46.5685425,60 30,60 L30,60 Z" id="Shape-Copy" fill-opacity="0.0107280344" fill="#FFFFFF" sketch:type="MSShapeGroup"></path>
            <path d="M12,11.0069809 C12,9.34627121 13.3478668,8 15.0001609,8 L35.5,8 L48,20.5 L48,49.0081578 C48,50.6605066 46.6544607,52 44.9925801,52 L15.0074199,52 C13.3464677,52 12,50.6591426 12,48.9930191 L12,11.0069809 Z M15,11 L34,11 L34,22 L45,22 L45,49 L15,49 L15,11 Z M36,12.5 L43.5,20 L36,20 L36,12.5 Z M18,25 L42,25 L42,27 L18,27 L18,25 Z M18,30 L42,30 L42,32 L18,32 L18,30 Z M18,35 L34,35 L34,37 L18,37 L18,35 Z" id="Rectangle-4-Copy" fill="#000000" sketch:type="MSShapeGroup"></path>
        </g>
    </g>
</svg>