<?xml version="1.0" encoding="utf-8"?>
<!-- Generator: Adobe Illustrator 18.1.0, SVG Export Plug-In . SVG Version: 6.00 Build 0)  -->
<!DOCTYPE svg PUBLIC "-//W3C//DTD SVG 1.1//EN" "http://www.w3.org/Graphics/SVG/1.1/DTD/svg11.dtd">
<svg version="1.1" id="Layer_1" xmlns="http://www.w3.org/2000/svg" xmlns:xlink="http://www.w3.org/1999/xlink" x="0px" y="0px"
	 viewBox="0 0 100 100" enable-background="new 0 0 100 100" xml:space="preserve">
<path d="M39,64.8c-0.7,0-1.2-0.5-1.2-1.2c0-0.6,0.5-1.2,1.2-1.2h23c0.7,0,1.2,0.5,1.2,1.2c0,0.7-0.5,1.2-1.2,1.2H39L39,64.8z
	 M33.3,25.5h23.4c0.5,0,1,0.2,1.4,0.6l14.3,14.3c0.4,0.4,0.6,0.9,0.6,1.4v0.1v29.8c0,1.5-0.6,2.8-1.5,3.7h0l0,0
	c-1,0.9-2.3,1.5-3.7,1.5H33.3c-1.5,0-2.8-0.6-3.7-1.6l0,0h0c-0.9-1-1.6-2.3-1.6-3.7V30.7c0-1.5,0.6-2.8,1.6-3.7
	C30.5,26,31.8,25.5,33.3,25.5L33.3,25.5z M55.5,29.4H33.3c-0.4,0-0.7,0.2-0.9,0.4c-0.2,0.2-0.4,0.6-0.4,0.9v40.9
	c0,0.4,0.1,0.7,0.4,1l0,0c0.2,0.2,0.6,0.4,0.9,0.4h34.4c0.4,0,0.7-0.2,0.9-0.4h0c0.2-0.3,0.4-0.6,0.4-1V42.9h-9
	c-1.2,0-2.4-0.5-3.2-1.3l-0.1-0.1c-0.8-0.8-1.2-1.9-1.2-3.1V29.4L55.5,29.4z M67,40.6l-9.1-9.1v7c0,0.6,0.2,1.1,0.6,1.5l0,0
	c0.4,0.4,0.9,0.6,1.5,0.6H67L67,40.6z M39,48.1c-0.7,0-1.2-0.5-1.2-1.2c0-0.6,0.5-1.2,1.2-1.2h23c0.7,0,1.2,0.5,1.2,1.2
	c0,0.7-0.5,1.2-1.2,1.2H39L39,48.1z M39,56.5c-0.7,0-1.2-0.5-1.2-1.2c0-0.6,0.5-1.2,1.2-1.2h23c0.7,0,1.2,0.5,1.2,1.2
	c0,0.7-0.5,1.2-1.2,1.2H39L39,56.5z"/>
</svg>
