<svg xmlns:sketch="http://www.bohemiancoding.com/sketch/ns" xmlns="http://www.w3.org/2000/svg" width="60" height="60" viewBox="0 0 60 60"><title>notes</title><desc>Created with Sketch.</desc><path sketch:type="MSShapeGroup" fill="#fff" fill-opacity=".011" d="M30 58.75c15.879 0 28.75-12.872 28.75-28.75s-12.871-28.75-28.75-28.75c-15.878 0-28.75 12.872-28.75 28.75s12.872 28.75 28.75 28.75zm0 1.25c-16.568 0-30-13.432-30-30s13.432-30 30-30 30 13.432 30 30-13.432 30-30 30z"/><path fill="none" d="M36 12.5v7.5h7.5zM34 11h-19v38h30v-27h-11v-11zm0 26h-16v-2h16v2zm8-5h-24v-2h24v2zm0-7v2h-24v-2h24z"/><path d="M35.5 8h-20.5c-1.652 0-3 1.346-3 3.007v37.986c0 1.666 1.347 3.007 3.007 3.007h29.985c1.662 0 3.008-1.34 3.008-2.992v-28.508l-12.5-12.5zm.5 4.5l7.5 7.5h-7.5v-7.5zm9 36.5h-30v-38h19v11h11v27zM18 25h24v2h-24zM18 30h24v2h-24zM18 35h16v2h-16z"/></svg>