<?xml version="1.0" encoding="utf-8"?>
<!-- Generator: Adobe Illustrator 18.1.0, SVG Export Plug-In . SVG Version: 6.00 Build 0)  -->
<!DOCTYPE svg PUBLIC "-//W3C//DTD SVG 1.1//EN" "http://www.w3.org/Graphics/SVG/1.1/DTD/svg11.dtd">
<svg version="1.1" id="Layer_1" xmlns="http://www.w3.org/2000/svg" xmlns:xlink="http://www.w3.org/1999/xlink" x="0px" y="0px"
	 viewBox="0 0 100 100" enable-background="new 0 0 100 100" xml:space="preserve">
<path d="M50.3,40.2c3,0,5.8,1.2,7.8,3.2c2,2,3.2,4.8,3.2,7.8c0,3-1.2,5.8-3.2,7.8h0l0,0c-2,2-4.7,3.2-7.8,3.2
	c-3.1,0-5.8-1.2-7.8-3.2c-2-2-3.2-4.8-3.2-7.8c0-3.1,1.2-5.8,3.2-7.8l0,0h0l0,0C44.5,41.4,47.3,40.2,50.3,40.2L50.3,40.2z
	 M41.3,39.5c0.8,0.7,0.8,2,0,2.7c-0.8,0.8-2,0.8-2.7,0l-6.1-6.1c-0.8-0.8-0.8-2,0-2.7c0.8-0.8,2-0.8,2.7,0L41.3,39.5L41.3,39.5z
	 M35.6,49.3c1.1,0,1.9,0.9,1.9,1.9c0,1.1-0.9,2-1.9,2H27c-1.1,0-1.9-0.9-1.9-2c0-1.1,0.9-1.9,1.9-1.9H35.6L35.6,49.3z M38.5,60.3
	c0.8-0.8,2-0.8,2.8,0c0.7,0.7,0.7,2,0,2.7l-6.1,6.1c-0.8,0.8-2,0.8-2.7,0c-0.8-0.7-0.8-2,0-2.7L38.5,60.3L38.5,60.3z M48.4,66
	c0-1.1,0.9-2,1.9-2c1.1,0,1.9,0.9,1.9,2v8.6c0,1.1-0.9,1.9-1.9,1.9c-1.1,0-1.9-0.9-1.9-1.9V66L48.4,66z M59.3,63
	c-0.8-0.8-0.8-2,0-2.7c0.7-0.8,2-0.8,2.7,0l6.1,6.1c0.8,0.7,0.8,2,0,2.7c-0.8,0.8-2,0.8-2.7,0L59.3,63L59.3,63z M65,53.2
	c-1.1,0-1.9-0.9-1.9-1.9c0-1.1,0.9-2,1.9-2h8.6c1.1,0,1.9,0.9,1.9,2c0,1.1-0.9,1.9-1.9,1.9H65L65,53.2z M62.1,42.2
	c-0.7,0.8-2,0.8-2.7,0c-0.8-0.7-0.8-2,0-2.7l6.1-6.1c0.8-0.8,2-0.8,2.7,0c0.8,0.7,0.8,2,0,2.7L62.1,42.2L62.1,42.2z M52.2,36.5
	c0,1.1-0.9,2-1.9,2c-1.1,0-1.9-0.9-1.9-2V28c0-1.1,0.9-1.9,1.9-1.9c1.1,0,1.9,0.9,1.9,1.9V36.5L52.2,36.5z M55.4,46.2
	c-1.3-1.3-3.1-2.1-5.1-2.1c-2,0-3.8,0.8-5.1,2.1l0,0h0c-1.3,1.3-2.1,3.1-2.1,5.1c0,2,0.8,3.8,2.1,5.1c1.3,1.3,3.1,2.1,5.1,2.1
	c2,0,3.8-0.8,5.1-2.1h0c1.3-1.3,2.1-3.1,2.1-5.1C57.5,49.3,56.7,47.5,55.4,46.2L55.4,46.2z"/>
</svg>
