<?xml version="1.0" encoding="UTF-8" standalone="no"?>
<svg width="60px" height="60px" viewBox="0 0 60 60" version="1.1" xmlns="http://www.w3.org/2000/svg" xmlns:xlink="http://www.w3.org/1999/xlink" xmlns:sketch="http://www.bohemiancoding.com/sketch/ns">
    <!-- Generator: Sketch 3.3.2 (12043) - http://www.bohemiancoding.com/sketch -->
    <title>photos</title>
    <desc>Created with Sketch.</desc>
    <defs></defs>
    <g id="Page-1" stroke="none" stroke-width="1" fill="none" fill-rule="evenodd" sketch:type="MSPage">
        <g id="photos" sketch:type="MSLayerGroup">
            <path d="M30,58.75 L30,58.75 C45.8781866,58.75 58.75,45.8781866 58.75,30 C58.75,14.1218134 45.8781866,1.25 30,1.25 C14.1218134,1.25 1.25,14.1218134 1.25,30 C1.25,45.8781866 14.1218134,58.75 30,58.75 L30,58.75 Z M30,60 L30,60 C13.4314575,60 0,46.5685425 0,30 C0,13.4314575 13.4314575,0 30,0 C46.5685425,0 60,13.4314575 60,30 C60,46.5685425 46.5685425,60 30,60 L30,60 Z" id="Shape" fill-opacity="0.0107280344" fill="#FFFFFF" sketch:type="MSShapeGroup"></path>
            <path d="M7,13.9976599 C7,12.342098 8.35178054,11 10.0004442,11 L49.9995558,11 C51.6566554,11 53,12.3524401 53,13.9976599 L53,46.0023401 C53,47.657902 51.6482195,49 49.9995558,49 L10.0004442,49 C8.34334461,49 7,47.6475599 7,46.0023401 L7,13.9976599 Z M49.9999991,45.9999998 L9.99999998,45.9999998 L9.99999998,42.4999998 L19.6833564,32.9962894 L26.0250346,39.1298701 L29.8154629,42.7959184 C30.25282,43.2189239 30.9088557,43.2189239 31.3462128,42.7959184 C31.7835699,42.3729128 31.7835699,41.7384045 31.3462128,41.3153989 L28.284713,38.3543599 L36.8860696,30.0352505 L49.9999991,42.7959183 L49.9999991,45.9999998 Z M37.6149981,27.9202226 C37.177641,27.4972171 36.5216053,27.4972171 36.0842482,27.9202226 L26.7539631,36.9443414 L20.4122849,30.8107607 C19.9749278,30.3877551 19.3188921,30.3877551 18.881535,30.8107607 L9.99999998,39.5 L9.99999998,14 L50,14 L50,40 L37.6149981,27.9202226 Z M20.339392,28.2022263 L20.339392,28.2022263 C23.7653561,28.2022263 26.5352845,25.5231911 26.5352845,22.2096475 C26.5352845,18.8961039 23.7653561,16.2170686 20.339392,16.2170686 C16.913428,16.2170686 14.1434996,18.8961039 14.1434996,22.2096475 C14.2163924,25.5231911 16.9863208,28.2022263 20.339392,28.2022263 L20.339392,28.2022263 L20.339392,28.2022263 Z M20.339392,18.2615955 L20.339392,18.2615955 C22.5990705,18.2615955 24.3484989,20.0241187 24.3484989,22.2096475 C24.3484989,24.3951763 22.5261776,26.0871985 20.339392,26.0871985 C18.0797136,26.0871985 16.2573923,24.3246753 16.2573923,22.2096475 C16.3302851,20.0241187 18.1526065,18.2615955 20.339392,18.2615955 L20.339392,18.2615955 L20.339392,18.2615955 Z" id="Shape" fill="#000000" sketch:type="MSShapeGroup"></path>
        </g>
    </g>
</svg>