<svg xmlns:sketch="http://www.bohemiancoding.com/sketch/ns" xmlns="http://www.w3.org/2000/svg" width="60" height="60" viewBox="0 0 60 60"><title>photos</title><desc>Created with Sketch.</desc><path sketch:type="MSShapeGroup" fill="#fff" fill-opacity=".011" d="M30 58.75c15.879 0 28.75-12.872 28.75-28.75s-12.871-28.75-28.75-28.75c-15.878 0-28.75 12.872-28.75 28.75s12.872 28.75 28.75 28.75zm0 1.25c-16.568 0-30-13.432-30-30s13.432-30 30-30 30 13.432 30 30-13.432 30-30 30z"/><path d="M20.339 26.087c2.187 0 4.009-1.692 4.009-3.878s-1.75-3.948-4.009-3.948c-2.187 0-4.009 1.762-4.082 3.948 0 2.116 1.823 3.878 4.082 3.878zm7.946 12.267l3.061 2.961c.438.423.438 1.058 0 1.48s-1.093.423-1.53 0l-3.791-3.666-6.341-6.134-9.684 9.505v3.5h40v-3.204l-13.113-12.761-8.602 8.319zm-18.285 1.146l8.881-8.689c.438-.423 1.094-.423 1.531 0l6.342 6.134 9.33-9.024c.438-.423 1.094-.423 1.531 0l12.385 12.079v-26h-40v25.5zm10.339-23.283c3.426 0 6.196 2.679 6.196 5.993 0 3.314-2.77 5.993-6.196 5.993-3.353 0-6.123-2.679-6.196-5.993.001-3.314 2.771-5.993 6.196-5.993z" fill="none"/><path d="M50 11h-40c-1.649 0-3 1.342-3 2.998v32.004c0 1.645 1.343 2.998 3 2.998h40c1.648 0 3-1.342 3-2.998v-32.004c0-1.645-1.344-2.998-3-2.998zm0 35h-40v-3.5l9.684-9.504 6.341 6.134 3.791 3.666c.438.423 1.093.423 1.53 0s.438-1.058 0-1.48l-3.061-2.961 8.602-8.319 13.113 12.76v3.204zm0-6l-12.385-12.08c-.438-.423-1.094-.423-1.531 0l-9.33 9.024-6.342-6.134c-.437-.423-1.093-.423-1.531 0l-8.881 8.69v-25.5h40v26zm-29.661-11.798c3.426 0 6.196-2.679 6.196-5.993 0-3.313-2.77-5.993-6.196-5.993s-6.196 2.679-6.196 5.993c.073 3.314 2.843 5.993 6.196 5.993zm0-9.94c2.26 0 4.009 1.762 4.009 3.948s-1.822 3.878-4.009 3.878c-2.26 0-4.082-1.763-4.082-3.878.073-2.186 1.896-3.948 4.082-3.948z"/></svg>