<?xml version="1.0" encoding="UTF-8" standalone="no"?>
<!-- Generator: Adobe Illustrator 17.0.0, SVG Export Plug-In . SVG Version: 6.00 Build 0)  -->

<svg
   xmlns:dc="http://purl.org/dc/elements/1.1/"
   xmlns:cc="http://creativecommons.org/ns#"
   xmlns:rdf="http://www.w3.org/1999/02/22-rdf-syntax-ns#"
   xmlns:svg="http://www.w3.org/2000/svg"
   xmlns="http://www.w3.org/2000/svg"
   xmlns:sodipodi="http://sodipodi.sourceforge.net/DTD/sodipodi-0.dtd"
   xmlns:inkscape="http://www.inkscape.org/namespaces/inkscape"
   version="1.1"
   id="Calque_1"
   x="0px"
   y="0px"
   width="128px"
   height="128px"
   viewBox="0 0 128 128"
   enable-background="new 0 0 128 128"
   xml:space="preserve"
   inkscape:version="0.48.4 r9939"
   sodipodi:docname="remote_storage.svg"><metadata
     id="metadata15"><rdf:RDF><cc:Work
         rdf:about=""><dc:format>image/svg+xml</dc:format><dc:type
           rdf:resource="http://purl.org/dc/dcmitype/StillImage" /></cc:Work></rdf:RDF></metadata><defs
     id="defs13" /><sodipodi:namedview
     pagecolor="#ffffff"
     bordercolor="#666666"
     borderopacity="1"
     objecttolerance="10"
     gridtolerance="10"
     guidetolerance="10"
     inkscape:pageopacity="0"
     inkscape:pageshadow="2"
     inkscape:window-width="1018"
     inkscape:window-height="765"
     id="namedview11"
     showgrid="false"
     inkscape:zoom="1.84375"
     inkscape:cx="64"
     inkscape:cy="64"
     inkscape:window-x="486"
     inkscape:window-y="351"
     inkscape:window-maximized="0"
     inkscape:current-layer="Calque_1" /><g
     id="g3"
     transform="matrix(0.61478494,0,0,0.59566173,24.656019,25.321604)"><path
       stroke-miterlimit="10"
       d="m 119.088,64.321 c 0,-9.703 -0.044,-19.406 0.034,-29.108 0.017,-2.131 -0.557,-3.479 -2.542,-4.612 C 99.835,21.041 83.146,11.383 66.484,1.678 64.685,0.63 63.298,0.641 61.504,1.685 44.842,11.389 28.146,21.036 11.414,30.619 9.616,31.649 8.868,32.818 8.875,34.905 8.94,54.311 8.943,73.717 8.871,93.122 c -0.008,2.106 0.751,3.235 2.547,4.263 16.644,9.523 33.254,19.105 49.816,28.771 2.018,1.178 3.529,1.169 5.544,-0.006 16.47,-9.611 32.985,-19.145 49.544,-28.602 2.007,-1.146 2.848,-2.412 2.818,-4.758 -0.123,-9.489 -0.051,-18.98 -0.052,-28.469 z"
       id="path5"
       inkscape:connector-curvature="0"
       style="fill:none;stroke:#000000;stroke-width:8;stroke-miterlimit:10" /><path
       display="none"
       stroke-miterlimit="10"
       d="m 119.088,64.321 c 0,9.49 -0.071,18.98 0.051,28.468 0.03,2.347 -0.812,3.612 -2.818,4.758 -16.559,9.457 -33.074,18.991 -49.544,28.602 -2.014,1.176 -3.526,1.184 -5.544,0.006 C 44.672,116.49 28.061,106.907 11.417,97.384 9.621,96.356 8.862,95.227 8.87,93.121 8.943,73.717 8.94,54.311 8.875,34.905 8.868,32.817 9.616,31.649 11.414,30.619 28.146,21.036 44.842,11.389 61.504,1.685 63.298,0.64 64.685,0.63 66.484,1.678 c 16.662,9.705 33.351,19.363 50.096,28.923 1.984,1.133 2.559,2.481 2.542,4.612 -0.077,9.702 -0.034,19.405 -0.034,29.108 z m -58.069,3.337 c 0.87,18.975 1.71,37.283 2.549,55.59 0.287,-0.001 0.575,-0.003 0.862,-0.004 0.84,-18.378 1.68,-36.757 2.54,-55.579 14.348,7.792 28.135,15.278 41.921,22.765 0.147,-0.256 0.295,-0.512 0.442,-0.767 C 95.913,81.442 82.493,73.221 68.612,64.717 84.073,54.819 98.952,45.295 113.831,35.77 113.676,35.504 113.52,35.238 113.365,34.971 97.587,43.134 81.808,51.297 65.701,59.63 65.274,42.224 64.863,25.446 64.452,8.667 64.147,8.672 63.842,8.678 63.537,8.683 63.126,25.528 62.715,42.373 62.293,59.642 46.021,51.217 30.302,43.078 14.583,34.939 c -0.153,0.269 -0.306,0.537 -0.458,0.806 14.906,9.546 29.812,19.092 45.248,28.976 -13.89,8.51 -27.283,16.714 -40.677,24.919 0.151,0.256 0.302,0.512 0.452,0.769 13.79,-7.494 27.58,-14.986 41.871,-22.751 z"
       id="path7"
       inkscape:connector-curvature="0"
       style="fill:none;stroke:#000000;stroke-width:8;stroke-miterlimit:10;display:none" /><path
       stroke-miterlimit="10"
       d="M 61.019,67.658 C 46.728,75.423 26.79,86.382 13,93.875 12.849,93.619 13.148,93.381 12.997,93.125 26.39,84.921 45.483,73.231 59.372,64.722 43.937,54.837 29.03,45.291 14.124,35.746 c 0.153,-0.269 0.306,-0.537 0.458,-0.806 15.719,8.139 31.439,16.278 47.71,24.703 0.421,-17.269 0.833,-34.114 1.244,-50.959 0.305,-0.005 0.61,-0.011 0.915,-0.016 0.411,16.779 0.822,33.557 1.249,50.963 16.107,-8.333 31.886,-16.496 47.665,-24.659 0.155,0.266 0.311,0.532 0.466,0.799 -14.879,9.525 -29.758,19.05 -45.219,28.947 13.882,8.502 32.718,18.811 46.138,27.032 -0.147,0.256 -0.77,0.869 -0.918,1.125 -13.787,-7.487 -32.514,-17.419 -46.862,-25.21 -0.86,18.822 -1.7,37.201 -2.54,55.579 -0.287,0.001 -0.575,0.003 -0.862,0.004 -0.84,-18.308 -1.679,-36.615 -2.549,-55.59 z"
       id="path9"
       inkscape:connector-curvature="0"
       style="fill:none;stroke:#000000;stroke-width:8;stroke-miterlimit:10" /></g></svg>