<svg xmlns:sketch="http://www.bohemiancoding.com/sketch/ns" xmlns="http://www.w3.org/2000/svg" width="60" height="60" viewBox="0 0 60 60"><title>remote_storage</title><desc>Created with Sketch.</desc><path sketch:type="MSShapeGroup" fill="#fff" fill-opacity=".011" d="M30 58.75c15.879 0 28.75-12.872 28.75-28.75s-12.871-28.75-28.75-28.75c-15.878 0-28.75 12.872-28.75 28.75s12.872 28.75 28.75 28.75zm0 1.25c-16.568 0-30-13.432-30-30s13.432-30 30-30 30 13.432 30 30-13.432 30-30 30z"/><path d="M31 7l-20 12v22l20 12 20-12v-22l-20-12zm-17 14.34l15 8.66-15 8.66v-17.32zm16 27.072l-14.31-8.418 14.31-8.262v16.68zm0-20.144l-14.31-8.262 14.31-8.418v16.68zm2-16.68l14.311 8.417-14.311 8.263v-16.68zm0 36.824v-16.68l14.311 8.262-14.311 8.418zm16-9.752l-15-8.66 15-8.66v17.32z"/></svg>