<?xml version="1.0" encoding="UTF-8" standalone="no"?>
<svg width="60px" height="60px" viewBox="0 0 60 60" version="1.1" xmlns="http://www.w3.org/2000/svg" xmlns:xlink="http://www.w3.org/1999/xlink" xmlns:sketch="http://www.bohemiancoding.com/sketch/ns">
    <!-- Generator: Sketch 3.3.2 (12043) - http://www.bohemiancoding.com/sketch -->
    <title>settings</title>
    <desc>Created with Sketch.</desc>
    <defs></defs>
    <g id="Page-1" stroke="none" stroke-width="1" fill="none" fill-rule="evenodd" sketch:type="MSPage">
        <g id="settings" sketch:type="MSLayerGroup">
            <path d="M30,58.75 L30,58.75 C45.8781866,58.75 58.75,45.8781866 58.75,30 C58.75,14.1218134 45.8781866,1.25 30,1.25 C14.1218134,1.25 1.25,14.1218134 1.25,30 C1.25,45.8781866 14.1218134,58.75 30,58.75 L30,58.75 Z M30,60 L30,60 C13.4314575,60 0,46.5685425 0,30 C0,13.4314575 13.4314575,0 30,0 C46.5685425,0 60,13.4314575 60,30 C60,46.5685425 46.5685425,60 30,60 L30,60 Z" id="Shape-Copy" fill-opacity="0.0107280344" fill="#FFFFFF" sketch:type="MSShapeGroup"></path>
            <path d="M31.8333333,52 L28.1666667,52 C26.6505,52 25.4166667,50.7661667 25.4166667,49.25 L25.4166667,45.8363333 C24.2433333,45.4971667 23.114,45.02875 22.0424167,44.4365833 L19.6279167,46.852 C18.5884167,47.8915 16.778,47.8896667 15.7385,46.852 L13.14525,44.2596667 C12.6255,43.7408333 12.3395,43.0496667 12.3395,42.3154167 C12.3395,41.5811667 12.6255,40.89 13.14525,40.3711667 L15.5606667,37.9548333 C14.9694167,36.886 14.501,35.7566667 14.16275,34.5824167 L10.75,34.5824167 C9.23383333,34.5824167 8,33.3485833 8,31.8324167 L8,28.16575 C8,27.4305833 8.286,26.7403333 8.80483333,26.2215 C9.32458333,25.7026667 10.0148333,25.41575 10.75,25.41575 L14.1636667,25.41575 C14.5028333,24.24425 14.9703333,23.114 15.5625,22.0433333 L13.148,19.6279167 C12.0755,18.5554167 12.0755,16.8119167 13.148,15.7394167 L15.7403333,13.1461667 C16.7789167,12.1085 18.59025,12.1066667 19.62975,13.1461667 L22.0451667,15.5615833 C23.1158333,14.9703333 24.2451667,14.5019167 25.4166667,14.1636667 L25.4166667,10.75 C25.4166667,9.23383333 26.6505,8 28.1666667,8 L31.8333333,8 C33.3495,8 34.5833333,9.23383333 34.5833333,10.75 L34.5833333,14.1636667 C35.7566667,14.5028333 36.886,14.97125 37.9548333,15.5615833 L40.37025,13.1461667 C41.40975,12.1085 43.2201667,12.1066667 44.2596667,13.1461667 L46.8529167,15.7385 C47.3726667,16.2573333 47.6586667,16.9485 47.6586667,17.68275 C47.6586667,18.417 47.3726667,19.1081667 46.8529167,19.627 L44.4384167,22.0424167 C45.0305833,23.1130833 45.499,24.2424167 45.83725,25.41575 L49.25,25.41575 C50.7661667,25.41575 52,26.6495833 52,28.16575 L52,31.8324167 C52,32.5675833 51.714,33.2578333 51.1951667,33.7766667 C50.6763333,34.2955 49.9851667,34.5824167 49.25,34.5824167 L45.8363333,34.5824167 C45.4971667,35.75575 45.02875,36.886 44.4375,37.95575 L46.852,40.3711667 C47.9245,41.4436667 47.9245,43.1871667 46.852,44.2596667 L44.2596667,46.8529167 C43.2201667,47.8915 41.40975,47.8915 40.37025,46.8529167 L37.9566667,44.4375 C36.886,45.0296667 35.75575,45.4971667 34.58425,45.8363333 L34.58425,49.25 C34.5833333,50.7661667 33.3504167,52 31.8333333,52 Z M31.8333333,49 C31.6934063,49 31.5843347,49.1090716 31.58425,49.25 L31.58425,45.8363333 L31.58425,43.5816793 L33.7499663,42.9546722 C34.7111384,42.6763986 35.633778,42.293969 36.5047022,41.8122763 L38.4817993,40.7187792 L40.0787922,42.3169852 L42.4906344,44.7306608 C42.358776,44.5989186 42.2711407,44.5989186 42.1379714,44.7319713 L44.7306797,42.1383463 C44.6316068,42.2374192 44.6316068,42.3934141 44.7302771,42.4920844 L42.3157771,40.0766677 L40.7199141,38.4801988 L41.8118506,36.5045556 C42.2944069,35.6314653 42.6770298,34.7086247 42.9543242,33.7493359 L43.5806993,31.5824167 L45.8363333,31.5824167 L49.25,31.5824167 C49.1887399,31.5824167 49.1170723,31.6121204 49.0738463,31.6553463 C49.0301368,31.6990559 49,31.77184 49,31.8324167 L49,28.16575 C49,28.3064376 49.1093124,28.41575 49.25,28.41575 L45.83725,28.41575 L43.5799223,28.41575 L42.9546409,26.2467522 C42.6787967,25.2898942 42.2968248,24.3688113 41.813193,23.4943811 L40.7203436,21.5184552 L42.3166938,19.921499 L44.7334695,17.5038082 C44.6888824,17.5483166 44.6586667,17.6212555 44.6586667,17.68275 C44.6586667,17.7442445 44.6888824,17.8171834 44.7319713,17.8601953 L42.1383463,15.267487 C42.2710384,15.4001791 42.3586737,15.4001509 42.4915703,15.267487 L40.0761537,17.6829037 L38.4801607,19.2788967 L36.5044107,18.1876591 C35.6306695,17.7050782 34.7083516,17.3226263 33.7502526,17.0456758 L31.5833333,16.4193007 L31.5833333,14.1636667 L31.5833333,10.75 C31.5833333,10.8906876 31.6926458,11 31.8333333,11 L28.1666667,11 C28.3073542,11 28.4166667,10.8906876 28.4166667,10.75 L28.4166667,14.1636667 L28.4166667,16.4200161 L26.2488693,17.0459295 C25.2930297,17.3219113 24.3709331,17.7042715 23.4954091,18.1877587 L21.5197253,19.2787827 L19.9238463,17.6829037 L17.5084297,15.267487 C17.6412773,15.4003347 17.7287172,15.4003066 17.8620286,15.267112 L15.2693203,17.860737 C15.3683932,17.7616641 15.3683932,17.6056692 15.2697229,17.506999 L17.6842229,19.9224156 L19.2805731,21.5193719 L18.1877237,23.4952978 C17.706031,24.366222 17.3236014,25.2888616 17.0453278,26.2500337 L16.4183207,28.41575 L14.1636667,28.41575 L10.75,28.41575 C10.8112909,28.41575 10.8827957,28.3861035 10.9261537,28.3428203 C10.9698632,28.2991108 11,28.2263267 11,28.16575 L11,31.8324167 C11,31.6917291 10.8906876,31.5824167 10.75,31.5824167 L14.16275,31.5824167 L16.4205659,31.5824167 L17.0455317,33.7520135 C17.3211999,34.7090077 17.7029699,35.6298685 18.1857891,36.5026859 L19.2788557,38.4786791 L17.6823894,40.0757512 L15.2646972,42.4943585 C15.3092843,42.4498501 15.3395,42.3769112 15.3395,42.3154167 C15.3395,42.2539221 15.3092843,42.1809833 15.2661953,42.1379714 L17.8579472,44.7288082 C17.7269237,44.5980158 17.6392884,44.5979876 17.5061938,44.7310823 L19.9206938,42.3156656 L21.5170725,40.7186808 L23.4934297,41.8108337 C24.3691333,42.2947555 25.2911917,42.6772417 26.2497474,42.9543242 L28.4166667,43.5806993 L28.4166667,45.8363333 L28.4166667,49.25 C28.4166667,49.1093124 28.3073542,49 28.1666667,49 L31.8333333,49 Z M30,39 C25.0374,39 21,34.9626 21,30 C21,25.0374 25.0374,21 30,21 C34.9626,21 39,25.0374 39,30 C39,34.9626 34.9635,39 30,39 Z M30,37 C33.8585889,37 37,33.8583721 37,30 C37,26.1419695 33.8580305,23 30,23 C26.1419695,23 23,26.1419695 23,30 C23,33.8580305 26.1419695,37 30,37 Z" id="Shape-Copy-2" fill="#000000" sketch:type="MSShapeGroup"></path>
        </g>
    </g>
</svg>