<svg xmlns="http://www.w3.org/2000/svg" width="60" height="60" viewBox="0 0 60 60"><title>shout IRC</title><desc>Created with Sketch.</desc><path d="M30 8c-12.15 0-22 9.402-22 21 0 5.316 2.069 10.172 5.481 13.871l.001-.001-1.178 7.655c-.168 1.091.505 1.569 1.488 1.078l7.028-3.514c2.794 1.227 5.903 1.911 9.18 1.911 12.15 0 22-9.402 22-21s-9.85-21-22-21zm5.318 31.532c-1.483 1.188-3.549 1.78-6.194 1.78-2.438 0-4.594-.457-6.469-1.375v-4.5c1.542.688 2.846 1.172 3.914 1.453 1.068.281 2.044.422 2.93.422 1.063 0 1.878-.203 2.444-.608.568-.406.853-1.011.853-1.813 0-.447-.125-.846-.375-1.195-.25-.348-.616-.685-1.103-1.008-.483-.322-1.47-.838-2.96-1.547-1.396-.656-2.443-1.286-3.141-1.891-.698-.604-1.255-1.307-1.672-2.109-.417-.802-.625-1.74-.625-2.813 0-2.021.685-3.609 2.055-4.766 1.37-1.156 3.263-1.734 5.679-1.734 1.188 0 2.32.141 3.398.422s2.206.677 3.383 1.188l-1.562 3.766c-1.219-.5-2.227-.849-3.023-1.047-.797-.198-1.58-.297-2.352-.297-.917 0-1.62.214-2.109.641-.49.427-.734.984-.734 1.672 0 .427.099.799.297 1.117.198.318.513.625.945.922s1.456.831 3.07 1.602c2.135 1.021 3.6 2.044 4.391 3.07.793 1.026 1.188 2.284 1.188 3.773 0 2.063-.741 3.687-2.228 4.875z"/></svg>