<?xml version="1.0" encoding="UTF-8" standalone="no"?>
<svg
   xmlns:dc="http://purl.org/dc/elements/1.1/"
   xmlns:cc="http://creativecommons.org/ns#"
   xmlns:rdf="http://www.w3.org/1999/02/22-rdf-syntax-ns#"
   xmlns:svg="http://www.w3.org/2000/svg"
   xmlns="http://www.w3.org/2000/svg"
   xmlns:sodipodi="http://sodipodi.sourceforge.net/DTD/sodipodi-0.dtd"
   xmlns:inkscape="http://www.inkscape.org/namespaces/inkscape"
   enable-background="new 0 0 60 60"
   height="60px"
   id="Layer_1"
   version="1.1"
   viewBox="0 0 60 60"
   width="60px"
   xml:space="preserve"
   inkscape:version="0.48.4 r9939"
   sodipodi:docname="state.svg"
   inkscape:export-filename="/home/frankrousseau/tmp/cozy-home/client/app/assets/img/apps/state.png"
   inkscape:export-xdpi="90"
   inkscape:export-ydpi="90"><metadata
     id="metadata9"><rdf:RDF><cc:Work
         rdf:about=""><dc:format>image/svg+xml</dc:format><dc:type
           rdf:resource="http://purl.org/dc/dcmitype/StillImage" /></cc:Work></rdf:RDF></metadata><defs
     id="defs7" /><sodipodi:namedview
     pagecolor="#ffffff"
     bordercolor="#666666"
     borderopacity="1"
     objecttolerance="10"
     gridtolerance="10"
     guidetolerance="10"
     inkscape:pageopacity="0"
     inkscape:pageshadow="2"
     inkscape:window-width="1272"
     inkscape:window-height="765"
     id="namedview5"
     showgrid="false"
     inkscape:zoom="3.9333333"
     inkscape:cx="30"
     inkscape:cy="30"
     inkscape:window-x="510"
     inkscape:window-y="244"
     inkscape:window-maximized="0"
     inkscape:current-layer="Layer_1" /><path
     d="m 49.178108,40.098876 h -2.067971 v -5.670808 c 0,-2.718322 -2.486722,-4.929645 -5.54439,-4.929645 h -9.73187 v -8.325398 h 11.863461 c 1.881147,0 3.411188,-1.360592 3.411188,-3.033406 v -5.95367 C 47.109332,10.513136 45.579289,9.1525423 43.698143,9.1525423 H 17.412829 c -1.881147,0 -3.411187,1.3605937 -3.411187,3.0334067 v 5.952953 c 0,1.672814 1.53004,3.033408 3.411187,3.033408 H 29.27468 v 8.325398 h -9.824478 c -3.056057,0 -5.544389,2.211321 -5.544389,4.929644 v 5.67081 h -2.067168 c -1.8811455,0 -3.4111874,1.360592 -3.4111874,3.033406 v 5.952237 c 0,1.674246 1.5300419,3.03484 3.4111874,3.03484 h 6.693531 c 1.881145,0 3.411189,-1.360594 3.411189,-3.033408 v -5.952238 c 0,-1.672812 -1.530044,-3.033406 -3.411189,-3.033406 h -2.067973 v -5.670809 c 0,-1.463712 1.339995,-2.654589 2.985193,-2.654589 h 9.825284 v 8.563144 h -1.799007 c -1.881146,0 -3.411188,1.360594 -3.411188,3.033407 v 5.476746 c 0,1.672813 1.530042,3.034123 3.411188,3.034123 h 6.158822 c 1.881146,0 3.411187,-1.36131 3.411187,-3.034123 v -5.476746 c 0,-1.672813 -1.530041,-3.033407 -3.411187,-3.033407 h -1.800618 v -8.56386 h 9.731066 c 1.646809,0 2.985193,1.190876 2.985193,2.654589 v 5.670808 h -2.067973 c -1.881147,0 -3.411189,1.360594 -3.411189,3.033408 v 5.952238 c 0,1.672813 1.530042,3.033406 3.411189,3.033406 h 6.695141 c 1.881146,0 3.411188,-1.360593 3.411188,-3.033406 v -5.952238 c 8.06e-4,-1.672814 -1.529238,-3.033408 -3.410384,-3.033408 z M 16.560838,18.138902 v -5.952953 c 0,-0.418203 0.38251,-0.758351 0.852798,-0.758351 h 26.285313 c 0.470287,0 0.852797,0.340148 0.852797,0.758351 v 5.952953 c 0,0.418203 -0.38251,0.758352 -0.852797,0.758352 h -26.28612 c -0.470285,0 -0.851991,-0.340149 -0.851991,-0.758352 z m 2.824941,24.993382 v 5.952238 c 0,0.418203 -0.382511,0.758351 -0.852797,0.758351 h -6.694337 c -0.470286,0 -0.852796,-0.340148 -0.852796,-0.758351 v -5.952238 c 0,-0.418204 0.38251,-0.759068 0.852796,-0.759068 h 6.693531 c 0.471092,7.17e-4 0.853603,0.340864 0.853603,0.759068 z m 15.101513,0.237745 v 5.476746 c 0,0.418204 -0.382511,0.759068 -0.852797,0.759068 h -6.158822 c -0.470285,0 -0.854408,-0.340864 -0.854408,-0.759068 v -5.476746 c 0,-0.418203 0.384123,-0.759067 0.854408,-0.759067 h 6.158822 c 0.471091,7.16e-4 0.852797,0.340864 0.852797,0.759067 z m 15.542809,5.715208 c 0,0.418203 -0.382511,0.758352 -0.852797,0.758352 h -6.695141 c -0.468676,0 -0.852797,-0.340149 -0.852797,-0.758352 v -5.952238 c 0,-0.418203 0.384121,-0.759066 0.852797,-0.759066 h 6.695141 c 0.470286,0 0.852797,0.340863 0.852797,0.759066 v 5.952238 z"
     id="path3"
     inkscape:connector-curvature="0"
     style="fill:#231f20" /></svg>