<svg width="60" height="60" viewBox="0 0 60 60" xmlns="http://www.w3.org/2000/svg"><title>icon-store</title><g fill="none" fill-rule="evenodd" opacity=".7"><path stroke="#000" stroke-width="3" stroke-linejoin="round" d="M42.227 17H52v35H9V17h9.773z"/><path d="M22.5 21v-9c0-4.276 3.724-8 8-8s8 3.724 8 8v9.5" stroke="#000" stroke-width="2"/><path d="M24.81 38.72c0-1.6.715-2.825 2.145-3.675 1.43-.85 3.705-1.445 6.825-1.785 0-.46-.045-.91-.135-1.35-.09-.44-.25-.83-.48-1.17-.23-.34-.535-.615-.915-.825-.38-.21-.87-.315-1.47-.315-.86 0-1.655.16-2.385.48-.73.32-1.385.68-1.965 1.08l-.99-1.71c.68-.44 1.51-.865 2.49-1.275.98-.41 2.06-.615 3.24-.615 1.78 0 3.07.545 3.87 1.635.8 1.09 1.2 2.545 1.2 4.365v8.94H34.2l-.21-1.74h-.06c-.7.58-1.455 1.075-2.265 1.485-.81.41-1.665.615-2.565.615-1.24 0-2.265-.36-3.075-1.08-.81-.72-1.215-1.74-1.215-3.06zm2.43-.18c0 .84.245 1.44.735 1.8.49.36 1.095.54 1.815.54.7 0 1.365-.165 1.995-.495.63-.33 1.295-.815 1.995-1.455v-4.05c-1.22.16-2.25.35-3.09.57-.84.22-1.515.48-2.025.78-.51.3-.875.645-1.095 1.035-.22.39-.33.815-.33 1.275z" fill="#000"/></g></svg>