<?xml version="1.0" encoding="UTF-8" standalone="no"?>
<svg width="60px" height="60px" viewBox="0 0 60 60" version="1.1" xmlns="http://www.w3.org/2000/svg" xmlns:xlink="http://www.w3.org/1999/xlink" xmlns:sketch="http://www.bohemiancoding.com/sketch/ns">
    <!-- Generator: Sketch 3.3.2 (12043) - http://www.bohemiancoding.com/sketch -->
    <title>sync</title>
    <desc>Created with Sketch.</desc>
    <defs></defs>
    <g id="Page-1" stroke="none" stroke-width="1" fill="none" fill-rule="evenodd" sketch:type="MSPage">
        <g id="sync" sketch:type="MSLayerGroup">
            <path d="M30,58.75 L30,58.75 C45.8781866,58.75 58.75,45.8781866 58.75,30 C58.75,14.1218134 45.8781866,1.25 30,1.25 C14.1218134,1.25 1.25,14.1218134 1.25,30 C1.25,45.8781866 14.1218134,58.75 30,58.75 L30,58.75 Z M30,60 L30,60 C13.4314575,60 0,46.5685425 0,30 C0,13.4314575 13.4314575,0 30,0 C46.5685425,0 60,13.4314575 60,30 C60,46.5685425 46.5685425,60 30,60 L30,60 Z" id="Shape-Copy" fill-opacity="0.0107280344" fill="#FFFFFF" sketch:type="MSShapeGroup"></path>
            <path d="M17.3452773,45.9283361 C10.9750581,45.2553864 6,39.9262238 6,33.4725482 C6,30.1783379 7.28673455,27.0665616 9.62494249,24.7119338 C11.673155,22.65128 14.3263248,21.3685703 17.1965111,21.0348956 C17.5354792,18.2057503 18.8356573,15.5902324 20.9280413,13.572115 C23.3171425,11.2666404 26.4734831,10 29.8161122,10 C33.157781,10 36.3150819,11.2666404 38.7041831,13.5711698 C40.7879249,15.5807798 42.0842619,18.1821189 42.4318723,20.9961402 C48.9068358,21.5680189 54,26.9455691 54,33.4734935 C54,39.9258066 49.0223291,45.2545986 42.6546977,45.9281863 L42.1603279,42.9619674 C47.1131235,42.5275459 51,38.4261177 51,33.4734935 C51,28.5528561 47.1474453,24.4243052 42.1679351,23.9845072 L39.7518573,23.7711155 L39.4545024,21.3639287 C39.1901461,19.2238771 38.2047602,17.2573699 36.6214237,15.7303625 C34.7941635,13.9677855 32.3845327,13 29.8161122,13 C27.2469826,13 24.8384887,13.9675951 23.0106947,15.73141 C21.4198041,17.2658338 20.4326525,19.2430567 20.1752075,21.3917819 L19.8936761,23.7415406 L17.5429441,24.0148259 C15.3410596,24.2708068 13.3177128,25.2522784 11.7536721,26.8258189 C9.97307807,28.618917 9,30.9710186 9,33.4725482 C9,38.4276175 12.8851625,42.5283183 17.8396532,42.9620806 L17.3452773,45.9283361 L17.3452773,45.9283361 Z M36.2995535,39.7140333 L33.8579072,39.7140333 L35.6480907,37.9253229 C34.5575603,35.9266954 32.4371838,34.5719327 30.0008924,34.5719327 C26.8917202,34.5719327 24.2965787,36.7804779 23.7004465,39.7140333 L21.0910261,39.7140333 C21.715716,35.3533909 25.4656418,32 29.9991069,32 C33.1421911,32 35.9086762,33.6105447 37.5185916,36.0519404 L39,34.5719327 L39,39.7140333 L38.9089732,39.7140333 L36.2995535,39.7140333 Z M29.9991069,47.4280673 C33.1082791,47.4280673 35.7034206,45.2195221 36.2995535,42.285966 L38.9089732,42.285966 C38.2842833,46.6466091 34.5343575,50 30.0008924,50 C26.8578089,50 24.0913238,48.3894553 22.4814077,45.9480596 L21,47.4280673 L21,42.284202 L26.1438769,42.284202 L24.3536934,44.0729125 C25.4442238,46.0715407 27.564601,47.4263034 30.0008924,47.4263034 L29.9991069,47.4280673 Z" id="Shape" fill="#000000" sketch:type="MSShapeGroup"></path>
        </g>
    </g>
</svg>