<?xml version="1.0" encoding="UTF-8" standalone="no"?>
<svg
   xmlns:dc="http://purl.org/dc/elements/1.1/"
   xmlns:cc="http://creativecommons.org/ns#"
   xmlns:rdf="http://www.w3.org/1999/02/22-rdf-syntax-ns#"
   xmlns:svg="http://www.w3.org/2000/svg"
   xmlns="http://www.w3.org/2000/svg"
   xmlns:sodipodi="http://sodipodi.sourceforge.net/DTD/sodipodi-0.dtd"
   xmlns:inkscape="http://www.inkscape.org/namespaces/inkscape"
   enable-background="new 0 0 283.44 283.44"
   height="60"
   id="facebook_xA0_Image_1_"
   version="1.1"
   viewBox="0 0 59.999999 59.999999"
   width="60"
   xml:space="preserve"
   inkscape:version="0.48.4 r9939"
   sodipodi:docname="tiddlywiki.svg"><metadata
     id="metadata25"><rdf:RDF><cc:Work
         rdf:about=""><dc:format>image/svg+xml</dc:format><dc:type
           rdf:resource="http://purl.org/dc/dcmitype/StillImage" /></cc:Work></rdf:RDF></metadata><defs
     id="defs23" /><sodipodi:namedview
     pagecolor="#ffffff"
     bordercolor="#666666"
     borderopacity="1"
     objecttolerance="10"
     gridtolerance="10"
     guidetolerance="10"
     inkscape:pageopacity="0"
     inkscape:pageshadow="2"
     inkscape:window-width="1208"
     inkscape:window-height="993"
     id="namedview21"
     showgrid="false"
     inkscape:zoom="1.1775134"
     inkscape:cx="135.58109"
     inkscape:cy="122.33177"
     inkscape:window-x="0"
     inkscape:window-y="23"
     inkscape:window-maximized="0"
     inkscape:current-layer="facebook_xA0_Image_1_" /><g
     id="g3"
     transform="matrix(0.23647935,0,0,0.23647935,1.0813133,-3.1168028)"><path
       d="m 58.799,56.688 c 9.05,-6.001 19.419,-8.475 29.638,-11.28 13.265,-3.641 26.495,-7.483 39.914,-10.457 8.906,-1.973 17.945,-3.586 27.107,-4.377 6.247,-0.539 12.527,-1.48 18.604,-2.997 6.953,-1.735 8.914,2.401 9.494,7.992 0.779,7.505 0.759,15.05 0.432,22.82 7.646,-1.693 15.092,-3.375 22.555,-4.982 5.715,-1.23 11.455,-2.346 17.175,-3.552 1.79,-0.377 3.314,-0.361 3.931,1.887 2.026,54.908 -2.31,109.84 -0.804,164.834 1.276,2.643 -1.038,3.886 -2.685,4.782 -8.356,4.546 -17.447,7.346 -26.251,10.843 -9.517,3.779 -19.57,5.659 -29.181,8.938 -11.867,4.049 -23.756,8.005 -35.872,11.171 -8.213,2.146 -16.582,3.924 -24.992,5.009 -5.039,0.65 -9.911,-2.06 -14.881,-3.123 -11.675,-2.496 -22.088,-8.346 -33.307,-11.955 -3.479,-1.119 -4.261,-2.644 -3.69,-5.728 -14.779,-8.148 -29.828,-15.615 -43.447,-25.471 0.569,-1.255 1.211,-0.945 1.868,-0.54 13.136,8.093 26.544,15.708 40.196,22.896 0.379,0.2 0.765,0.387 1.336,0.674 0.071,-1.208 0.131,-2.23 0.21,-3.579 -5.674,-3.156 -11.395,-6.333 -17.111,-9.518 -1.884,-1.05 -3.765,-2.106 -5.632,-3.185 -0.61,-0.352 -1.457,-0.746 -0.965,-1.623 0.502,-0.894 1.315,-0.466 1.997,-0.099 5.583,2.998 11.163,6.003 16.906,8.796 -4.944,-3.948 -9.888,-7.896 -14.774,-11.797 0.573,-1.736 1.467,-1.499 2.444,-0.943 5.647,3.207 11.293,6.416 17.02,9.671 0.056,-0.903 0.109,-1.764 0.165,-2.675 -1.522,-1.015 -3.064,-2.001 -4.556,-3.058 -0.644,-0.456 -1.406,-1.044 -0.761,-1.964 0.609,-0.87 1.471,-0.63 2.254,-0.192 0.997,0.558 1.975,1.151 3.515,2.053 0,-8.323 -0.248,-16.227 0.047,-24.11 0.83,-22.144 0.187,-44.29 0.038,-66.427 -0.109,-16.24 -1.414,-32.474 -1.32,-48.732 0.035,-6.107 0.438,-12.212 0.685,-18.318 0.07,-1.702 1.085,-2.085 2.698,-1.684 z m 51.198,198.208 c 37.439,-9.946 77.008,-21.334 114.406,-36.954 -2.6,-55.679 -0.402,-109.926 0.944,-164.255 -39.796,6.921 -77.606,19.652 -115.863,24.275 0,10.521 -0.448,19.883 0.085,29.189 1.504,26.244 3.479,52.461 3.529,78.77 0.038,20.086 -1.937,40.077 -2.745,60.122 -0.082,2.045 0.291,4.963 -2.414,4.928 -2.631,-0.034 -1.819,-3.025 -1.737,-4.705 0.559,-11.368 1.506,-22.719 1.948,-34.09 0.618,-15.888 1.26,-31.781 0.32,-47.69 -0.612,-10.358 -0.971,-20.732 -1.364,-31.102 -0.548,-14.444 -2.559,-28.822 -1.945,-43.317 0.154,-3.63 0.369,-7.258 -0.283,-11.112 C 98.202,77.67 91.42,76.663 85.051,73.864 77.899,70.72 70.546,68.024 63.978,63.689 63.192,63.171 62.39,62.495 63.134,61.257 c 14.855,5.109 28.36,14.51 45.844,13.798 10.922,-3.49 23.375,-4.034 35.435,-6.721 12.105,-2.697 23.99,-6.166 36.156,-9.06 -0.608,-9.414 0.843,-18.908 -2.592,-28.196 -6.822,1.106 -13.378,2.493 -20.007,3.166 -9.656,0.981 -19.262,2.445 -28.65,4.645 -13.265,3.108 -26.551,6.239 -39.592,10.291 -9.208,2.861 -18.698,4.889 -27.126,9.863 -1.413,0.834 -2.859,1.546 -2.91,3.677 -0.546,22.869 1.132,45.697 1.24,68.547 0.116,24.7 0.67,49.403 -0.524,74.106 -0.529,10.954 -0.089,21.956 -0.089,32.88 15.093,6.896 30.963,12.115 49.678,16.643 z M 44.951,218.12 c -0.05,0.08 -0.099,0.161 -0.149,0.241 3.695,3.096 7.39,6.193 11.241,9.419 0,-1.062 0,-1.847 0,-2.872 -3.65,-2.233 -7.371,-4.51 -11.092,-6.788 z"
       id="path5"
       inkscape:connector-curvature="0" /><path
       d="m 68.718,195.605 c 0.161,-10.967 2.723,-14.764 12.412,-17.521 5.059,-1.44 9.352,1.523 13.25,4.284 6.045,4.282 9.966,9.8 7.98,17.757 -1.837,7.359 -5.228,13.634 -13.206,15.731 -7.546,1.984 -15.414,-3.323 -18.662,-12.143 -1.057,-2.871 -1.982,-5.748 -1.774,-8.108 z m 6.275,-9.795 c -3.579,4.466 -2.604,15.412 1.62,20.406 2.71,3.203 5.294,6.561 10.2,5.987 5.696,-0.667 8.157,-4.921 10.047,-9.489 2.472,-5.974 2.295,-11.78 -2.672,-16.584 -7.079,-6.847 -10.466,-6.721 -16.861,0.397 -0.643,0.716 -1.167,1.541 -2.334,3.102 0,-2.059 0,-2.86 0,-3.819 z"
       id="path7"
       inkscape:connector-curvature="0" /><path
       d="m 65.534,138.897 c -2.387,-4.996 -1.901,-40.943 0.544,-41.921 0.923,0.5 2.343,41.184 1.546,42.25 9.41,3.726 18.848,7.46 28.281,11.206 0.962,0.382 1.885,0.863 2.844,1.255 0.879,0.359 2.091,0.552 1.637,1.864 -0.41,1.185 -1.612,1.24 -2.551,0.8 -6.863,-3.216 -14.317,-4.937 -21.054,-8.512 -3.142,-1.668 -6.64,-2.657 -9.938,-4.045 -1.167,-0.493 -2.882,-0.945 -1.309,-2.897 z"
       id="path9"
       inkscape:connector-curvature="0" /><path
       d="m 98.817,145.051 c -3.674,-14.039 -2.806,-28.217 -1.939,-42.321 -6.76,-2.222 -13.264,-4.321 -19.741,-6.503 -3.853,-1.298 -7.664,-2.72 -11.488,-4.102 -0.527,-0.19 -0.953,-0.597 -0.727,-1.188 0.393,-1.025 1.311,-0.818 2.053,-0.595 5.992,1.804 11.98,3.624 17.951,5.496 3.985,1.249 7.952,2.554 11.903,3.904 1.562,0.533 2.716,1.531 2.649,3.392 -0.326,9.042 -0.764,18.081 -0.943,27.125 -0.089,4.517 0.298,9.043 0.45,13.565 0.015,0.406 -0.108,0.818 -0.168,1.227 z"
       id="path11"
       inkscape:connector-curvature="0" /><path
       d="m 72.464,109.202 c 5.463,0.557 10.852,1.399 15.761,4.063 0.698,0.379 1.367,0.867 0.929,1.786 -0.447,0.94 -1.287,1.001 -2.155,0.642 -4.221,-1.741 -8.532,-3.069 -13.131,-3.422 -1.19,-0.091 -2.849,-0.206 -2.944,-2.008 -0.043,-0.837 0.736,-1.151 1.54,-1.061 z"
       id="path13"
       inkscape:connector-curvature="0" /><path
       d="m 72.062,130.726 c 2.985,0.849 5.302,1.439 7.574,2.171 3.371,1.086 6.717,2.251 10.056,3.434 0.683,0.242 1.373,0.754 1.027,1.619 -0.341,0.852 -1.123,0.897 -1.928,0.625 -5.316,-1.793 -10.633,-3.581 -15.947,-5.378 -0.669,-0.226 -1.31,-0.546 -1.163,-1.411 0.076,-0.46 0.318,-0.892 0.381,-1.06 z"
       id="path15"
       inkscape:connector-curvature="0" /><path
       d="m 71.755,121.474 c 0.667,-1.257 1.71,-0.923 2.576,-0.678 5.257,1.484 10.498,3.028 15.739,4.571 0.645,0.19 1.216,0.581 1.064,1.369 -0.133,0.688 -0.764,1.091 -1.354,0.907 -5.892,-1.837 -11.765,-3.735 -17.638,-5.635 -0.148,-0.048 -0.229,-0.307 -0.387,-0.534 z"
       id="path17"
       inkscape:connector-curvature="0" /><path
       d="m 74.424,102.707 c 0.706,-1.182 1.852,-1.066 2.855,-0.816 4.088,1.019 8.151,2.137 12.222,3.224 0.67,0.179 1.211,0.556 1.158,1.312 -0.048,0.682 -0.593,1.181 -1.215,1.09 -5.134,-0.75 -9.874,-2.865 -14.795,-4.36 -0.099,-0.03 -0.137,-0.266 -0.225,-0.45 z"
       id="path19"
       inkscape:connector-curvature="0" /></g></svg>