<?xml version="1.0" encoding="utf-8"?>
<!-- Generator: Adobe Illustrator 18.1.0, SVG Export Plug-In . SVG Version: 6.00 Build 0)  -->
<!DOCTYPE svg PUBLIC "-//W3C//DTD SVG 1.1//EN" "http://www.w3.org/Graphics/SVG/1.1/DTD/svg11.dtd">
<svg version="1.1" id="Layer_1" xmlns="http://www.w3.org/2000/svg" xmlns:xlink="http://www.w3.org/1999/xlink" x="0px" y="0px"
	 viewBox="0 0 100 100" enable-background="new 0 0 100 100" xml:space="preserve">
<path d="M37.3,55.2c-1.3,0-2.4,1-2.4,2.3c0,1.3,1,2.3,2.4,2.3c1.3,0,2.3-1,2.3-2.3C39.6,56.2,38.6,55.2,37.3,55.2L37.3,55.2z
	 M37.3,65.1L37.3,65.1c-1.3,0-2.4,1-2.4,2.3c0,1.3,1,2.3,2.4,2.3c1.3,0,2.3-1,2.3-2.3C39.6,66.1,38.6,65.1,37.3,65.1L37.3,65.1z
	 M37.3,45.3L37.3,45.3c-1.3,0-2.4,1.1-2.4,2.3c0,1.3,1,2.3,2.4,2.3c1.3,0,2.3-1,2.3-2.3C39.6,46.3,38.6,45.3,37.3,45.3L37.3,45.3z
	 M75.3,30.5L75.3,30.5h-6.4v-1.3c0-0.8-0.6-1.4-1.4-1.4H60c-0.4-1.7-1.3-3.2-2.5-4.3c-1.7-1.7-4-2.7-6.5-2.7c-2.5,0-4.8,1-6.5,2.7
	c-1.2,1.2-2,2.7-2.4,4.3h-7.5c-0.8,0-1.4,0.6-1.4,1.4v1.3h-6.4c-1.3,0-2.4,1-2.4,2.3v48c0,1.3,1,2.3,2.4,2.3h48.7
	c1.3,0,2.3-1,2.3-2.3v-48C77.7,31.5,76.6,30.5,75.3,30.5L75.3,30.5z M46.5,25.4L46.5,25.4c1.2-1.2,2.8-1.9,4.5-1.9
	c1.8,0,3.4,0.7,4.5,1.9c0.7,0.7,1.2,1.5,1.5,2.3H45C45.3,26.9,45.8,26.1,46.5,25.4L46.5,25.4z M35.9,30.6L35.9,30.6h30.2V35H35.9
	V30.6L35.9,30.6z M73,78.5L73,78.5H29V35.1h4.1v1.3c0,0.8,0.6,1.4,1.4,1.4h33c0.8,0,1.4-0.6,1.4-1.4v-1.3H73V78.5L73,78.5z
	 M64.6,46.2L64.6,46.2H44.3c-0.8,0-1.4,0.6-1.4,1.4s0.6,1.4,1.4,1.4h20.4c0.8,0,1.4-0.6,1.4-1.4S65.4,46.2,64.6,46.2L64.6,46.2z
	 M64.6,66L64.6,66H44.3c-0.8,0-1.4,0.6-1.4,1.4s0.6,1.4,1.4,1.4h20.4c0.8,0,1.4-0.6,1.4-1.4S65.4,66,64.6,66L64.6,66z M64.6,56.1
	L64.6,56.1H44.3c-0.8,0-1.4,0.6-1.4,1.4c0,0.8,0.6,1.4,1.4,1.4h20.4c0.8,0,1.4-0.6,1.4-1.4C66,56.8,65.4,56.1,64.6,56.1L64.6,56.1z"
	/>
</svg>
