<?xml version="1.0" encoding="utf-8"?>
<!-- Generator: Adobe Illustrator 16.0.0, SVG Export Plug-In . SVG Version: 6.00 Build 0)  -->
<!DOCTYPE svg PUBLIC "-//W3C//DTD SVG 1.1//EN" "http://www.w3.org/Graphics/SVG/1.1/DTD/svg11.dtd">
<svg version="1.1" id="Layer_1" xmlns:sketch="http://www.bohemiancoding.com/sketch/ns"
	 xmlns="http://www.w3.org/2000/svg" xmlns:xlink="http://www.w3.org/1999/xlink" x="0px" y="0px" width="60px" height="60px"
	 viewBox="0 0 60 60" enable-background="new 0 0 60 60" xml:space="preserve">
<title>todos</title>
<desc>Created with Sketch.</desc>
<path id="Shape-Copy" sketch:type="MSShapeGroup" fill="#FFFFFF" fill-opacity="0.0107" d="M30,58.75L30,58.75
	c15.879,0,28.75-12.872,28.75-28.75S45.879,1.25,30,1.25C14.122,1.25,1.25,14.122,1.25,30S14.122,58.75,30,58.75L30,58.75z M30,60
	L30,60C13.432,60,0,46.568,0,30S13.432,0,30,0s30,13.432,30,30S46.568,60,30,60L30,60z"/>
<g>
	<rect x="25" y="41" width="15" height="2"/>
	<circle cx="21" cy="28" r="2"/>
	<circle cx="21" cy="35" r="2"/>
	<circle cx="21" cy="42" r="2"/>
	<rect x="25" y="34" width="15" height="2"/>
	<path d="M44.992,14H42v-2h-6c0,0,0-6-6-6s-6,6-6,6h-6v2h-2.993C13.346,14,12,15.346,12,17.006v33.988
		C12,52.658,13.347,54,15.007,54h29.985C46.654,54,48,52.654,48,50.994V17.006C48,15.342,46.653,14,44.992,14z M30,8c4,0,4,4,4,4h-8
		C26,12,26,8,30,8z M20,14h20v3H20V14z M45,50.001C45,50.553,44.553,51,44.002,51H15.998C15.447,51,15,50.545,15,50.001V17.999
		C15,17.447,15.447,17,15.998,17H18v2h24v-2h2.002C44.553,17,45,17.455,45,17.999V50.001z"/>
	<rect x="25" y="27" width="15" height="2"/>
</g>
</svg>
