<svg width="60px" height="60px" viewBox="0 0 60 60" xmlns="http://www.w3.org/2000/svg"><title>icon-account</title><g stroke="#000" fill="none" fill-rule="evenodd" opacity=".7"><path d="M24.994 49.928H43s0-6.704-.948-9.56C41.226 37.88 35.26 36.216 29 33.856v-5s2-1.238 2-6c2 0 2-4 0-4 0-.47 2.156-3.356 1.5-6-.948-3.808-12.302-3.808-13.25 0-4.738-.952-2.25 5.362-2.25 6v4c0 4.762 4 6 4 6v5c-5.556 2.112-12.228 4.024-13.052 6.512C7 43.224 7 49.928 7 49.928h17.994z" stroke-width="3" stroke-linejoin="round"/><path d="M47.75 49.725h5s0-6.704-.948-9.56c-.826-2.488-6.792-5.152-13.052-7.512v-3s2-1.238 2-6c2 0 2-4 0-4 0-.47 2.156-3.722 1.5-6.368C41.806 11.505 38 8.69 35 10.69" stroke-width="2"/></g></svg>
