<svg xmlns:sketch="http://www.bohemiancoding.com/sketch/ns" xmlns="http://www.w3.org/2000/svg" width="60" height="60" viewBox="0 0 60 60"><title>calendar</title><desc>Created with Sketch.</desc><path sketch:type="MSShapeGroup" fill="#fff" fill-opacity=".011" d="M30 58.75c15.878 0 28.75-12.872 28.75-28.75s-12.872-28.75-28.75-28.75-28.75 12.872-28.75 28.75 12.872 28.75 28.75 28.75zm0 1.25c-16.569 0-30-13.432-30-30 0-16.569 13.431-30 30-30 16.568 0 30 13.431 30 30 0 16.568-13.432 30-30 30z"/><path d="M47.997 9h-35.993c-1.654 0-3.004 1.345-3.004 3.004v35.993c0 1.653 1.345 3.004 3.004 3.004h35.993c1.653 0 3.004-1.345 3.004-3.004v-35.993c0-1.654-1.345-3.004-3.004-3.004zm-35.997 3.035h4.148v2.257c0 .856.7 1.556 1.556 1.556s1.556-.7 1.556-1.556v-2.257h5.136v2.257c0 .856.7 1.556 1.556 1.556s1.556-.7 1.556-1.556v-2.257h5.137v2.257c0 .856.699 1.556 1.556 1.556s1.556-.7 1.556-1.556v-2.257h5.137v2.257c0 .856.699 1.556 1.556 1.556s1.556-.7 1.556-1.556v-2.257h3.992v6.965h-35.998v-6.965zm36 35.965h-36v-27h36v27zm-21.71-10.15c-.433.34-.997.51-1.69.51-.64 0-1.207-.137-1.7-.409-.493-.273-.933-.603-1.32-.99l-1.1 1.479c.453.508 1.027.934 1.72 1.28.693.347 1.56.521 2.6.521.613 0 1.19-.083 1.73-.25.54-.167 1.013-.407 1.42-.721.407-.312.727-.696.96-1.149.233-.453.35-.974.35-1.56 0-.841-.25-1.527-.75-2.061s-1.13-.9-1.89-1.1v-.08c.693-.268 1.237-.641 1.63-1.12.393-.48.59-1.08.59-1.8 0-.533-.1-1.01-.3-1.43-.2-.42-.48-.772-.84-1.06-.36-.287-.793-.503-1.3-.65-.507-.147-1.067-.22-1.68-.22-.76 0-1.45.147-2.07.44s-1.203.68-1.75 1.16l1.18 1.42c.387-.36.783-.65 1.19-.87.407-.22.863-.33 1.37-.33.587 0 1.047.15 1.38.45.333.3.5.717.5 1.25 0 .293-.057.566-.17.819-.113.253-.3.47-.56.65-.26.18-.6.319-1.02.42-.42.1-.943.149-1.57.149v1.681c.72 0 1.32.05 1.8.149.48.101.863.243 1.15.43.287.188.49.414.61.681.12.267.18.567.18.899 0 .602-.217 1.072-.65 1.412zm13.71.15h-3v-11h-2c-.4.24-.65.723-1.109.89-.461.167-1.25.49-1.891.61v1.5h3v8h-3v2h8v-2z"/></svg>