<?xml version="1.0" encoding="UTF-8" standalone="no"?>
<svg width="60px" height="60px" viewBox="0 0 60 60" version="1.1" xmlns="http://www.w3.org/2000/svg" xmlns:xlink="http://www.w3.org/1999/xlink" xmlns:sketch="http://www.bohemiancoding.com/sketch/ns">
    <!-- Generator: Sketch 3.3.2 (12043) - http://www.bohemiancoding.com/sketch -->
    <title>calendar</title>
    <desc>Created with Sketch.</desc>
    <defs></defs>
    <g id="Page-1" stroke="none" stroke-width="1" fill="none" fill-rule="evenodd" sketch:type="MSPage">
        <g id="calendar" sketch:type="MSLayerGroup">
            <path d="M30,58.75 L30,58.75 C45.8781866,58.75 58.75,45.8781866 58.75,30 C58.75,14.1218134 45.8781866,1.25 30,1.25 C14.1218134,1.25 1.25,14.1218134 1.25,30 C1.25,45.8781866 14.1218134,58.75 30,58.75 L30,58.75 Z M30,60 L30,60 C13.4314575,60 0,46.5685425 0,30 C0,13.4314575 13.4314575,0 30,0 C46.5685425,0 60,13.4314575 60,30 C60,46.5685425 46.5685425,60 30,60 L30,60 Z" id="Shape" fill-opacity="0.0107280344" fill="#FFFFFF" sketch:type="MSShapeGroup"></path>
            <path d="M9,12.0036812 C9,10.3447939 10.3498463,9 12.0036812,9 L47.9963188,9 C49.6552061,9 51,10.3498463 51,12.0036812 L51,47.9963188 C51,49.6552061 49.6501537,51 47.9963188,51 L12.0036812,51 C10.3447939,51 9,49.6501537 9,47.9963188 L9,12.0036812 Z M12,48 L12,21 L48,21 L48,48 L12,48 Z M12,19.0000001 L12,12.0350195 L16.1478599,12.0350195 L16.1478599,14.2918288 C16.1478599,15.1478599 16.848249,15.848249 17.7042802,15.848249 C18.5603113,15.848249 19.2607004,15.1478599 19.2607004,14.2918288 L19.2607004,12.0350195 L24.3968872,12.0350195 L24.3968872,14.2918288 C24.3968872,15.1478599 25.0972763,15.848249 25.9533074,15.848249 C26.8093385,15.848249 27.5097276,15.1478599 27.5097276,14.2918288 L27.5097276,12.0350195 L32.6459144,12.0350195 L32.6459144,14.2918288 C32.6459144,15.1478599 33.3463035,15.848249 34.2023346,15.848249 C35.0583658,15.848249 35.7587549,15.1478599 35.7587549,14.2918288 L35.7587549,12.0350195 L40.8949416,12.0350195 L40.8949416,14.2918288 C40.8949416,15.1478599 41.5953307,15.848249 42.4513619,15.848249 C43.307393,15.848249 44.0077821,15.1478599 44.0077821,14.2918288 L44.0077821,12.0350195 L48,12.0350195 L48,19.0000001 L12,19.0000001 Z M21.58,36.96 C21.9666686,37.3466686 22.4066642,37.6766653 22.9,37.95 C23.3933358,38.2233347 23.9599968,38.36 24.6,38.36 C25.2933368,38.36 25.8566645,38.1900017 26.29,37.85 C26.7233355,37.5099983 26.94,37.040003 26.94,36.44 C26.94,36.106665 26.8800006,35.806668 26.76,35.54 C26.6399994,35.273332 26.4366681,35.0466676 26.15,34.86 C25.8633319,34.6733324 25.4800024,34.5300005 25,34.43 C24.5199976,34.3299995 23.9200036,34.28 23.2,34.28 L23.2,32.6 C23.8266698,32.6 24.3499979,32.5500005 24.77,32.45 C25.1900021,32.3499995 25.5299987,32.2100009 25.79,32.03 C26.0500013,31.8499991 26.2366661,31.6333346 26.35,31.38 C26.4633339,31.1266654 26.52,30.8533348 26.52,30.56 C26.52,30.026664 26.353335,29.6100015 26.02,29.31 C25.686665,29.0099985 25.2266696,28.86 24.64,28.86 C24.1333308,28.86 23.6766687,28.9699989 23.27,29.19 C22.8633313,29.4100011 22.4666686,29.6999982 22.08,30.06 L20.9,28.64 C21.4466694,28.1599976 22.0299969,27.7733348 22.65,27.48 C23.2700031,27.1866652 23.9599962,27.04 24.72,27.04 C25.3333364,27.04 25.8933308,27.1133326 26.4,27.26 C26.9066692,27.4066674 27.3399982,27.6233319 27.7,27.91 C28.0600018,28.1966681 28.339999,28.5499979 28.54,28.97 C28.740001,29.3900021 28.84,29.866664 28.84,30.4 C28.84,31.1200036 28.6433353,31.7199976 28.25,32.2 C27.8566647,32.6800024 27.3133368,33.053332 26.62,33.32 L26.62,33.4 C27.3800038,33.600001 28.0099975,33.966664 28.51,34.5 C29.0100025,35.033336 29.26,35.7199958 29.26,36.56 C29.26,37.1466696 29.1433345,37.6666644 28.91,38.12 C28.6766655,38.5733356 28.3566687,38.9566651 27.95,39.27 C27.5433313,39.5833349 27.0700027,39.8233325 26.53,39.99 C25.9899973,40.1566675 25.4133364,40.24 24.8,40.24 C23.7599948,40.24 22.8933368,40.0666684 22.2,39.72 C21.5066632,39.3733316 20.9333356,38.9466692 20.48,38.44 L21.58,36.96 Z M32,38 L35,38 L35,30 L32,30 L32,28.5 C32.6400032,28.3799994 33.4299977,28.0566675 33.89,27.89 C34.3500023,27.7233325 34.599998,27.2400012 35,27 L37.0000002,27 L37,38 L40,38 L40,40 L32,40 L32,38 Z" id="Shape" fill="#000000" sketch:type="MSShapeGroup"></path>
        </g>
    </g>
</svg>