<?xml version="1.0" encoding="utf-8"?>
<!-- Generator: Adobe Illustrator 18.1.0, SVG Export Plug-In . SVG Version: 6.00 Build 0)  -->
<!DOCTYPE svg PUBLIC "-//W3C//DTD SVG 1.1//EN" "http://www.w3.org/Graphics/SVG/1.1/DTD/svg11.dtd">
<svg version="1.1" id="Layer_1" xmlns="http://www.w3.org/2000/svg" xmlns:xlink="http://www.w3.org/1999/xlink" x="0px" y="0px"
	 viewBox="0 0 100 100" enable-background="new 0 0 100 100" xml:space="preserve">
<path d="M79.1,75.9L68.7,65.4c1.7-2,3.1-4.3,4.1-6.7c1.3-3.1,2-6.5,2-10.1c0-3.5-0.7-6.8-1.9-9.9l0-0.1c-1.3-3.2-3.2-6-5.6-8.4
	L67,30.1c-2.4-2.4-5.3-4.4-8.5-5.7h0c-3.1-1.3-6.5-2-10-2c-7.3,0-13.8,2.9-18.6,7.7c-2.4,2.4-4.4,5.3-5.7,8.5c-1.3,3.1-2,6.5-2,10
	c0,3.5,0.7,6.9,1.9,9.9l0.1,0.1c1.3,3.2,3.3,6.1,5.7,8.5h0c2.4,2.4,5.3,4.4,8.5,5.7c3.1,1.3,6.5,2,10,2c3.5,0,6.9-0.7,10.1-2
	c2.4-1,4.7-2.4,6.7-4.1l10.4,10.4c0.9,0.9,2.5,0.9,3.4,0C80,78.3,80,76.8,79.1,75.9L79.1,75.9z M63.6,63.8L63.6,63.8L63.6,63.8
	L63.6,63.8c-2,2-4.4,3.6-7,4.7c-2.5,1-5.3,1.6-8.2,1.6c-2.9,0-5.7-0.6-8.2-1.6c-2.6-1.1-5-2.7-7-4.7v0c-2-2-3.6-4.3-4.7-7l0-0.1
	c-1-2.5-1.6-5.2-1.6-8.1c0-2.9,0.6-5.7,1.6-8.2c1.1-2.6,2.7-5,4.7-7c3.9-3.9,9.2-6.3,15.2-6.3c2.9,0,5.7,0.6,8.2,1.6l0,0
	c2.6,1.1,5,2.7,7,4.7l0.1,0.1c1.9,1.9,3.5,4.3,4.5,6.9l0.1,0.1c1,2.5,1.6,5.2,1.6,8.1c0,2.9-0.6,5.7-1.6,8.2
	C67.2,59.5,65.6,61.8,63.6,63.8L63.6,63.8z M41.8,33L41.8,33c-1,0.4-2,1-2.9,1.5c-0.9,0.6-1.8,1.3-2.5,2.1h0h0
	c-0.8,0.8-1.5,1.6-2.1,2.5v0c-0.6,0.9-1.1,1.8-1.6,2.9c-0.3,0.7,0,1.6,0.8,1.9c0.7,0.3,1.6,0,1.9-0.8c0.4-0.8,0.8-1.6,1.3-2.4
	c0.5-0.8,1.1-1.5,1.7-2.1c0.7-0.6,1.4-1.2,2.1-1.7c0.8-0.5,1.6-0.9,2.4-1.3c0.7-0.3,1.1-1.2,0.8-1.9C43.4,33,42.6,32.7,41.8,33
	L41.8,33z M64,47.2L64,47.2c-0.8,0-1.4,0.7-1.4,1.5c0,1.8-0.4,3.7-1.1,5.4l0,0.1c-0.7,1.6-1.7,3.2-3,4.5c-1.3,1.4-2.9,2.4-4.6,3.1
	c-1.7,0.7-3.6,1.1-5.4,1.1c-0.8,0-1.5,0.6-1.5,1.5c0,0.8,0.7,1.4,1.5,1.4c2.2,0,4.4-0.4,6.5-1.3c2-0.8,3.9-2.1,5.5-3.7
	c1.6-1.6,2.8-3.5,3.7-5.5l0,0c0.9-2.1,1.3-4.3,1.3-6.5C65.5,47.9,64.8,47.2,64,47.2L64,47.2z"/>
</svg>
