<?xml version="1.0" encoding="UTF-8" standalone="no"?>
<svg width="60px" height="60px" viewBox="0 0 60 60" version="1.1" xmlns="http://www.w3.org/2000/svg" xmlns:xlink="http://www.w3.org/1999/xlink" xmlns:sketch="http://www.bohemiancoding.com/sketch/ns">
    <!-- Generator: Sketch 3.3.2 (12043) - http://www.bohemiancoding.com/sketch -->
    <title>databrowser</title>
    <desc>Created with Sketch.</desc>
    <defs></defs>
    <g id="Page-1" stroke="none" stroke-width="1" fill="none" fill-rule="evenodd" sketch:type="MSPage">
        <g id="databrowser" sketch:type="MSLayerGroup">
            <path d="M30,58.75 L30,58.75 C45.8781866,58.75 58.75,45.8781866 58.75,30 C58.75,14.1218134 45.8781866,1.25 30,1.25 C14.1218134,1.25 1.25,14.1218134 1.25,30 C1.25,45.8781866 14.1218134,58.75 30,58.75 L30,58.75 Z M30,60 L30,60 C13.4314575,60 0,46.5685425 0,30 C0,13.4314575 13.4314575,0 30,0 C46.5685425,0 60,13.4314575 60,30 C60,46.5685425 46.5685425,60 30,60 L30,60 Z" id="Shape-Copy" fill-opacity="0.0107280344" fill="#FFFFFF" sketch:type="MSShapeGroup"></path>
            <path d="M42.0689655,39.6551724 C43.2413793,38.2758621 44.2068966,36.6896552 44.8965517,35.0344828 C45.7931034,32.8965517 46.2758621,30.5517241 46.2758621,28.0689655 C46.2758621,25.6551724 45.7931034,23.3793103 44.9655172,21.2413793 C44.0689655,18.9655172 42.7586207,17.0344828 41.1034483,15.3793103 L40.8965517,15.3103448 C39.2413793,13.6551724 37.2413793,12.2758621 35.0344828,11.3793103 C32.8965517,10.4827586 30.5517241,10 28.137931,10 C23.1034483,10 18.6206897,12 15.3103448,15.3103448 C13.6551724,16.9655172 12.2758621,18.9655172 11.3793103,21.1724138 C10.4827586,23.3103448 10,25.6551724 10,28.0689655 C10,30.4827586 10.4827586,32.8275862 11.3103448,34.8965517 C12.2758621,37.1724138 13.6551724,39.1724138 15.3103448,40.8275862 C16.9655172,42.4827586 18.9655172,43.862069 21.1724138,44.7586207 C23.3103448,45.6551724 25.6551724,46.137931 28.0689655,46.137931 C30.4827586,46.137931 32.8275862,45.6551724 35.0344828,44.7586207 C36.6896552,44.0689655 38.2758621,43.1034483 39.6551724,41.9310345 L46.8275862,49.1034483 C47.4482759,49.7241379 48.5517241,49.7241379 49.1724138,49.1034483 C49.862069,48.5517241 49.862069,47.5172414 49.2413793,46.8965517 L42.0689655,39.6551724 Z M38.5517241,38.5517241 L38.5517241,38.5517241 C37.1724138,39.9310345 35.5172414,41.0344828 33.7241379,41.7931034 C32,42.4827586 30.0689655,42.8965517 28.0689655,42.8965517 C26.0689655,42.8965517 24.137931,42.4827586 22.4137931,41.7931034 C20.6206897,41.0344828 18.9655172,39.9310345 17.5862069,38.5517241 L17.5862069,38.5517241 C16.2068966,37.1724138 15.1034483,35.5862069 14.3448276,33.7241379 L14.3448276,33.6551724 C13.6551724,31.9310345 13.2413793,30.0689655 13.2413793,28.0689655 C13.2413793,26.0689655 13.6551724,24.137931 14.3448276,22.4137931 C15.1034483,20.6206897 16.2068966,18.9655172 17.5862069,17.5862069 C20.2758621,14.8965517 23.9310345,13.2413793 28.0689655,13.2413793 C30.0689655,13.2413793 32,13.6551724 33.7241379,14.3448276 L33.7241379,14.3448276 C35.5172414,15.1034483 37.1724138,16.2068966 38.5517241,17.5862069 L38.6206897,17.6551724 C39.9310345,18.9655172 41.0344828,20.6206897 41.7241379,22.4137931 L41.7931034,22.4827586 C42.4827586,24.2068966 42.8965517,26.0689655 42.8965517,28.0689655 C42.8965517,30.0689655 42.4827586,32 41.7931034,33.7241379 C41.0344828,35.5862069 39.9310345,37.1724138 38.5517241,38.5517241 L38.5517241,38.5517241 L38.5517241,38.5517241 Z M23.5172414,17.3103448 L23.5172414,17.3103448 C22.8275862,17.5862069 22.137931,18 21.5172414,18.3448276 C20.8965517,18.7586207 20.2758621,19.2413793 19.7931034,19.7931034 L19.7931034,19.7931034 C19.2413793,20.3448276 18.7586207,20.8965517 18.3448276,21.5172414 L18.3448276,21.5172414 C17.9310345,22.137931 17.5862069,22.7586207 17.2413793,23.5172414 C17.0344828,24 17.2413793,24.6206897 17.7931034,24.8275862 C18.2758621,25.0344828 18.8965517,24.8275862 19.1034483,24.2758621 C19.3793103,23.7241379 19.6551724,23.1724138 20,22.6206897 C20.3448276,22.0689655 20.7586207,21.5862069 21.1724138,21.1724138 C21.6551724,20.7586207 22.137931,20.3448276 22.6206897,20 C23.1724138,19.6551724 23.7241379,19.3793103 24.2758621,19.1034483 C24.7586207,18.8965517 25.0344828,18.2758621 24.8275862,17.7931034 C24.6206897,17.3103448 24.0689655,17.1034483 23.5172414,17.3103448 L23.5172414,17.3103448 L23.5172414,17.3103448 Z M38.8275862,27.1034483 L38.8275862,27.1034483 C38.2758621,27.1034483 37.862069,27.5862069 37.862069,28.137931 C37.862069,29.3793103 37.5862069,30.6896552 37.1034483,31.862069 L37.1034483,31.9310345 C36.6206897,33.0344828 35.9310345,34.137931 35.0344828,35.0344828 C34.137931,36 33.0344828,36.6896552 31.862069,37.1724138 C30.6896552,37.6551724 29.3793103,37.9310345 28.137931,37.9310345 C27.5862069,37.9310345 27.1034483,38.3448276 27.1034483,38.9655172 C27.1034483,39.5172414 27.5862069,39.9310345 28.137931,39.9310345 C29.6551724,39.9310345 31.1724138,39.6551724 32.6206897,39.0344828 C34,38.4827586 35.3103448,37.5862069 36.4137931,36.4827586 C37.5172414,35.3793103 38.3448276,34.0689655 38.9655172,32.6896552 L38.9655172,32.6896552 C39.5862069,31.2413793 39.862069,29.7241379 39.862069,28.2068966 C39.862069,27.5862069 39.3793103,27.1034483 38.8275862,27.1034483 L38.8275862,27.1034483 L38.8275862,27.1034483 Z" id="Shape" fill="#000000" sketch:type="MSShapeGroup"></path>
        </g>
    </g>
</svg>