<?xml version="1.0" ?><svg enable-background="new 0 0 64 64" viewBox="0 0 64 64" xmlns="http://www.w3.org/2000/svg"><path d="M62.994 55.125c-.837-.418-2.325.14-4.837.14-2.51 0-4.558-.233-4.744-.233-.186 0 .605-5.114.605-5.114s2-.372 4.046-1.162c2.046-.79 5.07-1.44 5.58-1.953.513-.512.42-2.092-.325-4.417-.745-2.325-5.86-13.81-8.884-20.69-3.023-6.88-7.953-18.458-8.046-18.644-.093-.186.093-1.44.093-2.232 0-.79-.837-.884-2.558-.79-1.72.093-7.208.65-7.72.79-.512.14-1.58-.233-1.58-.233s-1.117-.232-2.326-.14c-1.21.094-3.024 1.303-3.536 1.535s-7.72 1.023-12.092 1.906c-4.37.884-11.254 1.302-12.137 1.72-.884.42-.42 2.558-.93 2.837-.512.28-1.35 4.324-1.674 5.16-.325.838-.93 3.674-.93 4.697 0 1.023 2.465 7.58 6.232 16.83 0 0 2.093 4.14 5.162 12.183 3.07 8.044 5.953 14.74 7.07 16.18 1.115 1.44 5.022-.465 13.486-2.37 8.464-1.907 13.16-2.65 13.16-2.65l-.418 1.254c-.186.557.93 1.58 2 1.58 1.07 0 3.72-.14 5.162-.186 1.442-.047.79-2.79.79-2.93 0-.138 1.582 0 3.396.234 1.814.232 5.116.093 6.325-.744 1.21-.84.466-2.14-.37-2.56zm-4.28-15.203c.606.465 1.303 2.37 1.21 2.836-.093.465-.79 1.07-.79 1.348 0 .28.092.976-.14 1.07-.233.092-.698.324-1.257.37-1.16.098-1.953.28-1.58-.743s1.953-5.346 2.558-4.88zm-1.72-4.836c.65.93 1.21 2.325.65 3.07-.557.743-1.906 4.74-2.138 5.532-.232.79-.186 1.906-.512 1.58s.326-2.09.093-2.928c-.342-1.233-.79-1.488-.512-2.325s1.21-3.022 1.488-3.72c.28-.697.28-2.14.93-1.21zM21.556 52.522c-.232.186-1.814.837-2.046 2.14-.232 1.3-.14 1.86-.14 1.86s-4.14-11.113-6.93-17.808-7.208-16.507-7.208-16.507c-.79-2.14-1.488-3.86-1.07-5.626.418-1.766 1.86-6.508 2.046-6.09.186.418 3.21 7.346 5.395 12.32 2.186 4.976 3.72 9.858 5.348 14.74 1.63 4.882 3.675 10.09 4.233 11.438.558 1.348.977 2.278.93 2.65-.045.372-.325.698-.557.884zm25.625 2.603c-.557 1.162-.836.744-2.975.93-2.14.186-6.697.976-12.836 2.418-6.14 1.44-7.72 2.325-8.698 2-.977-.326-.512-3.488.047-4.65.557-1.162 1.115-1.44 4.743-2.232 0 0 3.116-.417 8.418-1.16 5.303-.745 11.116-1.256 11.814-1.117.696.14.045 2.65-.513 3.812zm.978-6.974c-.372.094-1.256.094-1.256-.557s.977-3.86.605-4.138c-.372-.28-1.395-.047-1.395.418s-.233 4.23-.65 4.37c-.42.14-2.094.697-2.094.093s.93-3.86.977-4.51c.047-.65.65-1.395.186-1.534-.464-.14-1.07-.047-1.394.604-.326.65-.605 5.347-1.256 5.626-.65.28-2.465.79-2.325-.186.14-.976 1.256-4.556 1.256-4.835 0-.278-.697-.557-1.3-.23-.606.324-1.07 3.393-1.35 4.23-.28.837-.14 1.534-.605 1.534-.465 0-1.674.744-1.674.047s.885-4.09.745-4.416c-.14-.325-.558-.558-1.07-.418-.512.14-.884 2.325-1.116 3.07-.233.743-.187 2.138-.792 2.277-.605.14-2.558.837-2.558.093s1.302-3.58.884-3.673c-.42-.093-1.628-.047-1.767.512-.14.558-.465 3.208-1.023 3.487-.558.28-1.814.744-2.976 1.023-1.163.28-1.814.325-2.186.093-.372-.232-3.767-10.973-7.3-20.04S8.347 11.05 8.347 11.05c-.42-.697-1.488-2.975-1.163-2.975.326 0 7.72-1.21 14.278-2.046C28.02 5.19 29.555 4.353 30.3 4.91c.743.56 2 1.907 5.208 10.183s6.14 14.227 8.557 19.435c2.418 5.207 4.093 8.6 4.14 9.392.046.79.325 4.138-.047 4.23zm3.627-13.808c-.465-.186-1.86-2.604-4.465-9.252-2.604-6.65-7.58-17.62-7.58-17.62-1.442-3.023-1.86-3.953-1.442-4.046.42-.093 4.883-.51 4.93-.232s3.907 8.973 5.906 13.855c2 4.882 2.465 5.533 2.372 5.812s-1.302 3.44-1.442 4.184c-.14.744-.605 2.232-.326 2.65.28.418.605.697.884.186.28-.512 1.488-4.51 1.767-4.556.278-.047.79.93 1.022 1.488.232.558.605.65.28 1.767-.325 1.113-1.44 5.948-1.907 5.762zm1.396 3.394c-.557-.976-.65-1.348-.604-1.86.046-.51 1.814-3.952 1.86-4.65.047-.696.372-1.16.558-1.16s1.163 2.324.977 2.696c-.185.372-.836 2.464-1.3 3.673s-.838 2.836-1.024 2.464c-.186-.373-.465-1.164-.465-1.164zM46.647 52.36c-.698-.187-3-.047-9.86.743-6.86.79-12.51 2.557-13.02 2.836-.513.278-.536 1.092-.443 1.603.093.512.442.442 3.14-.302 0 0 2.627-.813 4.533-1.347 1.907-.535 5.418-.837 10.464-1.604 5.046-.768 5.558-.35 5.58-.698.025-.35.304-1.047-.394-1.233zm16.743-3.023c-.443-.14-.745.023-2.35.418-1.604.395-4.116.395-4.86.395-.744 0-1.186.628-1.232 1.14-.047.51.81.867 1.488.86 1.884-.024 6.255-1.233 6.953-1.698.697-.464.44-.976 0-1.115zm-.978 2.79c-.93.07-4.86 1.115-5.883 1.16-.64.03-.838 1.024-.582 1.326.256.302.977.21 3.256-.372 2.28-.58 3.744-1.045 3.837-1.37s.302-.813-.628-.744zM14.86 9.188c-1.14.092-3.094 1.347-3.396 1.766-.302.418-.023 1.743 1.21 4.44 0 0 .813 2.208 1.115 2.906.3.697.813.883 1.487.628.674-.256.512-.674.14-1.418-.372-.744-1.58-3.603-1.93-4.417-.35-.814-.302-1.116.302-1.58.604-.466 1.906-.466 2.534-.675.628-.21.814-.953.58-1.232-.23-.28-.906-.512-2.045-.42z" fill="#232021"/></svg>