<svg width="60" height="60" viewBox="0 0 60 60" xmlns="http://www.w3.org/2000/svg" xmlns:sketch="http://www.bohemiancoding.com/sketch/ns"><title>hastebin</title><desc>Created with Sketch.</desc><path d="M17.479 13l-1.994 17.425s2.429-3.158 5.314-3.116c2.198.032 3.268.481 4.348 1.443 1.12.949 1.68 2.194 1.68 3.735 0 .369-.02.787-.059 1.255-.04.468-.092.998-.158 1.591 0 0-2.329 9.818 2.144 7.98 0 1.53-.445 2.604-1.108 2.847-1.22.447-2.728.451-3.608 0-1.146-.588-1.93-2.131-1.651-4.809.286-2.748.423-4.713.644-6.501.425-3.438-1.626-3.884-3.576-3.884-2.793 0-4.42 1.891-4.882 5.672l-1.206 9.743h-4.368l4.111-33.381h4.368zm22.353 0l-2.036 16.483c1.146-.856 2.141-1.43 2.984-1.719.883-.303 1.838-.455 2.866-.455 2.53 0 7.672 1.667 7.339 9.486-.365 8.573-5.593 10.021-8.307 10.021-2.53 0-4.743-.975-6.641-2.925l-.316 2.49h-3.705l4.111-33.381h3.705zm8.146 23.527c0-1.991-.52-3.618-1.559-4.882-1.04-1.264-2.391-1.896-4.055-1.896-1.802 0-3.292.758-4.47 2.275-1.178 1.485-1.767 3.405-1.767 5.759 0 1.975.506 3.563 1.518 4.764 1.012 1.232 2.329 1.849 3.951 1.849 1.788 0 3.292-.766 4.512-2.299 1.248-1.533 1.871-3.389 1.871-5.569z" sketch:type="MSShapeGroup" fill="#000"/></svg>