<?xml version="1.0" encoding="UTF-8" standalone="no"?>
<svg width="60px" height="60px" viewBox="0 0 60 60" version="1.1" xmlns="http://www.w3.org/2000/svg" xmlns:xlink="http://www.w3.org/1999/xlink" xmlns:sketch="http://www.bohemiancoding.com/sketch/ns">
    <!-- Generator: Sketch 3.3.2 (12043) - http://www.bohemiancoding.com/sketch -->
    <title>help</title>
    <desc>Created with Sketch.</desc>
    <defs></defs>
    <g id="Page-1" stroke="none" stroke-width="1" fill="none" fill-rule="evenodd" sketch:type="MSPage">
        <g id="help" sketch:type="MSLayerGroup">
            <path d="M30,58.75 L30,58.75 C45.8781866,58.75 58.75,45.8781866 58.75,30 C58.75,14.1218134 45.8781866,1.25 30,1.25 C14.1218134,1.25 1.25,14.1218134 1.25,30 C1.25,45.8781866 14.1218134,58.75 30,58.75 L30,58.75 Z M30,60 L30,60 C13.4314575,60 0,46.5685425 0,30 C0,13.4314575 13.4314575,0 30,0 C46.5685425,0 60,13.4314575 60,30 C60,46.5685425 46.5685425,60 30,60 L30,60 Z" id="Shape-Copy" fill-opacity="0.0107280344" fill="#FFFFFF" sketch:type="MSShapeGroup"></path>
            <path d="M10.0987505,28 C10.0334389,28.6578125 10,29.3250012 10,30 C10,30.6749988 10.0334389,31.3421875 10.0987505,32 L10.0987505,32 L18.1659169,32 C18.0567976,31.3495831 18,30.6814244 18,30 C18,29.3185756 18.0567976,28.6504169 18.1659169,28 L10.0987505,28 Z M10.4000725,26 C11.9908024,18.1634785 18.1634785,11.9908024 26,10.4000725 L26,18.6828228 C22.5903462,19.8879625 19.8879625,22.5903462 18.6828228,26 L10.4000725,26 Z M10.4000725,34 C11.9908024,41.8365215 18.1634785,48.0091976 26,49.5999275 L26,49.5999275 L26,41.3171772 C22.5903462,40.1120375 19.8879625,37.4096538 18.6828228,34 L10.4000725,34 L10.4000725,34 Z M32,49.9012495 C31.3421875,49.9665611 30.6749988,50 30,50 C29.3250012,50 28.6578125,49.9665611 28,49.9012495 L28,49.9012495 L28,41.8340831 C28.6504169,41.9432024 29.3185756,42 30,42 C30.6814244,42 31.3495831,41.9432024 32,41.8340831 L32,49.9012495 L32,49.9012495 Z M34,49.5999275 C41.8365215,48.0091976 48.0091976,41.8365215 49.5999275,34 L49.5999275,34 L41.3171772,34 C40.1120375,37.4096538 37.4096538,40.1120375 34,41.3171772 L34,49.5999275 L34,49.5999275 Z M49.9012495,28 C49.9665611,28.6578125 50,29.3250012 50,30 C50,30.6749988 49.9665611,31.3421875 49.9012495,32 L49.9012495,32 L41.8340831,32 C41.9432024,31.3495831 42,30.6814244 42,30 C42,29.3185756 41.9432024,28.6504169 41.8340831,28 L49.9012495,28 L49.9012495,28 Z M49.5999275,26 C48.0091976,18.1634785 41.8365215,11.9908024 34,10.4000725 L34,10.4000725 L34,18.6828228 C37.4096538,19.8879625 40.1120375,22.5903462 41.3171772,26 L49.5999275,26 L49.5999275,26 Z M32,10.0987505 C31.3421875,10.0334389 30.6749988,10 30,10 C29.3250012,10 28.6578125,10.0334389 28,10.0987505 L28,10.0987505 L28,18.1659169 C28.6504169,18.0567976 29.3185756,18 30,18 C30.6814244,18 31.3495831,18.0567976 32,18.1659169 L32,10.0987505 L32,10.0987505 Z M30,53 C42.7025492,53 53,42.7025492 53,30 C53,17.2974508 42.7025492,7 30,7 C17.2974508,7 7,17.2974508 7,30 C7,42.7025492 17.2974508,53 30,53 Z M30,40 C35.5228475,40 40,35.5228475 40,30 C40,24.4771525 35.5228475,20 30,20 C24.4771525,20 20,24.4771525 20,30 C20,35.5228475 24.4771525,40 30,40 Z" id="Oval-4" fill="#000000" sketch:type="MSShapeGroup"></path>
        </g>
    </g>
</svg>