<svg width="60" height="60" viewBox="0 0 60 60" xmlns="http://www.w3.org/2000/svg" xmlns:sketch="http://www.bohemiancoding.com/sketch/ns"><title>isen</title><desc>Created with Sketch.</desc><path d="M6 21.303c0-.552.448-.999.995-.999h1.048c.549 0 .995.447.995.999v16.837c0 .552-.448.999-.995.999h-1.048c-.549 0-.995-.447-.995-.999v-16.837zm14.63-.261c-.903-.645-1.936-1.042-3.085-1.042-2.75 0-5.165 2.28-5.165 5.165 0 3.054 1.614 5.165 4.557 5.165 1.797 0 3.038.971 3.038 2.734 0 1.929-1.165 3.038-2.734 3.038-.527 0-1.096-.257-1.655-.717l-.069-.06c-.379-.394-1.051-.453-1.496-.135l-.853.609c-.447.319-.518.921-.148 1.328 0 0 .034.109.634.603 1.055.869 2.252 1.41 3.586 1.41 3.215 0 5.772-2.435 5.772-6.076 0-3.626-2.742-5.772-6.076-5.772-1.06 0-1.519-.6-1.519-2.127 0-1.166 1.017-2.127 2.127-2.127.446 0 .893.172 1.32.477.294.261.882.192 1.309-.149l.819-.655c.429-.343.464-.945.062-1.324 0 0 .101.032-.424-.344zm4.813.261c0-.552.438-.999 1.004-.999h9.536c.555 0 1.004.445 1.004 1.005v1.008c0 .555-.457 1.005-1.009 1.005h-6.488c-.557 0-1.009.45-1.009.999v2.881c0 .552.456.999.999.999h5.294c.551 0 .999.448.999.995v1.048c0 .549-.456.995-.999.995h-5.294c-.551 0-.999.449-.999 1.007v2.846c0 .556.457 1.007 1.009 1.007h6.488c.557 0 1.009.448 1.009.995v1.048c0 .549-.438.995-1.004.995h-9.536c-.555 0-1.004-.447-1.004-.999v-16.837zm14.582 0c0-.552.446-.999 1.003-.999h.425c.554 0 1.266.358 1.601.812l7.31 9.921c.33.448.598.373.598-.193v-9.536c0-.555.448-1.004.995-1.004h1.048c.549 0 .995.447.995.999v16.837c0 .552-.446.999-1.003.999h-.425c-.554 0-1.257-.365-1.574-.818l-7.364-10.548c-.316-.452-.571-.37-.571.179v10.19c0 .551-.448.997-.995.997h-1.048c-.549 0-.995-.447-.995-.999v-16.837z" sketch:type="MSShapeGroup" fill="#000"/></svg>