<?xml version="1.0" encoding="UTF-8" standalone="no"?>
<!-- Generator: Adobe Illustrator 17.0.0, SVG Export Plug-In . SVG Version: 6.00 Build 0)  -->

<svg
   xmlns:dc="http://purl.org/dc/elements/1.1/"
   xmlns:cc="http://creativecommons.org/ns#"
   xmlns:rdf="http://www.w3.org/1999/02/22-rdf-syntax-ns#"
   xmlns:svg="http://www.w3.org/2000/svg"
   xmlns="http://www.w3.org/2000/svg"
   xmlns:sodipodi="http://sodipodi.sourceforge.net/DTD/sodipodi-0.dtd"
   xmlns:inkscape="http://www.inkscape.org/namespaces/inkscape"
   version="1.1"
   id="Layer_1"
   x="0px"
   y="0px"
   viewBox="130.393 266.256 351.328 274.023"
   inkscape:version="0.48.4 r9939"
   width="100%"
   height="100%"
   sodipodi:docname="kresus.svg">
  <metadata
     id="metadata9">
    <rdf:RDF>
      <cc:Work
         rdf:about="">
        <dc:format>image/svg+xml</dc:format>
        <dc:type
           rdf:resource="http://purl.org/dc/dcmitype/StillImage" />
      </cc:Work>
    </rdf:RDF>
  </metadata>
  <defs
     id="defs7" />
  <sodipodi:namedview
     pagecolor="#ffffff"
     bordercolor="#666666"
     borderopacity="1"
     objecttolerance="10"
     gridtolerance="10"
     guidetolerance="10"
     inkscape:pageopacity="0"
     inkscape:pageshadow="2"
     inkscape:window-width="1369"
     inkscape:window-height="979"
     id="namedview5"
     showgrid="false"
     inkscape:zoom="0.86124157"
     inkscape:cx="175.664"
     inkscape:cy="137.0115"
     inkscape:window-x="0"
     inkscape:window-y="24"
     inkscape:window-maximized="0"
     inkscape:current-layer="Layer_1" />
  <path
     d="m 193.4984,369.8182 32.60339,-60.3961 c 1.59041,-3.08593 4.37363,-4.84933 7.55444,-4.84933 l 0,0 h 144.72725 c 3.57844,0 6.36164,2.20424 7.95205,5.29017 l 32.6034,60.3961 c 1.98802,3.96764 1.59041,8.81695 -1.19281,11.90288 l 0,0 -105.36462,116.82459 c -3.57843,3.96762 -9.14486,3.96762 -12.32567,0 l 0,0 -105.76222,-116.82459 c -2.78322,-3.52677 -3.18083,-8.81694 -0.79521,-12.34372 l 0,0 z m 20.67532,-0.44085 h 44.13386 l -22.26573,-40.55796 -21.86813,40.55796 0,0 z m 162.22175,-40.11712 -22.26573,40.55797 h 44.13387 l -21.86814,-40.55797 0,0 z m 17.49451,52.02 h -45.32667 l -26.24175,79.35255 71.56842,-79.35255 0,0 z m -103.77421,79.35255 -26.24176,-79.35255 h -45.32666 l 71.56842,79.35255 0,0 z m 76.73725,-136.66272 h -48.10988 l 25.84415,40.99881 22.26573,-40.99881 0,0 z m -73.15883,0 h -48.50748 l 22.66333,40.99881 25.84415,-40.99881 0,0 z m -16.3017,45.40729 h 57.25474 l -28.62737,-44.96644 -28.62737,44.96644 0,0 z m 59.64036,11.90288 h -62.02597 l 31.01298,93.90052 31.01299,-93.90052 0,0 z"
     id="path3"
     inkscape:connector-curvature="0" />
</svg>
