<svg xmlns="http://www.w3.org/2000/svg" width="60" height="60" viewBox="0 0 60 60"><title>kresus</title><desc>Created with Sketch.</desc><path d="M29.69 7.969h-.002c-4.342 0-7.875 3.533-7.875 7.875 0 .849.157 1.671.406 2.438l1.938-.594c-.188-.573-.281-1.205-.281-1.844 0-3.223 2.59-5.781 5.813-5.781s5.844 2.558 5.844 5.781c0 .57-.098 1.137-.25 1.656l2.062.125c.133-.572.219-1.169.219-1.781 0-4.342-3.532-7.875-7.874-7.875"/><path d="M51.859 26.436c-.733-.725-1.713-1.128-2.773-1.128h-.245c-.405-.807-.815-1.532-1.386-2.257-.571-.725-1.225-1.451-1.958-2.175l1.142-5.4c.163-.484.082-.887-.162-1.29-.49-.887-1.631-1.128-2.447-.645l-5.383 3.143-.979-.323c-1.854-.497-3.733-.729-5.526-.794l.617-.773c-.161-.219-.329-.427-.506-.624-.176-.197-.358-.385-.55-.564l.553-.693-.494-.395-.566.703c-.478-.35-.923-.522-1.337-.517-.41.006-.761.191-1.052.555-.275.344-.383.688-.326 1.034.059.347.298.757.716 1.231l.067.077c-.507.03-1.003.067-1.479.118-.143-.213-.281-.431-.392-.678l-.638.8.003.004c-2.441.339-4.288.889-4.997 1.242-1.957.806-3.752 1.854-5.302 3.144-3.26 2.66-5.464 6.286-5.87 10.316l-.49-.403c-.571-.564-.897-1.37-.897-2.176s.326-1.612.898-2.176c.407-.483.407-1.128 0-1.53-.41-.404-1.143-.404-1.55 0-.98.965-1.55 2.255-1.55 3.625 0 1.371.57 2.66 1.551 3.628.489.483 1.06.887 1.632 1.127h.08l.245.08c.083 2.094.733 4.191 1.713 6.045.897 1.692 2.202 3.223 3.67 4.592l-.815 1.291c-.653 1.127-.816 2.498-.49 3.707.325 1.209 1.142 2.338 2.285 2.982h.08c1.142.725 2.447.887 3.672.564h.08c1.224-.323 2.365-1.129 3.018-2.338l.98-1.692c.65.161 1.385.323 2.12.403 1.223.242 2.446.322 3.67.322 1.223 0 2.446-.162 3.67-.322.733-.082 1.468-.243 2.12-.403l.898 1.532.079.08c.653 1.209 1.796 2.016 3.021 2.336 1.14.322 2.527.242 3.67-.403l.08-.08c1.224-.646 2.039-1.772 2.365-2.981s.244-2.498-.408-3.629l-.082-.16-.815-1.289c.735-.646 1.47-1.37 2.04-2.176.652-.806 1.223-1.692 1.712-2.66h.245c1.061 0 2.039-.402 2.773-1.127.733-.727 1.142-1.693 1.142-2.74v-5.4c0-1.048-.408-2.015-1.142-2.74zm-21.998-12.513c.086-.108.199-.162.34-.163.144-.001.292.052.443.159l-.637.797v-.001c-.144-.145-.229-.282-.255-.413-.023-.133.013-.259.109-.379zm.668 1.353l-.083-.096.699-.876c.197.174.379.367.543.578.166.208.316.437.452.685-.468-.017-.927-.022-1.38-.018l-.231-.273zm18.963 19.219c0 .08 0 .16-.083.239l-.244.08h-1.388c-.814 0-1.467.485-1.713 1.211-.406.967-.978 1.934-1.711 2.819-.734.968-1.633 1.854-2.61 2.58-.734.564-.897 1.612-.49 2.337l1.468 2.498c.082.082.164.162.164.242.163.322.163.645.08.968-.08.323-.324.646-.57.808l-.162.08c-.326.16-.652.16-.979.08-.325-.08-.651-.242-.815-.564l-.162-.242-1.633-2.74c-.49-.726-1.305-1.046-2.119-.806-1.061.323-2.039.563-3.018.726-.98.16-2.04.24-3.1.24s-2.121-.08-3.098-.24c-1.062-.162-2.04-.402-3.02-.726-.815-.242-1.712.081-2.12.888l-1.63 2.82c-.163.323-.489.562-.816.643h-.08c-.327.082-.654.082-.98-.08l-.163-.08c-.245-.16-.49-.482-.57-.805-.081-.322-.081-.645.083-.967l.08-.242 1.469-2.498c.408-.807.245-1.772-.49-2.337-1.631-1.29-2.936-2.739-3.833-4.433-.816-1.531-1.306-3.305-1.306-5.158 0-3.546 1.795-6.85 4.65-9.186 3.017-2.42 7.177-3.95 11.744-3.95 1.387 0 2.772.161 3.996.404v-.004c1.306.242 2.611.645 3.671 1.127.571.243 1.223.162 1.713-.16l2.772-1.452-.57 2.58c-.082.644.162 1.29.652 1.694.815.646 1.549 1.45 2.119 2.256.572.806 1.061 1.693 1.471 2.578.244.727.896 1.13 1.629 1.13h1.388c.081 0 .163 0 .243.08.082.082.082.162.082.242v5.32zM34.323 19.104h-.001zM43.133 26.869c-.552-.554-1.342-.869-2.132-.869-.869 0-1.58.315-2.133.868-.552.553-.868 1.264-.868 2.132s.316 1.579.868 2.132c.552.554 1.263.868 2.132.868.79 0 1.578-.314 2.132-.868.552-.553.868-1.264.868-2.132 0-.79-.314-1.499-.788-2.053l-.079-.078zm-2.133 3.131c-.552 0-1-.448-1-1s.448-1 1-1 1 .448 1 1-.448 1-1 1z"/></svg>