<?xml version="1.0" encoding="UTF-8"?>
<svg xmlns="http://www.w3.org/2000/svg" xmlns:xlink="http://www.w3.org/1999/xlink" width="80pt" height="80pt" viewBox="0 0 80 80" version="1.1">
<g id="surface1">
<path style=" stroke:none;fill-rule:nonzero;fill:rgb(0%,0%,0%);fill-opacity:1;" d="M 14.371094 30.242188 L 21.792969 12.625 C 22.15625 11.726562 22.789062 11.210938 23.515625 11.210938 L 56.46875 11.210938 C 57.285156 11.210938 57.917969 11.855469 58.28125 12.753906 L 65.703125 30.371094 C 66.15625 31.527344 66.066406 32.945312 65.433594 33.84375 L 41.441406 67.921875 C 40.625 69.078125 39.359375 69.078125 38.632812 67.921875 L 14.550781 33.84375 C 13.917969 32.816406 13.828125 31.273438 14.371094 30.242188 Z M 19.078125 30.113281 L 29.128906 30.113281 L 24.058594 18.285156 Z M 56.015625 18.414062 L 50.945312 30.242188 L 60.996094 30.242188 Z M 60 33.585938 L 49.679688 33.585938 L 43.703125 56.734375 Z M 36.371094 56.734375 L 30.394531 33.585938 L 20.074219 33.585938 Z M 53.84375 16.867188 L 42.890625 16.867188 L 48.773438 28.828125 Z M 37.183594 16.867188 L 26.140625 16.867188 L 31.300781 28.828125 Z M 33.472656 30.113281 L 46.511719 30.113281 L 39.992188 16.996094 Z M 47.054688 33.585938 L 32.929688 33.585938 L 39.992188 60.976562 Z M 47.054688 33.585938 "/>
</g>
</svg>
