<?xml version="1.0" encoding="UTF-8" standalone="no"?>
<svg width="60px" height="60px" viewBox="0 0 60 60" version="1.1" xmlns="http://www.w3.org/2000/svg" xmlns:xlink="http://www.w3.org/1999/xlink" xmlns:sketch="http://www.bohemiancoding.com/sketch/ns">
    <!-- Generator: Sketch 3.3.2 (12043) - http://www.bohemiancoding.com/sketch -->
    <title>kyou</title>
    <desc>Created with Sketch.</desc>
    <defs></defs>
    <g id="Page-1" stroke="none" stroke-width="1" fill="none" fill-rule="evenodd" sketch:type="MSPage">
        <g id="kyou" sketch:type="MSLayerGroup">
            <path d="M30,58.75 L30,58.75 C45.8781866,58.75 58.75,45.8781866 58.75,30 C58.75,14.1218134 45.8781866,1.25 30,1.25 C14.1218134,1.25 1.25,14.1218134 1.25,30 C1.25,45.8781866 14.1218134,58.75 30,58.75 L30,58.75 Z M30,60 L30,60 C13.4314575,60 0,46.5685425 0,30 C0,13.4314575 13.4314575,0 30,0 C46.5685425,0 60,13.4314575 60,30 C60,46.5685425 46.5685425,60 30,60 L30,60 Z" id="Shape-Copy" fill-opacity="0.0107280344" fill="#FFFFFF" sketch:type="MSShapeGroup"></path>
            <path d="M7,11.0087752 C7,10.451644 7.44386482,10 8,10 L8,10 C8.55228475,10 9,10.4532303 9,10.9968754 L9,47.0031246 C9,47.5536837 9.44981558,48 10.0016723,48 L51.9983277,48 C52.551536,48 53,48.4438648 53,49 L53,49 C53,49.5522847 52.5447218,50 51.9964448,50 L9.0061411,50 C7.89817996,50 7,49.1084602 7,48.0027084 L7,11.0087752 Z M34.4371681,34.114053 L34.5185841,34.1955193 C34.9256637,34.4399185 35.4955752,34.4399185 35.9026549,34.3584521 L35.9026549,34.3584521 C36.3911504,34.1955193 36.7982301,33.8696538 37.1238938,33.4623218 L37.1238938,33.4623218 C37.3681416,32.9735234 37.4495575,32.4032587 37.2867257,31.9144603 C37.1238938,31.4256619 36.879646,31.0183299 36.3911504,30.6924644 L36.3911504,30.6924644 C35.9026549,30.4480652 35.4141593,30.3665988 34.9256637,30.4480652 L34.9256637,30.4480652 C34.4371681,30.610998 34.0300885,30.8553971 33.7044248,31.3441955 L33.6230088,31.4256619 C33.3787611,31.9144603 33.3787611,32.4032587 33.460177,32.892057 C33.6230088,33.3808554 33.9486726,33.8696538 34.4371681,34.114053 L34.4371681,34.114053 L34.4371681,34.114053 Z M45.5911504,24.8268839 L39.4035398,31.0183299 L39.4849558,31.3441955 C39.7292035,32.4032587 39.6477876,33.5437882 39.0778761,34.5213849 L39.0778761,34.5213849 C38.5079646,35.4989817 37.6123894,36.2321792 36.5539823,36.4765784 L36.4725664,36.4765784 C35.4955752,36.7209776 34.3557522,36.6395112 33.3787611,36.0692464 L33.3787611,36.0692464 C32.4017699,35.4989817 31.6690265,34.6028513 31.4247788,33.5437882 C31.180531,32.7291242 31.2619469,31.9144603 31.5061947,31.0997963 L28.900885,28.4928717 L28.5752212,28.4928717 C27.7610619,28.7372709 26.9469027,28.6558045 26.1327434,28.4114053 L19.1309735,35.4175153 L19.2123894,35.7433809 C19.4566372,36.802444 19.3752212,37.9429735 18.8053097,38.9205703 L18.8053097,38.9205703 C18.2353982,39.898167 17.2584071,40.6313646 16.2814159,40.8757637 L16.2,40.8757637 C15.2230088,41.1201629 14.0831858,41.0386965 13.1061947,40.4684318 L13.0247788,40.3869654 C12.0477876,39.8167006 11.3964602,38.9205703 11.1522124,37.8615071 C10.9079646,36.802444 10.9893805,35.6619145 11.559292,34.6843177 C12.1292035,33.706721 13.0247788,33.0549898 14.0831858,32.7291242 L14.1646018,32.7291242 C14.9787611,32.5661914 15.7929204,32.5661914 16.6070796,32.8105906 L23.6088496,25.8044807 L23.5274336,25.4786151 C23.2831858,24.4195519 23.3646018,23.2790224 23.9345133,22.3014257 L23.9345133,22.3014257 C24.5044248,21.3238289 25.4,20.5906314 26.4584071,20.3462322 C27.5168142,20.101833 28.6566372,20.1832994 29.6336283,20.7535642 C30.6106195,21.3238289 31.3433628,22.2199593 31.5876106,23.2790224 C31.8318584,24.0936864 31.7504425,24.9083503 31.5061947,25.7230143 L34.1115044,28.4928717 L34.3557522,28.4114053 L34.4371681,28.4114053 C35.2513274,28.2484725 36.0654867,28.2484725 36.879646,28.4928717 L43.0672566,22.3014257 L42.9044248,21.9755601 C42.660177,20.9164969 42.7415929,19.7759674 43.3115044,18.7983707 L43.3115044,18.7983707 C43.8814159,17.8207739 44.7769912,17.1690428 45.8353982,16.8431772 C46.8938053,16.598778 48.0336283,16.6802444 49.0106195,17.2505092 L49.0106195,17.2505092 C49.9876106,17.8207739 50.720354,18.7169043 50.9646018,19.7759674 C51.2088496,20.8350305 51.1274336,21.9755601 50.5575221,22.9531568 L50.5575221,22.9531568 C49.9876106,23.9307536 49.0920354,24.5824847 48.0336283,24.9083503 C47.300885,25.1527495 46.4053097,25.1527495 45.5911504,24.8268839 L45.5911504,24.8268839 L45.5911504,24.8268839 Z M25.5628319,24.9898167 C25.7256637,25.4786151 26.0513274,25.9674134 26.4584071,26.2118126 C26.9469027,26.4562118 27.5168142,26.5376782 28.0053097,26.3747454 C28.4938053,26.2118126 28.9823009,25.885947 29.2265487,25.4786151 C29.4707965,24.9898167 29.5522124,24.4195519 29.3893805,24.01222 C29.2265487,23.5234216 28.900885,23.0346232 28.4938053,22.790224 C28.0053097,22.5458248 27.4353982,22.4643585 26.9469027,22.6272912 C26.4584071,22.790224 25.9699115,23.1160896 25.7256637,23.5234216 L25.7256637,23.5234216 C25.4814159,23.9307536 25.4814159,24.5010183 25.5628319,24.9898167 L25.5628319,24.9898167 L25.5628319,24.9898167 Z M13.2690265,37.2912424 C13.4318584,37.7800407 13.6761062,38.1873727 14.1646018,38.5132383 L14.1646018,38.5132383 C14.6530973,38.7576375 15.1415929,38.8391039 15.6300885,38.7576375 L15.6300885,38.7576375 C16.1185841,38.5947047 16.6070796,38.2688391 16.8513274,37.8615071 L16.8513274,37.8615071 C17.0955752,37.3727088 17.1769912,36.802444 17.0141593,36.3136456 C16.8513274,35.8248473 16.5256637,35.3360489 16.1185841,35.0916497 C15.6300885,34.8472505 15.1415929,34.7657841 14.6530973,34.8472505 L14.6530973,34.8472505 C14.1646018,35.0101833 13.7575221,35.3360489 13.4318584,35.8248473 C13.1876106,36.2321792 13.1061947,36.802444 13.2690265,37.2912424 L13.2690265,37.2912424 L13.2690265,37.2912424 Z M45.0212389,21.4052953 C45.1840708,21.8940937 45.4283186,22.3014257 45.9168142,22.5458248 L45.9982301,22.6272912 C46.4867257,22.8716904 46.9752212,22.8716904 47.4637168,22.790224 C47.9522124,22.6272912 48.359292,22.3828921 48.6035398,21.8940937 L48.6849558,21.8126273 C48.9292035,21.3238289 48.9292035,20.8350305 48.8477876,20.3462322 C48.6849558,19.8574338 48.440708,19.4501018 47.9522124,19.2057026 L47.8707965,19.1242363 C47.3823009,18.8798371 46.8938053,18.7983707 46.4053097,18.9613035 C45.9168142,19.1242363 45.5097345,19.3686354 45.2654867,19.8574338 L45.1840708,19.9389002 C44.939823,20.4276986 44.939823,20.9164969 45.0212389,21.4052953 L45.0212389,21.4052953 L45.0212389,21.4052953 Z" id="Shape" fill="#000000" sketch:type="MSShapeGroup"></path>
        </g>
    </g>
</svg>