<svg width="60" height="60" viewBox="0 0 60 60" xmlns="http://www.w3.org/2000/svg"><path d="M42.206 45.968c6.581-.465 11.794-5.891 11.794-12.494 0-6.528-5.093-11.905-11.568-12.477-.348-2.814-1.644-5.415-3.728-7.425-2.389-2.305-5.546-3.571-8.888-3.571-3.343 0-6.499 1.267-8.888 3.572-2.092 2.018-3.393 4.634-3.732 7.463-2.87.334-5.523 1.616-7.572 3.677-2.338 2.355-3.625 5.466-3.625 8.761 0 6.604 5.21 12.031 11.794 12.495l-.617-3.087c-4.634-.725-8.176-4.677-8.176-9.409 0-2.502.973-4.854 2.754-6.647 1.564-1.574 3.587-2.555 5.789-2.811l2.351-.273.282-2.35c.257-2.149 1.245-4.126 2.835-5.66 1.828-1.764 4.236-2.731 6.805-2.731 2.568 0 4.978.968 6.805 2.73 1.583 1.527 2.569 3.494 2.833 5.634l.297 2.407 2.416.213c4.98.44 8.832 4.568 8.832 9.489 0 4.729-3.544 8.682-8.176 9.408l-.617 3.087zm-1.394-6.498h-10.442v3.131h7.432c-.363 4.39-3.947 6.262-7.33 6.262-4.328 0-8.105-3.471-8.105-8.335 0-4.739 3.6-8.388 8.115-8.388 3.483 0 5.535 2.263 5.535 2.263l2.151-2.27s-2.761-3.132-7.796-3.132c-6.412 0-11.372 5.515-11.372 11.472 0 5.837 4.666 11.528 11.536 11.528 6.042 0 10.464-4.218 10.464-10.455 0-1.316-.187-2.076-.187-2.076v.001z" fill="#000"/></svg>
