<?xml version="1.0" encoding="UTF-8" standalone="no"?>
<svg
   xmlns:sketch="http://www.bohemiancoding.com/sketch/ns"
   xmlns:dc="http://purl.org/dc/elements/1.1/"
   xmlns:cc="http://creativecommons.org/ns#"
   xmlns:rdf="http://www.w3.org/1999/02/22-rdf-syntax-ns#"
   xmlns:svg="http://www.w3.org/2000/svg"
   xmlns="http://www.w3.org/2000/svg"
   xmlns:sodipodi="http://sodipodi.sourceforge.net/DTD/sodipodi-0.dtd"
   xmlns:inkscape="http://www.inkscape.org/namespaces/inkscape"
   width="100"
   height="100"
   viewBox="0 0 100 100"
   version="1.1"
   id="svg2994"
   inkscape:version="0.48.4 r9939"
   sodipodi:docname="leave-google.svg">
  <metadata
     id="metadata3007">
    <rdf:RDF>
      <cc:Work
         rdf:about="">
        <dc:format>image/svg+xml</dc:format>
        <dc:type
           rdf:resource="http://purl.org/dc/dcmitype/StillImage" />
      </cc:Work>
    </rdf:RDF>
  </metadata>
  <sodipodi:namedview
     pagecolor="#ffffff"
     bordercolor="#666666"
     borderopacity="1"
     objecttolerance="10"
     gridtolerance="10"
     guidetolerance="10"
     inkscape:pageopacity="0"
     inkscape:pageshadow="2"
     inkscape:window-width="962"
     inkscape:window-height="1060"
     id="namedview3005"
     showgrid="false"
     inkscape:zoom="4.5384615"
     inkscape:cx="34"
     inkscape:cy="26"
     inkscape:window-x="0"
     inkscape:window-y="24"
     inkscape:window-maximized="0"
     inkscape:current-layer="svg2994" />
  <!-- Generator: Sketch 3.3.1 (12002) - http://www.bohemiancoding.com/sketch -->
  <title
     id="title2996">google-leave</title>
  <desc
     id="desc2998">Created with Sketch.</desc>
  <defs
     id="defs3000" />
  <g
     id="Page-1"
     sketch:type="MSPage"
     style="fill:none;stroke:none"
     transform="matrix(0.77318046,0,0,0.80508474,23.576272,27.932204)">
    <g
       id="Rectangle-1-+-path8122-+-Path-4-+-Path-5-Copy-2"
       sketch:type="MSLayerGroup"
       style="fill:#000000">
      <path
         d="M 61.171573,28 34,28 c -1.104569,0 -2,-0.895431 -2,-2 0,-1.10457 0.895431,-2 2,-2 L 61.171573,24 50.585786,13.414214 c -0.781048,-0.781049 -0.781048,-2.047379 0,-2.828428 0.781049,-0.7810481 2.047379,-0.7810481 2.828428,0 l 14,14 c 0.781048,0.781049 0.781048,2.047379 0,2.828428 l -14,14 c -0.781049,0.781048 -2.047379,0.781048 -2.828428,0 -0.781048,-0.781049 -0.781048,-2.047379 0,-2.828428 L 61.171573,28 z M 42,22 42,11 31,0 4.0050741,0 C 1.8006843,0 0,1.7881789 0,3.9940093 L 0,48.005991 C 0,50.210042 1.7944925,52 4.0081112,52 L 37.991889,52 C 40.208748,52 42,50.206496 42,47.994097 L 42,30 37.998465,30 c -0.0012,8.940109 -0.0032,18 -0.0066,18 C 37.991889,48 4,47.998632 4,48.005991 4,48.005991 4.0035807,4 4.0050741,4 L 29.299988,4 38,12.700012 c 0,0 -1.72e-4,3.996466 -6.51e-4,9.299988 L 42,22 z M 22.206394,11.000001 c -0.35878,-1.32e-4 -1.200651,0.0199 -2.204392,0.199586 -2.372419,0.424705 -5.652274,1.974705 -6.580344,5.203175 -1.435325,4.993051 2.260674,6.976246 2.260674,6.976246 0,0 1.294592,0.752792 1.829176,0.90046 1.606629,0.443801 3.315969,0.236719 3.315969,0.236719 0,0 -0.681562,2.233191 0.684768,3.81071 0.32621,0.376631 0.08911,0.38989 0.08911,0.38989 0,0 -5.971653,-0.152584 -8.798807,2.817419 -2.8271538,2.970004 -1.294494,5.704462 -1.294494,5.704462 0,0 1.481359,3.574348 7.874838,3.755012 6.42189,0.181467 10.393652,-3.582678 10.740548,-6.423902 0.174364,-1.428117 -0.02281,-2.765985 -0.745741,-3.936032 -0.70313,-1.138002 -1.911341,-2.117671 -3.090839,-3.072704 -0.732889,-0.593419 -1.242666,-0.898081 -1.571215,-1.239293 -0.310388,-0.322351 -0.362751,-0.737516 -0.351765,-1.04899 0.01534,-0.434985 0.246936,-0.968432 1.017772,-1.851978 1.406258,-1.611873 1.762783,-1.411221 2.612439,-2.617832 0.254722,-0.361735 0.442093,-0.889472 0.70353,-1.675599 0.157503,-0.473606 0.131315,-0.963811 0.131325,-1.420313 2.4e-5,-0.986975 -0.239477,-1.927214 -0.637866,-2.719947 -0.740356,-1.473196 -2.011207,-2.429533 -2.035545,-2.501794 l 2.227843,0 2.523325,-1.462088 -8.512705,-0.02321 c 0,0 -0.06801,4.4e-5 -0.187608,0 z m -1.829176,1.369256 c 1.298468,0.0088 3.249244,0.674516 4.418164,4.144902 2.0059,5.955288 -2.195011,6.864849 -2.195011,6.864849 0,0 -4.813719,0.733581 -5.698588,-4.562642 -0.901393,-5.395116 1.293874,-5.686963 2.1528,-6.219673 0,0 0.543554,-0.232732 1.322635,-0.227436 z m 2.659341,17.545049 c 0,0 3.832604,2.324807 4.193035,4.028863 0.403823,1.909211 0.431002,3.29975 -2.495184,4.822568 -0.863826,0.449544 -2.379971,0.501899 -3.33473,0.505929 -2.346696,0.0099 -4.119151,-0.884021 -4.995058,-1.332124 -0.455204,-0.232878 -2.983441,-3.042521 -1.111576,-5.555933 0.470851,-0.632224 0.9926,-0.912514 1.477411,-1.234651 1.03175,-0.685551 2.044518,-1.004886 3.953835,-1.16967 0.63505,-0.05481 1.48129,-0.0087 2.312267,-0.06498 z"
         id="google-leave"
         sketch:type="MSShapeGroup"
         inkscape:connector-curvature="0" />
    </g>
  </g>
</svg>
