<?xml version="1.0" encoding="UTF-8" standalone="no"?>
<svg
   xmlns:dc="http://purl.org/dc/elements/1.1/"
   xmlns:cc="http://creativecommons.org/ns#"
   xmlns:rdf="http://www.w3.org/1999/02/22-rdf-syntax-ns#"
   xmlns:svg="http://www.w3.org/2000/svg"
   xmlns="http://www.w3.org/2000/svg"
   xmlns:sodipodi="http://sodipodi.sourceforge.net/DTD/sodipodi-0.dtd"
   xmlns:inkscape="http://www.inkscape.org/namespaces/inkscape"
   width="60"
   height="60"
   id="svg2"
   version="1.1"
   inkscape:version="0.48.4 r9939"
   sodipodi:docname="map.svg">
  <metadata
     id="metadata18">
    <rdf:RDF>
      <cc:Work
         rdf:about="">
        <dc:format>image/svg+xml</dc:format>
        <dc:type
           rdf:resource="http://purl.org/dc/dcmitype/StillImage" />
      </cc:Work>
    </rdf:RDF>
  </metadata>
  <defs
     id="defs16" />
  <sodipodi:namedview
     pagecolor="#ffffff"
     bordercolor="#666666"
     borderopacity="1"
     objecttolerance="10"
     gridtolerance="10"
     guidetolerance="10"
     inkscape:pageopacity="0"
     inkscape:pageshadow="2"
     inkscape:window-width="1920"
     inkscape:window-height="1125"
     id="namedview14"
     showgrid="false"
     inkscape:zoom="2.7812867"
     inkscape:cx="124.39926"
     inkscape:cy="31.57086"
     inkscape:window-x="0"
     inkscape:window-y="23"
     inkscape:window-maximized="1"
     inkscape:current-layer="svg2" />
  <!-- Created with SVG-edit - http://svg-edit.googlecode.com/ -->
  <title
     id="title4">map</title>
  <g
     id="g6"
     transform="matrix(0.19793372,0,0,0.19793372,6.482925,5.4277521)">
    <title
       id="title8">Layer 1</title>
    <g
       id="svg_8">
      <g
         id="svg_5"
         transform="matrix(0.524115,0,0,0.489844,79.1669,-140.958)">
        <path
           d="m 79.051849,289.80008 c -98.627996,0 -178.585037,79.95502 -178.585037,178.58496 0,42.25598 13.723999,77.28909 34.268013,113.63809 48.064987,85.04187 144.53302,193.71399 144.53302,193.71399 64.416995,-69.39111 147.020025,-206.30798 147.020025,-206.30798 0,0 31.35095,-63.53104 31.35095,-101.0441 -0.002,-98.62994 -79.958,-178.58496 -178.586986,-178.58496 l 1.5e-5,0 z m 0,284.37796 c -66.021008,0 -119.546028,-53.52295 -119.546028,-119.54593 0,-66.02298 53.525021,-119.54602 119.546028,-119.54602 66.021011,0 119.545971,53.52197 119.545971,119.54602 0,66.02405 -53.52502,119.54593 -119.545971,119.54593 z"
           id="svg_6"
           inkscape:connector-curvature="0"
           style="fill:#000000" />
        <circle
           cx="79.051849"
           cy="454.63205"
           r="72.106964"
           id="svg_7"
           d="m 151.15881,454.63205 c 0,39.82358 -32.28338,72.10696 -72.106961,72.10696 -39.823576,0 -72.1069637,-32.28338 -72.1069637,-72.10696 0,-39.82358 32.2833877,-72.10696 72.1069637,-72.10696 39.823581,0 72.106961,32.28338 72.106961,72.10696 z"
           sodipodi:cx="79.051849"
           sodipodi:cy="454.63205"
           sodipodi:rx="72.106964"
           sodipodi:ry="72.106964"
           style="fill:#000000" />
      </g>
    </g>
  </g>
</svg>
