<?xml version="1.0" encoding="UTF-8"?>
<svg xmlns="http://www.w3.org/2000/svg" viewBox="0 0 36 36">
  <path
     d="m 10.201237,25.054963 c -1.7519095,0 -3.1708771,1.422931 -3.1708771,3.170877 0,1.751909 1.4173821,3.170877 3.1788051,3.170877 l 0.784791,0 c 2.187906,0 3.963597,-1.767764 3.963597,-3.957254 l 0,-12.688264 c 0,-0.438374 0.343247,-0.864064 0.780035,-0.951263 l 10.330718,-2.065034 c 0.430446,-0.0872 0.780035,0.19818 0.780035,0.63576 l 0,8.719913 c 0,0.438373 -0.359102,0.792719 -0.790341,0.792719 l -2.380536,0 c -1.751909,0 -3.170877,1.422931 -3.170877,3.170876 0,1.75191 1.417383,3.170877 3.178804,3.170877 l 0.784793,0 c 2.187905,0 3.963596,-1.767763 3.963596,-3.966767 l 0,-18.2349208 c 0,-0.8719911 -0.696008,-1.4324436 -1.555316,-1.2524963 L 14.92743,7.2885392 c -0.859308,0.1799472 -1.555316,1.0321203 -1.555316,1.9041115 l 0,15.0695933 c 0,0.438373 -0.359102,0.794305 -0.790341,0.794305 l -2.380536,0 z"
     style="fill:#000000;fill-rule:evenodd" />
</svg>
