<svg width="60" height="60" viewBox="0 0 60 60" xmlns="http://www.w3.org/2000/svg"><title>icon-monitor</title><g stroke="#000" fill="none" fill-rule="evenodd" opacity=".7"><path stroke-width="2" d="M7.025 36h10l4-5 4 10 8-12 6 14 4-7h10M35.025 17c0 .554-.448 1-1 1-.554 0-1-.446-1-1 0-.55.446-1 1-1 .552 0 1 .45 1 1zM41.025 17c0 .554-.448 1-1 1-.554 0-1-.446-1-1 0-.55.446-1 1-1 .552 0 1 .45 1 1zM47.025 17c0 .554-.448 1-1 1-.554 0-1-.446-1-1 0-.55.446-1 1-1 .552 0 1 .45 1 1z"/><path stroke-width="3" stroke-linejoin="round" d="M53.026 50h-46V12h46zM7.025 22h46"/></g></svg>