<?xml version="1.0" encoding="utf-8"?>
<!-- Generator: Adobe Illustrator 16.0.0, SVG Export Plug-In . SVG Version: 6.00 Build 0)  -->
<!DOCTYPE svg PUBLIC "-//W3C//DTD SVG 1.1//EN" "http://www.w3.org/Graphics/SVG/1.1/DTD/svg11.dtd">
<svg version="1.1" id="Layer_1" xmlns:sketch="http://www.bohemiancoding.com/sketch/ns"
	 xmlns="http://www.w3.org/2000/svg" xmlns:xlink="http://www.w3.org/1999/xlink" x="0px" y="0px" width="60px" height="60px"
	 viewBox="0 0 60 60" enable-background="new 0 0 60 60" xml:space="preserve">
<title>owm</title>
<desc>Created with Sketch.</desc>
<path id="Shape-Copy" sketch:type="MSShapeGroup" fill="#FFFFFF" fill-opacity="0.0107" d="M30,58.75L30,58.75
	c15.879,0,28.75-12.872,28.75-28.75S45.879,1.25,30,1.25C14.122,1.25,1.25,14.122,1.25,30S14.122,58.75,30,58.75L30,58.75z M30,60
	L30,60C13.432,60,0,46.568,0,30S13.432,0,30,0s30,13.432,30,30S46.568,60,30,60L30,60z"/>
<g>
	<path d="M18.689,39.896l-5.663,5.663c-0.382,0.382-0.388,1.021,0.003,1.411c0.394,0.393,1.022,0.392,1.411,0.003l5.663-5.663
		c0.382-0.382,0.388-1.021-0.003-1.411C19.707,39.506,19.078,39.508,18.689,39.896z"/>
	<path d="M18.689,20.104c0.382,0.382,1.021,0.388,1.411-0.003c0.393-0.394,0.392-1.022,0.003-1.411l-5.663-5.663
		c-0.382-0.382-1.021-0.388-1.411,0.003c-0.393,0.394-0.392,1.022-0.003,1.411L18.689,20.104z"/>
	<path d="M16,30c0-0.556-0.446-1-0.996-1H6.996C6.456,29,6,29.448,6,30c0,0.557,0.446,1,0.996,1h8.009C15.544,31,16,30.553,16,30z"
		/>
	<path d="M30,16c0.557,0,1-0.446,1-0.996V6.996C31,6.456,30.553,6,30,6c-0.556,0-1,0.446-1,0.996v8.009C29,15.544,29.448,16,30,16z"
		/>
	<path d="M41.311,20.104l5.663-5.663c0.382-0.382,0.388-1.021-0.003-1.411c-0.394-0.393-1.022-0.392-1.411-0.003l-5.663,5.663
		c-0.382,0.382-0.388,1.021,0.003,1.411C40.293,20.494,40.922,20.493,41.311,20.104z"/>
	<path d="M41.311,39.896c-0.382-0.382-1.021-0.388-1.411,0.003c-0.394,0.394-0.392,1.022-0.003,1.411l5.663,5.663
		c0.382,0.382,1.021,0.388,1.411-0.003c0.393-0.394,0.392-1.022,0.003-1.411L41.311,39.896z"/>
	<path d="M53.004,29h-8.008C44.455,29,44,29.448,44,30c0,0.557,0.445,1,0.996,1h8.008C53.545,31,54,30.553,54,30
		C54,29.444,53.555,29,53.004,29z"/>
	<path d="M30,18c-6.627,0-12,5.373-12,12c0,6.627,5.373,12,12,12c6.627,0,12-5.373,12-12C42,23.373,36.627,18,30,18z M30,39
		c-4.971,0-9-4.029-9-9s4.029-9,9-9s9,4.029,9,9S34.971,39,30,39z"/>
	<path d="M30,44c-0.556,0-1,0.445-1,0.996v8.008C29,53.545,29.448,54,30,54c0.557,0,1-0.445,1-0.996v-8.008
		C31,44.455,30.553,44,30,44z"/>
</g>
</svg>
