<?xml version="1.0" encoding="UTF-8" standalone="no"?>
<svg width="60px" height="60px" viewBox="0 0 60 60" version="1.1" xmlns="http://www.w3.org/2000/svg" xmlns:xlink="http://www.w3.org/1999/xlink" xmlns:sketch="http://www.bohemiancoding.com/sketch/ns">
    <!-- Generator: Sketch 3.3.2 (12043) - http://www.bohemiancoding.com/sketch -->
    <title>owm</title>
    <desc>Created with Sketch.</desc>
    <defs></defs>
    <g id="Page-1" stroke="none" stroke-width="1" fill="none" fill-rule="evenodd" sketch:type="MSPage">
        <g id="owm" sketch:type="MSLayerGroup">
            <path d="M30,58.75 L30,58.75 C45.8781866,58.75 58.75,45.8781866 58.75,30 C58.75,14.1218134 45.8781866,1.25 30,1.25 C14.1218134,1.25 1.25,14.1218134 1.25,30 C1.25,45.8781866 14.1218134,58.75 30,58.75 L30,58.75 Z M30,60 L30,60 C13.4314575,60 0,46.5685425 0,30 C0,13.4314575 13.4314575,0 30,0 C46.5685425,0 60,13.4314575 60,30 C60,46.5685425 46.5685425,60 30,60 L30,60 Z" id="Shape-Copy" fill-opacity="0.0107280344" fill="#FFFFFF" sketch:type="MSShapeGroup"></path>
            <path d="M30,42 C36.627417,42 42,36.627417 42,30 C42,23.372583 36.627417,18 30,18 C23.372583,18 18,23.372583 18,30 C18,36.627417 23.372583,42 30,42 Z M30,39 C34.9705627,39 39,34.9705627 39,30 C39,25.0294373 34.9705627,21 30,21 C25.0294373,21 21,25.0294373 21,30 C21,34.9705627 25.0294373,39 30,39 Z M29,6.99539757 C29,6.44565467 29.4438648,6 30,6 C30.5522847,6 31,6.4556644 31,6.99539757 L31,15.0046024 C31,15.5543453 30.5561352,16 30,16 C29.4477153,16 29,15.5443356 29,15.0046024 L29,6.99539757 Z M29,44.9953976 C29,44.4456547 29.4438648,44 30,44 C30.5522847,44 31,44.4556644 31,44.9953976 L31,53.0046024 C31,53.5543453 30.5561352,54 30,54 C29.4477153,54 29,53.5443356 29,53.0046024 L29,44.9953976 Z M45.5596036,13.0261828 C45.9483305,12.6374559 46.5773158,12.6361903 46.9705627,13.0294373 C47.361087,13.4199615 47.3554661,14.0587474 46.9738172,14.4403964 L41.3104541,20.1037595 C40.9217272,20.4924864 40.2927419,20.493752 39.8994949,20.1005051 C39.5089706,19.7099808 39.5145915,19.0711949 39.8962405,18.6895459 L45.5596036,13.0261828 Z M18.6895459,39.8962405 C19.0782728,39.5075136 19.7072581,39.506248 20.1005051,39.8994949 C20.4910294,40.2900192 20.4854085,40.9288051 20.1037595,41.3104541 L14.4403964,46.9738172 C14.0516695,47.3625441 13.4226842,47.3638097 13.0294373,46.9705627 C12.638913,46.5800385 12.6445339,45.9412526 13.0261828,45.5596036 L18.6895459,39.8962405 Z M53.0046024,29 C53.5543453,29 54,29.4438648 54,30 C54,30.5522847 53.5443356,31 53.0046024,31 L44.9953976,31 C44.4456547,31 44,30.5561352 44,30 C44,29.4477153 44.4556644,29 44.9953976,29 L53.0046024,29 Z M15.0046024,29 C15.5543453,29 16,29.4438648 16,30 C16,30.5522847 15.5443356,31 15.0046024,31 L6.99539757,31 C6.44565467,31 6,30.5561352 6,30 C6,29.4477153 6.4556644,29 6.99539757,29 L15.0046024,29 Z M46.9738172,45.5596036 C47.3625441,45.9483305 47.3638097,46.5773158 46.9705627,46.9705627 C46.5800385,47.361087 45.9412526,47.3554661 45.5596036,46.9738172 L39.8962405,41.3104541 C39.5075136,40.9217272 39.506248,40.2927419 39.8994949,39.8994949 C40.2900192,39.5089706 40.9288051,39.5145915 41.3104541,39.8962405 L46.9738172,45.5596036 Z M20.1037595,18.6895459 C20.4924864,19.0782728 20.493752,19.7072581 20.1005051,20.1005051 C19.7099808,20.4910294 19.0711949,20.4854085 18.6895459,20.1037595 L13.0261828,14.4403964 C12.6374559,14.0516695 12.6361903,13.4226842 13.0294373,13.0294373 C13.4199615,12.638913 14.0587474,12.6445339 14.4403964,13.0261828 L20.1037595,18.6895459 Z" id="Oval-8" fill="#000000" sketch:type="MSShapeGroup"></path>
        </g>
    </g>
</svg>