<?xml version="1.0" encoding="utf-8"?>
<!-- Generator: Adobe Illustrator 18.1.0, SVG Export Plug-In . SVG Version: 6.00 Build 0)  -->
<!DOCTYPE svg PUBLIC "-//W3C//DTD SVG 1.1//EN" "http://www.w3.org/Graphics/SVG/1.1/DTD/svg11.dtd">
<svg version="1.1" id="Layer_1" xmlns="http://www.w3.org/2000/svg" xmlns:xlink="http://www.w3.org/1999/xlink" x="0px" y="0px"
	 viewBox="0 0 100 100" enable-background="new 0 0 100 100" xml:space="preserve">
<path d="M80.9,24.6H22.5c-1.3,0-2.4,1.1-2.4,2.4v49.1c0,1.3,1.1,2.4,2.4,2.4h58.3c1.3,0,2.4-1.1,2.4-2.4V27
	C83.3,25.6,82.2,24.6,80.9,24.6L80.9,24.6z M78.4,73.7L78.4,73.7H25v-5.4l12.5-12.5l8.7,8.7l0,0l0,0l5.2,5.2c0.6,0.6,1.5,0.6,2.1,0
	c0.6-0.6,0.6-1.5,0-2.1l-4.2-4.2l11.8-11.8L78.4,69V73.7L78.4,73.7z M78.4,64.9L78.4,64.9L62.1,48.6c-0.6-0.6-1.5-0.6-2.1,0
	L47.2,61.4l-8.7-8.7c-0.6-0.6-1.5-0.6-2.1,0L25,64.2V29.4h53.5V64.9L78.4,64.9z M38.4,49L38.4,49c4.7,0,8.5-3.8,8.5-8.5
	c0-4.7-3.8-8.5-8.5-8.5c-4.7,0-8.5,3.8-8.5,8.5C30,45.2,33.8,49,38.4,49L38.4,49z M38.4,34.9L38.4,34.9c3.1,0,5.5,2.5,5.5,5.6
	c0,3.1-2.5,5.5-5.5,5.5c-3.1,0-5.6-2.5-5.6-5.5C32.9,37.4,35.4,34.9,38.4,34.9L38.4,34.9z"/>
</svg>
