<svg xmlns:sketch="http://www.bohemiancoding.com/sketch/ns" xmlns="http://www.w3.org/2000/svg" width="60" height="60" viewBox="0 0 60 60"><title>polybios</title><desc>Created with Sketch.</desc><g sketch:type="MSLayerGroup"><path d="M46.003 24h-3.003v-5c0-.413-.052-1.076-.204-1.91-.252-1.379-.705-2.76-1.418-4.06-2.058-3.756-5.792-6.03-11.378-6.03s-9.321 2.273-11.378 6.03c-.712 1.301-1.166 2.682-1.418 4.06-.152.834-.204 1.497-.204 1.91v5h-3.002c-1.646 0-2.998 1.343-2.998 3v24c0 1.652 1.342 3 2.998 3h32.005c1.646 0 2.998-1.343 2.998-3v-24c0-1.653-1.342-3-2.998-3zm-26.003-5l.018-.334c.024-.309.068-.659.137-1.037.198-1.082.552-2.162 1.098-3.158 1.537-2.806 4.271-4.47 8.747-4.47 4.477 0 7.21 1.664 8.747 4.47.545.996.899 2.076 1.099 3.158.068.378.112.728.137 1.037l.017.334v5h-20v-5zm26 32h-32v-24h32v24z"/><path sketch:type="MSShapeGroup" d="M16.88 33.49c0-.607.063-1.139.19-1.596s.305-.834.535-1.135c.23-.3.505-.525.825-.675.32-.15.677-.225 1.07-.225.84 0 1.487.295 1.94.885s.68 1.505.68 2.745c0 .613-.063 1.148-.19 1.604-.127.457-.305.837-.535 1.14-.23.304-.507.531-.83.681-.323.149-.682.226-1.075.226-.847 0-1.493-.312-1.94-.936-.447-.622-.67-1.527-.67-2.714zm3.96 0l-.005-.305-.015-.285-2.45 2.229c.207.606.583.91 1.13.91.427 0 .757-.203.99-.61.233-.406.35-1.052.35-1.939zm-2.68 0l.005.285.015.274 2.44-2.229c-.2-.573-.577-.86-1.13-.86-.427 0-.755.205-.985.615-.23.409-.345 1.048-.345 1.915zm5.72 0c0-.607.063-1.139.19-1.596s.305-.834.535-1.135c.23-.3.505-.525.825-.675.32-.15.677-.225 1.07-.225.84 0 1.487.295 1.94.885s.68 1.505.68 2.745c0 .613-.063 1.148-.19 1.604-.127.457-.305.837-.535 1.14-.23.304-.507.531-.83.681-.323.149-.682.226-1.075.226-.847 0-1.493-.312-1.94-.936-.447-.622-.67-1.527-.67-2.714zm3.96 0l-.005-.305-.015-.285-2.45 2.229c.207.606.583.91 1.13.91.427 0 .757-.203.99-.61.233-.406.35-1.052.35-1.939zm-2.68 0l.005.285.015.274 2.44-2.229c-.2-.573-.577-.86-1.13-.86-.427 0-.755.205-.985.615-.23.409-.345 1.048-.345 1.915zm6.401 2.41h1.529v-4.37l-1.32 1.01-.6-.8 2.28-1.74h.88v5.9h1.5v1.1h-4.27v-1.1zm6.319-2.41c0-.607.063-1.139.19-1.596s.305-.834.535-1.135c.229-.3.504-.525.824-.675s.678-.225 1.07-.225c.84 0 1.486.295 1.939.885s.681 1.505.681 2.745c0 .613-.063 1.148-.19 1.604-.127.457-.305.837-.535 1.14-.229.304-.506.531-.83.681-.322.149-.682.226-1.074.226-.848 0-1.493-.312-1.94-.936-.446-.622-.67-1.527-.67-2.714zm3.96 0l-.005-.305-.015-.285-2.45 2.229c.207.606.583.91 1.13.91.427 0 .757-.203.99-.61.233-.406.35-1.052.35-1.939zm-2.68 0l.005.285.015.274 2.44-2.229c-.2-.573-.577-.86-1.13-.86-.428 0-.756.205-.985.615-.23.409-.345 1.048-.345 1.915zm-22.28 11c0-.607.063-1.139.19-1.596s.305-.834.535-1.135c.23-.3.505-.525.825-.675.32-.149.677-.226 1.07-.226.84 0 1.487.296 1.94.886s.68 1.505.68 2.745c0 .613-.063 1.148-.19 1.604-.127.457-.305.837-.535 1.14-.23.304-.507.531-.83.681-.323.149-.682.226-1.075.226-.847 0-1.493-.312-1.94-.936-.447-.622-.67-1.527-.67-2.714zm3.96 0l-.005-.305-.015-.285-2.45 2.229c.207.606.583.91 1.13.91.427 0 .757-.203.99-.61.233-.406.35-1.052.35-1.939zm-2.68 0l.005.285.015.274 2.44-2.229c-.2-.573-.577-.86-1.13-.86-.427 0-.755.205-.985.615-.23.409-.345 1.048-.345 1.915zm6.4 2.41h1.53v-4.37l-1.32 1.01-.6-.8 2.28-1.74h.88v5.9h1.5v1.1h-4.27v-1.1zm6.32-2.41c0-.607.063-1.139.19-1.596s.305-.834.535-1.135c.229-.3.504-.525.824-.675s.678-.226 1.07-.226c.84 0 1.486.296 1.939.886s.681 1.505.681 2.745c0 .613-.063 1.148-.19 1.604-.127.457-.305.837-.535 1.14-.229.304-.506.531-.83.681-.322.149-.682.226-1.074.226-.848 0-1.493-.312-1.94-.936-.446-.622-.67-1.527-.67-2.714zm3.96 0l-.005-.305-.015-.285-2.45 2.229c.207.606.583.91 1.13.91.427 0 .757-.203.99-.61.233-.406.35-1.052.35-1.939zm-2.68 0l.005.285.015.274 2.44-2.229c-.2-.573-.577-.86-1.13-.86-.428 0-.756.205-.985.615-.23.409-.345 1.048-.345 1.915zm6.401 2.41h1.529v-4.37l-1.32 1.01-.6-.8 2.28-1.74h.88v5.9h1.5v1.1h-4.27v-1.1z"/></g></svg>