<?xml version="1.0" encoding="UTF-8" standalone="no"?>
<svg width="60px" height="60px" viewBox="0 0 60 60" version="1.1" xmlns="http://www.w3.org/2000/svg" xmlns:xlink="http://www.w3.org/1999/xlink" xmlns:sketch="http://www.bohemiancoding.com/sketch/ns">
    <!-- Generator: Sketch 3.3.2 (12043) - http://www.bohemiancoding.com/sketch -->
    <title>state</title>
    <desc>Created with Sketch.</desc>
    <defs></defs>
    <g id="Page-1" stroke="none" stroke-width="1" fill="none" fill-rule="evenodd" sketch:type="MSPage">
        <g id="state" sketch:type="MSLayerGroup">
            <path d="M30,58.75 L30,58.75 C45.8781866,58.75 58.75,45.8781866 58.75,30 C58.75,14.1218134 45.8781866,1.25 30,1.25 C14.1218134,1.25 1.25,14.1218134 1.25,30 C1.25,45.8781866 14.1218134,58.75 30,58.75 L30,58.75 Z M30,60 L30,60 C13.4314575,60 0,46.5685425 0,30 C0,13.4314575 13.4314575,0 30,0 C46.5685425,0 60,13.4314575 60,30 C60,46.5685425 46.5685425,60 30,60 L30,60 Z" id="Shape-Copy" fill-opacity="0.0107280344" fill="#FFFFFF" sketch:type="MSShapeGroup"></path>
            <path d="M29,29 L29,21 L16.9961002,21 C15.3413998,21 14,19.6583772 14,18.002848 L14,11.997152 C14,10.3418707 15.3342595,9 16.9961002,9 L43.0038998,9 C44.6586002,9 46,10.3416228 46,11.997152 L46,18.002848 C46,19.6581293 44.6657405,21 43.0038998,21 L31,21 L31,29 L39.9990358,29 C43.3135809,29 46.0041664,31.6899141 46.0041664,35.0000004 L46.0041664,39 L48.002848,39 C49.6581293,39 51,40.3416228 51,41.997152 L51,48.002848 C51,49.6581293 49.6583772,51 48.002848,51 L41.997152,51 C40.3418707,51 39,49.6583772 39,48.002848 L39,41.997152 C39,40.3418707 40.3416228,39 41.997152,39 L44.0041664,39 L44.0041664,35.0000004 C44.0041664,32.7945954 42.2091231,31 39.9990358,31 L31,31 L31,39 L33.002848,39 C34.6581293,39 36,40.3416228 36,41.997152 L36,48.002848 C36,49.6581293 34.6583772,51 33.002848,51 L26.997152,51 C25.3418707,51 24,49.6583772 24,48.002848 L24,41.997152 C24,40.3418707 25.3416228,39 26.997152,39 L29,39 L29,31 L20.0051306,31 C17.7865685,31 16,32.7872523 16,35 L16,39 L18.002848,39 C19.6581293,39 21,40.3416228 21,41.997152 L21,48.002848 C21,49.6581293 19.6583772,51 18.002848,51 L11.997152,51 C10.3418707,51 9,49.6583772 9,48.002848 L9,41.997152 C9,40.3418707 10.3416228,39 11.997152,39 L14,39 L14,35 C14,31.6828541 16.6818277,29 20.0051306,29 L29,29 Z M17,12.990778 C17,12.4435864 17.4512787,12 18.0032996,12 L41.9967004,12 C42.5508075,12 43,12.4509752 43,12.990778 L43,17.009222 C43,17.5564136 42.5487213,18 41.9967004,18 L18.0032996,18 C17.4491925,18 17,17.5490248 17,17.009222 L17,12.990778 Z M12,42.990778 C12,42.4435864 12.4509752,42 12.990778,42 L17.009222,42 C17.5564136,42 18,42.4509752 18,42.990778 L18,47.009222 C18,47.5564136 17.5490248,48 17.009222,48 L12.990778,48 C12.4435864,48 12,47.5490248 12,47.009222 L12,42.990778 Z M42,42.990778 C42,42.4435864 42.4509752,42 42.990778,42 L47.009222,42 C47.5564136,42 48,42.4509752 48,42.990778 L48,47.009222 C48,47.5564136 47.5490248,48 47.009222,48 L42.990778,48 C42.4435864,48 42,47.5490248 42,47.009222 L42,42.990778 Z M27,42.990778 C27,42.4435864 27.4509752,42 27.990778,42 L32.009222,42 C32.5564136,42 33,42.4509752 33,42.990778 L33,47.009222 C33,47.5564136 32.5490248,48 32.009222,48 L27.990778,48 C27.4435864,48 27,47.5490248 27,47.009222 L27,42.990778 Z" id="Rectangle-7" fill="#000000" sketch:type="MSShapeGroup"></path>
        </g>
    </g>
</svg>