<svg xmlns:sketch="http://www.bohemiancoding.com/sketch/ns" xmlns="http://www.w3.org/2000/svg" width="60" height="60" viewBox="0 0 60 60"><title>store</title><desc>Created with Sketch.</desc><path sketch:type="MSShapeGroup" fill="#fff" fill-opacity=".011" d="M30 58.75c15.878 0 28.75-12.872 28.75-28.75s-12.872-28.75-28.75-28.75-28.75 12.872-28.75 28.75 12.872 28.75 28.75 28.75zm0 1.25c-16.569 0-30-13.432-30-30 0-16.569 13.431-30 30-30 16.568 0 30 13.431 30 30 0 16.568-13.432 30-30 30z"/><path d="M29 10c-11.046 0-20 8.954-20 20s8.954 20 20 20 20-8.954 20-20-8.954-20-20-20zm12 21.5h-10.5v10.5h-3v-10.5h-10.5v-3h10.5v-10.5h3v10.5h10.5v3z" fill="none"/><path d="M29 7c-12.703 0-23 10.297-23 23s10.297 23 23 23 23-10.297 23-23-10.297-23-23-23zm0 43c-11.046 0-20-8.954-20-20s8.954-20 20-20 20 8.954 20 20-8.954 20-20 20zM30.5 18h-3v10.5h-10.5v3h10.5v10.5h3v-10.5h10.5v-3h-10.5z"/></svg>