<?xml version="1.0" encoding="UTF-8" standalone="no"?>
<svg width="60px" height="60px" viewBox="0 0 60 60" version="1.1" xmlns="http://www.w3.org/2000/svg" xmlns:xlink="http://www.w3.org/1999/xlink" xmlns:sketch="http://www.bohemiancoding.com/sketch/ns">
    <!-- Generator: Sketch 3.3.2 (12043) - http://www.bohemiancoding.com/sketch -->
    <title>store</title>
    <desc>Created with Sketch.</desc>
    <defs></defs>
    <g id="Page-1" stroke="none" stroke-width="1" fill="none" fill-rule="evenodd" sketch:type="MSPage">
        <g id="store" sketch:type="MSLayerGroup">
            <path d="M30,58.75 L30,58.75 C45.8781866,58.75 58.75,45.8781866 58.75,30 C58.75,14.1218134 45.8781866,1.25 30,1.25 C14.1218134,1.25 1.25,14.1218134 1.25,30 C1.25,45.8781866 14.1218134,58.75 30,58.75 L30,58.75 Z M30,60 L30,60 C13.4314575,60 0,46.5685425 0,30 C0,13.4314575 13.4314575,0 30,0 C46.5685425,0 60,13.4314575 60,30 C60,46.5685425 46.5685425,60 30,60 L30,60 Z" id="Shape-Copy" fill-opacity="0.0107280344" fill="#FFFFFF" sketch:type="MSShapeGroup"></path>
            <path d="M48.0000003,28.8531173 L48.0000003,36 L48.0000003,36 L27.0000003,36 L27.0000003,28.7363788 C28.1501492,28.4184583 29.1514052,27.8251084 30.0020494,27.0228002 C30.0020485,26.9950371 29.7234481,26.855066 30.5611038,27.5056995 C31.7766905,28.4498839 33.2576676,29 35.0000003,29 C37.2935852,29 39.1794278,28.0504611 40.6629819,26.5005158 C41,26.5209923 40.6467494,26.5075527 41.197083,26.9758342 C42.6868879,28.2435164 44.4502011,29 46.5000003,29 C47.0261244,29 47.5262261,28.9495715 48.0000003,28.8531173 L48.0000003,28.8531173 Z M12.0000003,28.8531173 L12.0000003,48 L25.0000003,48 L25.0000003,29 C22.9615771,29 21.2452198,28.2499817 19.8471,26.9950371 C19.2757824,26.4822255 19.5,26.5209923 19.3035716,26.5209925 C17.7128677,28.0605043 15.784331,29 13.5000003,29 C12.9738762,29 12.4737745,28.9495715 12.0000003,28.8531173 L12.0000003,28.8531173 Z M51.0000003,27.3832703 L51.0000003,47.9963188 C51.0000003,49.6552061 49.650154,51 47.9963191,51 L12.0036815,51 C10.3447942,51 9.0000003,49.6501537 9.0000003,47.9963188 L9.0000003,27.3832703 C8.21129513,26.7045011 7.56563265,25.8394686 7.06671872,24.8416408 C6.40559589,23.5193951 6.11051305,22.2547544 6.01488873,21.2985112 C5.97280011,20.877625 6.02019069,20.4525958 6.1539504,20.0513167 L9.1539504,11.0513167 C9.56229254,9.82629028 10.7087091,9 12.0000003,9 L48.0000003,9 C49.2912915,9 50.4377081,9.82629028 50.8460502,11.0513167 L53.8460502,20.0513167 C53.9798099,20.4525958 54.0272005,20.877625 53.9851119,21.2985112 C53.8894875,22.2547544 53.5944047,23.5193951 52.9332819,24.8416408 C52.4343679,25.8394686 51.7887055,26.7045011 51.0000003,27.3832703 L51.0000003,27.3832703 Z M48.0000003,38 L48.0000003,48 L27.0000003,48 L27.0000003,48 L27.0000003,38 L48.0000003,38 L48.0000003,38 Z M12.0000003,12 L9.0000003,21 C9.0000003,21 9.5000003,26 13.5000003,26 C17.5000003,26 19.5000003,21 19.5000003,21 C19.5000003,21 21.0000003,26 25.0000003,26 C29.0000003,26 30.0000003,21 30.0000003,21 C30.0000003,21 31.0000003,26 35.0000003,26 C39.0000003,26 40.5000003,21 40.5000003,21 C40.5000003,21 42.5000003,26 46.5000003,26 C50.5000003,26 51.0000003,21 51.0000003,21 L48.0000003,12 L12.0000003,12 Z" id="Rectangle-30" fill="#000000" sketch:type="MSShapeGroup"></path>
        </g>
    </g>
</svg>