<svg xmlns="http://www.w3.org/2000/svg" height="32" viewBox="0 0 32 32" width="32"><title/><path d="M16 23.017c1.742 0 3.196-1.252 3.53-2.915h1.462c-.35 2.472-2.451 4.373-4.991 4.373-1.761 0-3.311-.913-4.213-2.297l-.83.839v-2.916h2.8819999999999997l-1.003 1.014c.611 1.133 1.799 1.901 3.164 1.901zm3.53-4.373h-1.3679999999999999l1.003-1.014c-.611-1.133-1.799-1.901-3.164-1.901-1.742 0-3.196 1.252-3.53 2.915h-1.462c.35-2.472 2.451-4.373 4.991-4.373 1.761 0 3.311.913 4.213 2.297l.83-.839v2.915h-.051zm-15.055-.729c0-1.616.87-3.031 2.163-3.788.075-3.556 2.948-6.416 6.482-6.416 2.329 0 4.372 1.243 5.515 3.109.421-.126.867-.193 1.329-.193 2.006 0 3.717 1.276 4.384 3.07 1.832.507 3.18 2.204 3.18 4.218 0 2.41-1.935 4.373-4.322 4.373h-1.394c.225-.458.399-.947.513-1.458h.883c1.59 0 2.879-1.308 2.879-2.915 0-1.61-1.292-2.915-2.879-2.915h-.022c-.179-1.64-1.553-2.915-3.222-2.915-.762 0-1.462.266-2.015.711-.626-2.098-2.551-3.626-4.828-3.626-2.785 0-5.042 2.284-5.042 5.102 0 .274.021.543.062.805-1.274.301-2.223 1.46-2.223 2.839 0 1.61 1.292 2.915 2.879 2.915h.723v1.458h-.72c-2.387 0-4.322-1.958-4.322-4.373zm0 0" fill="#000"/></svg>