<?xml version="1.0" encoding="UTF-8" standalone="no"?>
<svg
   xmlns:dc="http://purl.org/dc/elements/1.1/"
   xmlns:cc="http://creativecommons.org/ns#"
   xmlns:rdf="http://www.w3.org/1999/02/22-rdf-syntax-ns#"
   xmlns:svg="http://www.w3.org/2000/svg"
   xmlns="http://www.w3.org/2000/svg"
   xmlns:sodipodi="http://sodipodi.sourceforge.net/DTD/sodipodi-0.dtd"
   xmlns:inkscape="http://www.inkscape.org/namespaces/inkscape"
   height="100"
   viewBox="0 0 100 100"
   width="100"
   id="svg2"
   version="1.1"
   inkscape:version="0.48.4 r9939"
   sodipodi:docname="sync.svg">
  <metadata
     id="metadata12">
    <rdf:RDF>
      <cc:Work
         rdf:about="">
        <dc:format>image/svg+xml</dc:format>
        <dc:type
           rdf:resource="http://purl.org/dc/dcmitype/StillImage" />
      </cc:Work>
    </rdf:RDF>
  </metadata>
  <defs
     id="defs10" />
  <sodipodi:namedview
     pagecolor="#ffffff"
     bordercolor="#666666"
     borderopacity="1"
     objecttolerance="10"
     gridtolerance="10"
     guidetolerance="10"
     inkscape:pageopacity="0"
     inkscape:pageshadow="2"
     inkscape:window-width="970"
     inkscape:window-height="986"
     id="namedview8"
     showgrid="false"
     inkscape:zoom="2.6074563"
     inkscape:cx="19.082153"
     inkscape:cy="4.8163574"
     inkscape:window-x="663"
     inkscape:window-y="243"
     inkscape:window-maximized="0"
     inkscape:current-layer="svg2" />
  <title
     id="title4" />
  <path
     d="m 50.752875,69.433943 c 4.618188,0 8.472864,-3.319156 9.358326,-7.727909 h 3.875884 c -0.927879,6.553479 -6.497806,11.593189 -13.231558,11.593189 -4.668558,0 -8.777738,-2.420439 -11.169016,-6.089539 l -2.200399,2.224259 v -7.73056 h 7.640423 l -2.659037,2.688199 c 1.619812,3.003678 4.7693,5.03971 8.388029,5.03971 z m 9.358326,-11.593189 h -3.626683 l 2.659037,-2.688199 c -1.619812,-3.003677 -4.769299,-5.039709 -8.388028,-5.039709 -4.618188,0 -8.472864,3.319156 -9.358325,7.727908 h -3.875885 c 0.927879,-6.553478 6.497806,-11.593188 13.231558,-11.593188 4.668559,0 8.777739,2.420439 11.169016,6.089539 l 2.2004,-2.224259 v 7.727908 h -0.135206 z m -39.912064,-1.93264 c 0,-4.284151 2.306443,-8.035434 5.734294,-10.042304 0.198831,-9.427253 7.815394,-17.009353 17.184324,-17.009353 6.174374,0 11.590537,3.295297 14.620726,8.242219 1.116106,-0.334036 2.29849,-0.511659 3.52329,-0.511659 5.318074,0 9.854078,3.382783 11.622351,8.138827 4.856785,1.344099 8.430445,5.842988 8.430445,11.18227 0,6.389112 -5.129846,11.593189 -11.457982,11.593189 h -3.695611 c 0.596493,-1.214196 1.057782,-2.510576 1.360006,-3.86528 h 2.340906 c 4.215223,0 7.63247,-3.467617 7.63247,-7.727909 0,-4.268244 -3.4252,-7.727908 -7.63247,-7.727908 h -0.05832 c -0.474544,-4.347778 -4.117133,-7.727909 -8.541791,-7.727909 -2.020127,0 -3.875885,0.705188 -5.341934,1.88492 -1.659579,-5.561973 -6.762914,-9.612829 -12.799432,-9.612829 -7.383268,0 -13.366763,6.055075 -13.366763,13.525829 0,0.726397 0.05567,1.439538 0.164367,2.134122 -3.377481,0.797977 -5.893359,3.870582 -5.893359,7.526426 0,4.268245 3.4252,7.72791 7.63247,7.72791 h 1.916733 v 3.865279 h -1.90878 c -6.328137,0 -11.457983,-5.190821 -11.457983,-11.593189 z m 0,0"
     id="path6"
     inkscape:connector-curvature="0"
     style="fill:#000000" />
</svg>
