<?xml version="1.0" encoding="utf-8"?>
<!-- Generator: Adobe Illustrator 18.1.0, SVG Export Plug-In . SVG Version: 6.00 Build 0)  -->
<!DOCTYPE svg PUBLIC "-//W3C//DTD SVG 1.1//EN" "http://www.w3.org/Graphics/SVG/1.1/DTD/svg11.dtd">
<svg version="1.1" id="Layer_1" xmlns="http://www.w3.org/2000/svg" xmlns:xlink="http://www.w3.org/1999/xlink" x="0px" y="0px"
	 viewBox="0 0 100 100" enable-background="new 0 0 100 100" xml:space="preserve">
<path d="M23.2,54L23.2,54h4.2V28.1c0-1.5,0.6-2.8,1.6-3.8c1-1,2.3-1.6,3.7-1.6h36.8c1.4,0,2.8,0.6,3.7,1.6l0.1,0.1
	c0.9,0.9,1.5,2.2,1.5,3.7V54h4.2c1.3,0,2.3,1,2.3,2.3v0.1v21.2c0,1.3-1,2.3-2.3,2.3H79H23.2c-1.3,0-2.3-1-2.3-2.3v-0.1V56.3
	C20.8,55,21.9,54,23.2,54L23.2,54z M30.2,54L30.2,54h6.6c1.2,0,2.2,0.9,2.3,2.2c0.5,2.8,2,5.3,4.1,7.2c2.1,1.8,4.9,2.9,7.9,2.9
	c3,0,5.8-1.1,7.9-2.9c2.2-1.8,3.7-4.4,4.1-7.3c0.2-1.1,1.2-2,2.3-2v0H72V28.1c0-0.7-0.3-1.3-0.7-1.7l-0.1-0.1
	c-0.5-0.5-1.1-0.7-1.8-0.7H32.7c-0.7,0-1.3,0.3-1.8,0.7c-0.5,0.5-0.7,1.1-0.7,1.8V54L30.2,54z M38,41.8L38,41.8l9.2,9.2
	c0.9,0.9,2.4,0.9,3.3,0h0h0l16.7-16.7c0.9-0.9,0.9-2.4,0-3.3c-0.9-0.9-2.4-0.9-3.3,0l-15,15l-7.6-7.6c-0.9-0.9-2.4-0.9-3.3,0
	C37.1,39.5,37.1,41,38,41.8L38,41.8z M35,58.7L35,58.7h-9.5v16.6h51.2V58.7h-9.5c-0.9,3.2-2.8,6.1-5.3,8.2c-2.9,2.5-6.8,4-10.9,4
	c-4.2,0-8-1.5-10.9-4C37.8,64.7,35.9,61.9,35,58.7L35,58.7z"/>
</svg>
