<?xml version="1.0" encoding="UTF-8" standalone="no"?>
<svg
   xmlns:dc="http://purl.org/dc/elements/1.1/"
   xmlns:cc="http://creativecommons.org/ns#"
   xmlns:rdf="http://www.w3.org/1999/02/22-rdf-syntax-ns#"
   xmlns:svg="http://www.w3.org/2000/svg"
   xmlns="http://www.w3.org/2000/svg"
   xmlns:sodipodi="http://sodipodi.sourceforge.net/DTD/sodipodi-0.dtd"
   xmlns:inkscape="http://www.inkscape.org/namespaces/inkscape"
   enable-background="new 0 0 512 512"
   height="60"
   id="Layer_1"
   version="1.1"
   viewBox="0 0 60 60"
   width="60"
   xml:space="preserve"
   inkscape:version="0.48.4 r9939"
   sodipodi:docname="logo-dark.svg"><metadata
     id="metadata12"><rdf:RDF><cc:Work
         rdf:about=""><dc:format>image/svg+xml</dc:format><dc:type
           rdf:resource="http://purl.org/dc/dcmitype/StillImage" /><dc:title></dc:title></cc:Work></rdf:RDF></metadata><defs
     id="defs10" /><sodipodi:namedview
     pagecolor="#ffffff"
     bordercolor="#666666"
     borderopacity="1"
     objecttolerance="10"
     gridtolerance="10"
     guidetolerance="10"
     inkscape:pageopacity="0"
     inkscape:pageshadow="2"
     inkscape:window-width="1920"
     inkscape:window-height="1125"
     id="namedview8"
     showgrid="false"
     inkscape:zoom="2.6074563"
     inkscape:cx="69.979798"
     inkscape:cy="43.030831"
     inkscape:window-x="0"
     inkscape:window-y="23"
     inkscape:window-maximized="1"
     inkscape:current-layer="chat_x5F_support" /><g
     id="chat_x5F_support"
     transform="translate(0,-452)"><path
       d="m 21.882589,492.32947 c -1.775711,-0.2722 -3.490503,-0.74664 -5.125779,-1.42323 l -0.611764,-0.25303 -4.987242,1.89031 1.680719,-3.73263 -0.99277,-0.8109 c -3.549423,-2.89934 -5.504224,-6.72787 -5.504224,-10.78003 0,-8.48197 8.591343,-15.38257 19.151517,-15.38257 7.405233,0 13.841749,3.3935 17.027098,8.34587 0.71835,0.0796 1.427675,0.19112 2.124974,0.33557 -3.179218,-6.0867 -10.557166,-10.35202 -19.152072,-10.35202 -11.49971,0 -20.8220995,7.63499 -20.8220995,17.05315 0,4.71705 2.3386995,8.98672 6.1181095,12.07395 l -2.810469,6.24128 8.139614,-3.08511 c 2.089565,0.86447 4.38137,1.44861 6.801484,1.69319 -0.391359,-0.58671 -0.737613,-1.19213 -1.037096,-1.8138 z"
       id="path4"
       style="fill:#000000;fill-opacity:1"
       inkscape:connector-curvature="0" /><path
       d="m 57.683993,486.25824 c 0,-8.03481 -7.953187,-14.5484 -17.763823,-14.5484 -9.810644,0 -17.763824,6.51348 -17.763824,14.5484 0,8.03493 7.95318,14.54841 17.763824,14.54841 2.87718,0 5.5941,-0.56087 7.997952,-1.55531 l 6.94404,2.63205 -2.397619,-5.32457 c 3.22422,-2.63384 5.21945,-6.27638 5.21945,-10.30058 z m -26.562211,3.48962 c -1.630038,0 -2.951351,-1.32131 -2.951351,-2.95135 0,-1.63005 1.321313,-2.95136 2.951351,-2.95136 1.630038,0 2.951359,1.32131 2.951359,2.95136 0,1.63004 -1.321321,2.95135 -2.951359,2.95135 z m 8.798388,0 c -1.630046,0 -2.951359,-1.32131 -2.951359,-2.95135 0,-1.63005 1.321313,-2.95136 2.951359,-2.95136 1.630038,0 2.951351,1.32131 2.951351,2.95136 0,1.63004 -1.321313,2.95135 -2.951351,2.95135 z m 8.79838,0 c -1.630038,0 -2.951359,-1.32131 -2.951359,-2.95135 0,-1.63005 1.321321,-2.95136 2.951359,-2.95136 1.630038,0 2.951358,1.32131 2.951358,2.95136 0,1.63004 -1.32132,2.95135 -2.951358,2.95135 z"
       id="path6"
       style="fill:#000000;fill-opacity:1"
       inkscape:connector-curvature="0" /></g></svg>