<?xml version="1.0" ?><!DOCTYPE svg  PUBLIC '-//W3C//DTD SVG 1.1//EN'  'http://www.w3.org/Graphics/SVG/1.1/DTD/svg11.dtd'><svg enable-background="new 0 0 283.44 283.44" height="283.44px" id="facebook_xA0_Image_1_" version="1.1" viewBox="0 0 283.44 283.44" width="283.44px" xml:space="preserve" xmlns="http://www.w3.org/2000/svg" xmlns:xlink="http://www.w3.org/1999/xlink"><g><path d="M58.799,56.688c9.05-6.001,19.419-8.475,29.638-11.28c13.265-3.641,26.495-7.483,39.914-10.457   c8.906-1.973,17.945-3.586,27.107-4.377c6.247-0.539,12.527-1.48,18.604-2.997c6.953-1.735,8.914,2.401,9.494,7.992   c0.779,7.505,0.759,15.05,0.432,22.82c7.646-1.693,15.092-3.375,22.555-4.982c5.715-1.23,11.455-2.346,17.175-3.552   c1.79-0.377,3.314-0.361,3.931,1.887c2.026,54.908-2.31,109.84-0.804,164.834c1.276,2.643-1.038,3.886-2.685,4.782   c-8.356,4.546-17.447,7.346-26.251,10.843c-9.517,3.779-19.57,5.659-29.181,8.938c-11.867,4.049-23.756,8.005-35.872,11.171   c-8.213,2.146-16.582,3.924-24.992,5.009c-5.039,0.65-9.911-2.06-14.881-3.123c-11.675-2.496-22.088-8.346-33.307-11.955   c-3.479-1.119-4.261-2.644-3.69-5.728c-14.779-8.148-29.828-15.615-43.447-25.471c0.569-1.255,1.211-0.945,1.868-0.54   c13.136,8.093,26.544,15.708,40.196,22.896c0.379,0.2,0.765,0.387,1.336,0.674c0.071-1.208,0.131-2.23,0.21-3.579   c-5.674-3.156-11.395-6.333-17.111-9.518c-1.884-1.05-3.765-2.106-5.632-3.185c-0.61-0.352-1.457-0.746-0.965-1.623   c0.502-0.894,1.315-0.466,1.997-0.099c5.583,2.998,11.163,6.003,16.906,8.796c-4.944-3.948-9.888-7.896-14.774-11.797   c0.573-1.736,1.467-1.499,2.444-0.943c5.647,3.207,11.293,6.416,17.02,9.671c0.056-0.903,0.109-1.764,0.165-2.675   c-1.522-1.015-3.064-2.001-4.556-3.058c-0.644-0.456-1.406-1.044-0.761-1.964c0.609-0.87,1.471-0.63,2.254-0.192   c0.997,0.558,1.975,1.151,3.515,2.053c0-8.323-0.248-16.227,0.047-24.11c0.83-22.144,0.187-44.29,0.038-66.427   c-0.109-16.24-1.414-32.474-1.32-48.732c0.035-6.107,0.438-12.212,0.685-18.318C56.171,56.67,57.186,56.287,58.799,56.688z    M109.997,254.896c37.439-9.946,77.008-21.334,114.406-36.954c-2.6-55.679-0.402-109.926,0.944-164.255   c-39.796,6.921-77.606,19.652-115.863,24.275c0,10.521-0.448,19.883,0.085,29.189c1.504,26.244,3.479,52.461,3.529,78.77   c0.038,20.086-1.937,40.077-2.745,60.122c-0.082,2.045,0.291,4.963-2.414,4.928c-2.631-0.034-1.819-3.025-1.737-4.705   c0.559-11.368,1.506-22.719,1.948-34.09c0.618-15.888,1.26-31.781,0.32-47.69c-0.612-10.358-0.971-20.732-1.364-31.102   c-0.548-14.444-2.559-28.822-1.945-43.317c0.154-3.63,0.369-7.258-0.283-11.112c-6.676-1.285-13.458-2.292-19.827-5.091   c-7.152-3.144-14.505-5.84-21.073-10.175c-0.786-0.518-1.588-1.194-0.844-2.432c14.855,5.109,28.36,14.51,45.844,13.798   c10.922-3.49,23.375-4.034,35.435-6.721c12.105-2.697,23.99-6.166,36.156-9.06c-0.608-9.414,0.843-18.908-2.592-28.196   c-6.822,1.106-13.378,2.493-20.007,3.166c-9.656,0.981-19.262,2.445-28.65,4.645c-13.265,3.108-26.551,6.239-39.592,10.291   c-9.208,2.861-18.698,4.889-27.126,9.863c-1.413,0.834-2.859,1.546-2.91,3.677c-0.546,22.869,1.132,45.697,1.24,68.547   c0.116,24.7,0.67,49.403-0.524,74.106c-0.529,10.954-0.089,21.956-0.089,32.88C75.412,245.149,91.282,250.368,109.997,254.896z    M44.951,218.12c-0.05,0.08-0.099,0.161-0.149,0.241c3.695,3.096,7.39,6.193,11.241,9.419c0-1.062,0-1.847,0-2.872   C52.393,222.675,48.672,220.398,44.951,218.12z"/><path d="M68.718,195.605c0.161-10.967,2.723-14.764,12.412-17.521c5.059-1.44,9.352,1.523,13.25,4.284   c6.045,4.282,9.966,9.8,7.98,17.757c-1.837,7.359-5.228,13.634-13.206,15.731c-7.546,1.984-15.414-3.323-18.662-12.143   C69.435,200.842,68.51,197.965,68.718,195.605z M74.993,185.81c-3.579,4.466-2.604,15.412,1.62,20.406   c2.71,3.203,5.294,6.561,10.2,5.987c5.696-0.667,8.157-4.921,10.047-9.489c2.472-5.974,2.295-11.78-2.672-16.584   c-7.079-6.847-10.466-6.721-16.861,0.397c-0.643,0.716-1.167,1.541-2.334,3.102C74.993,187.57,74.993,186.769,74.993,185.81z"/><path d="M65.534,138.897c-2.387-4.996-1.901-40.943,0.544-41.921c0.923,0.5,2.343,41.184,1.546,42.25   c9.41,3.726,18.848,7.46,28.281,11.206c0.962,0.382,1.885,0.863,2.844,1.255c0.879,0.359,2.091,0.552,1.637,1.864   c-0.41,1.185-1.612,1.24-2.551,0.8c-6.863-3.216-14.317-4.937-21.054-8.512c-3.142-1.668-6.64-2.657-9.938-4.045   C65.676,141.301,63.961,140.849,65.534,138.897z"/><path d="M98.817,145.051c-3.674-14.039-2.806-28.217-1.939-42.321c-6.76-2.222-13.264-4.321-19.741-6.503   c-3.853-1.298-7.664-2.72-11.488-4.102c-0.527-0.19-0.953-0.597-0.727-1.188c0.393-1.025,1.311-0.818,2.053-0.595   c5.992,1.804,11.98,3.624,17.951,5.496c3.985,1.249,7.952,2.554,11.903,3.904c1.562,0.533,2.716,1.531,2.649,3.392   c-0.326,9.042-0.764,18.081-0.943,27.125c-0.089,4.517,0.298,9.043,0.45,13.565C99,144.23,98.877,144.642,98.817,145.051z"/><path d="M72.464,109.202c5.463,0.557,10.852,1.399,15.761,4.063c0.698,0.379,1.367,0.867,0.929,1.786   c-0.447,0.94-1.287,1.001-2.155,0.642c-4.221-1.741-8.532-3.069-13.131-3.422c-1.19-0.091-2.849-0.206-2.944-2.008   C70.881,109.426,71.66,109.112,72.464,109.202z"/><path d="M72.062,130.726c2.985,0.849,5.302,1.439,7.574,2.171c3.371,1.086,6.717,2.251,10.056,3.434   c0.683,0.242,1.373,0.754,1.027,1.619c-0.341,0.852-1.123,0.897-1.928,0.625c-5.316-1.793-10.633-3.581-15.947-5.378   c-0.669-0.226-1.31-0.546-1.163-1.411C71.757,131.326,71.999,130.894,72.062,130.726z"/><path d="M71.755,121.474c0.667-1.257,1.71-0.923,2.576-0.678c5.257,1.484,10.498,3.028,15.739,4.571   c0.645,0.19,1.216,0.581,1.064,1.369c-0.133,0.688-0.764,1.091-1.354,0.907c-5.892-1.837-11.765-3.735-17.638-5.635   C71.994,121.96,71.913,121.701,71.755,121.474z"/><path d="M74.424,102.707c0.706-1.182,1.852-1.066,2.855-0.816c4.088,1.019,8.151,2.137,12.222,3.224   c0.67,0.179,1.211,0.556,1.158,1.312c-0.048,0.682-0.593,1.181-1.215,1.09c-5.134-0.75-9.874-2.865-14.795-4.36   C74.55,103.127,74.512,102.891,74.424,102.707z"/></g></svg>