<?xml version="1.0" encoding="UTF-8" standalone="no"?>
<svg width="60px" height="60px" viewBox="0 0 60 60" version="1.1" xmlns="http://www.w3.org/2000/svg" xmlns:xlink="http://www.w3.org/1999/xlink" xmlns:sketch="http://www.bohemiancoding.com/sketch/ns">
    <!-- Generator: Sketch 3.3.2 (12043) - http://www.bohemiancoding.com/sketch -->
    <title>todos</title>
    <desc>Created with Sketch.</desc>
    <defs></defs>
    <g id="Page-1" stroke="none" stroke-width="1" fill="none" fill-rule="evenodd" sketch:type="MSPage">
        <g id="todos" sketch:type="MSLayerGroup">
            <path d="M30,58.75 L30,58.75 C45.8781866,58.75 58.75,45.8781866 58.75,30 C58.75,14.1218134 45.8781866,1.25 30,1.25 C14.1218134,1.25 1.25,14.1218134 1.25,30 C1.25,45.8781866 14.1218134,58.75 30,58.75 L30,58.75 Z M30,60 L30,60 C13.4314575,60 0,46.5685425 0,30 C0,13.4314575 13.4314575,0 30,0 C46.5685425,0 60,13.4314575 60,30 C60,46.5685425 46.5685425,60 30,60 L30,60 Z" id="Shape-Copy" fill-opacity="0.0107280344" fill="#FFFFFF" sketch:type="MSShapeGroup"></path>
            <path d="M36,12 L42,12 L42,14 L44.9925801,14 C46.6535323,14 48,15.3423094 48,17.0065012 L48,50.9934988 C48,52.6539436 46.6544607,54 44.9925801,54 L15.0074199,54 C13.3464677,54 12,52.6576906 12,50.9934988 L12,17.0065012 C12,15.3460564 13.3455393,14 15.0074199,14 L18,14 L18,12 L24,12 C24,11.9997291 24.0001355,6 30,6 C36,6 36,12 36,12 Z M34,12 L26,12 C26,12 26,8 30,8 C33.9999097,8 34,11.9998194 34,12 Z M18,17 L15.9981537,17 C15.4473652,17 15,17.4473312 15,17.9991421 L15,50.0008579 C15,50.5450757 15.4468886,51 15.9981537,51 L44.0018463,51 C44.5526348,51 45,50.5526688 45,50.0008579 L45,17.9991421 C45,17.4549243 44.5531114,17 44.0018463,17 L42,17 L42,19 L18,19 L18,17 Z M20,14 L40,14 L40,17 L20,17 L20,14 Z M21,30 C22.1045695,30 23,29.1045695 23,28 C23,26.8954305 22.1045695,26 21,26 C19.8954305,26 19,26.8954305 19,28 C19,29.1045695 19.8954305,30 21,30 Z M25,27 L40,27 L40,29 L25,29 L25,27 Z M21,37 C22.1045695,37 23,36.1045695 23,35 C23,33.8954305 22.1045695,33 21,33 C19.8954305,33 19,33.8954305 19,35 C19,36.1045695 19.8954305,37 21,37 Z M25,34 L40,34 L40,36 L25,36 L25,34 Z M21,44 C22.1045695,44 23,43.1045695 23,42 C23,40.8954305 22.1045695,40 21,40 C19.8954305,40 19,40.8954305 19,42 C19,43.1045695 19.8954305,44 21,44 Z M25,41 L40,41 L40,43 L25,43 L25,41 Z" id="Rectangle-53" fill="#000000" sketch:type="MSShapeGroup"></path>
        </g>
    </g>
</svg>