<?xml version="1.0" encoding="utf-8"?>
<!-- Generator: Adobe Illustrator 18.1.0, SVG Export Plug-In . SVG Version: 6.00 Build 0)  -->
<!DOCTYPE svg PUBLIC "-//W3C//DTD SVG 1.1//EN" "http://www.w3.org/Graphics/SVG/1.1/DTD/svg11.dtd">
<svg version="1.1" id="Layer_1" xmlns="http://www.w3.org/2000/svg" xmlns:xlink="http://www.w3.org/1999/xlink" x="0px" y="0px"
	 viewBox="0 0 100 100" enable-background="new 0 0 100 100" xml:space="preserve">
<path d="M70.4,30.9c1.1,0,2,0.9,2,2v0v41.4v0.1c0,1.1-0.9,2-2,2h0H36.2c-1.9,0-3.7-0.4-5-1.1c-1.7-0.9-2.8-2.2-2.8-3.8V30v-0.1v0
	c0-1.6,1.1-2.9,2.8-3.8c1.3-0.7,3.1-1.1,5-1.1h34.2c1.1,0,2,0.9,2,2c0,1.1-0.9,2-2,2H36.2c-1.3,0-2.5,0.3-3.3,0.7l-0.6,0.3l0,0
	c0,0,0.3,0.1,0.6,0.3c0.8,0.4,2,0.7,3.3,0.7H70.4L70.4,30.9L70.4,30.9z M41.7,65.5c0,0.7-0.5,1.2-1.2,1.2c-0.7,0-1.2-0.5-1.2-1.2
	c0-1.8,0.7-3.2,1.8-4.1c1.4-1.4,3.4-2,4.5-2.1l0,0c0.2,0,0.3-0.1,0.4-0.2l0.1-0.1c-0.9-0.8-1.3-1.8-1.6-2.6
	c-0.2-0.4-0.3-0.7-0.3-0.8l0,0c-0.4-0.4-1-1.1-1.3-1.9c-0.3-0.8-0.4-1.7,0-2.5c-0.2-0.7-0.3-1.5-0.3-2.3c0-1,0.2-2.1,0.5-3.1
	c0.5-1.4,1.3-2.5,2.4-3.2c1.1-0.7,2.5-1.1,4-1.1c0.6,0,1.3,0,2.1,0.1c0.8,0.2,1.7,0.5,2.2,1.2c1,0,1.9,0.5,2.6,1.4
	c0.9,1,1.5,2.5,1.6,3.3c0.1,0.7,0.1,1.3,0,2c-0.1,0.5-0.2,1.1-0.3,1.6c0.5,0.9,0.4,1.8,0.1,2.6l0,0.1c-0.3,0.8-0.9,1.5-1.3,1.9l0,0
	c-0.1,0.1-0.2,0.4-0.3,0.8c-0.3,0.8-0.7,1.8-1.6,2.6c0,0,0,0.1,0.1,0.1l0,0c0.1,0.1,0.3,0.2,0.4,0.2l0,0c1.2,0.1,3.1,0.7,4.6,2.1
	c1,1,1.8,2.3,1.8,4.1c0,0.7-0.5,1.2-1.2,1.2c-0.7,0-1.2-0.5-1.2-1.2c0-1.1-0.4-1.9-1-2.4c-1-0.9-2.3-1.3-3.1-1.4v0h0
	c-0.7-0.1-1.4-0.4-1.9-0.9l0,0l0,0c-0.5-0.5-0.8-1.2-0.8-1.9l0,0v-0.4c0-0.4,0.2-0.8,0.6-1c0.6-0.4,0.9-1.2,1.2-1.9
	c0.3-0.6,0.5-1.2,0.9-1.6l0,0c0.2-0.2,0.5-0.6,0.7-1l0-0.1c0.1-0.3,0.1-0.5,0-0.7l0,0c-0.2-0.2-0.3-0.4-0.3-0.7l0-0.1
	c0-0.2,0-0.4,0-0.5c0.2-0.6,0.3-1.1,0.4-1.7c0.1-0.5,0.1-1,0-1.4c-0.1-0.6-0.5-1.5-1.1-2.2C54.3,45.2,54,45,53.8,45l0,0
	c-0.4,0.1-0.8,0-1.1-0.2l0,0c-0.3-0.1-0.6-0.4-0.8-0.7l0-0.1c-0.1-0.2-0.4-0.3-0.8-0.3c-0.5-0.1-1.2-0.1-1.6-0.1
	c-1.1,0-2,0.3-2.8,0.7c-0.6,0.4-1.1,1.1-1.4,2l0,0c-0.2,0.7-0.4,1.5-0.4,2.3c0,0.7,0.1,1.4,0.4,2c0.2,0.4,0.1,1-0.2,1.3
	c-0.2,0.2-0.1,0.5,0,0.7c0.2,0.4,0.5,0.8,0.7,1l0,0c0.5,0.4,0.7,1,1,1.7c0.3,0.7,0.6,1.5,1.2,1.9l0,0c0.3,0.2,0.6,0.6,0.6,1v0.3v0.1
	c0,0.8-0.3,1.4-0.8,1.9c-0.5,0.5-1.2,0.8-1.9,0.9v0l0,0c-0.8,0.1-2.2,0.5-3.1,1.4C42.2,63.6,41.7,64.4,41.7,65.5L41.7,65.5z
	 M36.2,34.8c-1.4,0-2.8-0.2-3.9-0.6v37.2c0,0,0.2,0.1,0.6,0.3c0.8,0.4,2,0.7,3.3,0.7h32.2V34.8H36.2L36.2,34.8z"/>
</svg>
