<?xml version="1.0" encoding="utf-8"?>
<!-- Generator: Adobe Illustrator 18.1.0, SVG Export Plug-In . SVG Version: 6.00 Build 0)  -->
<!DOCTYPE svg PUBLIC "-//W3C//DTD SVG 1.1//EN" "http://www.w3.org/Graphics/SVG/1.1/DTD/svg11.dtd">
<svg version="1.1" id="Layer_1" xmlns="http://www.w3.org/2000/svg" xmlns:xlink="http://www.w3.org/1999/xlink" x="0px" y="0px"
	 viewBox="0 0 100 100" enable-background="new 0 0 100 100" xml:space="preserve">
<path d="M76.2,43.9L76.2,43.9L76.2,43.9L76.2,43.9c0.1,0.1,0.2,0.1,0.2,0.2l0,0l0.1,0.1l0,0h0l0,0l0,0l0,0l0,0l0,0l0,0v0l0.1,0.1h0
	l0,0l0,0v0l0,0l0,0l0,0l0,0l0,0v0l0,0l0,0l0,0l0,0l0,0.1l0,0v0l0,0l0,0l0,0l0,0h0l0,0l0,0v0l0,0l0,0l0,0l0,0l0,0l0,0v0l0,0l0,0v0
	l0,0l0,0l0,0l0,0v0l0,0v0l0,0l0,0l0,0l0,0v0v0l0,0v0l0,0v0v0v0v0v0.1v30.8c0,1.2-0.9,2.1-2.1,2.1h0H27.6c-1.2,0-2.1-0.9-2.1-2.1
	v-0.1V45.6c0-0.7,0.3-1.3,0.9-1.7l3.5-2.9c0.1-0.1,0.1-0.1,0.2-0.2v-8.5c0-0.7,0.6-1.3,1.3-1.3h0h10.7c0.1-0.1,0.2-0.3,0.4-0.4
	l7.5-6.2c0.8-0.6,1.9-0.7,2.7,0l7.6,6.2c0.1,0.1,0.2,0.2,0.3,0.4h10.7c0.7,0,1.3,0.6,1.3,1.3v0v8.4l0.1,0.1L76.2,43.9L76.2,43.9z
	 M32.6,45.6L32.6,45.6L32.6,45.6L32.6,45.6v2.5l18.5,15.1h0.4L70,48.1v-2.5v0V33.6H32.6V45.6L32.6,45.6z M29.7,48.9L29.7,48.9v25.5
	h43.3V48.9c-6.7,5.5-13.5,11-20.2,16.5c-0.2,0.2-0.5,0.3-0.8,0.3h-1.3c-0.3,0-0.6-0.1-0.8-0.3C43.1,59.9,36.4,54.4,29.7,48.9
	L29.7,48.9z M48.6,31.1L48.6,31.1H54l-2.7-2.2L48.6,31.1L48.6,31.1z"/>
</svg>
