<?xml version="1.0" encoding="utf-8"?>
<!-- Generator: Adobe Illustrator 18.1.0, SVG Export Plug-In . SVG Version: 6.00 Build 0)  -->
<!DOCTYPE svg PUBLIC "-//W3C//DTD SVG 1.1//EN" "http://www.w3.org/Graphics/SVG/1.1/DTD/svg11.dtd">
<svg version="1.1" id="Layer_1" xmlns="http://www.w3.org/2000/svg" xmlns:xlink="http://www.w3.org/1999/xlink" x="0px" y="0px"
	 viewBox="0 0 100 100" enable-background="new 0 0 100 100" xml:space="preserve">
<path d="M40.4,68.7c-0.7,0-1.2-0.5-1.2-1.2c0-0.7,0.5-1.2,1.2-1.2h28.6c0.7,0,1.2,0.6,1.2,1.2c0,0.7-0.5,1.2-1.2,1.2H40.4L40.4,68.7
	z M40.4,33.5c-0.7,0-1.2,0.5-1.2,1.2v0v8.5c0,0.7,0.5,1.2,1.2,1.2h0h28.5h0c0.7,0,1.2-0.5,1.2-1.2v-8.5v0c0-0.7-0.5-1.2-1.2-1.2
	H40.4L40.4,33.5z M41.6,42v-6.1h26.1V42H41.6L41.6,42z M32.6,41.7h-4.4v28.2c0,2.8,4.4,2.9,4.4,0V41.7L32.6,41.7z M30.4,76.1
	L30.4,76.1c-1.7,0-3.3-0.7-4.4-1.8h0c-1.1-1.1-1.8-2.7-1.8-4.4V39.7v0c0-1.1,0.9-2,2-2h6.4v-9c0-1.1,0.9-2,2-2h0h39.9
	c1.1,0,2,0.9,2,2v0.1v41.2c0,1.7-0.7,3.3-1.8,4.4h0l0,0c-1.1,1.1-2.7,1.8-4.4,1.8H30.4L30.4,76.1L30.4,76.1L30.4,76.1z M72.6,69.8
	V30.6h-36c0,13.1,0,26.2,0,39.2c0,0.8-0.1,1.5-0.4,2.2h34.2c0.6,0,1.2-0.2,1.6-0.6h0C72.4,71,72.6,70.5,72.6,69.8L72.6,69.8z
	 M56,46.9L56,46.9h12.9c0.7,0,1.2,0.5,1.2,1.2v0v6.4c0,0.7-0.5,1.2-1.2,1.2h0H56c-0.7,0-1.2-0.5-1.2-1.2v0v-6.4
	C54.8,47.4,55.3,46.9,56,46.9L56,46.9z M67.7,49.3H57.2v4h10.5V49.3L67.7,49.3z M40.4,49.3c-0.7,0-1.2-0.5-1.2-1.2
	c0-0.7,0.5-1.2,1.2-1.2h11.8c0.7,0,1.2,0.6,1.2,1.2c0,0.7-0.5,1.2-1.2,1.2H40.4L40.4,49.3z M40.4,55.8c-0.7,0-1.2-0.5-1.2-1.2
	c0-0.7,0.5-1.2,1.2-1.2h11.8c0.7,0,1.2,0.5,1.2,1.2c0,0.7-0.5,1.2-1.2,1.2H40.4L40.4,55.8z M40.4,62.2c-0.7,0-1.2-0.6-1.2-1.2
	c0-0.7,0.5-1.2,1.2-1.2h28.6c0.7,0,1.2,0.5,1.2,1.2c0,0.7-0.5,1.2-1.2,1.2H40.4L40.4,62.2z"/>
</svg>
