<?xml version="1.0" encoding="utf-8"?>
<!-- Generator: Adobe Illustrator 18.1.0, SVG Export Plug-In . SVG Version: 6.00 Build 0)  -->
<!DOCTYPE svg PUBLIC "-//W3C//DTD SVG 1.1//EN" "http://www.w3.org/Graphics/SVG/1.1/DTD/svg11.dtd">
<svg version="1.1" id="Layer_1" xmlns="http://www.w3.org/2000/svg" xmlns:xlink="http://www.w3.org/1999/xlink" x="0px" y="0px"
	 viewBox="0 0 100 100" enable-background="new 0 0 100 100" xml:space="preserve">
<path d="M35.4,28.3h20.5c0.5,0,0.9,0.2,1.2,0.5l12.5,12.5c0.3,0.3,0.5,0.8,0.5,1.2v0v26c0,1.3-0.5,2.4-1.3,3.3l0,0l0,0
	c-0.8,0.8-2,1.3-3.2,1.3H35.4c-1.3,0-2.4-0.5-3.3-1.4l0,0h0c-0.8-0.8-1.4-2-1.4-3.3V32.9c0-1.3,0.5-2.4,1.4-3.3
	C33,28.8,34.2,28.3,35.4,28.3L35.4,28.3z M54.9,31.7H35.4c-0.3,0-0.6,0.1-0.8,0.3c-0.2,0.2-0.3,0.5-0.3,0.8v35.7
	c0,0.3,0.1,0.6,0.3,0.8v0c0.2,0.2,0.5,0.3,0.8,0.3h30.1c0.3,0,0.6-0.1,0.8-0.3l0,0c0.2-0.2,0.3-0.5,0.3-0.8v-25h-7.9
	c-1.1,0-2.1-0.4-2.8-1.2L56,42.3c-0.7-0.7-1.1-1.7-1.1-2.7V31.7L54.9,31.7z M64.9,41.5l-8-8v6.1c0,0.5,0.2,0.9,0.5,1.3l0,0.1
	c0.3,0.3,0.8,0.5,1.3,0.5H64.9L64.9,41.5z"/>
</svg>
