<?xml version="1.0" encoding="utf-8"?>
<!-- Generator: Adobe Illustrator 18.1.0, SVG Export Plug-In . SVG Version: 6.00 Build 0)  -->
<!DOCTYPE svg PUBLIC "-//W3C//DTD SVG 1.1//EN" "http://www.w3.org/Graphics/SVG/1.1/DTD/svg11.dtd">
<svg version="1.1" id="Layer_1" xmlns="http://www.w3.org/2000/svg" xmlns:xlink="http://www.w3.org/1999/xlink" x="0px" y="0px"
	 viewBox="0 0 100 100" enable-background="new 0 0 100 100" xml:space="preserve">
<path d="M67.7,60.6c1.9,0,3.7-0.8,4.9-2v0c1.3-1.3,2.1-3,2.1-5c0-1.7-0.6-3.3-1.6-4.5c-1-1.2-2.5-2.1-4.2-2.4
	c-1.1-0.2-1.8-1.1-1.8-2.2v0c0-4.2-1.7-7.9-4.4-10.7c-2.7-2.7-6.5-4.4-10.7-4.4c-3.1,0-5.9,0.9-8.3,2.5c-2.4,1.6-4.4,3.9-5.6,6.7
	c-0.4,0.8-1.1,1.3-2,1.3c-2.7,0.2-5.1,1.4-6.9,3.2c-1.8,1.9-2.8,4.4-2.8,7.1c0,2.9,1.2,5.5,3,7.3h0c1.7,1.7,3.8,2.6,6,2.9
	c2.8,0.4,2.2,4.7-0.6,4.3c-3.2-0.4-6.2-1.8-8.6-4.2h0c-2.7-2.7-4.3-6.4-4.3-10.4c0-3.9,1.5-7.5,4-10.1c2.2-2.3,5.2-4,8.5-4.5
	c1.5-3,3.8-5.6,6.7-7.4c3.1-2,6.8-3.2,10.7-3.2c5.4,0,10.2,2.2,13.8,5.7c3.1,3.1,5.2,7.4,5.6,12.1c2,0.7,3.7,1.9,5,3.5
	c1.7,2,2.7,4.5,2.7,7.3c0,3.1-1.3,6-3.3,8.1h0l0,0c-1.8,1.8-4.2,3-6.9,3.3c-0.2,0-0.3,0.1-0.5,0.1c-0.6,0-1.2,0-1.8,0
	c-1.2,0-2.2-1-2.2-2.2c0-1.2,1-2.2,2.2-2.2H67.7L67.7,60.6z M49.6,76.8L49.6,76.8L49.6,76.8L49.6,76.8l0.1,0.1l0,0
	c0,0,0.1,0.1,0.1,0.1h0l0,0l0,0c0.1,0,0.1,0,0.2,0.1l0,0l0.1,0l0.1,0l0.1,0h0h0.1h0l0.1,0l0.1,0l0.1,0l0,0c0.1,0,0.1,0,0.2-0.1l0,0
	l0.1,0c0.1,0,0.1-0.1,0.1-0.1l0,0l0,0l0,0l0.1,0L62,66.3c0.5-0.5,0.5-1.3,0-1.9c-0.5-0.5-1.3-0.5-1.9,0l-8.3,8.3V42.6
	c0-0.7-0.6-1.3-1.3-1.3c-0.7,0-1.3,0.6-1.3,1.3v30.1l-8.3-8.3c-0.5-0.5-1.3-0.5-1.9,0c-0.5,0.5-0.5,1.3,0,1.9L49.6,76.8L49.6,76.8
	L49.6,76.8z M50.5,77.2L50.5,77.2L50.5,77.2L50.5,77.2L50.5,77.2L50.5,77.2z"/>
</svg>
