<?xml version="1.0" encoding="utf-8"?>
<!-- Generator: Adobe Illustrator 18.1.0, SVG Export Plug-In . SVG Version: 6.00 Build 0)  -->
<!DOCTYPE svg PUBLIC "-//W3C//DTD SVG 1.1//EN" "http://www.w3.org/Graphics/SVG/1.1/DTD/svg11.dtd">
<svg version="1.1" id="Layer_1" xmlns="http://www.w3.org/2000/svg" xmlns:xlink="http://www.w3.org/1999/xlink" x="0px" y="0px"
	 viewBox="0 0 100 100" enable-background="new 0 0 100 100" xml:space="preserve">
<path d="M42.5,47c0.9,0,1.7,0.4,2.3,1c0.6,0.6,1,1.4,1,2.3c0,0.9-0.4,1.7-1,2.3c-0.6,0.6-1.4,1-2.3,1c-0.9,0-1.7-0.4-2.3-1
	c-0.6-0.6-1-1.4-1-2.3c0-0.9,0.4-1.7,1-2.3C40.8,47.4,41.6,47,42.5,47L42.5,47z M50.8,30.8c6.1,0,11.7,2.2,15.7,5.6
	c4.1,3.5,6.7,8.4,6.7,13.9c0,5.4-2.5,10.3-6.7,13.9c-4,3.5-9.6,5.6-15.7,5.6c-1.8,0-3.6-0.2-5.4-0.6c-1.5-0.3-2.9-0.8-4.2-1.3
	l-5.4,2.9c-0.5,0.3-1.1,0.4-1.6,0.4h0c-0.6,0-1.1-0.3-1.6-0.6c-0.5-0.4-0.8-0.8-1-1.4l0,0c-0.2-0.5-0.2-1.1-0.1-1.7l1.3-5.7
	c-1.3-1.5-2.3-3.2-3.1-5c-0.8-2-1.3-4.2-1.3-6.5c0-5.4,2.5-10.3,6.7-13.9C39.1,33,44.6,30.8,50.8,30.8L50.8,30.8z M64.3,39
	c-3.4-3-8.2-4.8-13.5-4.8c-5.3,0-10.1,1.8-13.5,4.8c-3.4,2.9-5.4,6.9-5.4,11.3c0,1.8,0.4,3.6,1,5.2c0.7,1.7,1.7,3.2,2.9,4.6
	c0.4,0.4,0.6,1,0.5,1.6L35,67.3l5.3-2.8h0c0.5-0.2,1-0.3,1.5-0.1c1.4,0.6,2.8,1.1,4.3,1.4c1.5,0.3,3,0.5,4.6,0.5
	c5.3,0,10.1-1.8,13.5-4.8c3.4-2.9,5.4-6.9,5.4-11.3C69.7,45.9,67.6,41.9,64.3,39L64.3,39z M43.3,49.4c-0.2-0.2-0.5-0.3-0.8-0.3
	c-0.3,0-0.6,0.1-0.9,0.3c-0.2,0.2-0.4,0.5-0.4,0.8c0,0.3,0.1,0.6,0.4,0.9c0.2,0.2,0.5,0.4,0.9,0.4c0.3,0,0.6-0.1,0.8-0.4
	c0.2-0.2,0.3-0.5,0.3-0.9C43.7,50,43.5,49.7,43.3,49.4L43.3,49.4z M50.8,47c0.9,0,1.7,0.4,2.3,1c0.6,0.6,1,1.4,1,2.3
	c0,0.9-0.4,1.7-1,2.3c-0.6,0.6-1.4,1-2.3,1c-0.9,0-1.7-0.4-2.3-1c-0.6-0.6-1-1.4-1-2.3c0-0.9,0.4-1.7,1-2.3C49,47.4,49.8,47,50.8,47
	L50.8,47z M51.6,49.4c-0.2-0.2-0.5-0.3-0.8-0.3c-0.3,0-0.6,0.1-0.9,0.3c-0.2,0.2-0.3,0.5-0.3,0.8c0,0.3,0.1,0.6,0.3,0.9
	c0.2,0.2,0.5,0.4,0.9,0.4c0.3,0,0.6-0.1,0.8-0.4c0.2-0.2,0.3-0.5,0.3-0.9C52,50,51.8,49.7,51.6,49.4L51.6,49.4z M59,47
	c0.9,0,1.7,0.4,2.3,1c0.6,0.6,1,1.4,1,2.3c0,0.9-0.4,1.7-1,2.3c-0.6,0.6-1.4,1-2.3,1c-0.9,0-1.7-0.4-2.3-1c-0.6-0.6-1-1.4-1-2.3
	c0-0.9,0.4-1.7,1-2.3C57.3,47.4,58.1,47,59,47L59,47z M59.9,49.4c-0.2-0.2-0.5-0.3-0.8-0.3c-0.3,0-0.6,0.1-0.9,0.3
	c-0.2,0.2-0.4,0.5-0.4,0.8c0,0.3,0.1,0.6,0.4,0.9c0.2,0.2,0.5,0.4,0.9,0.4c0.3,0,0.6-0.1,0.8-0.4c0.2-0.2,0.3-0.5,0.3-0.9
	C60.2,50,60.1,49.7,59.9,49.4L59.9,49.4z"/>
</svg>
