<?xml version="1.0" encoding="UTF-8" standalone="no"?>
<svg
   xmlns:dc="http://purl.org/dc/elements/1.1/"
   xmlns:cc="http://creativecommons.org/ns#"
   xmlns:rdf="http://www.w3.org/1999/02/22-rdf-syntax-ns#"
   xmlns:svg="http://www.w3.org/2000/svg"
   xmlns="http://www.w3.org/2000/svg"
   xmlns:sodipodi="http://sodipodi.sourceforge.net/DTD/sodipodi-0.dtd"
   xmlns:inkscape="http://www.inkscape.org/namespaces/inkscape"
   height="32px"
   version="1.1"
   viewBox="0 0 32 32"
   width="32px"
   id="svg2"
   inkscape:version="0.48.4 r9939"
   sodipodi:docname="sync.svg">
  <metadata
     id="metadata13">
    <rdf:RDF>
      <cc:Work
         rdf:about="">
        <dc:format>image/svg+xml</dc:format>
        <dc:type
           rdf:resource="http://purl.org/dc/dcmitype/StillImage" />
      </cc:Work>
    </rdf:RDF>
  </metadata>
  <sodipodi:namedview
     pagecolor="#ffffff"
     bordercolor="#666666"
     borderopacity="1"
     objecttolerance="10"
     gridtolerance="10"
     guidetolerance="10"
     inkscape:pageopacity="0"
     inkscape:pageshadow="2"
     inkscape:window-width="1259"
     inkscape:window-height="1022"
     id="namedview11"
     showgrid="false"
     inkscape:zoom="7.375"
     inkscape:cx="16"
     inkscape:cy="16"
     inkscape:window-x="0"
     inkscape:window-y="24"
     inkscape:window-maximized="0"
     inkscape:current-layer="svg2" />
  <title
     id="title4" />
  <defs
     id="defs6" />
  <g
     id="Icons new Arranged Names"
     transform="matrix(0.72033899,0,0,0.72881356,4.4745763,4.0677966)"
     style="fill:none;stroke:none">
    <g
       id="52 Cloud Sync"
       style="fill:#000000">
      <path
         d="m 16,26 c 2.418953,0 4.436703,-1.717753 4.899982,-4 l 2.029129,0 C 22.443885,25.392291 19.526474,28 16,28 13.555527,28 11.403706,26.747009 10.151757,24.848243 L 9,26 9,25 9,23 9,22 9.0708888,22 11.100018,22 13,22 11.608137,23.391863 C 12.456236,24.945806 14.105008,26 16,26 z M 20.899982,20 20,20 19,20 20.391875,18.608159 C 19.543801,17.054217 17.895013,16 16,16 c -2.418953,0 -4.436703,1.717753 -4.899982,4 L 9.0708888,20 C 9.5561148,16.607709 12.473526,14 16,14 c 2.444487,0 4.59632,1.253007 5.848271,3.151799 L 23,16.000098 23,20 22.929111,20 z M 0,19 C 0,16.782838 1.2075399,14.841641 3.0021135,13.802995 3.1069062,8.9234028 7.0952729,5 12,5 15.233498,5 18.068721,6.7052116 19.65547,9.2654333 20.240206,9.092705 20.859277,9 21.5,9 c 2.784553,0 5.16015,1.750949 6.085843,4.211897 C 30.129704,13.907454 32,16.235367 32,19 c 0,3.306966 -2.68637,6 -6.000176,6 l -1.935344,0 c 0.312341,-0.628505 0.553371,-1.298702 0.712504,-2 l 1.226177,0 C 28.210554,23 30,21.204644 30,19 30,16.790861 28.20588,15 26.003161,15 l -0.03062,0 C 25.723803,12.750016 23.816271,11 21.5,11 20.442753,11 19.470664,11.364599 18.702606,11.974922 17.834068,9.0963276 15.161846,7 12,7 8.1340066,7 5,10.134007 5,14 5,14.375791 5.029612,14.744666 5.086631,15.104418 3.3177882,15.517576 2,17.108083 2,19 c 0,2.209139 1.7941203,4 3.9968389,4 L 7,23 7,25 6.0001757,25 C 2.686978,25 0,22.313708 0,19 z m 0,0"
         id="Rectangle 1 copy 4"
         inkscape:connector-curvature="0" />
    </g>
  </g>
</svg>
