<svg xmlns="http://www.w3.org/2000/svg" viewBox="0 0 500 382"><g fill="#fff"><path d="M367.63 380.85H132.48C59.48 380.85.12 321.4.12 248.32c0-34.85 13.4-67.77 37.75-92.68 21.33-21.8 48.96-35.37 78.85-38.9 3.53-29.93 17.07-57.6 38.86-78.95C180.46 13.4 213.33 0 248.14 0c34.8 0 67.68 13.4 92.56 37.78 21.7 21.26 35.2 48.78 38.82 78.55 67.43 6.05 120.47 62.94 120.47 132 0 73.07-59.4 132.52-132.37 132.52zm-1-27.8h1c57.68 0 104.6-46.98 104.6-104.73 0-57.74-46.92-104.72-104.6-104.72h-1.05c-7.53 0-13.7-6-13.87-13.56-1.3-56.4-48.2-102.26-104.56-102.26S144.87 73.66 143.58 130.06c-.17 7.42-6.14 13.4-13.56 13.57-56.32 1.3-102.14 48.26-102.14 104.7 0 57.75 46.92 104.73 104.6 104.73h.85l.33-.02c.3 0 .6 0 .9.02H366.6zM316.02 240.38c-8.35-5.45-8.76-15.46-8.78-15.9-.06-2.72-2.28-4.86-5-4.82-2.72.05-4.88 2.3-4.83 5 .02.36.16 5.06 2.4 10.6-29.72 28.16-76.42 28.2-106.2.17 2.3-5.62 2.45-10.4 2.45-10.76.05-2.7-2.1-4.93-4.8-5-2.67-.08-4.94 2.1-5.03 4.8 0 .4-.4 10.45-8.77 15.9-2.28 1.5-2.92 4.55-1.43 6.82.94 1.44 2.5 2.23 4.12 2.23.92 0 1.85-.26 2.68-.8 2.15-1.4 3.95-3 5.46-4.7 16.54 14.9 37.44 22.35 58.34 22.35 20.95 0 41.9-7.48 58.47-22.45 1.52 1.72 3.34 3.36 5.55 4.8.82.54 1.76.8 2.68.8 1.6 0 3.17-.8 4.12-2.24 1.48-2.28.84-5.34-1.43-6.82z"/></g></svg>
