<svg width="24" height="28" viewBox="0 0 24 28" xmlns="http://www.w3.org/2000/svg"><title>logo-linux</title><path d="M2.737 26.494c1.477.176 3.136 1.133 4.524 1.3 1.397.178 1.83-.95 1.83-.95s1.57-.35 3.222-.39c1.653-.047 3.218.343 3.218.343s.303.695.87.998c.566.31 1.786.352 2.568-.472.783-.83 2.872-1.874 4.046-2.527 1.18-.655.964-1.654.223-1.957-.742-.304-1.35-.783-1.302-1.7.04-.91-.655-1.518-.655-1.518s.608-2.002.042-3.66c-.567-1.653-2.435-4.31-3.87-6.306-1.438-2.003-.218-4.315-1.526-7.27C14.618-.574 11.226-.4 9.4.863c-1.83 1.26-1.27 4.39-1.18 5.874.088 1.477.04 2.533-.13 2.913-.168.386-1.347 1.786-2.13 2.96-.782 1.18-1.35 3.614-1.92 4.618-.562 1-.17 1.91-.17 1.91s-.392.133-.7.788c-.304.647-.91.957-2.004 1.167C.08 21.316.08 22.016.343 22.8c.263.78 0 1.218-.304 2.217-.304.998 1.214 1.302 2.697 1.477zm15.35-4.555c.776.338 1.89-.134 2.23-.473.338-.338.577-.84.577-.84s.34.17.305.705c-.037.544.232 1.32.74 1.59.51.267 1.284.64.882 1.014-.41.374-2.675 1.285-3.352 1.997-.67.707-1.553 1.285-2.09 1.115-.542-.17-1.016-.91-.783-1.995.24-1.08.444-2.266.41-2.943-.036-.678-.17-1.59 0-1.724.17-.133.438-.07.438-.07s-.135 1.286.642 1.623zM13.053 3.646c.748 0 1.35.742 1.35 1.653 0 .648-.304 1.208-.747 1.477-.113-.046-.23-.098-.358-.152.27-.133.456-.473.456-.864 0-.512-.315-.933-.71-.933-.387 0-.708.42-.708.934 0 .188.046.374.122.52-.233-.093-.444-.174-.613-.238-.088-.223-.14-.474-.14-.74 0-.913.6-1.655 1.348-1.655zm-1.85 2.85c.367.064 1.378.5 1.752.636.373.13.787.368.747.607-.046.246-.24.246-.747.556-.503.303-1.6.98-1.95 1.027-.35.046-.55-.15-.923-.392-.374-.244-1.075-.817-.9-1.12 0 0 .55-.42.79-.635.238-.223.857-.748 1.23-.68zM9.59 3.91c.59 0 1.07.7 1.07 1.565 0 .157-.018.304-.046.45-.147.047-.293.123-.434.245-.068.06-.133.11-.19.17.092-.176.128-.427.086-.69-.08-.466-.396-.81-.706-.765-.31.052-.496.48-.42.952.08.478.39.824.706.77.018-.005.034-.01.052-.017-.15.147-.29.275-.438.38-.426-.2-.74-.794-.74-1.495 0-.87.47-1.565 1.06-1.565zM6.31 15.22c.608-.957 1-3.048 1.606-3.743.613-.694 1.085-2.172.87-2.825 0 0 1.308 1.565 2.218 1.307.912-.264 2.96-1.787 3.264-1.525.304.263 2.914 6.003 3.177 7.83.263 1.827-.175 3.223-.175 3.223s-1-.263-1.127.344c-.13.613-.13 2.832-.13 2.832s-1.35 1.87-3.438 2.178c-2.09.303-3.136.082-3.136.082L8.265 23.58s.91-.134.783-1.05c-.13-.91-2.787-2.172-3.266-3.305-.478-1.133-.088-3.048.527-4.006zm-5.166 6.854c.104-.45 1.458-.45 1.978-.764.52-.315.625-1.22 1.045-1.46.414-.245 1.18.625 1.495 1.115.31.478 1.495 2.57 1.98 3.09.49.524.94 1.22.8 1.844-.134.623-.87 1.08-.87 1.08-.66.203-2.5-.59-3.334-.94-.836-.352-2.96-.457-3.235-.766-.28-.316.135-1.01.245-1.67.1-.666-.21-1.08-.104-1.53z" fill="#32363F" fill-rule="evenodd"/></svg>