<svg xmlns="http://www.w3.org/2000/svg" width="60" height="60" viewBox="0 0 60 60"><title>my-apps</title><desc>Created with Sketch.</desc><path d="M42.432 20.996c-.348-2.814-1.644-5.415-3.728-7.425-2.39-2.304-5.546-3.571-8.888-3.571s-6.499 1.267-8.888 3.572c-2.093 2.018-3.393 4.633-3.732 7.463-2.87.333-5.523 1.616-7.571 3.677-2.338 2.354-3.625 5.466-3.625 8.761 0 6.908 5.7 12.527 12.71 12.527h22.580000000000002c7.007 0 12.71-5.62 12.71-12.526 0-6.529-5.094-11.906-11.568-12.478zm-33.432 12.477c0-2.502.973-4.854 2.754-6.647 1.564-1.573 3.587-2.555 5.789-2.811l2.351-.273.282-2.35c.257-2.148 1.245-4.126 2.835-5.66 1.827-1.764 4.236-2.732 6.805-2.732.41 0 .813.033 1.212.082l-.005 2.282-.01 5.309v.576l-.011 5.749c-.873-.65-1.814-.998-3.002-.998-3.021 0-6 2.676-6 6s2.979 6 6 6c1.197 0 2.127-.341 3.005-.996l.007 2.204.002.622.01 2.902.001.268h-12.315c-5.362 0-9.71-4.285-9.71-9.527zm32.289 9.527h-8.265l-.001-.275-.01-2.901-.002-.622c-.007-2.39-.011-4.034-.011-4.589 0-.936-1.172-1.359-1.77-.639-1.15 1.386-2.013 2.026-3.23 2.026-1.962 0-4-1.832-4-4s2.038-4 4-4c1.22 0 2.116.666 3.225 2.029.594.73 1.775.31 1.775-.631 0-.585.005-3.558.014-8.145v-.576l.01-5.31.004-1.826c1.332.457 2.559 1.19 3.594 2.189 1.584 1.527 2.568 3.493 2.834 5.633l.297 2.407 2.416.213c4.978.441 8.831 4.57 8.831 9.491 0 5.239-4.351 9.526-9.711 9.526z"/></svg>