<svg xmlns="http://www.w3.org/2000/svg" width="60" height="60" viewBox="0 0 60 60"><title>bookmarks</title><desc>Created with Sketch.</desc><g fill="none"><path d="M30 58.75c15.878 0 28.75-12.872 28.75-28.75S45.878 1.25 30 1.25 1.25 14.122 1.25 30 14.122 58.75 30 58.75zM30 60C13.43 60 0 46.57 0 30S13.43 0 30 0s30 13.43 30 30-13.43 30-30 30z" id="Shape" fill-opacity=".011" fill="#fff"/><path d="M49.523 28.052L31.986 10.43c-.572-.573-1.59-.573-2.16 0l-19.38 19.276c-.32.318-.446.7-.446 1.145v17.623C10 49.3 10.7 50 11.525 50h17.601c.382 0 .826-.19 1.144-.51l19.253-19.275c.636-.573.636-1.59 0-2.163zM28.49 46.946H13.05v-15.46l17.792-17.812 15.44 15.46-17.79 17.812zm-8.832-11.26c-2.54 0-4.638 2.1-4.638 4.58 0 2.545 2.097 4.58 4.638 4.58 2.542 0 4.64-2.035 4.64-4.58 0-2.48-2.098-4.58-4.64-4.58zm0 7.38c-1.525 0-2.732-1.273-2.732-2.736 0-1.463 1.207-2.736 2.732-2.736 1.525 0 2.796 1.273 2.796 2.736 0 1.527-1.27 2.736-2.796 2.736z" fill="#000"/></g></svg>