<svg xmlns="http://www.w3.org/2000/svg" width="60" height="60" viewBox="0 0 60 60"><title>calendar</title><desc>Created with Sketch.</desc><path fill="#fff" fill-opacity=".011" d="M30 58.75c15.878 0 28.75-12.872 28.75-28.75S45.878 1.25 30 1.25 1.25 14.122 1.25 30 14.122 58.75 30 58.75zM30 60C13.43 60 0 46.568 0 30 0 13.43 13.43 0 30 0c16.568 0 30 13.43 30 30 0 16.568-13.432 30-30 30z"/><path d="M47.997 9H12.004C10.35 9 9 10.345 9 12.004v35.993C9 49.65 10.345 51 12.004 51h35.993C49.65 51 51 49.657 51 47.998V12.004C51 10.35 49.657 9 47.998 9zM12 12.035h4.148v2.257c0 .856.7 1.556 1.556 1.556s1.556-.7 1.556-1.556v-2.257h5.136v2.257c0 .856.7 1.556 1.556 1.556s1.556-.7 1.556-1.556v-2.257h5.137v2.257c0 .856.7 1.556 1.556 1.556s1.557-.7 1.557-1.556v-2.257h5.137v2.257c0 .856.7 1.556 1.556 1.556s1.556-.7 1.556-1.556v-2.257h3.992V19H12v-6.965zM48 48H12V21h36v27zM26.29 37.85c-.433.34-.997.51-1.69.51-.64 0-1.207-.137-1.7-.41-.493-.272-.933-.602-1.32-.99l-1.1 1.48c.453.508 1.027.934 1.72 1.28.693.347 1.56.52 2.6.52.613 0 1.19-.082 1.73-.25.54-.166 1.013-.406 1.42-.72.407-.312.727-.696.96-1.15.233-.452.35-.973.35-1.56 0-.84-.25-1.526-.75-2.06s-1.13-.9-1.89-1.1v-.08c.693-.268 1.237-.64 1.63-1.12.393-.48.59-1.08.59-1.8 0-.533-.1-1.01-.3-1.43-.2-.42-.48-.772-.84-1.06-.36-.287-.793-.503-1.3-.65-.507-.147-1.067-.22-1.68-.22-.76 0-1.45.147-2.07.44s-1.203.68-1.75 1.16l1.18 1.42c.387-.36.783-.65 1.19-.87.407-.22.863-.33 1.37-.33.587 0 1.047.15 1.38.45.333.3.5.717.5 1.25 0 .293-.057.566-.17.82-.113.252-.3.47-.56.65-.26.18-.6.318-1.02.42-.42.1-.943.148-1.57.148v1.68c.72 0 1.32.05 1.8.15.48.1.863.243 1.15.43.287.188.49.414.61.68.12.268.18.568.18.9 0 .602-.217 1.072-.65 1.412zM40 38h-3V27h-2c-.4.24-.65.723-1.11.89-.46.167-1.25.49-1.89.61V30h3v8h-3v2h8v-2z"/></svg>