<svg xmlns="http://www.w3.org/2000/svg" viewBox="0 0 100 100" enable-background="new 0 0 100 100" width="100" height="100"><path d="M44.5 50.7c.6.6 1.5 1 2.4 1 .9 0 1.8-.4 2.4-1 .6-.6 1-1.5 1-2.4 0-.9-.4-1.8-1-2.4-.6-.6-1.5-1-2.4-1-.9 0-1.8.4-2.4 1-.6.6-1 1.5-1 2.4 0 .9.4 1.8 1 2.4zm1.6-3.1c.2-.2.4-.3.7-.3.3 0 .5.1.7.3.2.2.3.4.3.7 0 .3-.1.5-.3.7-.2.2-.4.3-.7.3-.3 0-.5-.1-.7-.3-.2-.2-.3-.4-.3-.7.1-.3.2-.5.3-.7zm-1.6 12c.6.6 1.5 1 2.4 1 .9 0 1.8-.4 2.4-1 .6-.6 1-1.5 1-2.4 0-.9-.4-1.8-1-2.4-.6-.6-1.5-1-2.4-1-.9 0-1.8.4-2.4 1-.6.6-1 1.5-1 2.4 0 1 .4 1.8 1 2.4zm1.6-3c.2-.2.4-.3.7-.3.3 0 .5.1.7.3.2.2.3.4.3.7 0 .3-.1.5-.3.7-.2.2-.4.3-.7.3-.3 0-.5-.1-.7-.3-.2-.2-.3-.4-.3-.7.1-.3.2-.6.3-.7zm16.6-5.9c.6.6 1.5 1 2.4 1 .9 0 1.8-.4 2.4-1 .6-.6 1-1.5 1-2.4 0-.9-.4-1.8-1-2.4-.6-.6-1.5-1-2.4-1s-1.8.4-2.4 1c-.6.6-1 1.5-1 2.4 0 .9.4 1.8 1 2.4zm1.7-3.1c.2-.2.4-.3.7-.3.3 0 .5.1.7.3.2.2.3.4.3.7 0 .3-.1.5-.3.7-.2.2-.4.3-.7.3-.3 0-.5-.1-.7-.3-.2-.2-.3-.4-.3-.7 0-.3.1-.5.3-.7zm-10.8 3.1c.6.6 1.4 1 2.4 1 .9 0 1.8-.4 2.4-1 .6-.6 1-1.5 1-2.4 0-.9-.4-1.8-1-2.4-.6-.6-1.5-1-2.4-1-.9 0-1.8.4-2.4 1-.6.6-1 1.5-1 2.4 0 .9.4 1.8 1 2.4zm1.7-3.1c.2-.2.4-.3.7-.3.3 0 .5.1.7.3.2.2.3.4.3.7 0 .3-.1.5-.3.7-.2.2-.4.3-.7.3-.3 0-.5-.1-.7-.3-.2-.2-.3-.4-.3-.7 0-.3.1-.5.3-.7zm-10.8 21c.6.6 1.5 1 2.4 1 .9 0 1.8-.4 2.4-1 .6-.6 1-1.5 1-2.4 0-.9-.4-1.8-1-2.4-.6-.6-1.5-1-2.4-1-.9 0-1.8.4-2.4 1-.6.6-1 1.4-1 2.4 0 .9.4 1.8 1 2.4zm1.6-3.1c.2-.2.4-.3.7-.3.3 0 .5.1.7.3.2.2.3.4.3.7 0 .3-.1.5-.3.7-.2.2-.4.3-.7.3-.3 0-.5-.1-.7-.3-.2-.2-.3-.4-.3-.7.1-.3.2-.5.3-.7zm29-39.7H27.7c-1.1 0-2 .9-2 2v47.4c0 1.1.9 2 2 2h47.4c1.1 0 2-.9 2-2V27.7c0-1.1-.9-1.9-2-1.9zm-2 47.3H29.7V41.2h43.4v31.9zm0-34.2H29.7v-9.2h3.9v2.9c0 1.1.9 2 2 2s2-.9 2-2v-2.9h6.6v2.9c0 1.1.9 2 2 2s2-.9 2-2v-2.9h6.6v2.9c0 1.1.9 2 2 2s2-.9 2-2v-2.9h6.6v2.9c0 1.1.9 2 2 2s2-.9 2-2v-2.9h3.9v9.2h-.2zM53.6 68.6c.6.6 1.4 1 2.4 1 .9 0 1.8-.4 2.4-1 .6-.6 1-1.5 1-2.4 0-.9-.4-1.8-1-2.4-.6-.6-1.5-1-2.4-1-.9 0-1.8.4-2.4 1-.6.6-1 1.4-1 2.4 0 .9.4 1.8 1 2.4zm1.7-3.1c.2-.2.4-.3.7-.3.3 0 .5.1.7.3.2.2.3.4.3.7 0 .3-.1.5-.3.7-.2.2-.4.3-.7.3-.3 0-.5-.1-.7-.3-.2-.2-.3-.4-.3-.7 0-.3.1-.5.3-.7zm-19.9-5.9c.6.6 1.5 1 2.4 1 .9 0 1.8-.4 2.4-1 .6-.6 1-1.5 1-2.4 0-.9-.4-1.8-1-2.4-.6-.6-1.5-1-2.4-1-.9 0-1.8.4-2.4 1-.6.6-1 1.5-1 2.4 0 1 .4 1.8 1 2.4zm1.6-3c.2-.2.4-.3.7-.3.3 0 .5.1.7.3.2.2.3.4.3.7 0 .3-.1.5-.3.7-.2.2-.4.3-.7.3-.3 0-.5-.1-.7-.3-.2-.2-.3-.4-.3-.7.1-.3.2-.6.3-.7zm-1.6 12c.6.6 1.5 1 2.4 1 .9 0 1.8-.4 2.4-1 .6-.6 1-1.5 1-2.4 0-.9-.4-1.8-1-2.4-.6-.6-1.5-1-2.4-1-.9 0-1.8.4-2.4 1-.6.6-1 1.4-1 2.4 0 .9.4 1.8 1 2.4zm1.6-3.1c.2-.2.4-.3.7-.3.3 0 .5.1.7.3.2.2.3.4.3.7 0 .3-.1.5-.3.7-.2.2-.4.3-.7.3-.3 0-.5-.1-.7-.3-.2-.2-.3-.4-.3-.7.1-.3.2-.5.3-.7zm16.6-5.9c.6.6 1.4 1 2.4 1 .9 0 1.8-.4 2.4-1 .6-.6 1-1.5 1-2.4 0-.9-.4-1.8-1-2.4-.6-.6-1.5-1-2.4-1-.9 0-1.8.4-2.4 1-.6.6-1 1.5-1 2.4 0 1 .4 1.8 1 2.4zm1.7-3c.2-.2.4-.3.7-.3.3 0 .5.1.7.3.2.2.3.4.3.7 0 .3-.1.5-.3.7-.2.2-.4.3-.7.3-.3 0-.5-.1-.7-.3-.2-.2-.3-.4-.3-.7 0-.3.1-.6.3-.7zm7.4 3c.6.6 1.4 1 2.4 1s1.8-.4 2.4-1c.6-.6 1-1.5 1-2.4 0-.9-.4-1.8-1-2.4-.6-.6-1.5-1-2.4-1s-1.8.4-2.4 1c-.6.6-1 1.5-1 2.4 0 1 .4 1.8 1 2.4zm1.7-3c.2-.2.4-.3.7-.3.3 0 .5.1.7.3.2.2.3.4.3.7 0 .3-.1.5-.3.7-.2.2-.4.3-.7.3-.3 0-.5-.1-.7-.3-.2-.2-.3-.4-.3-.7 0-.3.1-.6.3-.7z"/></svg>