<svg xmlns="http://www.w3.org/2000/svg" width="60" height="60" viewBox="0 0 60 60"><title>contacts</title><desc>Created with Sketch.</desc><g fill="none"><path d="M30 58.75c15.878 0 28.75-12.872 28.75-28.75S45.878 1.25 30 1.25 1.25 14.122 1.25 30 14.122 58.75 30 58.75zM30 60C13.43 60 0 46.57 0 30S13.43 0 30 0s30 13.43 30 30-13.43 30-30 30z" fill-opacity=".011" fill="#fff"/><path d="M49 13.763v37.44C49 52.23 48.223 53 47.273 53H17.736c-1.64 0-3.195-.342-4.318-.942C11.95 51.288 11 50.175 11 48.805V11c0-1.455.95-2.288 2.418-3.058C14.54 7.342 16.095 7 17.736 7H45c.95 0 1.5.558 1.5 1.5S45.95 10 45 10H18c-1.123 0-2.423.158-3.114.5L14 11s.627.33.886.5c.69.342 1.728.636 2.85.636h29.537c.95-.085 1.727.685 1.727 1.627zm-32 1.112c-1.21 0-2.05-.533-3-.875v34.5s1.877 1.5 3 1.5h29V14.875H17zm5.486 27.794c0 .598-.43 1.026-1.036 1.026-.605 0-1.036-.428-1.036-1.027 0-1.542.604-2.74 1.554-3.51 1.21-1.2 2.937-1.713 3.887-1.798.172 0 .26-.086.345-.17l.086-.087c-.777-.685-1.122-1.54-1.38-2.226-.174-.343-.26-.6-.26-.685-.346-.343-.864-.942-1.123-1.627-.26-.685-.346-1.455 0-2.14-.173-.6-.26-1.284-.26-1.97 0-.855.173-1.797.432-2.653.432-1.198 1.123-2.14 2.073-2.74.95-.598 2.16-.94 3.455-.94.518 0 1.122 0 1.813.085.69.17 1.47.428 1.9 1.027.864 0 1.64.428 2.246 1.2.777.855 1.295 2.14 1.382 2.824.086.6.086 1.114 0 1.713-.087.428-.173.94-.26 1.37.432.77.346 1.54.087 2.225v.086c-.258.685-.776 1.284-1.122 1.626-.086.086-.173.343-.26.685-.258.685-.603 1.54-1.38 2.226 0 0 0 .086.086.086.086.086.26.17.345.17 1.035.087 2.676.6 3.972 1.8.863.855 1.554 1.968 1.554 3.51 0 .598-.43 1.026-1.036 1.026-.605 0-1.036-.428-1.036-1.027 0-.942-.346-1.627-.864-2.055-.864-.77-1.986-1.112-2.677-1.198-.605-.086-1.21-.342-1.64-.77-.433-.428-.692-1.028-.692-1.627v-.342c0-.343.174-.685.52-.856.517-.343.776-1.028 1.035-1.627.26-.513.432-1.027.778-1.37.172-.17.432-.513.604-.856v-.085c.087-.258.087-.43 0-.6-.172-.172-.26-.343-.26-.6v-.513c.174-.514.26-.942.347-1.455.086-.428.086-.856 0-1.2-.087-.513-.432-1.283-.95-1.882-.346-.428-.605-.6-.778-.6-.345.086-.69 0-.95-.17-.26-.086-.518-.343-.69-.6v-.085c-.087-.172-.346-.257-.69-.257-.433-.086-1.038-.086-1.383-.086-.95 0-1.728.257-2.418.6-.52.342-.95.94-1.21 1.71-.172.6-.345 1.286-.345 1.97 0 .6.086 1.2.345 1.712.173.343.087.856-.172 1.113-.173.17-.087.428 0 .6.172.342.432.684.604.855.432.343.605.857.864 1.456.26.6.52 1.284 1.037 1.626.26.17.518.514.518.856V36.763c0 .684-.26 1.198-.69 1.626-.432.427-1.037.684-1.64.77-.692.085-1.9.428-2.68 1.198-.517.685-.95 1.37-.95 2.31z" fill="#000"/></g></svg>