<svg xmlns="http://www.w3.org/2000/svg" viewBox="0 0 100 100" enable-background="new 0 0 100 100" width="100" height="100"><path d="M70.4 30.9c1.1 0 2 .9 2 2v41.5c0 1.1-.9 2-2 2H36.2c-1.9 0-3.7-.4-5-1.1-1.7-.9-2.8-2.2-2.8-3.8V29.9c0-1.6 1.1-2.9 2.8-3.8 1.3-.7 3.1-1.1 5-1.1h34.2c1.1 0 2 .9 2 2s-.9 2-2 2H36.2c-1.3 0-2.5.3-3.3.7l-.6.3s.3.1.6.3c.8.4 2 .7 3.3.7h34.2v-.1zM41.7 65.5c0 .7-.5 1.2-1.2 1.2s-1.2-.5-1.2-1.2c0-1.8.7-3.2 1.8-4.1 1.4-1.4 3.4-2 4.5-2.1.2 0 .3-.1.4-.2l.1-.1c-.9-.8-1.3-1.8-1.6-2.6-.2-.4-.3-.7-.3-.8-.4-.4-1-1.1-1.3-1.9-.3-.8-.4-1.7 0-2.5-.2-.7-.3-1.5-.3-2.3 0-1 .2-2.1.5-3.1.5-1.4 1.3-2.5 2.4-3.2 1.1-.7 2.5-1.1 4-1.1.6 0 1.3 0 2.1.1.8.2 1.7.5 2.2 1.2 1 0 1.9.5 2.6 1.4.9 1 1.5 2.5 1.6 3.3.1.7.1 1.3 0 2-.1.5-.2 1.1-.3 1.6.5.9.4 1.8.1 2.6v.1c-.3.8-.9 1.5-1.3 1.9-.1.1-.2.4-.3.8-.3.8-.7 1.8-1.6 2.6 0 0 0 .1.1.1.1.1.3.2.4.2 1.2.1 3.1.7 4.6 2.1 1 1 1.8 2.3 1.8 4.1 0 .7-.5 1.2-1.2 1.2s-1.2-.5-1.2-1.2c0-1.1-.4-1.9-1-2.4-1-.9-2.3-1.3-3.1-1.4-.7-.1-1.4-.4-1.9-.9s-.8-1.2-.8-1.9v-.4c0-.4.2-.8.6-1 .6-.4.9-1.2 1.2-1.9.3-.6.5-1.2.9-1.6.2-.2.5-.6.7-1V53c.1-.3.1-.5 0-.7-.2-.2-.3-.4-.3-.7V51c.2-.6.3-1.1.4-1.7.1-.5.1-1 0-1.4-.1-.6-.5-1.5-1.1-2.2-.4-.5-.7-.7-.9-.7-.4.1-.8 0-1.1-.2-.3-.1-.6-.4-.8-.7V44c-.1-.2-.4-.3-.8-.3-.5-.1-1.2-.1-1.6-.1-1.1 0-2 .3-2.8.7-.6.4-1.1 1.1-1.4 2-.2.7-.4 1.5-.4 2.3 0 .7.1 1.4.4 2 .2.4.1 1-.2 1.3-.2.2-.1.5 0 .7.2.4.5.8.7 1 .5.4.7 1 1 1.7.3.7.6 1.5 1.2 1.9.3.2.6.6.6 1v.4c0 .8-.3 1.4-.8 1.9s-1.2.8-1.9.9c-.8.1-2.2.5-3.1 1.4-.6.8-1.1 1.6-1.1 2.7zm-5.5-30.7c-1.4 0-2.8-.2-3.9-.6v37.2l.6.3c.8.4 2 .7 3.3.7h32.2V34.8H36.2z"/></svg>