<svg xmlns="http://www.w3.org/2000/svg" viewBox="0 0 100 100" enable-background="new 0 0 100 100" width="100" height="100"><path d="M62.1 35.4c-.7 0-1.3-.6-1.3-1.2 0-.7.6-1.3 1.3-1.3h13.3c.7 0 1.3.6 1.3 1.3 0 .7-.6 1.2-1.3 1.2H62.1zM42 61.2V25.8c0-1.2.9-2.1 2.1-2.1 1.2 0 2.1.9 2.1 2.1 0 .2.2 1.5 4.7 3 1.2.4 2.3.9 3.2 1.6 1 .7 1.8 1.5 2.4 2.3 1.8 2.6 1.8 5.7.9 8.9-1.1 3.7-3.6 7.4-6.1 10.1-.8.9-2.1.9-2.9.2-.9-.8-.9-2.1-.2-2.9 2.1-2.3 4.3-5.5 5.2-8.5.6-2 .7-3.9-.3-5.3-.3-.5-.7-.9-1.3-1.3-.6-.4-1.3-.8-2.2-1.1-1.3-.5-2.5-1-3.4-1.5V68.6c0 2.7-1.4 5.1-3.5 6.8-4.4 3.5-11.4 3.5-15.9 0-4.7-3.7-4.6-10.1 0-13.8 4.2-3.3 10.7-3.5 15.2-.4zm-2 3.7c-2.9-2.3-7.7-2.3-10.7 0-2.6 2-2.6 5.3 0 7.3 2.9 2.3 7.7 2.3 10.7 0 2.6-2.1 2.6-5.3 0-7.3zm22.1-21.1c-.7 0-1.3-.6-1.3-1.3 0-.7.6-1.3 1.3-1.3h13.3c.7 0 1.3.6 1.3 1.3 0 .7-.6 1.3-1.3 1.3H62.1zm-5 8.4c-.7 0-1.3-.6-1.3-1.2 0-.7.6-1.3 1.3-1.3h18.3c.7 0 1.3.6 1.3 1.3 0 .7-.6 1.2-1.3 1.2H57.1zm-6.6 8.3c-.7 0-1.3-.6-1.3-1.3 0-.7.6-1.3 1.3-1.3h25c.7 0 1.3.6 1.3 1.3 0 .7-.6 1.3-1.3 1.3h-25zm0 8.4c-.7 0-1.3-.6-1.3-1.2 0-.7.6-1.3 1.3-1.3h25c.7 0 1.3.6 1.3 1.3 0 .7-.6 1.2-1.3 1.2h-25z"/></svg>