<svg xmlns="http://www.w3.org/2000/svg" width="60" height="60" viewBox="0 0 60 60"><title>cozic</title><desc>Created with Sketch.</desc><g fill="none"><path d="M30 58.75c15.878 0 28.75-12.872 28.75-28.75S45.878 1.25 30 1.25 1.25 14.122 1.25 30 14.122 58.75 30 58.75zM30 60C13.43 60 0 46.57 0 30S13.43 0 30 0s30 13.43 30 30-13.43 30-30 30z" fill-opacity=".011" fill="#fff"/><path d="M24 10.7c-.025-1.004.648-1.7 1.546-1.7.897 0 1.57.696 1.57 1.624 0 .154.15 1.16 3.515 2.32.898.308 1.72.695 2.394 1.236.748.54 1.346 1.16 1.795 1.778 1.345 2.01 1.345 4.407.672 6.88-.823 2.86-2.692 5.722-4.562 7.81-.598.695-1.57.695-2.17.154-.672-.618-.672-1.623-.148-2.242 1.57-1.778 3.216-4.252 3.89-6.572.447-1.546.522-3.015-.226-4.097-.224-.386-.523-.695-.972-1.004-.45-.31-.972-.62-1.645-.85-.973-.387-1.87-.774-2.66-1.16v28.76c.116 2.165-.93 4.02-2.5 5.335-3.292 2.706-8.527 2.706-11.892 0-3.515-2.86-3.44-7.808 0-10.67 3.14-2.55 8.002-2.705 11.392-.308v-27.29zm-1.52 30.153c-2.17-1.778-5.76-1.778-8.002 0-1.945 1.546-1.945 4.097 0 5.644 2.168 1.778 5.758 1.778 8.002 0 1.944-1.624 1.944-4.098 0-5.644zM38.98 19c-.527 0-.98-.48-.98-.96 0-.56.453-1.04.98-1.04h10.04c.527 0 .98.48.98 1.04s-.453.96-.98.96H38.98zm0 6c-.527 0-.98-.462-.98-1s.453-1 .98-1h10.04c.527 0 .98.462.98 1s-.453 1-.98 1H38.98zm-3.047 6c-.502 0-.933-.48-.933-.96 0-.56.43-1.04.933-1.04h13.134c.502 0 .933.48.933 1.04s-.43.96-.933.96H35.933zm-4.99 6c-.508 0-.943-.462-.943-1s.435-1 .942-1h18.116c.507 0 .942.462.942 1s-.435 1-.942 1H30.942zm0 6c-.508 0-.943-.48-.943-.96 0-.56.435-1.04.942-1.04h18.116c.507 0 .942.48.942 1.04s-.435.96-.942.96H30.942z" fill="#000"/></g></svg>