<svg xmlns="http://www.w3.org/2000/svg" width="60" height="60" viewBox="0 0 60 60"><title>databrowser</title><desc>Created with Sketch.</desc><g fill="none"><path d="M30 58.75c15.878 0 28.75-12.872 28.75-28.75S45.878 1.25 30 1.25 1.25 14.122 1.25 30 14.122 58.75 30 58.75zM30 60C13.43 60 0 46.57 0 30S13.43 0 30 0s30 13.43 30 30-13.43 30-30 30z" fill-opacity=".011" fill="#fff"/><path d="M42.07 39.655c1.17-1.38 2.137-2.965 2.827-4.62.896-2.138 1.38-4.483 1.38-6.966 0-2.415-.484-4.69-1.31-6.83-.898-2.274-2.208-4.206-3.864-5.86l-.206-.07c-1.656-1.655-3.656-3.034-5.863-3.93-2.137-.897-4.482-1.38-6.896-1.38-5.035 0-9.517 2-12.828 5.31-1.655 1.656-3.034 3.656-3.93 5.862C10.482 23.31 10 25.655 10 28.07c0 2.413.483 4.758 1.31 6.827.966 2.275 2.345 4.275 4 5.93 1.656 1.656 3.656 3.035 5.862 3.932 2.138.895 4.483 1.378 6.897 1.378 2.413 0 4.758-.483 6.964-1.38 1.656-.69 3.242-1.655 4.62-2.827l7.174 7.173c.62.62 1.724.62 2.344 0 .69-.55.69-1.586.07-2.206l-7.173-7.242zm-3.518-1.103c-1.38 1.38-3.035 2.482-4.828 3.24-1.724.69-3.655 1.105-5.655 1.105-2 0-3.932-.414-5.656-1.104-1.793-.76-3.448-1.862-4.828-3.24-1.38-1.38-2.483-2.967-3.24-4.83v-.068c-.69-1.724-1.105-3.586-1.105-5.586 0-2 .415-3.932 1.105-5.656.758-1.793 1.862-3.448 3.24-4.828 2.69-2.69 6.346-4.345 10.484-4.345 2 0 3.93.415 5.654 1.105 1.793.758 3.448 1.862 4.828 3.24l.07.07c1.31 1.31 2.412 2.966 3.102 4.76l.07.068c.69 1.724 1.103 3.586 1.103 5.586 0 2-.414 3.93-1.104 5.654-.76 1.862-1.862 3.448-3.24 4.828zM23.517 17.31c-.69.276-1.38.69-2 1.035-.62.414-1.24.896-1.724 1.448-.552.552-1.034 1.104-1.448 1.724-.414.62-.76 1.242-1.104 2-.206.483 0 1.104.553 1.31.483.207 1.104 0 1.31-.55.276-.553.552-1.105.897-1.656.345-.55.76-1.034 1.172-1.448.483-.413.966-.827 1.45-1.172.55-.345 1.102-.62 1.654-.897.483-.206.758-.827.552-1.31-.207-.483-.76-.69-1.31-.483zm15.31 9.793c-.55 0-.965.483-.965 1.035 0 1.24-.276 2.552-.76 3.724v.07c-.48 1.102-1.17 2.206-2.068 3.102-.896.966-2 1.656-3.172 2.138-1.172.483-2.483.76-3.724.76-.552 0-1.035.413-1.035 1.034 0 .55.483.965 1.035.965 1.517 0 3.034-.275 4.483-.896 1.38-.55 2.69-1.448 3.794-2.55 1.103-1.105 1.93-2.415 2.552-3.794.62-1.45.896-2.966.896-4.483 0-.62-.483-1.104-1.034-1.104z" fill="#000"/></g></svg>