<svg xmlns="http://www.w3.org/2000/svg" viewBox="0 0 100 100" enable-background="new 0 0 100 100" width="100" height="100"><path d="M79.1 75.9L68.7 65.4c1.7-2 3.1-4.3 4.1-6.7 1.3-3.1 2-6.5 2-10.1 0-3.5-.7-6.8-1.9-9.9v-.1c-1.3-3.2-3.2-6-5.6-8.4l-.3-.1c-2.4-2.4-5.3-4.4-8.5-5.7-3.1-1.3-6.5-2-10-2-7.3 0-13.8 2.9-18.6 7.7-2.4 2.4-4.4 5.3-5.7 8.5-1.3 3.1-2 6.5-2 10s.7 6.9 1.9 9.9l.1.1c1.3 3.2 3.3 6.1 5.7 8.5 2.4 2.4 5.3 4.4 8.5 5.7 3.1 1.3 6.5 2 10 2s6.9-.7 10.1-2c2.4-1 4.7-2.4 6.7-4.1l10.4 10.4c.9.9 2.5.9 3.4 0 1-.8 1-2.3.1-3.2zM63.6 63.8c-2 2-4.4 3.6-7 4.7-2.5 1-5.3 1.6-8.2 1.6-2.9 0-5.7-.6-8.2-1.6-2.6-1.1-5-2.7-7-4.7s-3.6-4.3-4.7-7v-.1c-1-2.5-1.6-5.2-1.6-8.1 0-2.9.6-5.7 1.6-8.2 1.1-2.6 2.7-5 4.7-7 3.9-3.9 9.2-6.3 15.2-6.3 2.9 0 5.7.6 8.2 1.6 2.6 1.1 5 2.7 7 4.7l.1.1c1.9 1.9 3.5 4.3 4.5 6.9l.1.1c1 2.5 1.6 5.2 1.6 8.1 0 2.9-.6 5.7-1.6 8.2-1.1 2.7-2.7 5-4.7 7zM41.8 33c-1 .4-2 1-2.9 1.5-.9.6-1.8 1.3-2.5 2.1-.8.8-1.5 1.6-2.1 2.5-.6.9-1.1 1.8-1.6 2.9-.3.7 0 1.6.8 1.9.7.3 1.6 0 1.9-.8.4-.8.8-1.6 1.3-2.4.5-.8 1.1-1.5 1.7-2.1.7-.6 1.4-1.2 2.1-1.7.8-.5 1.6-.9 2.4-1.3.7-.3 1.1-1.2.8-1.9-.3-.7-1.1-1-1.9-.7zM64 47.2c-.8 0-1.4.7-1.4 1.5 0 1.8-.4 3.7-1.1 5.4v.1c-.7 1.6-1.7 3.2-3 4.5-1.3 1.4-2.9 2.4-4.6 3.1-1.7.7-3.6 1.1-5.4 1.1-.8 0-1.5.6-1.5 1.5 0 .8.7 1.4 1.5 1.4 2.2 0 4.4-.4 6.5-1.3 2-.8 3.9-2.1 5.5-3.7s2.8-3.5 3.7-5.5c.9-2.1 1.3-4.3 1.3-6.5 0-.9-.7-1.6-1.5-1.6z"/></svg>