<svg xmlns="http://www.w3.org/2000/svg" viewBox="0 0 100 100" enable-background="new 0 0 100 100" width="100" height="100"><path d="M76.2 43.9c.1.1.2.1.2.2l.1.1.1.1v31c0 1.2-.9 2.1-2.1 2.1H27.6c-1.2 0-2.1-.9-2.1-2.1V45.6c0-.7.3-1.3.9-1.7l3.5-2.9.2-.2v-8.5c0-.7.6-1.3 1.3-1.3h10.7c.1-.1.2-.3.4-.4l7.5-6.2c.8-.6 1.9-.7 2.7 0l7.6 6.2c.1.1.2.2.3.4h10.7c.7 0 1.3.6 1.3 1.3v8.4l.1.1 3.5 3.1zm-43.6 1.7v2.5l18.5 15.1h.4L70 48.1V33.6H32.6v12zm-2.9 3.3v25.5H73V48.9c-6.7 5.5-13.5 11-20.2 16.5-.2.2-.5.3-.8.3h-1.3c-.3 0-.6-.1-.8-.3-6.8-5.5-13.5-11-20.2-16.5zm18.9-17.8H54l-2.7-2.2-2.7 2.2z"/></svg>