<svg xmlns="http://www.w3.org/2000/svg" width="60" height="60" viewBox="0 0 60 60"><title>emails</title><desc>Created with Sketch.</desc><g fill="none"><path d="M30 58.75c15.878 0 28.75-12.872 28.75-28.75S45.878 1.25 30 1.25 1.25 14.122 1.25 30 14.122 58.75 30 58.75zM30 60C13.43 60 0 46.57 0 30S13.43 0 30 0s30 13.43 30 30-13.43 30-30 30z" id="Shape" fill-opacity=".011" fill="#fff"/><path d="M50.836 21.607l.164.165v25.501C51 48.26 50.26 49 49.274 49H10.726C9.74 49 9 48.26 9 47.273V22.84c0-.575.247-1.068.74-1.397L12 19v-7c0-.576.425-1 1-1h10c.082-.082 6.137-5.598 6.137-5.598.658-.494 1.562-.576 2.22 0 0 0 5.56 5.433 5.643 5.598h10c.575 0 1 .424 1 1v7l2.67 2.443c.083.082.166.082.166.164zM14 24l16.04 13.32h.33L46 24V13H14v11zm-2 22h36.04V25.5c-5.506 4.58-11.095 9.104-16.602 13.63-.164.163-.41.245-.657.245h-1.068c-.246 0-.493-.082-.657-.246C23.465 34.603 17.507 30.08 12 25.5V46zm15.986-35.087h4.44l-2.22-1.81-2.22 1.81z" fill="#000"/></g></svg>