<svg xmlns="http://www.w3.org/2000/svg" width="60" height="60" viewBox="0 0 60 60"><title>feed</title><desc>Created with Sketch.</desc><g fill="none"><path d="M30 58.75c15.878 0 28.75-12.872 28.75-28.75S45.878 1.25 30 1.25 1.25 14.122 1.25 30 14.122 58.75 30 58.75zM30 60C13.43 60 0 46.57 0 30S13.43 0 30 0s30 13.43 30 30-13.43 30-30 30z" fill-opacity=".011" fill="#fff"/><path d="M9.514 49.388C8.59 48.455 8 47.098 8 45.655V20.03C8 19.1 9.075 18 10 18h5.067V10.7c0-.933.757-1.697 1.683-1.697h33.568C51.243 9 52 9.766 52 10.7V45.74c0 1.442-.588 2.8-1.513 3.733-.925.933-2.272 1.527-3.702 1.527H13.217c-1.43-.085-2.776-.68-3.702-1.612zM49 12H18c.096 11.115.096 22.54 0 33.5.096.748-.248 1.906-.5 2.5H47c.505 0 1.163-.16 1.5-.5.337-.34.5-.906.5-1.5V12zM21.63 44.636c-.59 0-1.01-.424-1.01-1.018 0-.594.42-1.018 1.01-1.018h24.06c.59 0 1.01.51 1.01 1.018 0 .594-.42 1.018-1.01 1.018H21.63zm0-29.867c-.59 0-1.01.423-1.01 1.017V23c0 .593.42 1.017 1.01 1.017h23.976c.59 0 1.01-.424 1.01-1.018v-7.213c0-.594-.42-1.018-1.01-1.018H21.63zm1.01 7.21v-5.175h21.957v5.176H22.64zM15.066 21H11v24.654c0 2.376 4.067 2.46 4.067 0V21zm19.686 5.138h10.853c.59 0 1.01.424 1.01 1.018v5.43c0 .594-.42 1.018-1.01 1.018H34.753c-.59 0-1.01-.424-1.01-1.018v-5.43c0-.594.42-1.018 1.01-1.018zm9.843 2.036h-8.834v3.394h8.834v-3.394zm-22.967 0c-.59 0-1.01-.424-1.01-1.018 0-.594.42-1.018 1.01-1.018h9.926c.59 0 1.01.51 1.01 1.018 0 .594-.42 1.018-1.01 1.018H21.63zm0 5.515c-.59 0-1.01-.425-1.01-1.02 0-.593.42-1.017 1.01-1.017h9.926c.59 0 1.01.424 1.01 1.018 0 .595-.42 1.02-1.01 1.02H21.63zm0 5.43c-.59 0-1.01-.51-1.01-1.02 0-.593.42-1.017 1.01-1.017h24.06c.59 0 1.01.424 1.01 1.018 0 .595-.42 1.02-1.01 1.02H21.63z" fill="#000"/></g></svg>