<svg xmlns="http://www.w3.org/2000/svg" viewBox="0 0 100 100" enable-background="new 0 0 100 100" width="100" height="100"><path d="M40.4 68.7c-.7 0-1.2-.5-1.2-1.2s.5-1.2 1.2-1.2H69c.7 0 1.2.6 1.2 1.2 0 .7-.5 1.2-1.2 1.2H40.4zm0-35.2c-.7 0-1.2.5-1.2 1.2v8.5c0 .7.5 1.2 1.2 1.2h28.5c.7 0 1.2-.5 1.2-1.2v-8.5c0-.7-.5-1.2-1.2-1.2H40.4zm1.2 8.5v-6.1h26.1V42H41.6zm-9-.3h-4.4v28.2c0 2.8 4.4 2.9 4.4 0V41.7zm-2.2 34.4c-1.7 0-3.3-.7-4.4-1.8-1.1-1.1-1.8-2.7-1.8-4.4V39.7c0-1.1.9-2 2-2h6.4v-9c0-1.1.9-2 2-2h39.9c1.1 0 2 .9 2 2V70c0 1.7-.7 3.3-1.8 4.4-1.1 1.1-2.7 1.8-4.4 1.8H30.4v-.1zm42.2-6.3V30.6h-36v39.2c0 .8-.1 1.5-.4 2.2h34.2c.6 0 1.2-.2 1.6-.6.4-.4.6-.9.6-1.6zM56 46.9h12.9c.7 0 1.2.5 1.2 1.2v6.4c0 .7-.5 1.2-1.2 1.2H56c-.7 0-1.2-.5-1.2-1.2v-6.4c0-.7.5-1.2 1.2-1.2zm11.7 2.4H57.2v4h10.5v-4zm-27.3 0c-.7 0-1.2-.5-1.2-1.2s.5-1.2 1.2-1.2h11.8c.7 0 1.2.6 1.2 1.2 0 .7-.5 1.2-1.2 1.2H40.4zm0 6.5c-.7 0-1.2-.5-1.2-1.2s.5-1.2 1.2-1.2h11.8c.7 0 1.2.5 1.2 1.2s-.5 1.2-1.2 1.2H40.4zm0 6.4c-.7 0-1.2-.6-1.2-1.2 0-.7.5-1.2 1.2-1.2H69c.7 0 1.2.5 1.2 1.2s-.5 1.2-1.2 1.2H40.4z"/></svg>