<svg xmlns="http://www.w3.org/2000/svg" viewBox="0 0 100 100" enable-background="new 0 0 100 100" width="100" height="100"><path d="M35.4 28.3h20.5c.5 0 .9.2 1.2.5l12.5 12.5c.3.3.5.8.5 1.2v26c0 1.3-.5 2.4-1.3 3.3-.8.8-2 1.3-3.2 1.3H35.4c-1.3 0-2.4-.5-3.3-1.4-.8-.8-1.4-2-1.4-3.3V32.9c0-1.3.5-2.4 1.4-3.3.9-.8 2.1-1.3 3.3-1.3zm19.5 3.4H35.4c-.3 0-.6.1-.8.3-.2.2-.3.5-.3.8v35.7c0 .3.1.6.3.8.2.2.5.3.8.3h30.1c.3 0 .6-.1.8-.3.2-.2.3-.5.3-.8v-25h-7.9c-1.1 0-2.1-.4-2.8-1.2h.1c-.7-.7-1.1-1.7-1.1-2.7v-7.9zm10 9.8l-8-8v6.1c0 .5.2.9.5 1.3v.1c.3.3.8.5 1.3.5h6.2z"/></svg>