<svg xmlns="http://www.w3.org/2000/svg" width="128" height="128" viewBox="0 0 671.98 288" enable-background="new 0 0 671.98 288"><g><path d="M112.197 168.302H143.9v15.852h-31.703zM159.75 168.302h31.683v15.852H159.75zM112.173 136.6h79.27v15.85h-79.27zM112.197 104.898h47.56v15.85h-47.56zM175.602 104.898h15.85v15.85h-15.85zM421.575 104.807c-25.458 0-38.606 18.003-38.606 40.21 0 22.21 12.823 40.215 38.605 40.215s38.606-18.005 38.606-40.214c.002-22.208-13.148-40.21-38.605-40.21zm19.26 40.283c-.018 14.28-4.83 25.848-19.26 25.848s-19.243-11.566-19.258-25.848V145.02c.015-14.28 4.83-25.847 19.26-25.847 14.428 0 19.24 11.566 19.258 25.846v.07zM307.584 184.153V72.975s14.664-2.083 15.8-2.236c1.29-.175 3 .742 3 2.555v41.214c3.042-2.894 6.393-5.226 10.045-7.003 3.654-1.775 7.94-2.664 12.864-2.664 4.263 0 8.04.723 11.338 2.17 3.3 1.444 6.053 3.476 8.26 6.087 2.207 2.615 3.882 5.735 5.024 9.363 1.14 3.628 1.712 7.624 1.712 11.988v49.702h-18.8v-49.7c0-4.77-1.104-8.462-3.31-11.077-2.21-2.612-5.52-3.92-9.936-3.92-3.247 0-6.29.737-9.13 2.21-2.843 1.472-5.532 3.474-8.07 6.013v56.475h-18.798zM558.565 185.224c-12.937 0-21.045-7.53-21.045-21.575v-41.63h-14.58l3.344-11.56c.246-.844.887-1.75 2.174-1.93l9.044-1.26 3.583-22.794s10.527-1.484 12.196-1.733c1.577-.236 3.006.9 3.006 2.616v21.91h18.44v14.75h-18.44v41.068c0 5.607 3.414 7.75 6.686 7.75 2 0 4.74-1.062 6.783-2.01 1.263-.584 3.22-.15 3.726 1.612l2.825 9.853c-2.05 1.324-8.534 4.93-17.74 4.93zM512.61 122.267c-3.665-1.19-10.552-3.095-17.103-3.095-6.675 0-11.927 2.306-11.927 7.856 0 6.932 11.32 8.95 19.067 11.776 5.18 1.89 19.07 5.572 19.07 20.512 0 18.148-15.07 25.907-31.147 25.907-16.08 0-25.578-5.98-25.578-5.98s2.494-8.81 3-10.55c.456-1.564 2.275-2.113 3.434-1.668 4.138 1.595 11.61 3.812 20.056 3.812 8.55 0 12.688-2.61 12.688-8.177 0-7.408-11.547-9.672-19.184-12.08-5.26-1.66-19.186-5.526-19.186-21.957 0-16.186 14.213-23.78 29.403-23.78 12.858 0 19.165 2.69 23.876 5.09l-3.016 10.51c-.46 1.62-1.79 2.364-3.455 1.824zM300.245 107.523c0-1.75-1.496-2.753-2.923-2.59-6.31.723-10.81 3.692-13.722 6.456-5.718-4.48-13.655-6.62-22.563-6.62-17.86 0-31.814 8.62-31.814 27.416 0 10.79 4.593 18.225 11.887 22.602-5.417 2.564-9.025 8.005-9.025 13.354 0 8.948 7.07 11.75 7.07 11.75s-12.36 6-12.36 18c0 15.365 14.138 21.577 31.415 21.577 24.904 0 42.038-10.287 42.038-29.174 0-11.624-8.895-18.04-28.28-18.804-11.502-.454-18.953-.868-20.8-1.48-2.438-.81-3.637-2.762-3.637-4.918 0-2.38 1.956-4.646 5.038-6.202 2.688.476 5.525.71 8.47.71 17.876 0 31.816-8.594 31.816-27.415 0-4.564-.824-8.526-2.322-11.91 2.626-1.402 5.857-2.388 9.715-2.388-.002 0-.002-8.77-.002-10.367zm-49.22 76.727s9.38.355 18.752.79c10.53.486 13.81 2.755 13.81 8.207 0 6.66-9.15 13.14-21.937 13.14-12.138 0-18.2-4.223-18.2-11.254 0-4.034 2.13-8.547 7.576-10.883zm10.046-37.767c-8.46 0-15.06-4.494-15.06-14.297 0-9.804 6.606-14.298 15.06-14.298 8.457 0 15.063 4.482 15.063 14.298s-6.598 14.297-15.062 14.297z"/></g></svg>