<svg xmlns="http://www.w3.org/2000/svg" width="60" height="60" viewBox="0 0 60 60"><title>ghost</title><desc>Created with Sketch.</desc><g fill="none"><path d="M30 58.75c15.878 0 28.75-12.872 28.75-28.75S45.878 1.25 30 1.25 1.25 14.122 1.25 30 14.122 58.75 30 58.75zM30 60C13.43 60 0 46.57 0 30S13.43 0 30 0s30 13.43 30 30-13.43 30-30 30z" fill-opacity=".011" fill="#fff"/><path d="M20.006 25h7.998v4h-7.998v-4zm11.996 0h7.993v4h-7.993v-4zM20 17h19.997v4H20v-4zm.006-8h11.998v4H20.006V9zM36 9h4v4h-4V9zM18.407 38.212c0-.2-.17-.315-.334-.296-.723.082-1.238.422-1.57.74-.655-.514-1.564-.76-2.583-.76-2.045 0-3.642.988-3.642 3.14 0 1.234.526 2.084 1.36 2.585-.62.295-1.032.917-1.032 1.53 0 1.024.81 1.344.81 1.344S10 47.18 10 48.554c0 1.76 1.618 2.47 3.595 2.47 2.85 0 4.81-1.177 4.81-3.34 0-1.33-1.017-2.064-3.235-2.15-1.316-.053-2.17-.1-2.38-.17-.28-.093-.417-.316-.417-.563 0-.272.224-.53.577-.71.307.055.632.082.97.082 2.045 0 3.64-.983 3.64-3.137 0-.523-.094-.976-.266-1.363.3-.16.67-.274 1.112-.274v-1.186zm-5.633 8.78s1.074.042 2.146.09c1.204.057 1.58.317 1.58.94 0 .763-1.048 1.505-2.51 1.505-1.39 0-2.084-.484-2.084-1.288 0-.463.244-.98.867-1.247zm1.15-4.32c-.97 0-1.724-.515-1.724-1.637 0-1.122.755-1.637 1.723-1.637.968 0 1.724.513 1.724 1.637 0 1.123-.756 1.636-1.724 1.636zm5.323 4.31V34.258l1.81-.256c.146-.02.342.085.342.293v4.717c.348-.33.732-.598 1.15-.802.418-.203.908-.305 1.472-.305.488 0 .92.083 1.297.25.378.164.693.397.946.695.252.3.444.657.575 1.072.13.415.196.872.196 1.372v5.688h-2.152v-5.688c0-.546-.126-.968-.38-1.268-.252-.3-.63-.448-1.136-.448-.37 0-.72.084-1.045.253-.324.17-.632.398-.922.69v6.462h-2.152zm13.046-9.08c-2.913 0-4.418 2.06-4.418 4.6 0 2.543 1.467 4.603 4.418 4.603 2.95 0 4.418-2.06 4.418-4.602 0-2.54-1.505-4.602-4.418-4.602zm2.204 4.61c-.002 1.634-.553 2.958-2.204 2.958-1.65 0-2.202-1.324-2.204-2.96v-.007c.002-1.634.553-2.958 2.204-2.958 1.65 0 2.202 1.324 2.204 2.958v.008zm8.214-2.613c-.42-.137-1.207-.355-1.957-.355-.764 0-1.365.264-1.365.9 0 .793 1.296 1.024 2.182 1.347.593.216 2.183.638 2.183 2.348 0 2.076-1.725 2.964-3.565 2.964-1.84 0-2.927-.684-2.927-.684s.286-1.008.344-1.207c.052-.18.26-.242.393-.19.474.18 1.33.435 2.295.435.98 0 1.453-.3 1.453-.936 0-.848-1.322-1.107-2.196-1.382-.603-.19-2.197-.633-2.197-2.513 0-1.853 1.627-2.722 3.365-2.722 1.472 0 2.194.308 2.733.583l-.344 1.203c-.053.186-.205.27-.396.21zm5.26 7.205c-1.48 0-2.41-.862-2.41-2.47V39.87h-1.667l.382-1.322c.03-.096.102-.2.25-.22l1.034-.145.41-2.608s1.204-.17 1.395-.2c.18-.026.344.104.344.3v2.508h2.11v1.688h-2.11v4.7c0 .643.39.888.764.888.23 0 .542-.12.776-.23.145-.067.37-.017.427.185L50 46.54c-.235.152-.977.565-2.03.565z" fill="#000"/></g></svg>