<svg xmlns="http://www.w3.org/2000/svg" width="60" height="60" viewBox="0 0 60 60"><title>hastebin</title><desc>Created with Sketch.</desc><path d="M17.48 13l-1.995 17.425s2.43-3.158 5.314-3.116c2.197.03 3.267.48 4.347 1.442 1.12.95 1.68 2.194 1.68 3.735 0 .37-.02.787-.06 1.255-.04.468-.09.998-.157 1.59 0 0-2.33 9.82 2.144 7.98 0 1.53-.445 2.605-1.108 2.848-1.22.447-2.728.45-3.608 0-1.146-.588-1.93-2.13-1.65-4.81.285-2.747.422-4.712.643-6.5.426-3.438-1.625-3.884-3.575-3.884-2.793 0-4.42 1.89-4.882 5.672l-1.206 9.743H9L13.11 13h4.368zm22.352 0l-2.036 16.483c1.146-.856 2.14-1.43 2.984-1.72.883-.302 1.838-.454 2.866-.454 2.53 0 7.672 1.666 7.34 9.485-.366 8.573-5.594 10.02-8.308 10.02-2.53 0-4.743-.974-6.64-2.924l-.317 2.49h-3.704L36.126 13h3.706zm8.146 23.527c0-1.99-.52-3.618-1.56-4.882-1.04-1.264-2.39-1.896-4.054-1.896-1.802 0-3.292.757-4.47 2.274-1.178 1.485-1.767 3.405-1.767 5.76 0 1.974.506 3.562 1.518 4.763 1.012 1.232 2.33 1.85 3.95 1.85 1.79 0 3.293-.767 4.513-2.3 1.248-1.533 1.87-3.39 1.87-5.57z"/></svg>