<svg xmlns="http://www.w3.org/2000/svg" width="60" height="60" viewBox="0 0 60 60"><title>help</title><desc>Created with Sketch.</desc><g fill="none"><path d="M30 58.75c15.878 0 28.75-12.872 28.75-28.75S45.878 1.25 30 1.25 1.25 14.122 1.25 30 14.122 58.75 30 58.75zM30 60C13.43 60 0 46.57 0 30S13.43 0 30 0s30 13.43 30 30-13.43 30-30 30z" fill-opacity=".011" fill="#fff"/><path d="M10.1 28c-.067.658-.1 1.325-.1 2s.033 1.342.1 2h8.066c-.11-.65-.166-1.32-.166-2 0-.68.057-1.35.166-2H10.1zm.3-2c1.59-7.837 7.763-14.01 15.6-15.6v8.283c-3.41 1.205-6.112 3.907-7.317 7.317H10.4zm0 8c1.59 7.837 7.763 14.01 15.6 15.6v-8.283c-3.41-1.205-6.112-3.907-7.317-7.317H10.4zM32 49.9c-.658.067-1.325.1-2 .1s-1.342-.033-2-.1v-8.066c.65.11 1.32.166 2 .166.68 0 1.35-.057 2-.166V49.9zm2-.3c7.837-1.59 14.01-7.763 15.6-15.6h-8.283c-1.205 3.41-3.907 6.112-7.317 7.317V49.6zM49.9 28c.067.658.1 1.325.1 2s-.033 1.342-.1 2h-8.066c.11-.65.166-1.32.166-2 0-.68-.057-1.35-.166-2H49.9zm-.3-2c-1.59-7.837-7.763-14.01-15.6-15.6v8.283c3.41 1.205 6.112 3.907 7.317 7.317H49.6zM32 10.1c-.658-.067-1.325-.1-2-.1s-1.342.033-2 .1v8.066c.65-.11 1.32-.166 2-.166.68 0 1.35.057 2 .166V10.1zM30 53c12.703 0 23-10.297 23-23S42.703 7 30 7 7 17.297 7 30s10.297 23 23 23zm0-13c5.523 0 10-4.477 10-10s-4.477-10-10-10-10 4.477-10 10 4.477 10 10 10z" fill="#000"/></g></svg>