<svg xmlns="http://www.w3.org/2000/svg" xmlns:xlink="http://www.w3.org/1999/xlink" width="512" height="2888" viewBox="0 0 512 2888"><svg viewBox="0 0 100 100" enable-background="new 0 0 100 100" width="100" height="100" id="bookmarks" y="0"><path d="M81.7 48.6L54.1 20.9c-.9-.9-2.5-.9-3.4 0L20.2 51.2c-.5.5-.7 1.1-.7 1.8v27.7c0 1.3 1.1 2.4 2.4 2.4H49.6c.6 0 1.3-.3 1.8-.8L81.7 52c1-.9 1-2.5 0-3.4zM48.6 78.3H24.3V54l28-28 24.3 24.3-28 28zM34.7 60.6c-4 0-7.3 3.3-7.3 7.2 0 4 3.3 7.2 7.3 7.2s7.3-3.2 7.3-7.2c0-3.9-3.3-7.2-7.3-7.2zm0 11.6c-2.4 0-4.3-2-4.3-4.3s1.9-4.3 4.3-4.3 4.4 2 4.4 4.3c0 2.4-2 4.3-4.4 4.3z"/></svg><svg viewBox="0 0 100 100" enable-background="new 0 0 100 100" width="100" height="100" id="calendar" y="100"><path d="M44.5 50.7c.6.6 1.5 1 2.4 1 .9 0 1.8-.4 2.4-1 .6-.6 1-1.5 1-2.4 0-.9-.4-1.8-1-2.4-.6-.6-1.5-1-2.4-1-.9 0-1.8.4-2.4 1-.6.6-1 1.5-1 2.4 0 .9.4 1.8 1 2.4zm1.6-3.1c.2-.2.4-.3.7-.3.3 0 .5.1.7.3.2.2.3.4.3.7 0 .3-.1.5-.3.7-.2.2-.4.3-.7.3-.3 0-.5-.1-.7-.3-.2-.2-.3-.4-.3-.7.1-.3.2-.5.3-.7zm-1.6 12c.6.6 1.5 1 2.4 1 .9 0 1.8-.4 2.4-1 .6-.6 1-1.5 1-2.4 0-.9-.4-1.8-1-2.4-.6-.6-1.5-1-2.4-1-.9 0-1.8.4-2.4 1-.6.6-1 1.5-1 2.4 0 1 .4 1.8 1 2.4zm1.6-3c.2-.2.4-.3.7-.3.3 0 .5.1.7.3.2.2.3.4.3.7 0 .3-.1.5-.3.7-.2.2-.4.3-.7.3-.3 0-.5-.1-.7-.3-.2-.2-.3-.4-.3-.7.1-.3.2-.6.3-.7zm16.6-5.9c.6.6 1.5 1 2.4 1 .9 0 1.8-.4 2.4-1 .6-.6 1-1.5 1-2.4 0-.9-.4-1.8-1-2.4-.6-.6-1.5-1-2.4-1s-1.8.4-2.4 1c-.6.6-1 1.5-1 2.4 0 .9.4 1.8 1 2.4zm1.7-3.1c.2-.2.4-.3.7-.3.3 0 .5.1.7.3.2.2.3.4.3.7 0 .3-.1.5-.3.7-.2.2-.4.3-.7.3-.3 0-.5-.1-.7-.3-.2-.2-.3-.4-.3-.7 0-.3.1-.5.3-.7zm-10.8 3.1c.6.6 1.4 1 2.4 1 .9 0 1.8-.4 2.4-1 .6-.6 1-1.5 1-2.4 0-.9-.4-1.8-1-2.4-.6-.6-1.5-1-2.4-1-.9 0-1.8.4-2.4 1-.6.6-1 1.5-1 2.4 0 .9.4 1.8 1 2.4zm1.7-3.1c.2-.2.4-.3.7-.3.3 0 .5.1.7.3.2.2.3.4.3.7 0 .3-.1.5-.3.7-.2.2-.4.3-.7.3-.3 0-.5-.1-.7-.3-.2-.2-.3-.4-.3-.7 0-.3.1-.5.3-.7zm-10.8 21c.6.6 1.5 1 2.4 1 .9 0 1.8-.4 2.4-1 .6-.6 1-1.5 1-2.4 0-.9-.4-1.8-1-2.4-.6-.6-1.5-1-2.4-1-.9 0-1.8.4-2.4 1-.6.6-1 1.4-1 2.4 0 .9.4 1.8 1 2.4zm1.6-3.1c.2-.2.4-.3.7-.3.3 0 .5.1.7.3.2.2.3.4.3.7 0 .3-.1.5-.3.7-.2.2-.4.3-.7.3-.3 0-.5-.1-.7-.3-.2-.2-.3-.4-.3-.7.1-.3.2-.5.3-.7zm29-39.7H27.7c-1.1 0-2 .9-2 2v47.4c0 1.1.9 2 2 2h47.4c1.1 0 2-.9 2-2V27.7c0-1.1-.9-1.9-2-1.9zm-2 47.3H29.7V41.2h43.4v31.9zm0-34.2H29.7v-9.2h3.9v2.9c0 1.1.9 2 2 2s2-.9 2-2v-2.9h6.6v2.9c0 1.1.9 2 2 2s2-.9 2-2v-2.9h6.6v2.9c0 1.1.9 2 2 2s2-.9 2-2v-2.9h6.6v2.9c0 1.1.9 2 2 2s2-.9 2-2v-2.9h3.9v9.2h-.2zM53.6 68.6c.6.6 1.4 1 2.4 1 .9 0 1.8-.4 2.4-1 .6-.6 1-1.5 1-2.4 0-.9-.4-1.8-1-2.4-.6-.6-1.5-1-2.4-1-.9 0-1.8.4-2.4 1-.6.6-1 1.4-1 2.4 0 .9.4 1.8 1 2.4zm1.7-3.1c.2-.2.4-.3.7-.3.3 0 .5.1.7.3.2.2.3.4.3.7 0 .3-.1.5-.3.7-.2.2-.4.3-.7.3-.3 0-.5-.1-.7-.3-.2-.2-.3-.4-.3-.7 0-.3.1-.5.3-.7zm-19.9-5.9c.6.6 1.5 1 2.4 1 .9 0 1.8-.4 2.4-1 .6-.6 1-1.5 1-2.4 0-.9-.4-1.8-1-2.4-.6-.6-1.5-1-2.4-1-.9 0-1.8.4-2.4 1-.6.6-1 1.5-1 2.4 0 1 .4 1.8 1 2.4zm1.6-3c.2-.2.4-.3.7-.3.3 0 .5.1.7.3.2.2.3.4.3.7 0 .3-.1.5-.3.7-.2.2-.4.3-.7.3-.3 0-.5-.1-.7-.3-.2-.2-.3-.4-.3-.7.1-.3.2-.6.3-.7zm-1.6 12c.6.6 1.5 1 2.4 1 .9 0 1.8-.4 2.4-1 .6-.6 1-1.5 1-2.4 0-.9-.4-1.8-1-2.4-.6-.6-1.5-1-2.4-1-.9 0-1.8.4-2.4 1-.6.6-1 1.4-1 2.4 0 .9.4 1.8 1 2.4zm1.6-3.1c.2-.2.4-.3.7-.3.3 0 .5.1.7.3.2.2.3.4.3.7 0 .3-.1.5-.3.7-.2.2-.4.3-.7.3-.3 0-.5-.1-.7-.3-.2-.2-.3-.4-.3-.7.1-.3.2-.5.3-.7zm16.6-5.9c.6.6 1.4 1 2.4 1 .9 0 1.8-.4 2.4-1 .6-.6 1-1.5 1-2.4 0-.9-.4-1.8-1-2.4-.6-.6-1.5-1-2.4-1-.9 0-1.8.4-2.4 1-.6.6-1 1.5-1 2.4 0 1 .4 1.8 1 2.4zm1.7-3c.2-.2.4-.3.7-.3.3 0 .5.1.7.3.2.2.3.4.3.7 0 .3-.1.5-.3.7-.2.2-.4.3-.7.3-.3 0-.5-.1-.7-.3-.2-.2-.3-.4-.3-.7 0-.3.1-.6.3-.7zm7.4 3c.6.6 1.4 1 2.4 1s1.8-.4 2.4-1c.6-.6 1-1.5 1-2.4 0-.9-.4-1.8-1-2.4-.6-.6-1.5-1-2.4-1s-1.8.4-2.4 1c-.6.6-1 1.5-1 2.4 0 1 .4 1.8 1 2.4zm1.7-3c.2-.2.4-.3.7-.3.3 0 .5.1.7.3.2.2.3.4.3.7 0 .3-.1.5-.3.7-.2.2-.4.3-.7.3-.3 0-.5-.1-.7-.3-.2-.2-.3-.4-.3-.7 0-.3.1-.6.3-.7z"/></svg><svg viewBox="0 0 100 100" enable-background="new 0 0 100 100" width="100" height="100" id="contacts" y="200"><path d="M70.4 30.9c1.1 0 2 .9 2 2v41.5c0 1.1-.9 2-2 2H36.2c-1.9 0-3.7-.4-5-1.1-1.7-.9-2.8-2.2-2.8-3.8V29.9c0-1.6 1.1-2.9 2.8-3.8 1.3-.7 3.1-1.1 5-1.1h34.2c1.1 0 2 .9 2 2s-.9 2-2 2H36.2c-1.3 0-2.5.3-3.3.7l-.6.3s.3.1.6.3c.8.4 2 .7 3.3.7h34.2v-.1zM41.7 65.5c0 .7-.5 1.2-1.2 1.2s-1.2-.5-1.2-1.2c0-1.8.7-3.2 1.8-4.1 1.4-1.4 3.4-2 4.5-2.1.2 0 .3-.1.4-.2l.1-.1c-.9-.8-1.3-1.8-1.6-2.6-.2-.4-.3-.7-.3-.8-.4-.4-1-1.1-1.3-1.9-.3-.8-.4-1.7 0-2.5-.2-.7-.3-1.5-.3-2.3 0-1 .2-2.1.5-3.1.5-1.4 1.3-2.5 2.4-3.2 1.1-.7 2.5-1.1 4-1.1.6 0 1.3 0 2.1.1.8.2 1.7.5 2.2 1.2 1 0 1.9.5 2.6 1.4.9 1 1.5 2.5 1.6 3.3.1.7.1 1.3 0 2-.1.5-.2 1.1-.3 1.6.5.9.4 1.8.1 2.6v.1c-.3.8-.9 1.5-1.3 1.9-.1.1-.2.4-.3.8-.3.8-.7 1.8-1.6 2.6 0 0 0 .1.1.1.1.1.3.2.4.2 1.2.1 3.1.7 4.6 2.1 1 1 1.8 2.3 1.8 4.1 0 .7-.5 1.2-1.2 1.2s-1.2-.5-1.2-1.2c0-1.1-.4-1.9-1-2.4-1-.9-2.3-1.3-3.1-1.4-.7-.1-1.4-.4-1.9-.9s-.8-1.2-.8-1.9v-.4c0-.4.2-.8.6-1 .6-.4.9-1.2 1.2-1.9.3-.6.5-1.2.9-1.6.2-.2.5-.6.7-1V53c.1-.3.1-.5 0-.7-.2-.2-.3-.4-.3-.7V51c.2-.6.3-1.1.4-1.7.1-.5.1-1 0-1.4-.1-.6-.5-1.5-1.1-2.2-.4-.5-.7-.7-.9-.7-.4.1-.8 0-1.1-.2-.3-.1-.6-.4-.8-.7V44c-.1-.2-.4-.3-.8-.3-.5-.1-1.2-.1-1.6-.1-1.1 0-2 .3-2.8.7-.6.4-1.1 1.1-1.4 2-.2.7-.4 1.5-.4 2.3 0 .7.1 1.4.4 2 .2.4.1 1-.2 1.3-.2.2-.1.5 0 .7.2.4.5.8.7 1 .5.4.7 1 1 1.7.3.7.6 1.5 1.2 1.9.3.2.6.6.6 1v.4c0 .8-.3 1.4-.8 1.9s-1.2.8-1.9.9c-.8.1-2.2.5-3.1 1.4-.6.8-1.1 1.6-1.1 2.7zm-5.5-30.7c-1.4 0-2.8-.2-3.9-.6v37.2l.6.3c.8.4 2 .7 3.3.7h32.2V34.8H36.2z"/></svg><svg viewBox="0 0 100 100" enable-background="new 0 0 100 100" width="100" height="100" id="cozic" y="300"><path d="M62.1 35.4c-.7 0-1.3-.6-1.3-1.2 0-.7.6-1.3 1.3-1.3h13.3c.7 0 1.3.6 1.3 1.3 0 .7-.6 1.2-1.3 1.2H62.1zM42 61.2V25.8c0-1.2.9-2.1 2.1-2.1 1.2 0 2.1.9 2.1 2.1 0 .2.2 1.5 4.7 3 1.2.4 2.3.9 3.2 1.6 1 .7 1.8 1.5 2.4 2.3 1.8 2.6 1.8 5.7.9 8.9-1.1 3.7-3.6 7.4-6.1 10.1-.8.9-2.1.9-2.9.2-.9-.8-.9-2.1-.2-2.9 2.1-2.3 4.3-5.5 5.2-8.5.6-2 .7-3.9-.3-5.3-.3-.5-.7-.9-1.3-1.3-.6-.4-1.3-.8-2.2-1.1-1.3-.5-2.5-1-3.4-1.5V68.6c0 2.7-1.4 5.1-3.5 6.8-4.4 3.5-11.4 3.5-15.9 0-4.7-3.7-4.6-10.1 0-13.8 4.2-3.3 10.7-3.5 15.2-.4zm-2 3.7c-2.9-2.3-7.7-2.3-10.7 0-2.6 2-2.6 5.3 0 7.3 2.9 2.3 7.7 2.3 10.7 0 2.6-2.1 2.6-5.3 0-7.3zm22.1-21.1c-.7 0-1.3-.6-1.3-1.3 0-.7.6-1.3 1.3-1.3h13.3c.7 0 1.3.6 1.3 1.3 0 .7-.6 1.3-1.3 1.3H62.1zm-5 8.4c-.7 0-1.3-.6-1.3-1.2 0-.7.6-1.3 1.3-1.3h18.3c.7 0 1.3.6 1.3 1.3 0 .7-.6 1.2-1.3 1.2H57.1zm-6.6 8.3c-.7 0-1.3-.6-1.3-1.3 0-.7.6-1.3 1.3-1.3h25c.7 0 1.3.6 1.3 1.3 0 .7-.6 1.3-1.3 1.3h-25zm0 8.4c-.7 0-1.3-.6-1.3-1.2 0-.7.6-1.3 1.3-1.3h25c.7 0 1.3.6 1.3 1.3 0 .7-.6 1.2-1.3 1.2h-25z"/></svg><svg viewBox="0 0 100 100" enable-background="new 0 0 100 100" width="100" height="100" id="databrowser" y="400"><path d="M79.1 75.9L68.7 65.4c1.7-2 3.1-4.3 4.1-6.7 1.3-3.1 2-6.5 2-10.1 0-3.5-.7-6.8-1.9-9.9v-.1c-1.3-3.2-3.2-6-5.6-8.4l-.3-.1c-2.4-2.4-5.3-4.4-8.5-5.7-3.1-1.3-6.5-2-10-2-7.3 0-13.8 2.9-18.6 7.7-2.4 2.4-4.4 5.3-5.7 8.5-1.3 3.1-2 6.5-2 10s.7 6.9 1.9 9.9l.1.1c1.3 3.2 3.3 6.1 5.7 8.5 2.4 2.4 5.3 4.4 8.5 5.7 3.1 1.3 6.5 2 10 2s6.9-.7 10.1-2c2.4-1 4.7-2.4 6.7-4.1l10.4 10.4c.9.9 2.5.9 3.4 0 1-.8 1-2.3.1-3.2zM63.6 63.8c-2 2-4.4 3.6-7 4.7-2.5 1-5.3 1.6-8.2 1.6-2.9 0-5.7-.6-8.2-1.6-2.6-1.1-5-2.7-7-4.7s-3.6-4.3-4.7-7v-.1c-1-2.5-1.6-5.2-1.6-8.1 0-2.9.6-5.7 1.6-8.2 1.1-2.6 2.7-5 4.7-7 3.9-3.9 9.2-6.3 15.2-6.3 2.9 0 5.7.6 8.2 1.6 2.6 1.1 5 2.7 7 4.7l.1.1c1.9 1.9 3.5 4.3 4.5 6.9l.1.1c1 2.5 1.6 5.2 1.6 8.1 0 2.9-.6 5.7-1.6 8.2-1.1 2.7-2.7 5-4.7 7zM41.8 33c-1 .4-2 1-2.9 1.5-.9.6-1.8 1.3-2.5 2.1-.8.8-1.5 1.6-2.1 2.5-.6.9-1.1 1.8-1.6 2.9-.3.7 0 1.6.8 1.9.7.3 1.6 0 1.9-.8.4-.8.8-1.6 1.3-2.4.5-.8 1.1-1.5 1.7-2.1.7-.6 1.4-1.2 2.1-1.7.8-.5 1.6-.9 2.4-1.3.7-.3 1.1-1.2.8-1.9-.3-.7-1.1-1-1.9-.7zM64 47.2c-.8 0-1.4.7-1.4 1.5 0 1.8-.4 3.7-1.1 5.4v.1c-.7 1.6-1.7 3.2-3 4.5-1.3 1.4-2.9 2.4-4.6 3.1-1.7.7-3.6 1.1-5.4 1.1-.8 0-1.5.6-1.5 1.5 0 .8.7 1.4 1.5 1.4 2.2 0 4.4-.4 6.5-1.3 2-.8 3.9-2.1 5.5-3.7s2.8-3.5 3.7-5.5c.9-2.1 1.3-4.3 1.3-6.5 0-.9-.7-1.6-1.5-1.6z"/></svg><svg viewBox="0 0 100 100" enable-background="new 0 0 100 100" width="100" height="100" id="emails" y="500"><path d="M76.2 43.9c.1.1.2.1.2.2l.1.1.1.1v31c0 1.2-.9 2.1-2.1 2.1H27.6c-1.2 0-2.1-.9-2.1-2.1V45.6c0-.7.3-1.3.9-1.7l3.5-2.9.2-.2v-8.5c0-.7.6-1.3 1.3-1.3h10.7c.1-.1.2-.3.4-.4l7.5-6.2c.8-.6 1.9-.7 2.7 0l7.6 6.2c.1.1.2.2.3.4h10.7c.7 0 1.3.6 1.3 1.3v8.4l.1.1 3.5 3.1zm-43.6 1.7v2.5l18.5 15.1h.4L70 48.1V33.6H32.6v12zm-2.9 3.3v25.5H73V48.9c-6.7 5.5-13.5 11-20.2 16.5-.2.2-.5.3-.8.3h-1.3c-.3 0-.6-.1-.8-.3-6.8-5.5-13.5-11-20.2-16.5zm18.9-17.8H54l-2.7-2.2-2.7 2.2z"/></svg><svg viewBox="0 0 100 100" enable-background="new 0 0 100 100" width="100" height="100" id="feeds" y="600"><path d="M40.4 68.7c-.7 0-1.2-.5-1.2-1.2s.5-1.2 1.2-1.2H69c.7 0 1.2.6 1.2 1.2 0 .7-.5 1.2-1.2 1.2H40.4zm0-35.2c-.7 0-1.2.5-1.2 1.2v8.5c0 .7.5 1.2 1.2 1.2h28.5c.7 0 1.2-.5 1.2-1.2v-8.5c0-.7-.5-1.2-1.2-1.2H40.4zm1.2 8.5v-6.1h26.1V42H41.6zm-9-.3h-4.4v28.2c0 2.8 4.4 2.9 4.4 0V41.7zm-2.2 34.4c-1.7 0-3.3-.7-4.4-1.8-1.1-1.1-1.8-2.7-1.8-4.4V39.7c0-1.1.9-2 2-2h6.4v-9c0-1.1.9-2 2-2h39.9c1.1 0 2 .9 2 2V70c0 1.7-.7 3.3-1.8 4.4-1.1 1.1-2.7 1.8-4.4 1.8H30.4v-.1zm42.2-6.3V30.6h-36v39.2c0 .8-.1 1.5-.4 2.2h34.2c.6 0 1.2-.2 1.6-.6.4-.4.6-.9.6-1.6zM56 46.9h12.9c.7 0 1.2.5 1.2 1.2v6.4c0 .7-.5 1.2-1.2 1.2H56c-.7 0-1.2-.5-1.2-1.2v-6.4c0-.7.5-1.2 1.2-1.2zm11.7 2.4H57.2v4h10.5v-4zm-27.3 0c-.7 0-1.2-.5-1.2-1.2s.5-1.2 1.2-1.2h11.8c.7 0 1.2.6 1.2 1.2 0 .7-.5 1.2-1.2 1.2H40.4zm0 6.5c-.7 0-1.2-.5-1.2-1.2s.5-1.2 1.2-1.2h11.8c.7 0 1.2.5 1.2 1.2s-.5 1.2-1.2 1.2H40.4zm0 6.4c-.7 0-1.2-.6-1.2-1.2 0-.7.5-1.2 1.2-1.2H69c.7 0 1.2.5 1.2 1.2s-.5 1.2-1.2 1.2H40.4z"/></svg><svg viewBox="0 0 100 100" enable-background="new 0 0 100 100" width="100" height="100" id="files" y="700"><path d="M35.4 28.3h20.5c.5 0 .9.2 1.2.5l12.5 12.5c.3.3.5.8.5 1.2v26c0 1.3-.5 2.4-1.3 3.3-.8.8-2 1.3-3.2 1.3H35.4c-1.3 0-2.4-.5-3.3-1.4-.8-.8-1.4-2-1.4-3.3V32.9c0-1.3.5-2.4 1.4-3.3.9-.8 2.1-1.3 3.3-1.3zm19.5 3.4H35.4c-.3 0-.6.1-.8.3-.2.2-.3.5-.3.8v35.7c0 .3.1.6.3.8.2.2.5.3.8.3h30.1c.3 0 .6-.1.8-.3.2-.2.3-.5.3-.8v-25h-7.9c-1.1 0-2.1-.4-2.8-1.2h.1c-.7-.7-1.1-1.7-1.1-2.7v-7.9zm10 9.8l-8-8v6.1c0 .5.2.9.5 1.3v.1c.3.3.8.5 1.3.5h6.2z"/></svg><svg width="128" height="128" viewBox="0 0 671.98 288" enable-background="new 0 0 671.98 288" id="ghost" y="800"><g><path d="M112.197 168.302H143.9v15.852h-31.703zM159.75 168.302h31.683v15.852H159.75zM112.173 136.6h79.27v15.85h-79.27zM112.197 104.898h47.56v15.85h-47.56zM175.602 104.898h15.85v15.85h-15.85zM421.575 104.807c-25.458 0-38.606 18.003-38.606 40.21 0 22.21 12.823 40.215 38.605 40.215s38.606-18.005 38.606-40.214c.002-22.208-13.148-40.21-38.605-40.21zm19.26 40.283c-.018 14.28-4.83 25.848-19.26 25.848s-19.243-11.566-19.258-25.848V145.02c.015-14.28 4.83-25.847 19.26-25.847 14.428 0 19.24 11.566 19.258 25.846v.07zM307.584 184.153V72.975s14.664-2.083 15.8-2.236c1.29-.175 3 .742 3 2.555v41.214c3.042-2.894 6.393-5.226 10.045-7.003 3.654-1.775 7.94-2.664 12.864-2.664 4.263 0 8.04.723 11.338 2.17 3.3 1.444 6.053 3.476 8.26 6.087 2.207 2.615 3.882 5.735 5.024 9.363 1.14 3.628 1.712 7.624 1.712 11.988v49.702h-18.8v-49.7c0-4.77-1.104-8.462-3.31-11.077-2.21-2.612-5.52-3.92-9.936-3.92-3.247 0-6.29.737-9.13 2.21-2.843 1.472-5.532 3.474-8.07 6.013v56.475h-18.798zM558.565 185.224c-12.937 0-21.045-7.53-21.045-21.575v-41.63h-14.58l3.344-11.56c.246-.844.887-1.75 2.174-1.93l9.044-1.26 3.583-22.794s10.527-1.484 12.196-1.733c1.577-.236 3.006.9 3.006 2.616v21.91h18.44v14.75h-18.44v41.068c0 5.607 3.414 7.75 6.686 7.75 2 0 4.74-1.062 6.783-2.01 1.263-.584 3.22-.15 3.726 1.612l2.825 9.853c-2.05 1.324-8.534 4.93-17.74 4.93zM512.61 122.267c-3.665-1.19-10.552-3.095-17.103-3.095-6.675 0-11.927 2.306-11.927 7.856 0 6.932 11.32 8.95 19.067 11.776 5.18 1.89 19.07 5.572 19.07 20.512 0 18.148-15.07 25.907-31.147 25.907-16.08 0-25.578-5.98-25.578-5.98s2.494-8.81 3-10.55c.456-1.564 2.275-2.113 3.434-1.668 4.138 1.595 11.61 3.812 20.056 3.812 8.55 0 12.688-2.61 12.688-8.177 0-7.408-11.547-9.672-19.184-12.08-5.26-1.66-19.186-5.526-19.186-21.957 0-16.186 14.213-23.78 29.403-23.78 12.858 0 19.165 2.69 23.876 5.09l-3.016 10.51c-.46 1.62-1.79 2.364-3.455 1.824zM300.245 107.523c0-1.75-1.496-2.753-2.923-2.59-6.31.723-10.81 3.692-13.722 6.456-5.718-4.48-13.655-6.62-22.563-6.62-17.86 0-31.814 8.62-31.814 27.416 0 10.79 4.593 18.225 11.887 22.602-5.417 2.564-9.025 8.005-9.025 13.354 0 8.948 7.07 11.75 7.07 11.75s-12.36 6-12.36 18c0 15.365 14.138 21.577 31.415 21.577 24.904 0 42.038-10.287 42.038-29.174 0-11.624-8.895-18.04-28.28-18.804-11.502-.454-18.953-.868-20.8-1.48-2.438-.81-3.637-2.762-3.637-4.918 0-2.38 1.956-4.646 5.038-6.202 2.688.476 5.525.71 8.47.71 17.876 0 31.816-8.594 31.816-27.415 0-4.564-.824-8.526-2.322-11.91 2.626-1.402 5.857-2.388 9.715-2.388-.002 0-.002-8.77-.002-10.367zm-49.22 76.727s9.38.355 18.752.79c10.53.486 13.81 2.755 13.81 8.207 0 6.66-9.15 13.14-21.937 13.14-12.138 0-18.2-4.223-18.2-11.254 0-4.034 2.13-8.547 7.576-10.883zm10.046-37.767c-8.46 0-15.06-4.494-15.06-14.297 0-9.804 6.606-14.298 15.06-14.298 8.457 0 15.063 4.482 15.063 14.298s-6.598 14.297-15.062 14.297z"/></g></svg><svg height="512" viewBox="0 0 512 512" width="512" id="help" y="928"><path d="M256 48C141.1 48 48 141.1 48 256s93.1 208 208 208 208-93.1 208-208S370.9 48 256 48zm0 398.7c-105.1 0-190.7-85.5-190.7-190.7 0-105.1 85.5-190.7 190.7-190.7 105.1 0 190.7 85.5 190.7 190.7 0 105.1-85.6 190.7-190.7 190.7zM259.6 146c-43.2 0-67.3 20.3-67.6 62.2h18.8c-.6-30.4 15.5-46.5 47.9-46.5 23.2 0 42.6 16.2 42.6 39.8 0 15.3-8.3 27.7-19.4 38.1-22.6 20.8-29 36-30.1 64.5h19c1.1-25.8.5-30.7 23.3-53.3 15.2-14.2 25.9-28.3 25.9-50.2 0-34.2-27.4-54.6-60.4-54.6zM260.3 332.3c-9.4 0-17 7.5-17 16.8s7.6 16.9 17 16.9 17-7.5 17-16.9c0-9.3-7.6-16.8-17-16.8z"/></svg><svg viewBox="0 0 100 100" enable-background="new 0 0 100 100" width="100" height="100" id="konnectors" y="1440"><path d="M67.7 60.6c1.9 0 3.7-.8 4.9-2 1.3-1.3 2.1-3 2.1-5 0-1.7-.6-3.3-1.6-4.5-1-1.2-2.5-2.1-4.2-2.4-1.1-.2-1.8-1.1-1.8-2.2 0-4.2-1.7-7.9-4.4-10.7-2.7-2.7-6.5-4.4-10.7-4.4-3.1 0-5.9.9-8.3 2.5-2.4 1.6-4.4 3.9-5.6 6.7-.4.8-1.1 1.3-2 1.3-2.7.2-5.1 1.4-6.9 3.2-1.8 1.9-2.8 4.4-2.8 7.1 0 2.9 1.2 5.5 3 7.3 1.7 1.7 3.8 2.6 6 2.9 2.8.4 2.2 4.7-.6 4.3-3.2-.4-6.2-1.8-8.6-4.2-2.7-2.7-4.3-6.4-4.3-10.4 0-3.9 1.5-7.5 4-10.1 2.2-2.3 5.2-4 8.5-4.5 1.5-3 3.8-5.6 6.7-7.4 3.1-2 6.8-3.2 10.7-3.2 5.4 0 10.2 2.2 13.8 5.7 3.1 3.1 5.2 7.4 5.6 12.1 2 .7 3.7 1.9 5 3.5 1.7 2 2.7 4.5 2.7 7.3 0 3.1-1.3 6-3.3 8.1-1.8 1.8-4.2 3-6.9 3.3-.2 0-.3.1-.5.1h-1.8c-1.2 0-2.2-1-2.2-2.2 0-1.2 1-2.2 2.2-2.2h1.3zM49.6 76.8l.1.1.1.1c.1 0 .1 0 .2.1h.7c.1 0 .1 0 .2-.1h.1c.1 0 .1-.1.1-.1h.1L62 66.3c.5-.5.5-1.3 0-1.9-.5-.5-1.3-.5-1.9 0l-8.3 8.3V42.6c0-.7-.6-1.3-1.3-1.3-.7 0-1.3.6-1.3 1.3v30.1l-8.3-8.3c-.5-.5-1.3-.5-1.9 0-.5.5-.5 1.3 0 1.9l10.6 10.5zm.9.4z"/></svg><svg viewBox="0 0 100 100" enable-background="new 0 0 100 100" width="100" height="100" id="kresus" y="1540"><path d="M50.7 24.1c2.7 0 5.2 1.1 6.9 2.9l.1.1c1.7 1.8 2.8 4.2 2.8 6.9v.4c.4.1.8.3 1.2.4l6.6-3.9c1-.6 2.4-.3 3 .8.3.5.4 1 .2 1.6L70.1 40c.9.9 1.7 1.8 2.4 2.7.7.9 1.2 1.8 1.7 2.8h.3c1.3 0 2.5.5 3.4 1.4.9.9 1.4 2.1 1.4 3.4V57c0 1.3-.5 2.5-1.4 3.4-.9.9-2.1 1.4-3.4 1.4h-.3c-.6 1.2-1.3 2.3-2.1 3.3-.7 1-1.6 1.9-2.5 2.7l1 1.6.1.2c.8 1.4.9 3 .5 4.5s-1.4 2.9-2.9 3.7l-.1.1c-1.4.8-3.1.9-4.5.5-1.5-.4-2.9-1.4-3.7-2.9l-.1-.1-1.1-1.9c-.8.2-1.7.4-2.6.5-1.5.2-3 .4-4.5.4s-3-.1-4.5-.4c-.9-.1-1.8-.3-2.6-.5l-1.2 2.1c-.8 1.5-2.2 2.5-3.7 2.9h-.1c-1.5.4-3.1.2-4.5-.7H35c-1.4-.8-2.4-2.2-2.8-3.7-.4-1.5-.2-3.2.6-4.6l1-1.6c-1.8-1.7-3.4-3.6-4.5-5.7-1.2-2.3-2-4.9-2.1-7.5l-.3-.1h-.1c-.7-.3-1.4-.8-2-1.4-1.2-1.2-1.9-2.8-1.9-4.5 0-1.7.7-3.3 1.9-4.5.5-.5 1.4-.5 1.9 0s.5 1.3 0 1.9c-.7.7-1.1 1.7-1.1 2.7 0 1 .4 2 1.1 2.7.2.2.4.3.6.5.5-5 3.2-9.5 7.2-12.8 1.9-1.6 4.1-2.9 6.5-3.9v-1c0-2.7 1.1-5.1 2.9-6.9 1.6-2.2 4.1-3.3 6.8-3.3zm.9 8.8c1.9 0 3.9.2 5.7.6l.5.1c-.1-1.8-.8-3.5-2-4.7l-.1-.1c-1.3-1.3-3.1-2.1-5.1-2.1-2 0-3.8.8-5.1 2.1-1.3 1.3-2.1 3.1-2.1 5.1v.1c2.6-.7 5.4-1.1 8.2-1.1zm4.8 4.9c-1.5-.3-3.2-.5-4.9-.5-5.6 0-10.7 1.9-14.4 4.9-3.5 2.9-5.7 7-5.7 11.4 0 2.3.6 4.5 1.6 6.4 1.1 2.1 2.7 3.9 4.7 5.5.9.7 1.1 1.9.6 2.9l-1.8 3.1c0 .1-.1.2-.1.3-.2.4-.2.8-.1 1.2.1.4.4.8.7 1l.2.1c.4.2.8.2 1.2.1h.1c.4-.1.8-.4 1-.8l2-3.5c.5-1 1.6-1.4 2.6-1.1 1.2.4 2.4.7 3.7.9 1.2.2 2.5.3 3.8.3 1.3 0 2.6-.1 3.8-.3 1.2-.2 2.4-.5 3.7-.9 1-.3 2 .1 2.6 1l2 3.4c.1.1.1.2.2.3.2.4.6.6 1 .7.4.1.8.1 1.2-.1l.2-.1c.3-.2.6-.6.7-1 .1-.4.1-.8-.1-1.2 0-.1-.1-.2-.2-.3l-1.8-3.1c-.5-.9-.3-2.2.6-2.9 1.2-.9 2.3-2 3.2-3.2.9-1.1 1.6-2.3 2.1-3.5.3-.9 1.1-1.5 2.1-1.5h1.7c.1 0 .2-.1.3-.1.1-.1.1-.2.1-.3v-6.6c0-.1 0-.2-.1-.3-.1-.1-.2-.1-.3-.1h-1.7c-.9 0-1.7-.5-2-1.4-.5-1.1-1.1-2.2-1.8-3.2s-1.6-2-2.6-2.8c-.6-.5-.9-1.3-.8-2.1l.7-3.2L63 39c-.6.4-1.4.5-2.1.2-1.3-.6-2.9-1.1-4.5-1.4zm8.3 8.2c-1.1 0-2 .4-2.7 1.1-.7.7-1.1 1.6-1.1 2.7s.4 2 1.1 2.7c.7.7 1.6 1.1 2.7 1.1 1 0 2-.4 2.7-1.1.7-.7 1.1-1.6 1.1-2.7 0-1-.4-1.9-1-2.6l-.1-.1c-.7-.7-1.7-1.1-2.7-1.1zm.8 3c-.2-.2-.5-.3-.8-.3-.3 0-.6.1-.8.3-.2.2-.3.5-.3.8 0 .3.1.6.3.8.2.2.5.3.8.3.3 0 .6-.1.8-.3.2-.2.3-.5.3-.8 0-.3-.1-.6-.3-.8z"/></svg><svg viewBox="0 0 100 100" enable-background="new 0 0 100 100" width="100" height="100" id="kyou" y="1640"><path d="M76.9 72.7c.7 0 1.3.6 1.3 1.3 0 .7-.6 1.4-1.3 1.4H23c-.7 0-1.3-.6-1.3-1.4V27.6c0-.7.6-1.3 1.3-1.3.7 0 1.3.6 1.3 1.3v45.1h52.6zM55.4 55.9l.1.1c.5.3 1.2.3 1.7.2.6-.2 1.1-.6 1.5-1.1.3-.6.4-1.3.2-1.9-.2-.6-.5-1.1-1.1-1.5-.6-.3-1.2-.4-1.8-.3-.6.2-1.1.5-1.5 1.1l-.1.1c-.3.6-.3 1.2-.2 1.8.2.6.6 1.2 1.2 1.5zm13.7-11.4l-7.6 7.6.1.4c.3 1.3.2 2.7-.5 3.9-.7 1.2-1.8 2.1-3.1 2.4h-.1c-1.2.3-2.6.2-3.8-.5-1.2-.7-2.1-1.8-2.4-3.1-.3-1-.2-2 .1-3L48.6 49h-.4c-1 .3-2 .2-3-.1l-8.6 8.6.1.4c.3 1.3.2 2.7-.5 3.9-.7 1.2-1.9 2.1-3.1 2.4H33c-1.2.3-2.6.2-3.8-.5l-.1-.1c-1.2-.7-2-1.8-2.3-3.1-.3-1.3-.2-2.7.5-3.9.7-1.2 1.8-2 3.1-2.4h.1c1-.2 2-.2 3 .1l8.6-8.6-.1-.4c-.3-1.3-.2-2.7.5-3.9.7-1.2 1.8-2.1 3.1-2.4 1.3-.3 2.7-.2 3.9.5 1.2.7 2.1 1.8 2.4 3.1.3 1 .2 2-.1 3L55 49l.3-.1h.1c1-.2 2-.2 3 .1l7.6-7.6-.2-.4c-.3-1.3-.2-2.7.5-3.9.7-1.2 1.8-2 3.1-2.4 1.3-.3 2.7-.2 3.9.5 1.2.7 2.1 1.8 2.4 3.1.3 1.3.2 2.7-.5 3.9-.7 1.2-1.8 2-3.1 2.4-.9.3-2 .3-3-.1zM55.4 55.9zm-.8-3.4zm-10.1-7.8c.2.6.6 1.2 1.1 1.5.6.3 1.3.4 1.9.2.6-.2 1.2-.6 1.5-1.1.3-.6.4-1.3.2-1.8-.2-.6-.6-1.2-1.1-1.5-.6-.3-1.3-.4-1.9-.2-.6.2-1.2.6-1.5 1.1-.3.5-.3 1.2-.2 1.8zM29.4 59.8c.2.6.5 1.1 1.1 1.5.6.3 1.2.4 1.8.3.6-.2 1.2-.6 1.5-1.1.3-.6.4-1.3.2-1.9-.2-.6-.6-1.2-1.1-1.5-.6-.3-1.2-.4-1.8-.3-.6.2-1.1.6-1.5 1.2-.3.5-.4 1.2-.2 1.8zm39-19.5c.2.6.5 1.1 1.1 1.4l.1.1c.6.3 1.2.3 1.8.2.6-.2 1.1-.5 1.4-1.1l.1-.1c.3-.6.3-1.2.2-1.8-.2-.6-.5-1.1-1.1-1.4l-.1-.1c-.6-.3-1.2-.4-1.8-.2-.6.2-1.1.5-1.4 1.1l-.1.1c-.3.6-.3 1.2-.2 1.8zm1.1 1.4zm-.8-3.3z"/></svg><svg width="100" height="100" viewBox="0 0 100 100" id="leave-google" y="1740"><title>google-leave</title><desc>Created with Sketch.</desc><path d="M70.873 50.475h-21.01c-.853 0-1.545-.72-1.545-1.61 0-.89.692-1.61 1.546-1.61h21.01l-8.186-8.523c-.604-.63-.604-1.65 0-2.277.604-.63 1.583-.63 2.187 0L75.7 47.725c.604.63.604 1.65 0 2.278l-10.825 11.27c-.604.63-1.583.63-2.187 0-.604-.628-.604-1.647 0-2.276l8.185-8.522zM36.647.694v-8.856l-8.504-8.856H16.972c-1.705 0-3.097 1.44-3.097 3.215v35.434c0 1.774 1.387 3.215 3.1 3.215h26.274c1.714 0 3.098-1.444 3.098-3.225V29.61h-3.093c0 7.198-.003 14.492-.006 14.492 0 0-26.282 0-26.282.005 0 0 .002-35.43.004-35.43H36.53l6.726 7.005v7.487h3.092zM22.348 11.974c-.277 0-.928.016-1.704.16-1.835.343-4.37 1.59-5.088 4.19-1.11 4.02 1.748 5.616 1.748 5.616s1 .606 1.414.725c1.242.357 2.564.19 2.564.19s-.527 1.8.53 3.07c.25.302.068.313.068.313s-4.617-.123-6.803 2.268c-2.186 2.39-1 4.592-1 4.592s1.145 2.878 6.088 3.024c4.965.146 8.036-2.885 8.304-5.172.135-1.15-.017-2.227-.576-3.17-.543-.915-1.477-1.704-2.39-2.473-.566-.478-.96-.723-1.214-.998-.24-.26-.28-.594-.272-.845.012-.35.19-.78.787-1.49 1.088-1.3 1.364-1.137 2.02-2.11.198-.29.343-.715.545-1.348.122-.38.1-.776.1-1.143 0-.795-.184-1.552-.492-2.19-.572-1.186-1.555-1.956-1.574-2.014h1.722l1.95-1.177-6.58-.02h-.146zm-5.904-1.042c1.004.007 2.512.543 3.416 3.337 1.55 4.794-1.697 5.526-1.697 5.526s-3.72.59-4.405-3.673c-.697-4.344 1-4.58 1.664-5.008 0 0 .42-.187 1.022-.183zm1.64 14.393s2.965 1.87 3.243 3.243c.313 1.537.334 2.657-1.93 3.883-.667.363-1.84.405-2.577.408-1.815.008-3.185-.712-3.862-1.072-.352-.188-2.307-2.45-.86-4.473.364-.51.768-.735 1.143-.994.796-.553 1.58-.81 3.056-.943.49-.044 1.145-.007 1.787-.052z" fill="#000"/></svg><svg viewBox="0 0 100 100" enable-background="new 0 0 100 100" width="100" height="100" id="nirc" y="1840"><path d="M42.5 47c.9 0 1.7.4 2.3 1 .6.6 1 1.4 1 2.3 0 .9-.4 1.7-1 2.3-.6.6-1.4 1-2.3 1-.9 0-1.7-.4-2.3-1-.6-.6-1-1.4-1-2.3 0-.9.4-1.7 1-2.3.6-.6 1.4-1 2.3-1zm8.3-16.2c6.1 0 11.7 2.2 15.7 5.6 4.1 3.5 6.7 8.4 6.7 13.9 0 5.4-2.5 10.3-6.7 13.9-4 3.5-9.6 5.6-15.7 5.6-1.8 0-3.6-.2-5.4-.6-1.5-.3-2.9-.8-4.2-1.3l-5.4 2.9c-.5.3-1.1.4-1.6.4-.6 0-1.1-.3-1.6-.6-.5-.4-.8-.8-1-1.4-.2-.5-.2-1.1-.1-1.7l1.3-5.7c-1.3-1.5-2.3-3.2-3.1-5-.8-2-1.3-4.2-1.3-6.5 0-5.4 2.5-10.3 6.7-13.9 4-3.4 9.5-5.6 15.7-5.6zM64.3 39c-3.4-3-8.2-4.8-13.5-4.8-5.3 0-10.1 1.8-13.5 4.8-3.4 2.9-5.4 6.9-5.4 11.3 0 1.8.4 3.6 1 5.2.7 1.7 1.7 3.2 2.9 4.6.4.4.6 1 .5 1.6L35 67.3l5.3-2.8c.5-.2 1-.3 1.5-.1 1.4.6 2.8 1.1 4.3 1.4 1.5.3 3 .5 4.6.5 5.3 0 10.1-1.8 13.5-4.8 3.4-2.9 5.4-6.9 5.4-11.3.1-4.3-2-8.3-5.3-11.2zm-21 10.4c-.2-.2-.5-.3-.8-.3-.3 0-.6.1-.9.3-.2.2-.4.5-.4.8 0 .3.1.6.4.9.2.2.5.4.9.4.3 0 .6-.1.8-.4.2-.2.3-.5.3-.9.1-.2-.1-.5-.3-.8zm7.5-2.4c.9 0 1.7.4 2.3 1 .6.6 1 1.4 1 2.3 0 .9-.4 1.7-1 2.3-.6.6-1.4 1-2.3 1-.9 0-1.7-.4-2.3-1-.6-.6-1-1.4-1-2.3 0-.9.4-1.7 1-2.3.5-.6 1.3-1 2.3-1zm.8 2.4c-.2-.2-.5-.3-.8-.3-.3 0-.6.1-.9.3-.2.2-.3.5-.3.8 0 .3.1.6.3.9.2.2.5.4.9.4.3 0 .6-.1.8-.4.2-.2.3-.5.3-.9.1-.2-.1-.5-.3-.8zM59 47c.9 0 1.7.4 2.3 1 .6.6 1 1.4 1 2.3 0 .9-.4 1.7-1 2.3-.6.6-1.4 1-2.3 1-.9 0-1.7-.4-2.3-1-.6-.6-1-1.4-1-2.3 0-.9.4-1.7 1-2.3.6-.6 1.4-1 2.3-1zm.9 2.4c-.2-.2-.5-.3-.8-.3-.3 0-.6.1-.9.3-.2.2-.4.5-.4.8 0 .3.1.6.4.9.2.2.5.4.9.4.3 0 .6-.1.8-.4.2-.2.3-.5.3-.9 0-.2-.1-.5-.3-.8z"/></svg><svg viewBox="0 0 100 100" enable-background="new 0 0 100 100" width="100" height="100" id="notes" y="1940"><path d="M39 64.8c-.7 0-1.2-.5-1.2-1.2 0-.6.5-1.2 1.2-1.2h23c.7 0 1.2.5 1.2 1.2s-.5 1.2-1.2 1.2H39zm-5.7-39.3h23.4c.5 0 1 .2 1.4.6l14.3 14.3c.4.4.6.9.6 1.4V71.7c0 1.5-.6 2.8-1.5 3.7-1 .9-2.3 1.5-3.7 1.5H33.3c-1.5 0-2.8-.6-3.7-1.6-.9-1-1.6-2.3-1.6-3.7V30.7c0-1.5.6-2.8 1.6-3.7.9-1 2.2-1.5 3.7-1.5zm22.2 3.9H33.3c-.4 0-.7.2-.9.4-.2.2-.4.6-.4.9v40.9c0 .4.1.7.4 1 .2.2.6.4.9.4h34.4c.4 0 .7-.2.9-.4.2-.3.4-.6.4-1V42.9h-9c-1.2 0-2.4-.5-3.2-1.3l-.1-.1c-.8-.8-1.2-1.9-1.2-3.1v-9zM67 40.6l-9.1-9.1v7c0 .6.2 1.1.6 1.5.4.4.9.6 1.5.6h7zm-28 7.5c-.7 0-1.2-.5-1.2-1.2 0-.6.5-1.2 1.2-1.2h23c.7 0 1.2.5 1.2 1.2s-.5 1.2-1.2 1.2H39zm0 8.4c-.7 0-1.2-.5-1.2-1.2 0-.6.5-1.2 1.2-1.2h23c.7 0 1.2.5 1.2 1.2s-.5 1.2-1.2 1.2H39z"/></svg><svg viewBox="0 0 100 100" enable-background="new 0 0 100 100" width="100" height="100" id="owm" y="2040"><path d="M50.3 40.2c3 0 5.8 1.2 7.8 3.2s3.2 4.8 3.2 7.8-1.2 5.8-3.2 7.8-4.7 3.2-7.8 3.2c-3.1 0-5.8-1.2-7.8-3.2s-3.2-4.8-3.2-7.8c0-3.1 1.2-5.8 3.2-7.8s4.8-3.2 7.8-3.2zm-9-.7c.8.7.8 2 0 2.7-.8.8-2 .8-2.7 0l-6.1-6.1c-.8-.8-.8-2 0-2.7.8-.8 2-.8 2.7 0l6.1 6.1zm-5.7 9.8c1.1 0 1.9.9 1.9 1.9 0 1.1-.9 2-1.9 2H27c-1.1 0-1.9-.9-1.9-2s.9-1.9 1.9-1.9h8.6zm2.9 11c.8-.8 2-.8 2.8 0 .7.7.7 2 0 2.7l-6.1 6.1c-.8.8-2 .8-2.7 0-.8-.7-.8-2 0-2.7l6-6.1zm9.9 5.7c0-1.1.9-2 1.9-2 1.1 0 1.9.9 1.9 2v8.6c0 1.1-.9 1.9-1.9 1.9-1.1 0-1.9-.9-1.9-1.9V66zm10.9-3c-.8-.8-.8-2 0-2.7.7-.8 2-.8 2.7 0l6.1 6.1c.8.7.8 2 0 2.7-.8.8-2 .8-2.7 0L59.3 63zm5.7-9.8c-1.1 0-1.9-.9-1.9-1.9 0-1.1.9-2 1.9-2h8.6c1.1 0 1.9.9 1.9 2s-.9 1.9-1.9 1.9H65zm-2.9-11c-.7.8-2 .8-2.7 0-.8-.7-.8-2 0-2.7l6.1-6.1c.8-.8 2-.8 2.7 0 .8.7.8 2 0 2.7l-6.1 6.1zm-9.9-5.7c0 1.1-.9 2-1.9 2-1.1 0-1.9-.9-1.9-2V28c0-1.1.9-1.9 1.9-1.9 1.1 0 1.9.9 1.9 1.9v8.5zm3.2 9.7c-1.3-1.3-3.1-2.1-5.1-2.1-2 0-3.8.8-5.1 2.1-1.3 1.3-2.1 3.1-2.1 5.1 0 2 .8 3.8 2.1 5.1 1.3 1.3 3.1 2.1 5.1 2.1 2 0 3.8-.8 5.1-2.1 1.3-1.3 2.1-3.1 2.1-5.1 0-2-.8-3.8-2.1-5.1z"/></svg><svg viewBox="0 0 100 100" enable-background="new 0 0 100 100" width="100" height="100" id="photos" y="2140"><path d="M80.9 24.6H22.5c-1.3 0-2.4 1.1-2.4 2.4v49.1c0 1.3 1.1 2.4 2.4 2.4h58.3c1.3 0 2.4-1.1 2.4-2.4V27c.1-1.4-1-2.4-2.3-2.4zm-2.5 49.1H25v-5.4l12.5-12.5 8.7 8.7 5.2 5.2c.6.6 1.5.6 2.1 0 .6-.6.6-1.5 0-2.1l-4.2-4.2 11.8-11.8L78.4 69v4.7zm0-8.8L62.1 48.6c-.6-.6-1.5-.6-2.1 0L47.2 61.4l-8.7-8.7c-.6-.6-1.5-.6-2.1 0L25 64.2V29.4h53.5v35.5h-.1zM38.4 49c4.7 0 8.5-3.8 8.5-8.5S43.1 32 38.4 32s-8.5 3.8-8.5 8.5c.1 4.7 3.9 8.5 8.5 8.5zm0-14.1c3.1 0 5.5 2.5 5.5 5.6 0 3.1-2.5 5.5-5.5 5.5-3.1 0-5.6-2.5-5.6-5.5.1-3.1 2.6-5.6 5.6-5.6z"/></svg><svg width="128" height="128" viewBox="0 0 128 128" id="remote_storage" y="2240"><g transform="matrix(.615 0 0 .596 24.656 25.322)" stroke-miterlimit="10" stroke="#000" stroke-width="8" fill="none"><path d="M119.088 64.32c0-9.702-.044-19.405.034-29.107.017-2.13-.557-3.48-2.542-4.612C99.835 21.04 83.146 11.384 66.484 1.68c-1.8-1.048-3.186-1.037-4.98.007-16.662 9.704-33.358 19.35-50.09 28.934-1.798 1.03-2.546 2.198-2.54 4.285.066 19.406.07 38.812-.003 58.217-.007 2.106.752 3.235 2.548 4.263 16.644 9.523 33.254 19.105 49.816 28.77 2.018 1.18 3.53 1.17 5.544-.005 16.47-9.61 32.985-19.145 49.544-28.602 2.007-1.146 2.848-2.412 2.818-4.758-.123-9.49-.05-18.98-.052-28.47z"/><path d="M61.02 67.658C46.727 75.423 26.79 86.382 13 93.875c-.15-.256.148-.494-.003-.75C26.39 84.92 45.483 73.23 59.372 64.722L14.124 35.746l.458-.806 47.71 24.703c.42-17.27.833-34.114 1.244-50.96l.915-.015L65.7 59.63l47.665-24.658.466.8c-14.878 9.524-29.757 19.05-45.218 28.946 13.882 8.502 32.718 18.81 46.138 27.032-.147.256-.77.87-.918 1.125-13.787-7.487-32.514-17.42-46.862-25.21l-2.54 55.58-.862.003-2.55-55.59z"/></g></svg><svg height="48" viewBox="0 0 48 48" width="48" id="settings" y="2368"><g><path d="M26 48h-4c-1.654 0-3-1.346-3-3v-3.724c-1.28-.37-2.512-.88-3.68-1.527l-2.635 2.634c-1.134 1.134-3.11 1.132-4.243 0l-2.83-2.828c-.566-.566-.878-1.32-.878-2.12s.312-1.556.88-2.122l2.634-2.636c-.645-1.166-1.156-2.398-1.525-3.68H3c-1.654 0-3-1.345-3-3v-4c0-.8.312-1.554.878-2.12.567-.566 1.32-.88 2.122-.88h3.724c.37-1.277.88-2.51 1.526-3.678l-2.634-2.635c-1.17-1.17-1.17-3.072 0-4.242l2.828-2.83c1.133-1.13 3.11-1.133 4.243 0l2.635 2.636c1.168-.646 2.4-1.157 3.678-1.526V3c0-1.654 1.346-3 3-3h4c1.654 0 3 1.346 3 3v3.724c1.28.37 2.512.88 3.678 1.525l2.635-2.636c1.134-1.132 3.11-1.134 4.243 0l2.83 2.828c.566.566.878 1.32.878 2.12s-.312 1.556-.88 2.122l-2.633 2.635c.647 1.167 1.158 2.4 1.527 3.68H45c1.654 0 3 1.345 3 3v4c0 .8-.312 1.554-.878 2.12S45.802 29 45 29h-3.724c-.37 1.28-.88 2.512-1.526 3.68l2.634 2.634c1.17 1.17 1.17 3.072 0 4.242l-2.828 2.83c-1.134 1.132-3.11 1.132-4.243 0L32.68 39.75c-1.168.646-2.4 1.156-3.68 1.526V45c0 1.654-1.345 3-3 3zM15.157 37.498c.18 0 .36.048.52.146 1.417.866 2.95 1.502 4.558 1.89.45.11.765.51.765.973V45c0 .552.45 1 1 1h4c.55 0 1-.448 1-1v-4.493c0-.462.316-.863.765-.972 1.606-.39 3.14-1.023 4.556-1.89.397-.24.903-.18 1.23.146l3.178 3.18c.375.374 1.04.376 1.415 0l2.828-2.83c.39-.39.39-1.023 0-1.413l-3.178-3.18c-.327-.325-.387-.834-.146-1.228.865-1.415 1.5-2.948 1.89-4.557.107-.45.51-.766.97-.766H45c.267 0 .52-.104.708-.293.188-.186.292-.437.292-.705v-4c0-.553-.45-1-1-1h-4.493c-.462 0-.864-.317-.972-.767-.388-1.607-1.023-3.14-1.89-4.556-.24-.394-.18-.9.147-1.23l3.18-3.178c.185-.188.292-.445.292-.708s-.107-.52-.293-.707l-2.828-2.828c-.378-.377-1.037-.377-1.415 0l-3.18 3.18c-.325.327-.832.388-1.228.145-1.414-.864-2.946-1.5-4.555-1.89-.448-.106-.765-.507-.765-.97V3c0-.552-.45-1-1-1h-4c-.55 0-1 .448-1 1v4.493c0 .462-.316.863-.765.972-1.606.388-3.14 1.023-4.556 1.89-.396.24-.903.18-1.23-.147l-3.178-3.18c-.378-.376-1.037-.376-1.415 0L7.03 9.86c-.39.39-.39 1.023 0 1.413l3.18 3.18c.326.326.386.835.145 1.23-.866 1.415-1.5 2.948-1.89 4.554-.107.45-.51.766-.97.766H3c-.267 0-.52.104-.708.293C2.104 21.48 2 21.73 2 22v4c0 .55.45 1 1 1h4.493c.462 0 .864.315.972.765.39 1.608 1.024 3.14 1.89 4.555.24.394.18.9-.147 1.23l-3.18 3.18c-.185.186-.292.443-.292.706s.107.52.293.707l2.828 2.828c.377.378 1.037.378 1.415 0l3.178-3.178c.193-.194.448-.294.707-.294zM24 34c-5.514 0-10-4.486-10-10s4.486-10 10-10 10 4.486 10 10-4.485 10-10 10zm0-18c-4.41 0-8 3.59-8 8s3.59 8 8 8 8-3.59 8-8-3.588-8-8-8z"/></g></svg><svg height="60" viewBox="0 0 60 60" width="60" id="state" y="2416"><path d="M49.178 40.1H47.11v-5.672c0-2.718-2.487-4.93-5.544-4.93h-9.732v-8.325h11.863c1.88 0 3.412-1.36 3.412-3.033v-5.954c0-1.673-1.53-3.033-3.412-3.033H17.413c-1.88 0-3.41 1.36-3.41 3.033v5.953c0 1.672 1.53 3.032 3.41 3.032h11.862v8.326H19.45c-3.056 0-5.544 2.21-5.544 4.93v5.67H11.84c-1.883 0-3.413 1.36-3.413 3.034v5.952c0 1.674 1.53 3.035 3.412 3.035h6.692c1.88 0 3.41-1.362 3.41-3.035v-5.952c0-1.673-1.53-3.033-3.41-3.033h-2.068v-5.67c0-1.465 1.34-2.656 2.985-2.656h9.825v8.563h-1.8c-1.88 0-3.41 1.36-3.41 3.034v5.477c0 1.673 1.53 3.035 3.41 3.035h6.16c1.88 0 3.41-1.362 3.41-3.035V43.37c0-1.672-1.53-3.033-3.41-3.033h-1.8v-8.564h9.73c1.647 0 2.985 1.19 2.985 2.655v5.67h-2.068c-1.88 0-3.41 1.36-3.41 3.034v5.953c0 1.672 1.53 3.033 3.41 3.033h6.695c1.88 0 3.41-1.36 3.41-3.033v-5.953c.002-1.673-1.528-3.033-3.41-3.033zM16.56 18.14v-5.954c0-.418.383-.758.854-.758H43.7c.47 0 .852.34.852.758v5.953c0 .417-.383.757-.853.757H17.412c-.47 0-.852-.34-.852-.758zm2.826 24.992v5.953c0 .418-.383.758-.853.758H11.84c-.472 0-.854-.34-.854-.758v-5.953c0-.418.382-.76.853-.76h6.692c.47.002.854.342.854.76zm15.1.238v5.477c0 .418-.38.76-.852.76h-6.158c-.47 0-.855-.342-.855-.76V43.37c0-.418.385-.76.856-.76h6.158c.472.002.853.342.853.76zm15.544 5.715c0 .418-.382.76-.853.76h-6.695c-.47 0-.853-.342-.853-.76v-5.952c0-.418.383-.76.852-.76h6.695c.47 0 .853.342.853.76v5.952z" fill="#231f20"/></svg><svg height="32" viewBox="0 0 32 32" width="32" id="store" y="2476"><g stroke="#fff" stroke-linecap="round" stroke-linejoin="round" stroke-miterlimit="10" stroke-width="2" fill="none"><path d="M649 138h26v18h-14M653 156h-4v-14M661 156l-8 6v-6"/></g><path d="M16 30c-3.74 0-7.255-1.456-9.9-4.1C1.78 21.577.754 15.024 3.548 9.594c.253-.49.855-.684 1.347-.432.49.252.685.855.432 1.347-2.395 4.655-1.516 10.27 2.19 13.975C9.78 26.752 12.793 28 16 28c3.205 0 6.22-1.248 8.485-3.515S28 19.205 28 16c0-3.206-1.248-6.22-3.515-8.485S19.205 4 16 4c-3.206 0-6.22 1.25-8.485 3.515-.39.39-1.023.39-1.414 0s-.39-1.023 0-1.414C8.746 3.458 12.26 2 16 2s7.256 1.457 9.9 4.1C28.543 8.746 30 12.26 30 16s-1.456 7.255-4.1 9.9C23.255 28.543 19.74 30 16 30zM16 22c-.552 0-1-.447-1-1V11c0-.552.448-1 1-1s1 .448 1 1v10c0 .553-.448 1-1 1zM21 17H11c-.552 0-1-.448-1-1s.448-1 1-1h10c.553 0 1 .448 1 1s-.447 1-1 1z"/></svg><svg height="100" viewBox="0 0 100 100" width="100" id="sync" y="2508"><title/><path d="M50.753 69.434c4.618 0 8.473-3.32 9.358-7.728h3.877C63.06 68.26 57.49 73.3 50.757 73.3c-4.67 0-8.78-2.42-11.17-6.09l-2.2 2.224v-7.73h7.64l-2.66 2.688c1.62 3.003 4.77 5.04 8.39 5.04zM60.11 57.84h-3.625l2.66-2.687c-1.62-3.004-4.77-5.04-8.39-5.04-4.618 0-8.472 3.32-9.358 7.728H37.52c.93-6.553 6.5-11.592 13.233-11.592 4.668 0 8.778 2.42 11.17 6.09l2.2-2.225v7.728h-.136zM20.2 55.91c0-4.284 2.306-8.035 5.733-10.042.2-9.427 7.816-17.01 17.185-17.01 6.174 0 11.59 3.296 14.62 8.243 1.117-.335 2.3-.513 3.524-.513 5.318 0 9.854 3.383 11.622 8.14 4.857 1.343 8.43 5.842 8.43 11.18 0 6.39-5.13 11.594-11.457 11.594H66.16c.597-1.213 1.06-2.51 1.36-3.864h2.342c4.215 0 7.632-3.468 7.632-7.728 0-4.268-3.425-7.728-7.632-7.728h-.058c-.475-4.348-4.118-7.728-8.542-7.728-2.02 0-3.876.705-5.342 1.885-1.66-5.562-6.763-9.613-12.8-9.613-7.383 0-13.366 6.055-13.366 13.526 0 .727.055 1.44.164 2.134-3.377.798-5.893 3.87-5.893 7.527 0 4.27 3.425 7.73 7.632 7.73h1.917v3.864h-1.91c-6.327 0-11.457-5.19-11.457-11.593zm0 0"/></svg><svg enable-background="new 0 0 100 100" viewBox="0 0 100 100" width="100" height="100" id="tasky" y="2608"><path fill="#010101" d="M77.6 29.5l-39.9 40-16.8-18-1.6 1.6 18.4 19.6.4-.5v.1l41.2-41.1z"/></svg><svg width="80" height="80" viewBox="0 0 80 80" id="term" y="2708"><defs><symbol overflow="visible"><path d="M2.188 8.656v-43.203h22V8.656zm2.468-2.72l17.094.002v-37.735H4.656zm0 .002"/></symbol><symbol overflow="visible" id="ya"><path d="M4.656-24.125v-4.344l27.547 11.126v3.97L4.656-2.25v-4.36l22.14-8.734zm0 0"/></symbol><symbol overflow="visible"><path d="M2.39 9.375v-46.75h24v46.75zm2.704-2.953H23.72V-34.39H5.093zm0 0"/></symbol><symbol overflow="visible" id="yb"><path d="M24.47 8.797V12.5H-.47V8.797zm0 0"/></symbol></defs><g><use xlink:href="#ya" x="13.359" y="50.519"/><use xlink:href="#yb" x="39.719" y="50.677"/></g></svg><svg viewBox="0 0 100 100" enable-background="new 0 0 100 100" width="100" height="100" id="todos" y="2788"><path d="M37.3 55.2c-1.3 0-2.4 1-2.4 2.3 0 1.3 1 2.3 2.4 2.3 1.3 0 2.3-1 2.3-2.3 0-1.3-1-2.3-2.3-2.3zm0 9.9c-1.3 0-2.4 1-2.4 2.3 0 1.3 1 2.3 2.4 2.3 1.3 0 2.3-1 2.3-2.3 0-1.3-1-2.3-2.3-2.3zm0-19.8c-1.3 0-2.4 1.1-2.4 2.3 0 1.3 1 2.3 2.4 2.3 1.3 0 2.3-1 2.3-2.3 0-1.3-1-2.3-2.3-2.3zm38-14.8h-6.4v-1.3c0-.8-.6-1.4-1.4-1.4H60c-.4-1.7-1.3-3.2-2.5-4.3-1.7-1.7-4-2.7-6.5-2.7s-4.8 1-6.5 2.7c-1.2 1.2-2 2.7-2.4 4.3h-7.5c-.8 0-1.4.6-1.4 1.4v1.3h-6.4c-1.3 0-2.4 1-2.4 2.3v48c0 1.3 1 2.3 2.4 2.3h48.7c1.3 0 2.3-1 2.3-2.3v-48c-.1-1.3-1.2-2.3-2.5-2.3zm-28.8-5.1c1.2-1.2 2.8-1.9 4.5-1.9 1.8 0 3.4.7 4.5 1.9.7.7 1.2 1.5 1.5 2.3H45c.3-.8.8-1.6 1.5-2.3zm-10.6 5.2h30.2V35H35.9v-4.4zM73 78.5H29V35.1h4.1v1.3c0 .8.6 1.4 1.4 1.4h33c.8 0 1.4-.6 1.4-1.4v-1.3H73v43.4zm-8.4-32.3H44.3c-.8 0-1.4.6-1.4 1.4s.6 1.4 1.4 1.4h20.4c.8 0 1.4-.6 1.4-1.4s-.7-1.4-1.5-1.4zm0 19.8H44.3c-.8 0-1.4.6-1.4 1.4s.6 1.4 1.4 1.4h20.4c.8 0 1.4-.6 1.4-1.4s-.7-1.4-1.5-1.4zm0-9.9H44.3c-.8 0-1.4.6-1.4 1.4 0 .8.6 1.4 1.4 1.4h20.4c.8 0 1.4-.6 1.4-1.4-.1-.7-.7-1.4-1.5-1.4z"/></svg></svg>