<svg xmlns="http://www.w3.org/2000/svg" xmlns:xlink="http://www.w3.org/1999/xlink" width="100" height="1960" viewBox="0 0 100 1960"><svg viewBox="0 0 100 100" enable-background="new 0 0 100 100" width="100" height="100" id="banks" y="0"><path d="M50.7 24.1c2.7 0 5.2 1.1 6.9 2.9l.1.1c1.7 1.8 2.8 4.2 2.8 6.9v.4c.4.1.8.3 1.2.4l6.6-3.9c1-.6 2.4-.3 3 .8.3.5.4 1 .2 1.6L70.1 40c.9.9 1.7 1.8 2.4 2.7.7.9 1.2 1.8 1.7 2.8h.3c1.3 0 2.5.5 3.4 1.4.9.9 1.4 2.1 1.4 3.4V57c0 1.3-.5 2.5-1.4 3.4-.9.9-2.1 1.4-3.4 1.4h-.3c-.6 1.2-1.3 2.3-2.1 3.3-.7 1-1.6 1.9-2.5 2.7l1 1.6.1.2c.8 1.4.9 3 .5 4.5s-1.4 2.9-2.9 3.7l-.1.1c-1.4.8-3.1.9-4.5.5-1.5-.4-2.9-1.4-3.7-2.9l-.1-.1-1.1-1.9c-.8.2-1.7.4-2.6.5-1.5.2-3 .4-4.5.4s-3-.1-4.5-.4c-.9-.1-1.8-.3-2.6-.5l-1.2 2.1c-.8 1.5-2.2 2.5-3.7 2.9h-.1c-1.5.4-3.1.2-4.5-.7H35c-1.4-.8-2.4-2.2-2.8-3.7-.4-1.5-.2-3.2.6-4.6l1-1.6c-1.8-1.7-3.4-3.6-4.5-5.7-1.2-2.3-2-4.9-2.1-7.5l-.3-.1h-.1c-.7-.3-1.4-.8-2-1.4-1.2-1.2-1.9-2.8-1.9-4.5 0-1.7.7-3.3 1.9-4.5.5-.5 1.4-.5 1.9 0s.5 1.3 0 1.9c-.7.7-1.1 1.7-1.1 2.7 0 1 .4 2 1.1 2.7.2.2.4.3.6.5.5-5 3.2-9.5 7.2-12.8 1.9-1.6 4.1-2.9 6.5-3.9v-1c0-2.7 1.1-5.1 2.9-6.9 1.6-2.2 4.1-3.3 6.8-3.3zm.9 8.8c1.9 0 3.9.2 5.7.6l.5.1c-.1-1.8-.8-3.5-2-4.7l-.1-.1c-1.3-1.3-3.1-2.1-5.1-2.1-2 0-3.8.8-5.1 2.1-1.3 1.3-2.1 3.1-2.1 5.1v.1c2.6-.7 5.4-1.1 8.2-1.1zm4.8 4.9c-1.5-.3-3.2-.5-4.9-.5-5.6 0-10.7 1.9-14.4 4.9-3.5 2.9-5.7 7-5.7 11.4 0 2.3.6 4.5 1.6 6.4 1.1 2.1 2.7 3.9 4.7 5.5.9.7 1.1 1.9.6 2.9l-1.8 3.1c0 .1-.1.2-.1.3-.2.4-.2.8-.1 1.2.1.4.4.8.7 1l.2.1c.4.2.8.2 1.2.1h.1c.4-.1.8-.4 1-.8l2-3.5c.5-1 1.6-1.4 2.6-1.1 1.2.4 2.4.7 3.7.9 1.2.2 2.5.3 3.8.3 1.3 0 2.6-.1 3.8-.3 1.2-.2 2.4-.5 3.7-.9 1-.3 2 .1 2.6 1l2 3.4c.1.1.1.2.2.3.2.4.6.6 1 .7.4.1.8.1 1.2-.1l.2-.1c.3-.2.6-.6.7-1 .1-.4.1-.8-.1-1.2 0-.1-.1-.2-.2-.3l-1.8-3.1c-.5-.9-.3-2.2.6-2.9 1.2-.9 2.3-2 3.2-3.2.9-1.1 1.6-2.3 2.1-3.5.3-.9 1.1-1.5 2.1-1.5h1.7c.1 0 .2-.1.3-.1.1-.1.1-.2.1-.3v-6.6c0-.1 0-.2-.1-.3-.1-.1-.2-.1-.3-.1h-1.7c-.9 0-1.7-.5-2-1.4-.5-1.1-1.1-2.2-1.8-3.2s-1.6-2-2.6-2.8c-.6-.5-.9-1.3-.8-2.1l.7-3.2L63 39c-.6.4-1.4.5-2.1.2-1.3-.6-2.9-1.1-4.5-1.4zm8.3 8.2c-1.1 0-2 .4-2.7 1.1-.7.7-1.1 1.6-1.1 2.7s.4 2 1.1 2.7c.7.7 1.6 1.1 2.7 1.1 1 0 2-.4 2.7-1.1.7-.7 1.1-1.6 1.1-2.7 0-1-.4-1.9-1-2.6l-.1-.1c-.7-.7-1.7-1.1-2.7-1.1zm.8 3c-.2-.2-.5-.3-.8-.3-.3 0-.6.1-.8.3-.2.2-.3.5-.3.8 0 .3.1.6.3.8.2.2.5.3.8.3.3 0 .6-.1.8-.3.2-.2.3-.5.3-.8 0-.3-.1-.6-.3-.8z"/></svg><svg width="60" height="60" viewBox="0 0 60 60" id="bookmarks" y="100"><title>bookmarks</title><desc>Created with Sketch.</desc><g fill="none"><path d="M30 58.75c15.878 0 28.75-12.872 28.75-28.75S45.878 1.25 30 1.25 1.25 14.122 1.25 30 14.122 58.75 30 58.75zM30 60C13.43 60 0 46.57 0 30S13.43 0 30 0s30 13.43 30 30-13.43 30-30 30z" id="abShape" fill-opacity=".011" fill="#fff"/><path d="M49.523 28.052L31.986 10.43c-.572-.573-1.59-.573-2.16 0l-19.38 19.276c-.32.318-.446.7-.446 1.145v17.623C10 49.3 10.7 50 11.525 50h17.601c.382 0 .826-.19 1.144-.51l19.253-19.275c.636-.573.636-1.59 0-2.163zM28.49 46.946H13.05v-15.46l17.792-17.812 15.44 15.46-17.79 17.812zm-8.832-11.26c-2.54 0-4.638 2.1-4.638 4.58 0 2.545 2.097 4.58 4.638 4.58 2.542 0 4.64-2.035 4.64-4.58 0-2.48-2.098-4.58-4.64-4.58zm0 7.38c-1.525 0-2.732-1.273-2.732-2.736 0-1.463 1.207-2.736 2.732-2.736 1.525 0 2.796 1.273 2.796 2.736 0 1.527-1.27 2.736-2.796 2.736z" fill="#000"/></g></svg><svg width="60" height="60" viewBox="0 0 60 60" id="calendar" y="160"><title>calendar</title><desc>Created with Sketch.</desc><path fill="#fff" fill-opacity=".011" d="M30 58.75c15.878 0 28.75-12.872 28.75-28.75S45.878 1.25 30 1.25 1.25 14.122 1.25 30 14.122 58.75 30 58.75zM30 60C13.43 60 0 46.568 0 30 0 13.43 13.43 0 30 0c16.568 0 30 13.43 30 30 0 16.568-13.432 30-30 30z"/><path d="M47.997 9H12.004C10.35 9 9 10.345 9 12.004v35.993C9 49.65 10.345 51 12.004 51h35.993C49.65 51 51 49.657 51 47.998V12.004C51 10.35 49.657 9 47.998 9zM12 12.035h4.148v2.257c0 .856.7 1.556 1.556 1.556s1.556-.7 1.556-1.556v-2.257h5.136v2.257c0 .856.7 1.556 1.556 1.556s1.556-.7 1.556-1.556v-2.257h5.137v2.257c0 .856.7 1.556 1.556 1.556s1.557-.7 1.557-1.556v-2.257h5.137v2.257c0 .856.7 1.556 1.556 1.556s1.556-.7 1.556-1.556v-2.257h3.992V19H12v-6.965zM48 48H12V21h36v27zM26.29 37.85c-.433.34-.997.51-1.69.51-.64 0-1.207-.137-1.7-.41-.493-.272-.933-.602-1.32-.99l-1.1 1.48c.453.508 1.027.934 1.72 1.28.693.347 1.56.52 2.6.52.613 0 1.19-.082 1.73-.25.54-.166 1.013-.406 1.42-.72.407-.312.727-.696.96-1.15.233-.452.35-.973.35-1.56 0-.84-.25-1.526-.75-2.06s-1.13-.9-1.89-1.1v-.08c.693-.268 1.237-.64 1.63-1.12.393-.48.59-1.08.59-1.8 0-.533-.1-1.01-.3-1.43-.2-.42-.48-.772-.84-1.06-.36-.287-.793-.503-1.3-.65-.507-.147-1.067-.22-1.68-.22-.76 0-1.45.147-2.07.44s-1.203.68-1.75 1.16l1.18 1.42c.387-.36.783-.65 1.19-.87.407-.22.863-.33 1.37-.33.587 0 1.047.15 1.38.45.333.3.5.717.5 1.25 0 .293-.057.566-.17.82-.113.252-.3.47-.56.65-.26.18-.6.318-1.02.42-.42.1-.943.148-1.57.148v1.68c.72 0 1.32.05 1.8.15.48.1.863.243 1.15.43.287.188.49.414.61.68.12.268.18.568.18.9 0 .602-.217 1.072-.65 1.412zM40 38h-3V27h-2c-.4.24-.65.723-1.11.89-.46.167-1.25.49-1.89.61V30h3v8h-3v2h8v-2z"/></svg><svg width="60" height="60" viewBox="0 0 60 60" id="contacts" y="220"><title>contacts</title><desc>Created with Sketch.</desc><g fill="none"><path d="M30 58.75c15.878 0 28.75-12.872 28.75-28.75S45.878 1.25 30 1.25 1.25 14.122 1.25 30 14.122 58.75 30 58.75zM30 60C13.43 60 0 46.57 0 30S13.43 0 30 0s30 13.43 30 30-13.43 30-30 30z" fill-opacity=".011" fill="#fff"/><path d="M49 13.763v37.44C49 52.23 48.223 53 47.273 53H17.736c-1.64 0-3.195-.342-4.318-.942C11.95 51.288 11 50.175 11 48.805V11c0-1.455.95-2.288 2.418-3.058C14.54 7.342 16.095 7 17.736 7H45c.95 0 1.5.558 1.5 1.5S45.95 10 45 10H18c-1.123 0-2.423.158-3.114.5L14 11s.627.33.886.5c.69.342 1.728.636 2.85.636h29.537c.95-.085 1.727.685 1.727 1.627zm-32 1.112c-1.21 0-2.05-.533-3-.875v34.5s1.877 1.5 3 1.5h29V14.875H17zm5.486 27.794c0 .598-.43 1.026-1.036 1.026-.605 0-1.036-.428-1.036-1.027 0-1.542.604-2.74 1.554-3.51 1.21-1.2 2.937-1.713 3.887-1.798.172 0 .26-.086.345-.17l.086-.087c-.777-.685-1.122-1.54-1.38-2.226-.174-.343-.26-.6-.26-.685-.346-.343-.864-.942-1.123-1.627-.26-.685-.346-1.455 0-2.14-.173-.6-.26-1.284-.26-1.97 0-.855.173-1.797.432-2.653.432-1.198 1.123-2.14 2.073-2.74.95-.598 2.16-.94 3.455-.94.518 0 1.122 0 1.813.085.69.17 1.47.428 1.9 1.027.864 0 1.64.428 2.246 1.2.777.855 1.295 2.14 1.382 2.824.086.6.086 1.114 0 1.713-.087.428-.173.94-.26 1.37.432.77.346 1.54.087 2.225v.086c-.258.685-.776 1.284-1.122 1.626-.086.086-.173.343-.26.685-.258.685-.603 1.54-1.38 2.226 0 0 0 .086.086.086.086.086.26.17.345.17 1.035.087 2.676.6 3.972 1.8.863.855 1.554 1.968 1.554 3.51 0 .598-.43 1.026-1.036 1.026-.605 0-1.036-.428-1.036-1.027 0-.942-.346-1.627-.864-2.055-.864-.77-1.986-1.112-2.677-1.198-.605-.086-1.21-.342-1.64-.77-.433-.428-.692-1.028-.692-1.627v-.342c0-.343.174-.685.52-.856.517-.343.776-1.028 1.035-1.627.26-.513.432-1.027.778-1.37.172-.17.432-.513.604-.856v-.085c.087-.258.087-.43 0-.6-.172-.172-.26-.343-.26-.6v-.513c.174-.514.26-.942.347-1.455.086-.428.086-.856 0-1.2-.087-.513-.432-1.283-.95-1.882-.346-.428-.605-.6-.778-.6-.345.086-.69 0-.95-.17-.26-.086-.518-.343-.69-.6v-.085c-.087-.172-.346-.257-.69-.257-.433-.086-1.038-.086-1.383-.086-.95 0-1.728.257-2.418.6-.52.342-.95.94-1.21 1.71-.172.6-.345 1.286-.345 1.97 0 .6.086 1.2.345 1.712.173.343.087.856-.172 1.113-.173.17-.087.428 0 .6.172.342.432.684.604.855.432.343.605.857.864 1.456.26.6.52 1.284 1.037 1.626.26.17.518.514.518.856V36.763c0 .684-.26 1.198-.69 1.626-.432.427-1.037.684-1.64.77-.692.085-1.9.428-2.68 1.198-.517.685-.95 1.37-.95 2.31z" fill="#000"/></g></svg><svg width="60" height="60" viewBox="0 0 60 60" id="cozic" y="280"><title>cozic</title><desc>Created with Sketch.</desc><g fill="none"><path d="M30 58.75c15.878 0 28.75-12.872 28.75-28.75S45.878 1.25 30 1.25 1.25 14.122 1.25 30 14.122 58.75 30 58.75zM30 60C13.43 60 0 46.57 0 30S13.43 0 30 0s30 13.43 30 30-13.43 30-30 30z" fill-opacity=".011" fill="#fff"/><path d="M24 10.7c-.025-1.004.648-1.7 1.546-1.7.897 0 1.57.696 1.57 1.624 0 .154.15 1.16 3.515 2.32.898.308 1.72.695 2.394 1.236.748.54 1.346 1.16 1.795 1.778 1.345 2.01 1.345 4.407.672 6.88-.823 2.86-2.692 5.722-4.562 7.81-.598.695-1.57.695-2.17.154-.672-.618-.672-1.623-.148-2.242 1.57-1.778 3.216-4.252 3.89-6.572.447-1.546.522-3.015-.226-4.097-.224-.386-.523-.695-.972-1.004-.45-.31-.972-.62-1.645-.85-.973-.387-1.87-.774-2.66-1.16v28.76c.116 2.165-.93 4.02-2.5 5.335-3.292 2.706-8.527 2.706-11.892 0-3.515-2.86-3.44-7.808 0-10.67 3.14-2.55 8.002-2.705 11.392-.308v-27.29zm-1.52 30.153c-2.17-1.778-5.76-1.778-8.002 0-1.945 1.546-1.945 4.097 0 5.644 2.168 1.778 5.758 1.778 8.002 0 1.944-1.624 1.944-4.098 0-5.644zM38.98 19c-.527 0-.98-.48-.98-.96 0-.56.453-1.04.98-1.04h10.04c.527 0 .98.48.98 1.04s-.453.96-.98.96H38.98zm0 6c-.527 0-.98-.462-.98-1s.453-1 .98-1h10.04c.527 0 .98.462.98 1s-.453 1-.98 1H38.98zm-3.047 6c-.502 0-.933-.48-.933-.96 0-.56.43-1.04.933-1.04h13.134c.502 0 .933.48.933 1.04s-.43.96-.933.96H35.933zm-4.99 6c-.508 0-.943-.462-.943-1s.435-1 .942-1h18.116c.507 0 .942.462.942 1s-.435 1-.942 1H30.942zm0 6c-.508 0-.943-.48-.943-.96 0-.56.435-1.04.942-1.04h18.116c.507 0 .942.48.942 1.04s-.435.96-.942.96H30.942z" fill="#000"/></g></svg><svg width="60" height="60" viewBox="0 0 60 60" id="databrowser" y="340"><title>databrowser</title><desc>Created with Sketch.</desc><g fill="none"><path d="M30 58.75c15.878 0 28.75-12.872 28.75-28.75S45.878 1.25 30 1.25 1.25 14.122 1.25 30 14.122 58.75 30 58.75zM30 60C13.43 60 0 46.57 0 30S13.43 0 30 0s30 13.43 30 30-13.43 30-30 30z" fill-opacity=".011" fill="#fff"/><path d="M42.07 39.655c1.17-1.38 2.137-2.965 2.827-4.62.896-2.138 1.38-4.483 1.38-6.966 0-2.415-.484-4.69-1.31-6.83-.898-2.274-2.208-4.206-3.864-5.86l-.206-.07c-1.656-1.655-3.656-3.034-5.863-3.93-2.137-.897-4.482-1.38-6.896-1.38-5.035 0-9.517 2-12.828 5.31-1.655 1.656-3.034 3.656-3.93 5.862C10.482 23.31 10 25.655 10 28.07c0 2.413.483 4.758 1.31 6.827.966 2.275 2.345 4.275 4 5.93 1.656 1.656 3.656 3.035 5.862 3.932 2.138.895 4.483 1.378 6.897 1.378 2.413 0 4.758-.483 6.964-1.38 1.656-.69 3.242-1.655 4.62-2.827l7.174 7.173c.62.62 1.724.62 2.344 0 .69-.55.69-1.586.07-2.206l-7.173-7.242zm-3.518-1.103c-1.38 1.38-3.035 2.482-4.828 3.24-1.724.69-3.655 1.105-5.655 1.105-2 0-3.932-.414-5.656-1.104-1.793-.76-3.448-1.862-4.828-3.24-1.38-1.38-2.483-2.967-3.24-4.83v-.068c-.69-1.724-1.105-3.586-1.105-5.586 0-2 .415-3.932 1.105-5.656.758-1.793 1.862-3.448 3.24-4.828 2.69-2.69 6.346-4.345 10.484-4.345 2 0 3.93.415 5.654 1.105 1.793.758 3.448 1.862 4.828 3.24l.07.07c1.31 1.31 2.412 2.966 3.102 4.76l.07.068c.69 1.724 1.103 3.586 1.103 5.586 0 2-.414 3.93-1.104 5.654-.76 1.862-1.862 3.448-3.24 4.828zM23.517 17.31c-.69.276-1.38.69-2 1.035-.62.414-1.24.896-1.724 1.448-.552.552-1.034 1.104-1.448 1.724-.414.62-.76 1.242-1.104 2-.206.483 0 1.104.553 1.31.483.207 1.104 0 1.31-.55.276-.553.552-1.105.897-1.656.345-.55.76-1.034 1.172-1.448.483-.413.966-.827 1.45-1.172.55-.345 1.102-.62 1.654-.897.483-.206.758-.827.552-1.31-.207-.483-.76-.69-1.31-.483zm15.31 9.793c-.55 0-.965.483-.965 1.035 0 1.24-.276 2.552-.76 3.724v.07c-.48 1.102-1.17 2.206-2.068 3.102-.896.966-2 1.656-3.172 2.138-1.172.483-2.483.76-3.724.76-.552 0-1.035.413-1.035 1.034 0 .55.483.965 1.035.965 1.517 0 3.034-.275 4.483-.896 1.38-.55 2.69-1.448 3.794-2.55 1.103-1.105 1.93-2.415 2.552-3.794.62-1.45.896-2.966.896-4.483 0-.62-.483-1.104-1.034-1.104z" fill="#000"/></g></svg><svg width="60" height="60" viewBox="0 0 60 60" id="emails" y="400"><title>emails</title><desc>Created with Sketch.</desc><g fill="none"><path d="M30 58.75c15.878 0 28.75-12.872 28.75-28.75S45.878 1.25 30 1.25 1.25 14.122 1.25 30 14.122 58.75 30 58.75zM30 60C13.43 60 0 46.57 0 30S13.43 0 30 0s30 13.43 30 30-13.43 30-30 30z" id="agShape" fill-opacity=".011" fill="#fff"/><path d="M50.836 21.607l.164.165v25.501C51 48.26 50.26 49 49.274 49H10.726C9.74 49 9 48.26 9 47.273V22.84c0-.575.247-1.068.74-1.397L12 19v-7c0-.576.425-1 1-1h10c.082-.082 6.137-5.598 6.137-5.598.658-.494 1.562-.576 2.22 0 0 0 5.56 5.433 5.643 5.598h10c.575 0 1 .424 1 1v7l2.67 2.443c.083.082.166.082.166.164zM14 24l16.04 13.32h.33L46 24V13H14v11zm-2 22h36.04V25.5c-5.506 4.58-11.095 9.104-16.602 13.63-.164.163-.41.245-.657.245h-1.068c-.246 0-.493-.082-.657-.246C23.465 34.603 17.507 30.08 12 25.5V46zm15.986-35.087h4.44l-2.22-1.81-2.22 1.81z" fill="#000"/></g></svg><svg width="60" height="60" viewBox="0 0 60 60" id="feeds" y="460"><title>feed</title><desc>Created with Sketch.</desc><g fill="none"><path d="M30 58.75c15.878 0 28.75-12.872 28.75-28.75S45.878 1.25 30 1.25 1.25 14.122 1.25 30 14.122 58.75 30 58.75zM30 60C13.43 60 0 46.57 0 30S13.43 0 30 0s30 13.43 30 30-13.43 30-30 30z" fill-opacity=".011" fill="#fff"/><path d="M9.514 49.388C8.59 48.455 8 47.098 8 45.655V20.03C8 19.1 9.075 18 10 18h5.067V10.7c0-.933.757-1.697 1.683-1.697h33.568C51.243 9 52 9.766 52 10.7V45.74c0 1.442-.588 2.8-1.513 3.733-.925.933-2.272 1.527-3.702 1.527H13.217c-1.43-.085-2.776-.68-3.702-1.612zM49 12H18c.096 11.115.096 22.54 0 33.5.096.748-.248 1.906-.5 2.5H47c.505 0 1.163-.16 1.5-.5.337-.34.5-.906.5-1.5V12zM21.63 44.636c-.59 0-1.01-.424-1.01-1.018 0-.594.42-1.018 1.01-1.018h24.06c.59 0 1.01.51 1.01 1.018 0 .594-.42 1.018-1.01 1.018H21.63zm0-29.867c-.59 0-1.01.423-1.01 1.017V23c0 .593.42 1.017 1.01 1.017h23.976c.59 0 1.01-.424 1.01-1.018v-7.213c0-.594-.42-1.018-1.01-1.018H21.63zm1.01 7.21v-5.175h21.957v5.176H22.64zM15.066 21H11v24.654c0 2.376 4.067 2.46 4.067 0V21zm19.686 5.138h10.853c.59 0 1.01.424 1.01 1.018v5.43c0 .594-.42 1.018-1.01 1.018H34.753c-.59 0-1.01-.424-1.01-1.018v-5.43c0-.594.42-1.018 1.01-1.018zm9.843 2.036h-8.834v3.394h8.834v-3.394zm-22.967 0c-.59 0-1.01-.424-1.01-1.018 0-.594.42-1.018 1.01-1.018h9.926c.59 0 1.01.51 1.01 1.018 0 .594-.42 1.018-1.01 1.018H21.63zm0 5.515c-.59 0-1.01-.425-1.01-1.02 0-.593.42-1.017 1.01-1.017h9.926c.59 0 1.01.424 1.01 1.018 0 .595-.42 1.02-1.01 1.02H21.63zm0 5.43c-.59 0-1.01-.51-1.01-1.02 0-.593.42-1.017 1.01-1.017h24.06c.59 0 1.01.424 1.01 1.018 0 .595-.42 1.02-1.01 1.02H21.63z" fill="#000"/></g></svg><svg width="60" height="60" viewBox="0 0 60 60" id="files" y="520"><title>files</title><desc>Created with Sketch.</desc><path fill="#fff" fill-opacity=".011" d="M30 58.75c15.88 0 28.75-12.872 28.75-28.75S45.88 1.25 30 1.25C14.122 1.25 1.25 14.122 1.25 30S14.122 58.75 30 58.75zM30 60C13.432 60 0 46.568 0 30S13.432 0 30 0s30 13.432 30 30-13.432 30-30 30z"/><path d="M35.5 8H15c-1.652 0-3 1.346-3 3.007v37.986C12 50.66 13.347 52 15.007 52h29.985C46.654 52 48 50.66 48 49.008V20.5L35.5 8zm.5 4.5l7.5 7.5H36v-7.5zM45 49H15V11h19v11h11v27z"/></svg><svg width="60" height="60" viewBox="0 0 60 60" id="ghost" y="580"><title>ghost</title><desc>Created with Sketch.</desc><g fill="none"><path d="M30 58.75c15.878 0 28.75-12.872 28.75-28.75S45.878 1.25 30 1.25 1.25 14.122 1.25 30 14.122 58.75 30 58.75zM30 60C13.43 60 0 46.57 0 30S13.43 0 30 0s30 13.43 30 30-13.43 30-30 30z" fill-opacity=".011" fill="#fff"/><path d="M20.006 25h7.998v4h-7.998v-4zm11.996 0h7.993v4h-7.993v-4zM20 17h19.997v4H20v-4zm.006-8h11.998v4H20.006V9zM36 9h4v4h-4V9zM18.407 38.212c0-.2-.17-.315-.334-.296-.723.082-1.238.422-1.57.74-.655-.514-1.564-.76-2.583-.76-2.045 0-3.642.988-3.642 3.14 0 1.234.526 2.084 1.36 2.585-.62.295-1.032.917-1.032 1.53 0 1.024.81 1.344.81 1.344S10 47.18 10 48.554c0 1.76 1.618 2.47 3.595 2.47 2.85 0 4.81-1.177 4.81-3.34 0-1.33-1.017-2.064-3.235-2.15-1.316-.053-2.17-.1-2.38-.17-.28-.093-.417-.316-.417-.563 0-.272.224-.53.577-.71.307.055.632.082.97.082 2.045 0 3.64-.983 3.64-3.137 0-.523-.094-.976-.266-1.363.3-.16.67-.274 1.112-.274v-1.186zm-5.633 8.78s1.074.042 2.146.09c1.204.057 1.58.317 1.58.94 0 .763-1.048 1.505-2.51 1.505-1.39 0-2.084-.484-2.084-1.288 0-.463.244-.98.867-1.247zm1.15-4.32c-.97 0-1.724-.515-1.724-1.637 0-1.122.755-1.637 1.723-1.637.968 0 1.724.513 1.724 1.637 0 1.123-.756 1.636-1.724 1.636zm5.323 4.31V34.258l1.81-.256c.146-.02.342.085.342.293v4.717c.348-.33.732-.598 1.15-.802.418-.203.908-.305 1.472-.305.488 0 .92.083 1.297.25.378.164.693.397.946.695.252.3.444.657.575 1.072.13.415.196.872.196 1.372v5.688h-2.152v-5.688c0-.546-.126-.968-.38-1.268-.252-.3-.63-.448-1.136-.448-.37 0-.72.084-1.045.253-.324.17-.632.398-.922.69v6.462h-2.152zm13.046-9.08c-2.913 0-4.418 2.06-4.418 4.6 0 2.543 1.467 4.603 4.418 4.603 2.95 0 4.418-2.06 4.418-4.602 0-2.54-1.505-4.602-4.418-4.602zm2.204 4.61c-.002 1.634-.553 2.958-2.204 2.958-1.65 0-2.202-1.324-2.204-2.96v-.007c.002-1.634.553-2.958 2.204-2.958 1.65 0 2.202 1.324 2.204 2.958v.008zm8.214-2.613c-.42-.137-1.207-.355-1.957-.355-.764 0-1.365.264-1.365.9 0 .793 1.296 1.024 2.182 1.347.593.216 2.183.638 2.183 2.348 0 2.076-1.725 2.964-3.565 2.964-1.84 0-2.927-.684-2.927-.684s.286-1.008.344-1.207c.052-.18.26-.242.393-.19.474.18 1.33.435 2.295.435.98 0 1.453-.3 1.453-.936 0-.848-1.322-1.107-2.196-1.382-.603-.19-2.197-.633-2.197-2.513 0-1.853 1.627-2.722 3.365-2.722 1.472 0 2.194.308 2.733.583l-.344 1.203c-.053.186-.205.27-.396.21zm5.26 7.205c-1.48 0-2.41-.862-2.41-2.47V39.87h-1.667l.382-1.322c.03-.096.102-.2.25-.22l1.034-.145.41-2.608s1.204-.17 1.395-.2c.18-.026.344.104.344.3v2.508h2.11v1.688h-2.11v4.7c0 .643.39.888.764.888.23 0 .542-.12.776-.23.145-.067.37-.017.427.185L50 46.54c-.235.152-.977.565-2.03.565z" fill="#000"/></g></svg><svg width="60" height="60" viewBox="0 0 60 60" id="hastebin" y="640"><title>hastebin</title><desc>Created with Sketch.</desc><path d="M17.48 13l-1.995 17.425s2.43-3.158 5.314-3.116c2.197.03 3.267.48 4.347 1.442 1.12.95 1.68 2.194 1.68 3.735 0 .37-.02.787-.06 1.255-.04.468-.09.998-.157 1.59 0 0-2.33 9.82 2.144 7.98 0 1.53-.445 2.605-1.108 2.848-1.22.447-2.728.45-3.608 0-1.146-.588-1.93-2.13-1.65-4.81.285-2.747.422-4.712.643-6.5.426-3.438-1.625-3.884-3.575-3.884-2.793 0-4.42 1.89-4.882 5.672l-1.206 9.743H9L13.11 13h4.368zm22.352 0l-2.036 16.483c1.146-.856 2.14-1.43 2.984-1.72.883-.302 1.838-.454 2.866-.454 2.53 0 7.672 1.666 7.34 9.485-.366 8.573-5.594 10.02-8.308 10.02-2.53 0-4.743-.974-6.64-2.924l-.317 2.49h-3.704L36.126 13h3.706zm8.146 23.527c0-1.99-.52-3.618-1.56-4.882-1.04-1.264-2.39-1.896-4.054-1.896-1.802 0-3.292.757-4.47 2.274-1.178 1.485-1.767 3.405-1.767 5.76 0 1.974.506 3.562 1.518 4.763 1.012 1.232 2.33 1.85 3.95 1.85 1.79 0 3.293-.767 4.513-2.3 1.248-1.533 1.87-3.39 1.87-5.57z"/></svg><svg width="60" height="60" viewBox="0 0 60 60" id="isen" y="700"><title>isen</title><desc>Created with Sketch.</desc><path d="M6 21.303c0-.552.448-1 .995-1h1.048c.55 0 .995.448.995 1V38.14c0 .552-.448 1-.995 1H6.995c-.55 0-.995-.448-.995-1V21.303zm14.63-.26C19.727 20.396 18.694 20 17.545 20c-2.75 0-5.165 2.28-5.165 5.165 0 3.054 1.614 5.165 4.557 5.165 1.797 0 3.038.97 3.038 2.734 0 1.93-1.165 3.038-2.734 3.038-.526 0-1.095-.257-1.654-.717l-.07-.06c-.378-.394-1.05-.453-1.495-.135l-.852.61c-.447.318-.518.92-.148 1.327 0 0 .034.11.634.603 1.055.87 2.252 1.41 3.586 1.41 3.215 0 5.772-2.435 5.772-6.076 0-3.626-2.742-5.772-6.076-5.772-1.06 0-1.52-.6-1.52-2.127 0-1.166 1.018-2.127 2.128-2.127.446 0 .893.172 1.32.477.294.26.882.192 1.31-.15l.818-.654c.43-.342.464-.944.062-1.323 0 0 .1.032-.424-.344zm4.813.26c0-.552.438-1 1.004-1h9.536c.555 0 1.004.446 1.004 1.006v1.007c0 .555-.457 1.005-1.01 1.005H29.49c-.557 0-1.01.45-1.01 1v2.88c0 .552.457 1 1 1h5.294c.55 0 1 .447 1 .994v1.048c0 .55-.457.995-1 .995H29.48c-.55 0-1 .448-1 1.006v2.846c0 .556.458 1.007 1.01 1.007h6.488c.557 0 1.01.447 1.01.994v1.048c0 .55-.44.995-1.005.995h-9.536c-.555 0-1.004-.447-1.004-1V21.302zm14.582 0c0-.552.446-1 1.003-1h.425c.554 0 1.266.36 1.6.813l7.31 9.92c.33.45.6.374.6-.192v-9.536c0-.555.447-1.004.994-1.004h1.048c.55 0 .995.447.995 1V38.14c0 .552-.446 1-1.003 1h-.425c-.554 0-1.257-.366-1.574-.82l-7.364-10.547c-.316-.452-.57-.37-.57.18v10.19c0 .55-.45.996-.996.996H41.02c-.55 0-.995-.448-.995-1V21.303z"/></svg><svg width="60" height="60" viewBox="0 0 60 60" id="konnectors" y="760"><title>konnectors</title><desc>Created with Sketch.</desc><path fill="#fff" fill-opacity=".011" d="M30 58.75c15.878 0 28.75-12.872 28.75-28.75S45.878 1.25 30 1.25 1.25 14.122 1.25 30 14.122 58.75 30 58.75zM30 60C13.43 60 0 46.568 0 30 0 13.43 13.43 0 30 0c16.568 0 30 13.43 30 30 0 16.568-13.432 30-30 30z"/><circle cx="31.5" cy="44.5" r="4.5" fill="none"/><path d="M41.29 43zM37.82 43c-.678-2.865-3.247-5-6.32-5-3.59 0-6.5 2.91-6.5 6.5s2.91 6.5 6.5 6.5c3.072 0 5.64-2.135 6.32-5h3.469v-3h-3.471zm-6.32 6c-2.485 0-4.5-2.016-4.5-4.5s2.015-4.5 4.5-4.5c2.484 0 4.5 2.016 4.5 4.5S33.984 49 31.5 49zM42.432 20.996c-.348-2.814-1.644-5.415-3.728-7.425-2.39-2.304-5.546-3.57-8.888-3.57-3.343 0-6.5 1.267-8.888 3.572-2.092 2.018-3.393 4.634-3.732 7.463-2.87.334-5.523 1.616-7.572 3.677C7.286 27.067 6 30.178 6 33.472 6 40.383 11.7 46 18.71 46h1.41c.73 5.086 5.092 9 10.38 9v-2S22 53 22 44.5s8.5-8.5 8.5-8.5v-2c-5.288 0-9.65 3.914-10.38 9h-1.41C13.346 43 9 38.714 9 33.473c0-2.502.972-4.854 2.753-6.646 1.564-1.574 3.587-2.555 5.79-2.81l2.35-.274.282-2.35c.257-2.15 1.245-4.126 2.835-5.66 1.828-1.764 4.236-2.73 6.805-2.73 2.568 0 4.978.967 6.805 2.73 1.583 1.526 2.57 3.493 2.833 5.633l.297 2.407 2.416.213c4.98.44 8.832 4.568 8.832 9.49 0 5.238-4.348 9.524-9.708 9.526V46C48.297 46 54 40.38 54 33.473c0-6.528-5.093-11.905-11.568-12.477z"/></svg><svg width="60" height="60" viewBox="0 0 60 60" id="kresus" y="820"><title>kresus</title><desc>Created with Sketch.</desc><path d="M29.69 7.97h-.002c-4.342 0-7.875 3.532-7.875 7.874 0 .85.157 1.67.406 2.438l1.937-.594c-.188-.573-.28-1.205-.28-1.844 0-3.223 2.59-5.78 5.812-5.78s5.843 2.557 5.843 5.78c0 .57-.098 1.137-.25 1.656l2.062.125c.133-.572.22-1.17.22-1.78 0-4.343-3.533-7.876-7.875-7.876"/><path d="M51.86 26.436c-.734-.725-1.714-1.128-2.774-1.128h-.245c-.404-.807-.814-1.532-1.385-2.257-.57-.724-1.225-1.45-1.958-2.174l1.142-5.4c.162-.484.08-.887-.163-1.29-.49-.887-1.63-1.128-2.447-.645l-5.383 3.144-.98-.323c-1.853-.496-3.732-.728-5.525-.793l.617-.773c-.162-.22-.33-.427-.507-.624-.176-.197-.358-.385-.55-.564l.553-.693-.494-.395-.566.703c-.478-.35-.923-.52-1.337-.516-.41.006-.762.19-1.053.555-.275.343-.383.687-.326 1.033.06.347.3.757.717 1.23l.067.078c-.507.03-1.003.068-1.48.12-.142-.214-.28-.432-.39-.68l-.64.8.004.005c-2.44.34-4.288.89-4.997 1.242-1.956.806-3.75 1.854-5.3 3.144-3.26 2.66-5.465 6.287-5.87 10.317l-.49-.403c-.572-.564-.898-1.37-.898-2.176s.326-1.612.898-2.176c.407-.483.407-1.128 0-1.53-.41-.404-1.143-.404-1.55 0-.98.965-1.55 2.255-1.55 3.625s.57 2.66 1.55 3.628c.49.483 1.06.887 1.633 1.127h.08l.245.08c.083 2.094.733 4.19 1.713 6.045.898 1.692 2.203 3.223 3.67 4.592l-.814 1.29c-.653 1.127-.816 2.498-.49 3.707.325 1.21 1.142 2.338 2.285 2.982h.08c1.143.724 2.448.886 3.673.563h.08c1.224-.323 2.365-1.13 3.018-2.338l.98-1.692c.65.16 1.386.323 2.12.403 1.224.242 2.447.322 3.67.322 1.224 0 2.447-.162 3.67-.322.734-.082 1.47-.243 2.12-.403l.9 1.532.078.08c.653 1.21 1.796 2.016 3.02 2.336 1.14.323 2.528.243 3.67-.402l.08-.08c1.225-.646 2.04-1.772 2.366-2.98s.244-2.5-.408-3.63l-.082-.16-.815-1.29c.734-.645 1.47-1.37 2.04-2.175.65-.806 1.222-1.692 1.71-2.66h.246c1.06 0 2.04-.402 2.773-1.127.732-.727 1.14-1.693 1.14-2.74v-5.4c0-1.048-.407-2.015-1.14-2.74zm-22-12.513c.087-.108.2-.162.34-.163.145 0 .293.052.444.16l-.637.796c-.144-.146-.23-.283-.255-.414-.023-.133.013-.26.11-.38zm.67 1.353l-.084-.096.7-.876c.196.174.378.367.542.578.166.208.316.437.452.685-.468-.017-.927-.022-1.38-.018l-.23-.274zm18.962 19.22c0 .08 0 .16-.083.238l-.245.08h-1.388c-.814 0-1.467.485-1.713 1.21-.406.968-.978 1.935-1.71 2.82-.735.968-1.634 1.854-2.61 2.58-.735.564-.898 1.612-.49 2.337l1.467 2.5c.083.08.165.16.165.24.163.323.163.646.08.97-.08.322-.324.645-.57.807l-.162.08c-.326.16-.652.16-.98.08-.324-.08-.65-.242-.814-.564l-.163-.242-1.633-2.74c-.49-.725-1.305-1.045-2.12-.805-1.06.323-2.038.563-3.017.726-.98.16-2.04.24-3.1.24s-2.12-.08-3.098-.24c-1.063-.16-2.04-.4-3.02-.725-.816-.242-1.713.08-2.12.888l-1.63 2.82c-.164.323-.49.562-.817.643h-.08c-.327.082-.654.082-.98-.08l-.163-.08c-.245-.16-.49-.482-.57-.805-.08-.32-.08-.644.083-.966l.08-.242 1.47-2.498c.407-.807.244-1.772-.49-2.337-1.632-1.29-2.937-2.74-3.834-4.433-.817-1.53-1.307-3.305-1.307-5.158 0-3.546 1.795-6.85 4.65-9.186 3.017-2.42 7.177-3.95 11.744-3.95 1.387 0 2.772.16 3.996.404V19.1c1.306.242 2.61.645 3.67 1.127.572.243 1.224.162 1.714-.16l2.772-1.452-.57 2.58c-.083.644.16 1.29.65 1.694.816.645 1.55 1.45 2.12 2.255.572.806 1.06 1.693 1.47 2.578.245.727.897 1.13 1.63 1.13h1.388c.08 0 .163 0 .243.08.083.082.083.162.083.242v5.32zm-15.17-15.392zm8.81 7.765c-.55-.555-1.34-.87-2.13-.87-.87 0-1.58.315-2.134.868C38.316 27.42 38 28.132 38 29s.316 1.58.868 2.132C39.42 31.686 40.13 32 41 32c.79 0 1.578-.314 2.132-.868.552-.553.868-1.264.868-2.132 0-.79-.314-1.5-.788-2.053l-.08-.078zM41 30c-.552 0-1-.448-1-1s.448-1 1-1 1 .448 1 1-.448 1-1 1z"/></svg><svg width="60" height="60" viewBox="0 0 60 60" id="kyou" y="880"><title>kyou</title><desc>Created with Sketch.</desc><g fill="none"><path d="M30 58.75c15.878 0 28.75-12.872 28.75-28.75S45.878 1.25 30 1.25 1.25 14.122 1.25 30 14.122 58.75 30 58.75zM30 60C13.43 60 0 46.57 0 30S13.43 0 30 0s30 13.43 30 30-13.43 30-30 30z" fill-opacity=".011" fill="#fff"/><path d="M7 11.01C7 10.45 7.444 10 8 10c.552 0 1 .453 1 .997v36.006c0 .55.45.997 1.002.997h41.996c.554 0 1.002.444 1.002 1 0 .552-.455 1-1.004 1H9.006C7.898 50 7 49.108 7 48.003V11.01zm27.437 23.104l.082.082c.406.244.976.244 1.383.162.488-.162.895-.488 1.22-.896.245-.488.327-1.06.164-1.548s-.407-.896-.896-1.222c-.487-.244-.976-.325-1.464-.244-.49.163-.896.407-1.222.896l-.08.082c-.245.488-.245.977-.164 1.466.163.49.49.978.977 1.222zm11.154-9.287l-6.186 6.19.08.327c.245 1.06.164 2.2-.406 3.177-.57.98-1.466 1.712-2.524 1.957h-.08c-.978.244-2.118.163-3.095-.408-.978-.57-1.71-1.467-1.955-2.526-.244-.815-.163-1.63.08-2.444l-2.604-2.607h-.325c-.814.244-1.628.163-2.442-.082L19.13 35.42l.082.325c.245 1.06.163 2.2-.407 3.178-.57.978-1.547 1.71-2.524 1.956h-.08c-.977.244-2.117.163-3.094-.408l-.08-.08c-.978-.57-1.63-1.467-1.874-2.526-.244-1.06-.163-2.2.407-3.178.57-.977 1.465-1.63 2.523-1.955h.082c.814-.164 1.628-.164 2.442.08l7.002-7.006-.083-.325c-.244-1.06-.162-2.2.408-3.18.57-.976 1.465-1.71 2.523-1.954 1.06-.244 2.2-.163 3.176.408.977.57 1.71 1.466 1.954 2.525.244.814.162 1.628-.082 2.443l2.606 2.77.244-.082h.08c.815-.162 1.63-.162 2.444.083l6.187-6.192-.163-.324c-.244-1.06-.162-2.2.408-3.178.57-.977 1.465-1.63 2.523-1.955 1.06-.244 2.2-.163 3.176.408.978.57 1.71 1.467 1.955 2.526.244 1.06.162 2.2-.407 3.177-.57.978-1.466 1.63-2.524 1.955-.733.245-1.63.245-2.443-.08zm-20.027.163c.163.49.488.977.895 1.222.49.244 1.06.326 1.547.163.49-.163.977-.49 1.222-.896.244-.49.325-1.06.162-1.468-.163-.49-.49-.977-.896-1.222-.49-.244-1.06-.326-1.547-.163-.49.163-.977.49-1.22.896-.246.408-.246.978-.164 1.467zM13.27 37.29c.162.49.406.897.895 1.223.488.245.977.326 1.465.245.49-.163.977-.49 1.22-.896.246-.49.327-1.06.164-1.548-.163-.49-.488-.978-.895-1.222-.49-.245-.978-.326-1.467-.245-.488.163-.895.49-1.22.978-.245.407-.327.977-.164 1.466zm31.75-15.885c.164.49.408.896.897 1.14l.08.082c.49.245.978.245 1.467.163.488-.163.895-.407 1.14-.896l.08-.08c.245-.49.245-.98.164-1.468-.163-.49-.407-.896-.896-1.14l-.08-.082c-.49-.244-.978-.326-1.467-.163-.488.164-.895.41-1.14.897l-.08.082c-.245.488-.245.976-.164 1.465z" fill="#000"/></g></svg><svg width="60" height="60" viewBox="0 0 60 60" id="leave-google" y="940"><path d="M42.206 45.968C48.786 45.503 54 40.078 54 33.474c0-6.528-5.093-11.905-11.568-12.477-.348-2.814-1.644-5.415-3.728-7.425-2.39-2.305-5.546-3.57-8.888-3.57-3.343 0-6.5 1.266-8.888 3.57-2.092 2.02-3.393 4.635-3.732 7.464-2.87.334-5.523 1.616-7.572 3.677C7.286 27.068 6 30.18 6 33.473c0 6.605 5.21 12.032 11.793 12.496l-.617-3.088C12.542 42.157 9 38.205 9 33.472c0-2.5.973-4.853 2.754-6.646 1.564-1.574 3.587-2.555 5.79-2.81l2.35-.274.282-2.35c.257-2.15 1.245-4.126 2.835-5.66 1.83-1.764 4.237-2.73 6.806-2.73 2.568 0 4.978.967 6.805 2.73 1.584 1.526 2.57 3.493 2.834 5.633l.297 2.407 2.417.213c4.98.44 8.832 4.568 8.832 9.49 0 4.728-3.545 8.68-8.177 9.407l-.617 3.087zm-1.394-6.498H30.37v3.13h7.432c-.363 4.39-3.947 6.263-7.33 6.263-4.328 0-8.105-3.47-8.105-8.335 0-4.74 3.6-8.388 8.115-8.388 3.483 0 5.535 2.263 5.535 2.263l2.15-2.27S35.408 29 30.373 29C23.96 29 19 34.517 19 40.474 19 46.31 23.666 52 30.536 52 36.578 52 41 47.784 41 41.547c0-1.316-.187-2.076-.187-2.076z"/></svg><svg viewBox="0 0 60 60" width="60" height="60" id="mstsc" y="1000"><defs><linearGradient x1=".5" x2=".5" y2="1"><stop stop-color="#20A8F1" offset="0%"/><stop stop-color="#62C6ED" offset="100%"/></linearGradient></defs><g transform="matrix(.089 0 0 .089 7.629 11.699)"><path d="M376.453 387.847H135.66C60.908 387.847.123 327.305.123 252.882c0-35.49 13.72-69.015 38.656-94.382 21.84-22.2 50.134-36.02 80.74-39.615 3.616-30.48 17.48-58.658 39.794-80.4C184.79 13.644 218.45 0 254.094 0c35.637 0 69.306 13.646 94.783 38.474 22.22 21.65 36.045 49.676 39.75 79.993 69.05 6.16 123.363 64.097 123.363 134.425 0 74.413-60.826 134.955-135.547 134.955h.01z" fill="none"/><path d="M376.453 387.847H135.66C60.908 387.847.123 327.305.123 252.882c0-35.49 13.72-69.015 38.656-94.382 21.84-22.2 50.134-36.02 80.74-39.615 3.616-30.48 17.48-58.658 39.794-80.4C184.79 13.644 218.45 0 254.094 0c35.637 0 69.306 13.646 94.783 38.474 22.22 21.65 36.045 49.676 39.75 79.993 69.05 6.16 123.363 64.097 123.363 134.425 0 74.413-60.826 134.955-135.547 134.955zm-1.024-28.31h1.023c59.064 0 107.11-47.844 107.11-106.655 0-58.8-48.046-106.644-107.11-106.644h-1.075c-7.71 0-14.03-6.11-14.203-13.81-1.33-57.435-49.357-104.138-107.07-104.138-57.712 0-105.758 46.723-107.08 104.16-.173 7.556-6.286 13.646-13.885 13.82-57.67 1.323-104.59 49.146-104.59 106.622 0 58.812 48.045 106.655 107.11 106.655h.87l.338-.02c.307 0 .614 0 .92.02H375.4z" fill="#333"/></g><path fill="#333" d="M24.89 28.858l5.44 5.44-1.497 1.496-5.44-5.44z"/><path fill="#333" d="M23.394 38.24l5.44-5.44 1.496 1.497-5.44 5.44z"/><path fill="#333" d="M30.413 31.46l5.44-5.438 1.496 1.496-5.44 5.44z"/><path fill="#333" d="M35.853 36.9l-5.44-5.44 1.497-1.496 5.44 5.44z"/></svg><svg width="60" height="60" viewBox="0 0 60 60" id="my-apps" y="1060"><title>my-apps</title><desc>Created with Sketch.</desc><path d="M42.432 20.996c-.348-2.814-1.644-5.415-3.728-7.425-2.39-2.303-5.546-3.57-8.888-3.57s-6.5 1.267-8.888 3.572c-2.093 2.018-3.393 4.633-3.732 7.463-2.87.333-5.523 1.616-7.57 3.677C7.285 27.066 6 30.178 6 33.472 6 40.383 11.7 46 18.71 46h22.58C48.297 46 54 40.38 54 33.474c0-6.53-5.094-11.906-11.568-12.478zM9 33.473c0-2.502.973-4.854 2.754-6.647 1.564-1.573 3.587-2.555 5.79-2.81l2.35-.274.282-2.35c.257-2.148 1.245-4.126 2.835-5.66C24.84 13.968 27.248 13 29.817 13c.41 0 .813.033 1.212.082l-.005 2.282-.01 5.31v.575l-.01 5.748C30.128 26.348 29.187 26 28 26c-3.02 0-6 2.676-6 6s2.98 6 6 6c1.197 0 2.127-.34 3.005-.996l.007 2.204.002.622.01 2.902V43H18.71C13.348 43 9 38.715 9 33.473zM41.29 43h-8.266v-.275l-.01-2.9-.003-.623c-.006-2.39-.01-4.034-.01-4.59 0-.935-1.172-1.358-1.77-.638C30.08 35.36 29.217 36 28 36c-1.962 0-4-1.832-4-4s2.038-4 4-4c1.22 0 2.116.666 3.225 2.03.594.73 1.775.31 1.775-.632 0-.585.005-3.558.014-8.145v-.576l.01-5.31.004-1.826c1.332.458 2.56 1.19 3.594 2.19 1.584 1.527 2.568 3.493 2.834 5.633l.297 2.407 2.416.213c4.977.44 8.83 4.57 8.83 9.49C51 38.714 46.65 43 41.29 43z"/></svg><svg width="60" height="60" viewBox="0 0 60 60" id="nirc" y="1120"><title>nirc</title><desc>Created with Sketch.</desc><g fill="none"><path d="M30 58.75c15.878 0 28.75-12.872 28.75-28.75S45.878 1.25 30 1.25 1.25 14.122 1.25 30 14.122 58.75 30 58.75zM30 60C13.43 60 0 46.57 0 30S13.43 0 30 0s30 13.43 30 30-13.43 30-30 30z" fill-opacity=".011" fill="#fff"/><path d="M21.848 26.04c.884 0 1.67.396 2.26.99.588.594.98 1.386.98 2.277 0 .89-.392 1.683-.98 2.277-.59.594-1.376.99-2.26.99-.884 0-1.67-.396-2.26-.99-.588-.594-.98-1.386-.98-2.277 0-.89.392-1.683.98-2.277.59-.594 1.376-.99 2.26-.99zM30 10c5.99 0 11.49 2.178 15.42 5.545C49.446 19.01 52 23.86 52 29.307c0 5.346-2.455 10.198-6.58 13.762-3.93 3.465-9.43 5.544-15.42 5.544-1.768 0-3.536-.198-5.304-.594-1.473-.297-2.848-.792-4.125-1.287l-5.302 2.87c-.49.298-1.08.397-1.572.397-.59 0-1.08-.297-1.57-.594-.492-.396-.787-.792-.983-1.386-.197-.495-.197-1.09-.098-1.683l1.276-5.644c-1.275-1.485-2.258-3.168-3.043-4.95C8.49 33.763 8 31.583 8 29.307c0-5.347 2.455-10.198 6.58-13.762C18.51 12.178 23.91 10 30 10zm13.26 8.12c-3.34-2.97-8.055-4.754-13.26-4.754s-9.92 1.783-13.26 4.753c-3.338 2.87-5.302 6.83-5.302 11.187 0 1.782.392 3.564.982 5.148.687 1.684 1.67 3.17 2.848 4.555.393.396.59.99.49 1.584l-1.276 5.545 5.206-2.774c.49-.198.982-.297 1.473-.1 1.376.595 2.75 1.09 4.224 1.387 1.473.297 2.946.496 4.518.496 5.205 0 9.92-1.784 13.26-4.754 3.338-2.87 5.302-6.832 5.302-11.188.1-4.258-1.964-8.218-5.205-11.09zM22.633 28.415c-.197-.198-.49-.297-.786-.297-.294 0-.59.098-.884.296-.196.198-.393.495-.393.792 0 .297.1.594.394.89.197.2.49.397.884.397.295 0 .59-.1.786-.396.196-.2.295-.496.295-.892.097-.198-.1-.495-.296-.792zM30 26.04c.884 0 1.67.396 2.26.99.588.594.98 1.386.98 2.277 0 .89-.392 1.683-.98 2.277-.59.594-1.376.99-2.26.99-.884 0-1.67-.396-2.26-.99-.588-.594-.98-1.386-.98-2.277 0-.89.392-1.683.98-2.277.492-.594 1.278-.99 2.26-.99zm.786 2.376c-.197-.198-.49-.297-.786-.297-.295 0-.59.098-.884.296-.196.198-.295.495-.295.792 0 .297.1.594.296.89.197.2.49.397.884.397.295 0 .59-.1.786-.396.196-.2.294-.496.294-.892.1-.198-.098-.495-.294-.792zm7.268-2.376c.883 0 1.67.396 2.258.99.59.594.983 1.386.983 2.277 0 .89-.393 1.683-.983 2.277-.59.594-1.374.99-2.258.99-.884 0-1.67-.396-2.26-.99-.59-.594-.98-1.386-.98-2.277-.002-.89.39-1.683.98-2.277.59-.594 1.376-.99 2.26-.99zm.883 2.376c-.196-.198-.49-.297-.785-.297-.295 0-.59.098-.884.296-.197.198-.393.495-.393.792 0 .297.098.594.393.89.196.2.49.397.884.397.294 0 .59-.1.785-.396.197-.2.295-.496.295-.892 0-.198-.098-.495-.294-.792z" fill="#000"/></g></svg><svg width="60" height="60" viewBox="0 0 60 60" id="notes" y="1180"><title>notes</title><desc>Created with Sketch.</desc><path fill="#fff" fill-opacity=".011" d="M30 58.75c15.88 0 28.75-12.872 28.75-28.75S45.88 1.25 30 1.25C14.122 1.25 1.25 14.122 1.25 30S14.122 58.75 30 58.75zM30 60C13.432 60 0 46.568 0 30S13.432 0 30 0s30 13.432 30 30-13.432 30-30 30z"/><path d="M36 12.5V20h7.5zM34 11H15v38h30V22H34V11zm0 26H18v-2h16v2zm8-5H18v-2h24v2zm0-7v2H18v-2h24z" fill="none"/><path d="M35.5 8H15c-1.652 0-3 1.346-3 3.007v37.986C12 50.66 13.347 52 15.007 52h29.985C46.654 52 48 50.66 48 49.008V20.5L35.5 8zm.5 4.5l7.5 7.5H36v-7.5zM45 49H15V11h19v11h11v27zM18 25h24v2H18zm0 5h24v2H18zm0 5h16v2H18z"/></svg><svg width="60" height="60" viewBox="0 0 60 60" id="owm" y="1240"><title>owm</title><desc>Created with Sketch.</desc><path fill="#fff" fill-opacity=".011" d="M30 58.75c15.88 0 28.75-12.872 28.75-28.75S45.88 1.25 30 1.25C14.122 1.25 1.25 14.122 1.25 30S14.122 58.75 30 58.75zM30 60C13.432 60 0 46.568 0 30S13.432 0 30 0s30 13.432 30 30-13.432 30-30 30z"/><path d="M18.69 39.896l-5.664 5.663c-.382.38-.388 1.02.003 1.41.393.393 1.02.392 1.41.003l5.663-5.663c.382-.382.388-1.02-.003-1.41-.393-.394-1.022-.392-1.41-.004zM18.69 20.104c.38.382 1.02.388 1.41-.003.393-.393.392-1.02.003-1.41l-5.663-5.663c-.382-.382-1.02-.388-1.41.003-.394.394-.393 1.022-.004 1.41l5.663 5.664zM16 30c0-.556-.446-1-.996-1H6.996c-.54 0-.996.448-.996 1 0 .557.446 1 .996 1h8.01c.538 0 .994-.447.994-1zM30 16c.557 0 1-.446 1-.996V6.996c0-.54-.447-.996-1-.996-.556 0-1 .446-1 .996v8.01c0 .538.448.994 1 .994zM41.31 20.104l5.664-5.663c.382-.38.388-1.02-.003-1.41-.393-.393-1.02-.392-1.41-.003l-5.663 5.663c-.382.382-.388 1.02.003 1.41.393.394 1.022.393 1.41.004zM41.31 39.896c-.38-.382-1.02-.388-1.41.003-.394.393-.392 1.02-.003 1.41l5.663 5.663c.382.382 1.02.388 1.41-.003.394-.394.393-1.022.004-1.41l-5.663-5.664zM53.004 29h-8.008c-.54 0-.996.448-.996 1 0 .557.445 1 .996 1h8.008c.54 0 .996-.447.996-1 0-.556-.445-1-.996-1zM30 18c-6.627 0-12 5.373-12 12s5.373 12 12 12 12-5.373 12-12-5.373-12-12-12zm0 21c-4.97 0-9-4.03-9-9s4.03-9 9-9 9 4.03 9 9-4.03 9-9 9zM30 44c-.556 0-1 .445-1 .996v8.008c0 .54.448.996 1 .996.557 0 1-.445 1-.996v-8.008c0-.54-.447-.996-1-.996z"/></svg><svg width="60" height="60" viewBox="0 0 60 60" id="photos" y="1300"><title>photos</title><desc>Created with Sketch.</desc><path fill="#fff" fill-opacity=".011" d="M30 58.75c15.88 0 28.75-12.872 28.75-28.75S45.88 1.25 30 1.25C14.122 1.25 1.25 14.122 1.25 30S14.122 58.75 30 58.75zM30 60C13.432 60 0 46.568 0 30S13.432 0 30 0s30 13.432 30 30-13.432 30-30 30z"/><path d="M20.34 26.087c2.186 0 4.008-1.692 4.008-3.878s-1.75-3.95-4.01-3.95c-2.186 0-4.008 1.763-4.08 3.95 0 2.115 1.822 3.877 4.08 3.877zm7.945 12.267l3.06 2.96c.44.424.44 1.06 0 1.48s-1.092.424-1.53 0l-3.79-3.665-6.34-6.135L10 42.5V46h40v-3.204l-13.113-12.76-8.602 8.318zM10 39.5l8.88-8.69c.44-.422 1.095-.422 1.532 0l6.342 6.135 9.33-9.024c.438-.422 1.094-.422 1.53 0L50 40V14H10v25.5zm10.34-23.283c3.425 0 6.195 2.68 6.195 5.993 0 3.314-2.77 5.993-6.196 5.993-3.354 0-6.124-2.68-6.197-5.993 0-3.314 2.77-5.993 6.196-5.993z" fill="none"/><path d="M50 11H10c-1.65 0-3 1.342-3 2.998v32.004C7 47.647 8.343 49 10 49h40c1.648 0 3-1.342 3-2.998V13.998C53 12.353 51.656 11 50 11zm0 35H10v-3.5l9.684-9.504 6.34 6.134 3.792 3.666c.438.423 1.093.423 1.53 0s.438-1.058 0-1.48l-3.06-2.96 8.6-8.32L50 42.796V46zm0-6L37.615 27.92c-.438-.423-1.094-.423-1.53 0l-9.33 9.024-6.343-6.134c-.437-.423-1.093-.423-1.53 0L10 39.5V14h40v26zM20.34 28.202c3.425 0 6.195-2.68 6.195-5.993 0-3.314-2.77-5.994-6.196-5.994s-6.197 2.68-6.197 5.993c.073 3.313 2.843 5.992 6.196 5.992zm0-9.94c2.26 0 4.008 1.762 4.008 3.948s-1.822 3.878-4.01 3.878c-2.26 0-4.08-1.763-4.08-3.878.072-2.186 1.895-3.948 4.08-3.948z"/></svg><svg width="60" height="60" viewBox="0 0 60 60" id="polybios" y="1360"><title>polybios</title><desc>Created with Sketch.</desc><path d="M46.003 24H43v-5c0-.413-.052-1.076-.204-1.91-.252-1.38-.705-2.76-1.418-4.06C39.32 9.274 35.586 7 30 7s-9.32 2.273-11.378 6.03c-.712 1.3-1.166 2.682-1.418 4.06-.152.834-.204 1.497-.204 1.91v5h-3.002C12.352 24 11 25.343 11 27v24c0 1.652 1.342 3 2.998 3h32.005C47.65 54 49 52.657 49 51V27c0-1.653-1.34-3-2.997-3zM20 19l.018-.334c.024-.31.068-.66.137-1.037.198-1.083.552-2.163 1.098-3.16C22.79 11.666 25.523 10 30 10s7.21 1.665 8.747 4.47c.545.997.9 2.077 1.1 3.16.067.377.11.727.136 1.036L40 19v5H20v-5zm26 32H14V27h32v24zM16.88 33.49c0-.607.063-1.14.19-1.596s.305-.834.535-1.135c.23-.3.505-.526.825-.676.32-.15.677-.225 1.07-.225.84 0 1.487.294 1.94.884s.68 1.505.68 2.745c0 .612-.063 1.147-.19 1.603-.127.457-.305.837-.535 1.14-.23.304-.507.53-.83.68-.323.15-.682.227-1.075.227-.847 0-1.493-.312-1.94-.936-.447-.622-.67-1.527-.67-2.714zm3.96 0l-.005-.305-.015-.285-2.45 2.23c.207.605.583.91 1.13.91.427 0 .757-.204.99-.61.233-.407.35-1.053.35-1.94zm-2.68 0l.005.285.015.274 2.44-2.23c-.2-.573-.577-.86-1.13-.86-.427 0-.755.205-.985.615-.23.41-.345 1.048-.345 1.915zm5.72 0c0-.607.063-1.14.19-1.596s.305-.834.535-1.135c.23-.3.505-.526.825-.676.32-.15.677-.225 1.07-.225.84 0 1.487.294 1.94.884s.68 1.505.68 2.745c0 .612-.063 1.147-.19 1.603-.127.457-.305.837-.535 1.14-.23.304-.507.53-.83.68-.323.15-.682.227-1.075.227-.847 0-1.493-.312-1.94-.936-.447-.622-.67-1.527-.67-2.714zm3.96 0l-.005-.305-.015-.285-2.45 2.23c.207.605.583.91 1.13.91.427 0 .757-.204.99-.61.233-.407.35-1.053.35-1.94zm-2.68 0l.005.285.015.274 2.44-2.23c-.2-.573-.577-.86-1.13-.86-.427 0-.755.205-.985.615-.23.41-.345 1.048-.345 1.915zm6.4 2.41h1.53v-4.37l-1.32 1.01-.6-.8L33.45 30h.88v5.9h1.5V37h-4.27v-1.1zm6.32-2.41c0-.607.063-1.14.19-1.596s.305-.834.535-1.135c.23-.3.504-.526.824-.676s.677-.225 1.07-.225c.84 0 1.485.294 1.938.884s.68 1.505.68 2.745c0 .612-.062 1.147-.19 1.603-.126.457-.304.837-.534 1.14-.23.304-.506.53-.83.68-.322.15-.682.227-1.074.227-.848 0-1.493-.312-1.94-.936-.446-.622-.67-1.527-.67-2.714zm3.96 0l-.005-.305-.015-.285-2.45 2.23c.207.605.583.91 1.13.91.427 0 .757-.204.99-.61.233-.407.35-1.053.35-1.94zm-2.68 0l.005.285.015.274 2.44-2.23c-.2-.573-.577-.86-1.13-.86-.428 0-.756.205-.985.615-.23.41-.345 1.048-.345 1.915zm-22.28 11c0-.607.063-1.14.19-1.596s.305-.834.535-1.135c.23-.3.505-.526.825-.676.32-.15.677-.226 1.07-.226.84 0 1.487.296 1.94.886s.68 1.505.68 2.745c0 .612-.063 1.147-.19 1.603-.127.457-.305.837-.535 1.14-.23.304-.507.53-.83.68-.323.15-.682.227-1.075.227-.847 0-1.493-.312-1.94-.936-.447-.622-.67-1.527-.67-2.714zm3.96 0l-.005-.305-.015-.285-2.45 2.23c.207.605.583.91 1.13.91.427 0 .757-.204.99-.61.233-.407.35-1.053.35-1.94zm-2.68 0l.005.285.015.274 2.44-2.23c-.2-.573-.577-.86-1.13-.86-.427 0-.755.205-.985.615-.23.41-.345 1.048-.345 1.915zm6.4 2.41h1.53v-4.37l-1.32 1.01-.6-.8L26.45 41h.88v5.9h1.5V48h-4.27v-1.1zm6.32-2.41c0-.607.063-1.14.19-1.596s.305-.834.535-1.135c.23-.3.504-.526.824-.676s.677-.226 1.07-.226c.84 0 1.485.296 1.938.886s.68 1.505.68 2.745c0 .612-.062 1.147-.19 1.603-.126.457-.304.837-.534 1.14-.23.304-.506.53-.83.68-.322.15-.682.227-1.074.227-.848 0-1.493-.312-1.94-.936-.446-.622-.67-1.527-.67-2.714zm3.96 0l-.005-.305-.015-.285-2.45 2.23c.207.605.583.91 1.13.91.427 0 .757-.204.99-.61.233-.407.35-1.053.35-1.94zm-2.68 0l.005.285.015.274 2.44-2.23c-.2-.573-.577-.86-1.13-.86-.428 0-.756.205-.985.615-.23.41-.345 1.048-.345 1.915zm6.4 2.41h1.53v-4.37l-1.32 1.01-.6-.8L40.45 41h.88v5.9h1.5V48h-4.27v-1.1z"/></svg><svg width="60" height="60" viewBox="0 0 60 60" id="remote_storage" y="1420"><title>remote_storage</title><desc>Created with Sketch.</desc><path fill="#fff" fill-opacity=".011" d="M30 58.75c15.88 0 28.75-12.872 28.75-28.75S45.88 1.25 30 1.25C14.122 1.25 1.25 14.122 1.25 30S14.122 58.75 30 58.75zM30 60C13.432 60 0 46.568 0 30S13.432 0 30 0s30 13.432 30 30-13.432 30-30 30z"/><path d="M31 7L11 19v22l20 12 20-12V19L31 7zM14 21.34L29 30l-15 8.66V21.34zm16 27.072l-14.31-8.418L30 31.732v16.68zm0-20.144l-14.31-8.262L30 11.588v16.68zm2-16.68l14.31 8.417L32 28.268v-16.68zm0 36.824v-16.68l14.31 8.262L32 48.412zm16-9.752L33 30l15-8.66v17.32z"/></svg><svg width="60" height="60" viewBox="0 0 60 60" id="settings" y="1480"><title>settings</title><desc>Created with Sketch.</desc><g fill="none"><path d="M30 58.75c15.878 0 28.75-12.872 28.75-28.75S45.878 1.25 30 1.25 1.25 14.122 1.25 30 14.122 58.75 30 58.75zM30 60C13.43 60 0 46.57 0 30S13.43 0 30 0s30 13.43 30 30-13.43 30-30 30z" fill-opacity=".011" fill="#fff"/><path d="M31.833 52h-3.666c-1.517 0-2.75-1.234-2.75-2.75v-3.414c-1.174-.34-2.303-.807-3.375-1.4l-2.414 2.416c-1.04 1.04-2.85 1.038-3.89 0l-2.593-2.592c-.52-.52-.806-1.21-.806-1.945 0-.734.286-1.425.805-1.944l2.416-2.415c-.59-1.07-1.06-2.198-1.397-3.373H10.75c-1.516 0-2.75-1.233-2.75-2.75v-3.666c0-.735.286-1.426.805-1.945.52-.517 1.21-.804 1.945-.804h3.414c.34-1.172.806-2.302 1.4-3.373l-2.416-2.415c-1.072-1.073-1.072-2.816 0-3.89l2.592-2.592c1.04-1.038 2.85-1.04 3.89 0l2.415 2.416c1.07-.592 2.2-1.06 3.372-1.398V10.75c0-1.516 1.233-2.75 2.75-2.75h3.666c1.517 0 2.75 1.234 2.75 2.75v3.414c1.174.34 2.303.807 3.372 1.398l2.415-2.416c1.04-1.038 2.85-1.04 3.89 0l2.593 2.592c.52.52.806 1.21.806 1.945 0 .734-.287 1.425-.807 1.944l-2.415 2.415c.593 1.07 1.06 2.2 1.4 3.374h3.412c1.516 0 2.75 1.234 2.75 2.75v3.666c0 .736-.286 1.426-.805 1.945-.52.518-1.21.805-1.945.805h-3.414c-.34 1.174-.807 2.304-1.398 3.374l2.414 2.415c1.073 1.074 1.073 2.817 0 3.89l-2.592 2.593c-1.04 1.038-2.85 1.038-3.89 0l-2.413-2.416c-1.07.593-2.2 1.06-3.373 1.4v3.413c0 1.516-1.234 2.75-2.75 2.75zm0-3c-.14 0-.25.11-.25.25v-5.668l2.167-.627c.96-.28 1.884-.66 2.755-1.143l1.977-1.093 1.597 1.597 2.41 2.414c-.13-.13-.22-.13-.352.002l2.593-2.594c-.098.1-.098.255 0 .354l-2.414-2.415-1.596-1.597 1.092-1.975c.482-.874.865-1.796 1.142-2.756l.627-2.168h5.67c-.06 0-.133.03-.176.073-.044.044-.074.117-.074.177v-3.666c0 .14.11.25.25.25h-5.67l-.625-2.17c-.276-.956-.658-1.877-1.142-2.752l-1.093-1.976 1.597-1.597 2.416-2.416c-.044.044-.074.117-.074.18 0 .06.03.133.072.176l-2.594-2.593c.133.133.22.133.354 0l-2.416 2.416-1.596 1.596-1.976-1.092c-.873-.483-1.796-.865-2.754-1.142l-2.167-.627v-5.67c0 .14.11.25.25.25h-3.666c.14 0 .25-.11.25-.25v5.67l-2.168.626c-.957.276-1.88.658-2.755 1.142l-1.975 1.09-1.596-1.595-2.416-2.416c.133.133.22.133.354 0L15.27 17.86c.098-.098.098-.254 0-.353l2.414 2.415 1.597 1.597-1.092 1.975c-.482.87-.864 1.794-1.143 2.755l-.627 2.166H10.75c.06 0 .133-.03.176-.073.044-.044.074-.117.074-.177v3.666c0-.14-.11-.25-.25-.25H16.42l.626 2.17c.275.957.657 1.878 1.14 2.75l1.093 1.977-1.598 1.596-2.417 2.418c.044-.044.074-.117.074-.18 0-.06-.03-.133-.074-.176l2.592 2.59c-.13-.13-.22-.13-.352.003l2.415-2.414 1.597-1.597 1.976 1.09c.876.485 1.798.867 2.757 1.144l2.167.627v5.67c0-.14-.11-.25-.25-.25h3.666zM30 39c-4.963 0-9-4.037-9-9s4.037-9 9-9 9 4.037 9 9-4.036 9-9 9zm0-2c3.86 0 7-3.142 7-7s-3.142-7-7-7-7 3.142-7 7 3.142 7 7 7z" fill="#000"/></g></svg><svg width="60" height="60" viewBox="0 0 60 60" id="state" y="1540"><title>state</title><desc>Created with Sketch.</desc><g fill="none"><path d="M30 58.75c15.878 0 28.75-12.872 28.75-28.75S45.878 1.25 30 1.25 1.25 14.122 1.25 30 14.122 58.75 30 58.75zM30 60C13.43 60 0 46.57 0 30S13.43 0 30 0s30 13.43 30 30-13.43 30-30 30z" fill-opacity=".011" fill="#fff"/><path d="M29 29v-8H16.996C15.34 21 14 19.658 14 18.003v-6.006C14 10.342 15.334 9 16.996 9h26.008C44.66 9 46 10.342 46 11.997v6.006C46 19.658 44.666 21 43.004 21H31v8h9c3.314 0 6.004 2.69 6.004 6v4h2C49.657 39 51 40.342 51 41.997v6.006C51 49.658 49.658 51 48.003 51h-6.006C40.342 51 39 49.658 39 48.003v-6.006C39 40.342 40.342 39 41.997 39h2.007v-4c0-2.205-1.795-4-4.005-4h-9v8h2.003C34.658 39 36 40.342 36 41.997v6.006C36 49.658 34.658 51 33.003 51h-6.006C25.342 51 24 49.658 24 48.003v-6.006C24 40.342 25.342 39 26.997 39H29v-8h-8.995C17.787 31 16 32.787 16 35v4h2.003C19.658 39 21 40.342 21 41.997v6.006C21 49.658 19.658 51 18.003 51h-6.006C10.342 51 9 49.658 9 48.003v-6.006C9 40.342 10.342 39 11.997 39H14v-4c0-3.317 2.682-6 6.005-6H29zM17 12.99c0-.546.45-.99 1.003-.99h23.994c.554 0 1.003.45 1.003.99v4.02c0 .546-.45.99-1.003.99H18.003C17.45 18 17 17.55 17 17.01v-4.02zm-5 30c0-.546.45-.99.99-.99h4.02c.546 0 .99.45.99.99v4.02c0 .546-.45.99-.99.99h-4.02c-.546 0-.99-.45-.99-.99v-4.02zm30 0c0-.546.45-.99.99-.99h4.02c.546 0 .99.45.99.99v4.02c0 .546-.45.99-.99.99h-4.02c-.546 0-.99-.45-.99-.99v-4.02zm-15 0c0-.546.45-.99.99-.99h4.02c.546 0 .99.45.99.99v4.02c0 .546-.45.99-.99.99h-4.02c-.546 0-.99-.45-.99-.99v-4.02z" fill="#000"/></g></svg><svg width="60" height="60" viewBox="0 0 60 60" id="store" y="1600"><title>store</title><desc>Created with Sketch.</desc><path fill="#fff" fill-opacity=".011" d="M30 58.75c15.878 0 28.75-12.872 28.75-28.75S45.878 1.25 30 1.25 1.25 14.122 1.25 30 14.122 58.75 30 58.75zM30 60C13.43 60 0 46.568 0 30 0 13.43 13.43 0 30 0c16.568 0 30 13.43 30 30 0 16.568-13.432 30-30 30z"/><path d="M30 10c-11.046 0-20 8.954-20 20s8.954 20 20 20 20-8.954 20-20-8.954-20-20-20zm12 21.5H31.5V42h-3V31.5H18v-3h10.5V18h3v10.5H42v3z" fill="none"/><path d="M30 7C17.297 7 7 17.297 7 30s10.297 23 23 23 23-10.297 23-23S42.703 7 30 7zm0 43c-11.046 0-20-8.954-20-20s8.954-20 20-20 20 8.954 20 20-8.954 20-20 20zm1.5-32h-3v10.5H18v3h10.5V42h3V31.5H42v-3H31.5V18z"/></svg><svg width="60" height="60" viewBox="0 0 60 60" id="sync" y="1660"><title>sync</title><desc>Created with Sketch.</desc><g fill="none"><path d="M30 58.75c15.878 0 28.75-12.872 28.75-28.75S45.878 1.25 30 1.25 1.25 14.122 1.25 30 14.122 58.75 30 58.75zM30 60C13.43 60 0 46.57 0 30S13.43 0 30 0s30 13.43 30 30-13.43 30-30 30z" fill-opacity=".011" fill="#fff"/><path d="M17.345 45.928C10.975 45.255 6 39.926 6 33.473c0-3.295 1.287-6.406 3.625-8.76 2.048-2.062 4.7-3.344 7.572-3.678.338-2.83 1.64-5.445 3.73-7.463 2.39-2.305 5.546-3.572 8.89-3.572 3.34 0 6.498 1.267 8.887 3.57 2.084 2.01 3.38 4.612 3.728 7.426C48.907 21.568 54 26.946 54 33.473c0 6.453-4.978 11.782-11.345 12.455l-.495-2.966c4.953-.434 8.84-4.536 8.84-9.49 0-4.92-3.853-9.048-8.832-9.487l-2.416-.214-.297-2.406c-.265-2.14-1.25-4.107-2.834-5.634-1.826-1.762-4.235-2.73-6.804-2.73-2.57 0-4.978.968-6.805 2.73-1.59 1.536-2.577 3.513-2.835 5.662l-.28 2.35-2.352.273c-2.202.256-4.225 1.237-5.79 2.81C9.974 28.62 9 30.972 9 33.474c0 4.955 3.885 9.055 8.84 9.49l-.495 2.965zM36.3 39.714h-2.442l1.79-1.79c-1.09-1.997-3.21-3.352-5.647-3.352-3.108 0-5.703 2.208-6.3 5.142h-2.61C21.717 35.354 25.467 32 30 32c3.142 0 5.91 1.61 7.52 4.052l1.48-1.48v5.142H36.3zM30 47.428c3.108 0 5.703-2.208 6.3-5.142h2.61C38.283 46.646 34.533 50 30 50c-3.142 0-5.91-1.61-7.52-4.052L21 47.428v-5.144h5.144l-1.79 1.79c1.09 1.998 3.21 3.352 5.647 3.352v.002z" fill="#000"/></g></svg><svg width="60" height="60" viewBox="0 0 60 60" id="tasky" y="1720"><title>tasky</title><desc>Created with Sketch.</desc><g fill="none"><path d="M30 58.75c15.878 0 28.75-12.872 28.75-28.75S45.878 1.25 30 1.25 1.25 14.122 1.25 30 14.122 58.75 30 58.75zM30 60C13.43 60 0 46.57 0 30S13.43 0 30 0s30 13.43 30 30-13.43 30-30 30z" fill-opacity=".011" fill="#fff"/><path d="M7 31.022l13.963 13.923L22.02 46l1.06-1.055L53 15.11 50.884 13l-29.92 29.835h2.115L9.115 28.912 7 31.022z" fill="#000"/></g></svg><svg width="60" height="60" viewBox="0 0 60 60" id="term" y="1780"><title>term</title><desc>Created with Sketch.</desc><g fill="none"><path d="M30 58.75c15.878 0 28.75-12.872 28.75-28.75S45.878 1.25 30 1.25 1.25 14.122 1.25 30 14.122 58.75 30 58.75zM30 60C13.43 60 0 46.57 0 30S13.43 0 30 0s30 13.43 30 30-13.43 30-30 30z" fill-opacity=".011" fill="#fff"/><path d="M9 15.013V11l25.058 10.28v3.666L9 35.226v-4.03l20.14-8.07L9 15.014zM27 47c0-.553.447-1 1-1h22c.552 0 1 .443 1 1v1c0 .553-.447 1-1 1H28c-.552 0-1-.443-1-1v-1z" fill="#000"/></g></svg><svg width="60" height="60" viewBox="0 0 60 60" id="thelounge" y="1840"><title>shout IRC</title><desc>Created with Sketch.</desc><path d="M30 8C17.85 8 8 17.402 8 29c0 5.316 2.07 10.172 5.48 13.87h.002l-1.178 7.655c-.168 1.09.505 1.57 1.488 1.078l7.028-3.514C23.614 49.315 26.723 50 30 50c12.15 0 22-9.402 22-21S42.15 8 30 8zm5.318 31.532c-1.483 1.188-3.55 1.78-6.194 1.78-2.438 0-4.594-.457-6.47-1.375v-4.5c1.543.688 2.847 1.172 3.915 1.453 1.067.28 2.043.422 2.93.422 1.062 0 1.877-.203 2.443-.608.568-.406.853-1.01.853-1.813 0-.446-.125-.845-.375-1.194-.25-.348-.615-.685-1.102-1.008-.483-.322-1.47-.838-2.96-1.547-1.396-.655-2.443-1.285-3.14-1.89-.7-.604-1.256-1.307-1.673-2.11-.417-.8-.625-1.74-.625-2.812 0-2.02.685-3.61 2.055-4.766 1.37-1.156 3.263-1.734 5.68-1.734 1.187 0 2.32.14 3.397.422s2.206.677 3.383 1.188l-1.562 3.766c-1.22-.5-2.227-.85-3.023-1.047-.797-.198-1.58-.297-2.352-.297-.917 0-1.62.214-2.11.64-.49.428-.733.985-.733 1.673 0 .427.1.8.297 1.117.198.318.513.625.945.922s1.456.83 3.07 1.602c2.135 1.02 3.6 2.044 4.39 3.07.794 1.026 1.19 2.284 1.19 3.773 0 2.063-.742 3.687-2.23 4.875z"/></svg><svg width="60" height="60" viewBox="0 0 60 60" id="todos" y="1900"><title>todos</title><desc>Created with Sketch.</desc><path fill="#fff" fill-opacity=".011" d="M30 58.75c15.88 0 28.75-12.872 28.75-28.75S45.88 1.25 30 1.25C14.122 1.25 1.25 14.122 1.25 30S14.122 58.75 30 58.75zM30 60C13.432 60 0 46.568 0 30S13.432 0 30 0s30 13.432 30 30-13.432 30-30 30z"/><path d="M25 41h15v2H25z"/><circle cx="21" cy="28" r="2"/><circle cx="21" cy="35" r="2"/><circle cx="21" cy="42" r="2"/><path d="M25 34h15v2H25zM44.992 14H42v-2h-6s0-6-6-6-6 6-6 6h-6v2h-2.993C13.347 14 12 15.346 12 17.006v33.988C12 52.658 13.347 54 15.007 54h29.985C46.654 54 48 52.654 48 50.994V17.006C48 15.342 46.653 14 44.992 14zM30 8c4 0 4 4 4 4h-8s0-4 4-4zm-10 6h20v3H20v-3zm25 36c0 .553-.447 1-.998 1H15.998c-.55 0-.998-.455-.998-1V18c0-.553.447-1 .998-1H18v2h24v-2h2.002c.55 0 .998.455.998 1v32zM25 27h15v2H25z"/></svg></svg>