<svg xmlns="http://www.w3.org/2000/svg" width="60" height="60" viewBox="0 0 60 60"><title>isen</title><desc>Created with Sketch.</desc><path d="M6 21.303c0-.552.448-1 .995-1h1.048c.55 0 .995.448.995 1V38.14c0 .552-.448 1-.995 1H6.995c-.55 0-.995-.448-.995-1V21.303zm14.63-.26C19.727 20.396 18.694 20 17.545 20c-2.75 0-5.165 2.28-5.165 5.165 0 3.054 1.614 5.165 4.557 5.165 1.797 0 3.038.97 3.038 2.734 0 1.93-1.165 3.038-2.734 3.038-.526 0-1.095-.257-1.654-.717l-.07-.06c-.378-.394-1.05-.453-1.495-.135l-.852.61c-.447.318-.518.92-.148 1.327 0 0 .034.11.634.603 1.055.87 2.252 1.41 3.586 1.41 3.215 0 5.772-2.435 5.772-6.076 0-3.626-2.742-5.772-6.076-5.772-1.06 0-1.52-.6-1.52-2.127 0-1.166 1.018-2.127 2.128-2.127.446 0 .893.172 1.32.477.294.26.882.192 1.31-.15l.818-.654c.43-.342.464-.944.062-1.323 0 0 .1.032-.424-.344zm4.813.26c0-.552.438-1 1.004-1h9.536c.555 0 1.004.446 1.004 1.006v1.007c0 .555-.457 1.005-1.01 1.005H29.49c-.557 0-1.01.45-1.01 1v2.88c0 .552.457 1 1 1h5.294c.55 0 1 .447 1 .994v1.048c0 .55-.457.995-1 .995H29.48c-.55 0-1 .448-1 1.006v2.846c0 .556.458 1.007 1.01 1.007h6.488c.557 0 1.01.447 1.01.994v1.048c0 .55-.44.995-1.005.995h-9.536c-.555 0-1.004-.447-1.004-1V21.302zm14.582 0c0-.552.446-1 1.003-1h.425c.554 0 1.266.36 1.6.813l7.31 9.92c.33.45.6.374.6-.192v-9.536c0-.555.447-1.004.994-1.004h1.048c.55 0 .995.447.995 1V38.14c0 .552-.446 1-1.003 1h-.425c-.554 0-1.257-.366-1.574-.82l-7.364-10.547c-.316-.452-.57-.37-.57.18v10.19c0 .55-.45.996-.996.996H41.02c-.55 0-.995-.448-.995-1V21.303z"/></svg>