<svg xmlns="http://www.w3.org/2000/svg" viewBox="0 0 100 100" enable-background="new 0 0 100 100" width="100" height="100"><path d="M67.7 60.6c1.9 0 3.7-.8 4.9-2 1.3-1.3 2.1-3 2.1-5 0-1.7-.6-3.3-1.6-4.5-1-1.2-2.5-2.1-4.2-2.4-1.1-.2-1.8-1.1-1.8-2.2 0-4.2-1.7-7.9-4.4-10.7-2.7-2.7-6.5-4.4-10.7-4.4-3.1 0-5.9.9-8.3 2.5-2.4 1.6-4.4 3.9-5.6 6.7-.4.8-1.1 1.3-2 1.3-2.7.2-5.1 1.4-6.9 3.2-1.8 1.9-2.8 4.4-2.8 7.1 0 2.9 1.2 5.5 3 7.3 1.7 1.7 3.8 2.6 6 2.9 2.8.4 2.2 4.7-.6 4.3-3.2-.4-6.2-1.8-8.6-4.2-2.7-2.7-4.3-6.4-4.3-10.4 0-3.9 1.5-7.5 4-10.1 2.2-2.3 5.2-4 8.5-4.5 1.5-3 3.8-5.6 6.7-7.4 3.1-2 6.8-3.2 10.7-3.2 5.4 0 10.2 2.2 13.8 5.7 3.1 3.1 5.2 7.4 5.6 12.1 2 .7 3.7 1.9 5 3.5 1.7 2 2.7 4.5 2.7 7.3 0 3.1-1.3 6-3.3 8.1-1.8 1.8-4.2 3-6.9 3.3-.2 0-.3.1-.5.1h-1.8c-1.2 0-2.2-1-2.2-2.2 0-1.2 1-2.2 2.2-2.2h1.3zM49.6 76.8l.1.1.1.1c.1 0 .1 0 .2.1h.7c.1 0 .1 0 .2-.1h.1c.1 0 .1-.1.1-.1h.1L62 66.3c.5-.5.5-1.3 0-1.9-.5-.5-1.3-.5-1.9 0l-8.3 8.3V42.6c0-.7-.6-1.3-1.3-1.3-.7 0-1.3.6-1.3 1.3v30.1l-8.3-8.3c-.5-.5-1.3-.5-1.9 0-.5.5-.5 1.3 0 1.9l10.6 10.5zm.9.4z"/></svg>