<svg xmlns="http://www.w3.org/2000/svg" width="60" height="60" viewBox="0 0 60 60"><title>konnectors</title><desc>Created with Sketch.</desc><path fill="#fff" fill-opacity=".011" d="M30 58.75c15.878 0 28.75-12.872 28.75-28.75S45.878 1.25 30 1.25 1.25 14.122 1.25 30 14.122 58.75 30 58.75zM30 60C13.43 60 0 46.568 0 30 0 13.43 13.43 0 30 0c16.568 0 30 13.43 30 30 0 16.568-13.432 30-30 30z"/><circle cx="31.5" cy="44.5" r="4.5" fill="none"/><path d="M41.29 43zM37.82 43c-.678-2.865-3.247-5-6.32-5-3.59 0-6.5 2.91-6.5 6.5s2.91 6.5 6.5 6.5c3.072 0 5.64-2.135 6.32-5h3.469v-3h-3.471zm-6.32 6c-2.485 0-4.5-2.016-4.5-4.5s2.015-4.5 4.5-4.5c2.484 0 4.5 2.016 4.5 4.5S33.984 49 31.5 49zM42.432 20.996c-.348-2.814-1.644-5.415-3.728-7.425-2.39-2.304-5.546-3.57-8.888-3.57-3.343 0-6.5 1.267-8.888 3.572-2.092 2.018-3.393 4.634-3.732 7.463-2.87.334-5.523 1.616-7.572 3.677C7.286 27.067 6 30.178 6 33.472 6 40.383 11.7 46 18.71 46h1.41c.73 5.086 5.092 9 10.38 9v-2S22 53 22 44.5s8.5-8.5 8.5-8.5v-2c-5.288 0-9.65 3.914-10.38 9h-1.41C13.346 43 9 38.714 9 33.473c0-2.502.972-4.854 2.753-6.646 1.564-1.574 3.587-2.555 5.79-2.81l2.35-.274.282-2.35c.257-2.15 1.245-4.126 2.835-5.66 1.828-1.764 4.236-2.73 6.805-2.73 2.568 0 4.978.967 6.805 2.73 1.583 1.526 2.57 3.493 2.833 5.633l.297 2.407 2.416.213c4.98.44 8.832 4.568 8.832 9.49 0 5.238-4.348 9.524-9.708 9.526V46C48.297 46 54 40.38 54 33.473c0-6.528-5.093-11.905-11.568-12.477z"/></svg>