<svg xmlns="http://www.w3.org/2000/svg" viewBox="0 0 100 100" enable-background="new 0 0 100 100" width="100" height="100"><path d="M50.7 24.1c2.7 0 5.2 1.1 6.9 2.9l.1.1c1.7 1.8 2.8 4.2 2.8 6.9v.4c.4.1.8.3 1.2.4l6.6-3.9c1-.6 2.4-.3 3 .8.3.5.4 1 .2 1.6L70.1 40c.9.9 1.7 1.8 2.4 2.7.7.9 1.2 1.8 1.7 2.8h.3c1.3 0 2.5.5 3.4 1.4.9.9 1.4 2.1 1.4 3.4V57c0 1.3-.5 2.5-1.4 3.4-.9.9-2.1 1.4-3.4 1.4h-.3c-.6 1.2-1.3 2.3-2.1 3.3-.7 1-1.6 1.9-2.5 2.7l1 1.6.1.2c.8 1.4.9 3 .5 4.5s-1.4 2.9-2.9 3.7l-.1.1c-1.4.8-3.1.9-4.5.5-1.5-.4-2.9-1.4-3.7-2.9l-.1-.1-1.1-1.9c-.8.2-1.7.4-2.6.5-1.5.2-3 .4-4.5.4s-3-.1-4.5-.4c-.9-.1-1.8-.3-2.6-.5l-1.2 2.1c-.8 1.5-2.2 2.5-3.7 2.9h-.1c-1.5.4-3.1.2-4.5-.7H35c-1.4-.8-2.4-2.2-2.8-3.7-.4-1.5-.2-3.2.6-4.6l1-1.6c-1.8-1.7-3.4-3.6-4.5-5.7-1.2-2.3-2-4.9-2.1-7.5l-.3-.1h-.1c-.7-.3-1.4-.8-2-1.4-1.2-1.2-1.9-2.8-1.9-4.5 0-1.7.7-3.3 1.9-4.5.5-.5 1.4-.5 1.9 0s.5 1.3 0 1.9c-.7.7-1.1 1.7-1.1 2.7 0 1 .4 2 1.1 2.7.2.2.4.3.6.5.5-5 3.2-9.5 7.2-12.8 1.9-1.6 4.1-2.9 6.5-3.9v-1c0-2.7 1.1-5.1 2.9-6.9 1.6-2.2 4.1-3.3 6.8-3.3zm.9 8.8c1.9 0 3.9.2 5.7.6l.5.1c-.1-1.8-.8-3.5-2-4.7l-.1-.1c-1.3-1.3-3.1-2.1-5.1-2.1-2 0-3.8.8-5.1 2.1-1.3 1.3-2.1 3.1-2.1 5.1v.1c2.6-.7 5.4-1.1 8.2-1.1zm4.8 4.9c-1.5-.3-3.2-.5-4.9-.5-5.6 0-10.7 1.9-14.4 4.9-3.5 2.9-5.7 7-5.7 11.4 0 2.3.6 4.5 1.6 6.4 1.1 2.1 2.7 3.9 4.7 5.5.9.7 1.1 1.9.6 2.9l-1.8 3.1c0 .1-.1.2-.1.3-.2.4-.2.8-.1 1.2.1.4.4.8.7 1l.2.1c.4.2.8.2 1.2.1h.1c.4-.1.8-.4 1-.8l2-3.5c.5-1 1.6-1.4 2.6-1.1 1.2.4 2.4.7 3.7.9 1.2.2 2.5.3 3.8.3 1.3 0 2.6-.1 3.8-.3 1.2-.2 2.4-.5 3.7-.9 1-.3 2 .1 2.6 1l2 3.4c.1.1.1.2.2.3.2.4.6.6 1 .7.4.1.8.1 1.2-.1l.2-.1c.3-.2.6-.6.7-1 .1-.4.1-.8-.1-1.2 0-.1-.1-.2-.2-.3l-1.8-3.1c-.5-.9-.3-2.2.6-2.9 1.2-.9 2.3-2 3.2-3.2.9-1.1 1.6-2.3 2.1-3.5.3-.9 1.1-1.5 2.1-1.5h1.7c.1 0 .2-.1.3-.1.1-.1.1-.2.1-.3v-6.6c0-.1 0-.2-.1-.3-.1-.1-.2-.1-.3-.1h-1.7c-.9 0-1.7-.5-2-1.4-.5-1.1-1.1-2.2-1.8-3.2s-1.6-2-2.6-2.8c-.6-.5-.9-1.3-.8-2.1l.7-3.2L63 39c-.6.4-1.4.5-2.1.2-1.3-.6-2.9-1.1-4.5-1.4zm8.3 8.2c-1.1 0-2 .4-2.7 1.1-.7.7-1.1 1.6-1.1 2.7s.4 2 1.1 2.7c.7.7 1.6 1.1 2.7 1.1 1 0 2-.4 2.7-1.1.7-.7 1.1-1.6 1.1-2.7 0-1-.4-1.9-1-2.6l-.1-.1c-.7-.7-1.7-1.1-2.7-1.1zm.8 3c-.2-.2-.5-.3-.8-.3-.3 0-.6.1-.8.3-.2.2-.3.5-.3.8 0 .3.1.6.3.8.2.2.5.3.8.3.3 0 .6-.1.8-.3.2-.2.3-.5.3-.8 0-.3-.1-.6-.3-.8z"/></svg>