<svg xmlns="http://www.w3.org/2000/svg" width="60" height="60" viewBox="0 0 60 60"><title>kresus</title><desc>Created with Sketch.</desc><g fill="none"><path d="M30 58.75c15.878 0 28.75-12.872 28.75-28.75S45.878 1.25 30 1.25 1.25 14.122 1.25 30 14.122 58.75 30 58.75zM30 60C13.43 60 0 46.57 0 30S13.43 0 30 0s30 13.43 30 30-13.43 30-30 30z" fill-opacity=".011" fill="#fff"/><path d="M29.674 8c2.202 0 4.24.887 5.627 2.337l.083.08c1.387 1.45 2.284 3.386 2.284 5.562v.32c.326.08.652.243.978.323l5.383-3.143c.816-.483 1.958-.242 2.447.645.245.403.326.806.163 1.29l-1.142 5.4c.734.724 1.387 1.45 1.958 2.175.57.725.98 1.45 1.386 2.257h.245c1.06 0 2.04.403 2.773 1.128.734.725 1.142 1.692 1.142 2.74v5.4c0 1.047-.408 2.014-1.142 2.74-.734.725-1.713 1.128-2.773 1.128h-.245c-.49.967-1.06 1.854-1.712 2.66-.57.805-1.305 1.53-2.04 2.175l.816 1.29.082.16c.652 1.13.734 2.42.408 3.628-.327 1.21-1.142 2.337-2.366 2.982l-.08.08c-1.143.645-2.53.725-3.67.403-1.225-.32-2.367-1.127-3.02-2.336l-.08-.08-.898-1.532c-.652.16-1.386.322-2.12.403-1.224.16-2.447.322-3.67.322-1.224 0-2.447-.08-3.67-.322-.735-.08-1.47-.242-2.12-.403l-.98 1.693c-.653 1.208-1.794 2.014-3.018 2.337h-.08c-1.225.322-2.53.16-3.672-.564h-.08c-1.143-.645-1.96-1.773-2.285-2.982-.326-1.21-.163-2.58.49-3.708l.815-1.29c-1.468-1.37-2.773-2.9-3.67-4.593-.98-1.853-1.63-3.95-1.713-6.044l-.245-.08h-.08c-.572-.24-1.143-.644-1.632-1.128C7.57 30.485 7 29.196 7 27.825c0-1.37.57-2.66 1.55-3.626.407-.404 1.14-.404 1.55 0 .407.402.407 1.047 0 1.53-.572.564-.898 1.37-.898 2.176s.326 1.612.897 2.176c.162.16.326.242.49.403.406-4.03 2.61-7.656 5.87-10.316 1.55-1.29 3.345-2.338 5.302-3.144v-.806c0-2.176.898-4.11 2.366-5.56C25.433 8.887 27.472 8 29.674 8zm.734 7.092c1.55 0 3.18.16 4.65.484l.407.08c-.082-1.45-.653-2.82-1.632-3.788l-.08-.08c-1.062-1.048-2.53-1.693-4.16-1.693-1.632 0-3.1.645-4.16 1.693-1.06 1.047-1.713 2.498-1.713 4.11v.08c2.12-.564 4.404-.886 6.688-.886zm3.915 3.95c-1.224-.243-2.61-.404-3.997-.404-4.567 0-8.727 1.53-11.744 3.95-2.855 2.336-4.65 5.64-4.65 9.186 0 1.854.49 3.627 1.306 5.158.897 1.693 2.202 3.143 3.833 4.433.735.564.898 1.53.49 2.337L18.092 46.2c0 .08-.08.16-.08.242-.164.322-.164.645-.083.967.08.322.325.644.57.805l.163.08c.326.162.653.162.98.08h.08c.327-.08.653-.32.816-.643l1.63-2.82c.408-.807 1.305-1.13 2.12-.888.98.323 1.958.564 3.02.726.977.16 2.038.24 3.098.24s2.12-.08 3.1-.24c.978-.162 1.957-.403 3.017-.726.815-.24 1.63.08 2.12.806l1.632 2.74c.08.08.08.162.163.242.163.322.49.484.815.564.327.08.653.08.98-.08l.162-.08c.245-.162.49-.484.57-.807.083-.323.083-.646-.08-.968 0-.08-.082-.16-.164-.242l-1.468-2.498c-.407-.725-.244-1.773.49-2.337.978-.726 1.876-1.612 2.61-2.58.734-.886 1.305-1.853 1.712-2.82.245-.725.898-1.21 1.713-1.21h1.387c.08 0 .163-.08.244-.08.083-.08.083-.16.083-.24v-5.32c0-.08 0-.16-.082-.242-.08-.08-.162-.08-.243-.08H47.78c-.734 0-1.386-.403-1.63-1.13-.41-.885-.898-1.772-1.47-2.578-.57-.806-1.304-1.61-2.12-2.256-.49-.404-.734-1.05-.652-1.694l.57-2.58-2.772 1.452c-.49.322-1.142.403-1.713.16-1.06-.482-2.365-.885-3.67-1.127zm6.77 6.608c-.898 0-1.632.322-2.203.886-.57.564-.897 1.29-.897 2.176 0 .886.326 1.612.897 2.176.57.564 1.305.886 2.202.886.816 0 1.63-.322 2.202-.886.57-.564.897-1.29.897-2.176 0-.806-.325-1.53-.814-2.095l-.082-.08c-.57-.565-1.386-.887-2.202-.887zm.652 2.417c-.163-.16-.408-.242-.653-.242-.244 0-.49.08-.652.242-.163.16-.245.403-.245.645s.082.484.245.645c.163.16.408.24.652.24.245 0 .49-.08.653-.24.163-.16.244-.403.244-.645s-.082-.484-.245-.645z" fill="#000"/></g></svg>