<svg xmlns="http://www.w3.org/2000/svg" width="60" height="60" viewBox="0 0 60 60"><title>kresus</title><desc>Created with Sketch.</desc><path d="M29.69 7.97h-.002c-4.342 0-7.875 3.532-7.875 7.874 0 .85.157 1.67.406 2.438l1.937-.594c-.188-.573-.28-1.205-.28-1.844 0-3.223 2.59-5.78 5.812-5.78s5.843 2.557 5.843 5.78c0 .57-.098 1.137-.25 1.656l2.062.125c.133-.572.22-1.17.22-1.78 0-4.343-3.533-7.876-7.875-7.876"/><path d="M51.86 26.436c-.734-.725-1.714-1.128-2.774-1.128h-.245c-.404-.807-.814-1.532-1.385-2.257-.57-.724-1.225-1.45-1.958-2.174l1.142-5.4c.162-.484.08-.887-.163-1.29-.49-.887-1.63-1.128-2.447-.645l-5.383 3.144-.98-.323c-1.853-.496-3.732-.728-5.525-.793l.617-.773c-.162-.22-.33-.427-.507-.624-.176-.197-.358-.385-.55-.564l.553-.693-.494-.395-.566.703c-.478-.35-.923-.52-1.337-.516-.41.006-.762.19-1.053.555-.275.343-.383.687-.326 1.033.06.347.3.757.717 1.23l.067.078c-.507.03-1.003.068-1.48.12-.142-.214-.28-.432-.39-.68l-.64.8.004.005c-2.44.34-4.288.89-4.997 1.242-1.956.806-3.75 1.854-5.3 3.144-3.26 2.66-5.465 6.287-5.87 10.317l-.49-.403c-.572-.564-.898-1.37-.898-2.176s.326-1.612.898-2.176c.407-.483.407-1.128 0-1.53-.41-.404-1.143-.404-1.55 0-.98.965-1.55 2.255-1.55 3.625s.57 2.66 1.55 3.628c.49.483 1.06.887 1.633 1.127h.08l.245.08c.083 2.094.733 4.19 1.713 6.045.898 1.692 2.203 3.223 3.67 4.592l-.814 1.29c-.653 1.127-.816 2.498-.49 3.707.325 1.21 1.142 2.338 2.285 2.982h.08c1.143.724 2.448.886 3.673.563h.08c1.224-.323 2.365-1.13 3.018-2.338l.98-1.692c.65.16 1.386.323 2.12.403 1.224.242 2.447.322 3.67.322 1.224 0 2.447-.162 3.67-.322.734-.082 1.47-.243 2.12-.403l.9 1.532.078.08c.653 1.21 1.796 2.016 3.02 2.336 1.14.323 2.528.243 3.67-.402l.08-.08c1.225-.646 2.04-1.772 2.366-2.98s.244-2.5-.408-3.63l-.082-.16-.815-1.29c.734-.645 1.47-1.37 2.04-2.175.65-.806 1.222-1.692 1.71-2.66h.246c1.06 0 2.04-.402 2.773-1.127.732-.727 1.14-1.693 1.14-2.74v-5.4c0-1.048-.407-2.015-1.14-2.74zm-22-12.513c.087-.108.2-.162.34-.163.145 0 .293.052.444.16l-.637.796c-.144-.146-.23-.283-.255-.414-.023-.133.013-.26.11-.38zm.67 1.353l-.084-.096.7-.876c.196.174.378.367.542.578.166.208.316.437.452.685-.468-.017-.927-.022-1.38-.018l-.23-.274zm18.962 19.22c0 .08 0 .16-.083.238l-.245.08h-1.388c-.814 0-1.467.485-1.713 1.21-.406.968-.978 1.935-1.71 2.82-.735.968-1.634 1.854-2.61 2.58-.735.564-.898 1.612-.49 2.337l1.467 2.5c.083.08.165.16.165.24.163.323.163.646.08.97-.08.322-.324.645-.57.807l-.162.08c-.326.16-.652.16-.98.08-.324-.08-.65-.242-.814-.564l-.163-.242-1.633-2.74c-.49-.725-1.305-1.045-2.12-.805-1.06.323-2.038.563-3.017.726-.98.16-2.04.24-3.1.24s-2.12-.08-3.098-.24c-1.063-.16-2.04-.4-3.02-.725-.816-.242-1.713.08-2.12.888l-1.63 2.82c-.164.323-.49.562-.817.643h-.08c-.327.082-.654.082-.98-.08l-.163-.08c-.245-.16-.49-.482-.57-.805-.08-.32-.08-.644.083-.966l.08-.242 1.47-2.498c.407-.807.244-1.772-.49-2.337-1.632-1.29-2.937-2.74-3.834-4.433-.817-1.53-1.307-3.305-1.307-5.158 0-3.546 1.795-6.85 4.65-9.186 3.017-2.42 7.177-3.95 11.744-3.95 1.387 0 2.772.16 3.996.404V19.1c1.306.242 2.61.645 3.67 1.127.572.243 1.224.162 1.714-.16l2.772-1.452-.57 2.58c-.083.644.16 1.29.65 1.694.816.645 1.55 1.45 2.12 2.255.572.806 1.06 1.693 1.47 2.578.245.727.897 1.13 1.63 1.13h1.388c.08 0 .163 0 .243.08.083.082.083.162.083.242v5.32zm-15.17-15.392zm8.81 7.765c-.55-.555-1.34-.87-2.13-.87-.87 0-1.58.315-2.134.868C38.316 27.42 38 28.132 38 29s.316 1.58.868 2.132C39.42 31.686 40.13 32 41 32c.79 0 1.578-.314 2.132-.868.552-.553.868-1.264.868-2.132 0-.79-.314-1.5-.788-2.053l-.08-.078zM41 30c-.552 0-1-.448-1-1s.448-1 1-1 1 .448 1 1-.448 1-1 1z"/></svg>