<svg xmlns="http://www.w3.org/2000/svg" viewBox="0 0 100 100" enable-background="new 0 0 100 100" width="100" height="100"><path d="M76.9 72.7c.7 0 1.3.6 1.3 1.3 0 .7-.6 1.4-1.3 1.4H23c-.7 0-1.3-.6-1.3-1.4V27.6c0-.7.6-1.3 1.3-1.3.7 0 1.3.6 1.3 1.3v45.1h52.6zM55.4 55.9l.1.1c.5.3 1.2.3 1.7.2.6-.2 1.1-.6 1.5-1.1.3-.6.4-1.3.2-1.9-.2-.6-.5-1.1-1.1-1.5-.6-.3-1.2-.4-1.8-.3-.6.2-1.1.5-1.5 1.1l-.1.1c-.3.6-.3 1.2-.2 1.8.2.6.6 1.2 1.2 1.5zm13.7-11.4l-7.6 7.6.1.4c.3 1.3.2 2.7-.5 3.9-.7 1.2-1.8 2.1-3.1 2.4h-.1c-1.2.3-2.6.2-3.8-.5-1.2-.7-2.1-1.8-2.4-3.1-.3-1-.2-2 .1-3L48.6 49h-.4c-1 .3-2 .2-3-.1l-8.6 8.6.1.4c.3 1.3.2 2.7-.5 3.9-.7 1.2-1.9 2.1-3.1 2.4H33c-1.2.3-2.6.2-3.8-.5l-.1-.1c-1.2-.7-2-1.8-2.3-3.1-.3-1.3-.2-2.7.5-3.9.7-1.2 1.8-2 3.1-2.4h.1c1-.2 2-.2 3 .1l8.6-8.6-.1-.4c-.3-1.3-.2-2.7.5-3.9.7-1.2 1.8-2.1 3.1-2.4 1.3-.3 2.7-.2 3.9.5 1.2.7 2.1 1.8 2.4 3.1.3 1 .2 2-.1 3L55 49l.3-.1h.1c1-.2 2-.2 3 .1l7.6-7.6-.2-.4c-.3-1.3-.2-2.7.5-3.9.7-1.2 1.8-2 3.1-2.4 1.3-.3 2.7-.2 3.9.5 1.2.7 2.1 1.8 2.4 3.1.3 1.3.2 2.7-.5 3.9-.7 1.2-1.8 2-3.1 2.4-.9.3-2 .3-3-.1zM55.4 55.9zm-.8-3.4zm-10.1-7.8c.2.6.6 1.2 1.1 1.5.6.3 1.3.4 1.9.2.6-.2 1.2-.6 1.5-1.1.3-.6.4-1.3.2-1.8-.2-.6-.6-1.2-1.1-1.5-.6-.3-1.3-.4-1.9-.2-.6.2-1.2.6-1.5 1.1-.3.5-.3 1.2-.2 1.8zM29.4 59.8c.2.6.5 1.1 1.1 1.5.6.3 1.2.4 1.8.3.6-.2 1.2-.6 1.5-1.1.3-.6.4-1.3.2-1.9-.2-.6-.6-1.2-1.1-1.5-.6-.3-1.2-.4-1.8-.3-.6.2-1.1.6-1.5 1.2-.3.5-.4 1.2-.2 1.8zm39-19.5c.2.6.5 1.1 1.1 1.4l.1.1c.6.3 1.2.3 1.8.2.6-.2 1.1-.5 1.4-1.1l.1-.1c.3-.6.3-1.2.2-1.8-.2-.6-.5-1.1-1.1-1.4l-.1-.1c-.6-.3-1.2-.4-1.8-.2-.6.2-1.1.5-1.4 1.1l-.1.1c-.3.6-.3 1.2-.2 1.8zm1.1 1.4zm-.8-3.3z"/></svg>