<svg xmlns="http://www.w3.org/2000/svg" width="60" height="60" viewBox="0 0 60 60"><title>kyou</title><desc>Created with Sketch.</desc><g fill="none"><path d="M30 58.75c15.878 0 28.75-12.872 28.75-28.75S45.878 1.25 30 1.25 1.25 14.122 1.25 30 14.122 58.75 30 58.75zM30 60C13.43 60 0 46.57 0 30S13.43 0 30 0s30 13.43 30 30-13.43 30-30 30z" fill-opacity=".011" fill="#fff"/><path d="M7 11.01C7 10.45 7.444 10 8 10c.552 0 1 .453 1 .997v36.006c0 .55.45.997 1.002.997h41.996c.554 0 1.002.444 1.002 1 0 .552-.455 1-1.004 1H9.006C7.898 50 7 49.108 7 48.003V11.01zm27.437 23.104l.082.082c.406.244.976.244 1.383.162.488-.162.895-.488 1.22-.896.245-.488.327-1.06.164-1.548s-.407-.896-.896-1.222c-.487-.244-.976-.325-1.464-.244-.49.163-.896.407-1.222.896l-.08.082c-.245.488-.245.977-.164 1.466.163.49.49.978.977 1.222zm11.154-9.287l-6.186 6.19.08.327c.245 1.06.164 2.2-.406 3.177-.57.98-1.466 1.712-2.524 1.957h-.08c-.978.244-2.118.163-3.095-.408-.978-.57-1.71-1.467-1.955-2.526-.244-.815-.163-1.63.08-2.444l-2.604-2.607h-.325c-.814.244-1.628.163-2.442-.082L19.13 35.42l.082.325c.245 1.06.163 2.2-.407 3.178-.57.978-1.547 1.71-2.524 1.956h-.08c-.977.244-2.117.163-3.094-.408l-.08-.08c-.978-.57-1.63-1.467-1.874-2.526-.244-1.06-.163-2.2.407-3.178.57-.977 1.465-1.63 2.523-1.955h.082c.814-.164 1.628-.164 2.442.08l7.002-7.006-.083-.325c-.244-1.06-.162-2.2.408-3.18.57-.976 1.465-1.71 2.523-1.954 1.06-.244 2.2-.163 3.176.408.977.57 1.71 1.466 1.954 2.525.244.814.162 1.628-.082 2.443l2.606 2.77.244-.082h.08c.815-.162 1.63-.162 2.444.083l6.187-6.192-.163-.324c-.244-1.06-.162-2.2.408-3.178.57-.977 1.465-1.63 2.523-1.955 1.06-.244 2.2-.163 3.176.408.978.57 1.71 1.467 1.955 2.526.244 1.06.162 2.2-.407 3.177-.57.978-1.466 1.63-2.524 1.955-.733.245-1.63.245-2.443-.08zm-20.027.163c.163.49.488.977.895 1.222.49.244 1.06.326 1.547.163.49-.163.977-.49 1.222-.896.244-.49.325-1.06.162-1.468-.163-.49-.49-.977-.896-1.222-.49-.244-1.06-.326-1.547-.163-.49.163-.977.49-1.22.896-.246.408-.246.978-.164 1.467zM13.27 37.29c.162.49.406.897.895 1.223.488.245.977.326 1.465.245.49-.163.977-.49 1.22-.896.246-.49.327-1.06.164-1.548-.163-.49-.488-.978-.895-1.222-.49-.245-.978-.326-1.467-.245-.488.163-.895.49-1.22.978-.245.407-.327.977-.164 1.466zm31.75-15.885c.164.49.408.896.897 1.14l.08.082c.49.245.978.245 1.467.163.488-.163.895-.407 1.14-.896l.08-.08c.245-.49.245-.98.164-1.468-.163-.49-.407-.896-.896-1.14l-.08-.082c-.49-.244-.978-.326-1.467-.163-.488.164-.895.41-1.14.897l-.08.082c-.245.488-.245.976-.164 1.465z" fill="#000"/></g></svg>