<svg xmlns="http://www.w3.org/2000/svg" width="100" height="100" viewBox="0 0 100 100"><title>google-leave</title><desc>Created with Sketch.</desc><path d="M70.873 50.475h-21.01c-.853 0-1.545-.72-1.545-1.61 0-.89.692-1.61 1.546-1.61h21.01l-8.186-8.523c-.604-.63-.604-1.65 0-2.277.604-.63 1.583-.63 2.187 0L75.7 47.725c.604.63.604 1.65 0 2.278l-10.825 11.27c-.604.63-1.583.63-2.187 0-.604-.628-.604-1.647 0-2.276l8.185-8.522zM36.647.694v-8.856l-8.504-8.856H16.972c-1.705 0-3.097 1.44-3.097 3.215v35.434c0 1.774 1.387 3.215 3.1 3.215h26.274c1.714 0 3.098-1.444 3.098-3.225V29.61h-3.093c0 7.198-.003 14.492-.006 14.492 0 0-26.282 0-26.282.005 0 0 .002-35.43.004-35.43H36.53l6.726 7.005v7.487h3.092zM22.348 11.974c-.277 0-.928.016-1.704.16-1.835.343-4.37 1.59-5.088 4.19-1.11 4.02 1.748 5.616 1.748 5.616s1 .606 1.414.725c1.242.357 2.564.19 2.564.19s-.527 1.8.53 3.07c.25.302.068.313.068.313s-4.617-.123-6.803 2.268c-2.186 2.39-1 4.592-1 4.592s1.145 2.878 6.088 3.024c4.965.146 8.036-2.885 8.304-5.172.135-1.15-.017-2.227-.576-3.17-.543-.915-1.477-1.704-2.39-2.473-.566-.478-.96-.723-1.214-.998-.24-.26-.28-.594-.272-.845.012-.35.19-.78.787-1.49 1.088-1.3 1.364-1.137 2.02-2.11.198-.29.343-.715.545-1.348.122-.38.1-.776.1-1.143 0-.795-.184-1.552-.492-2.19-.572-1.186-1.555-1.956-1.574-2.014h1.722l1.95-1.177-6.58-.02h-.146zm-5.904-1.042c1.004.007 2.512.543 3.416 3.337 1.55 4.794-1.697 5.526-1.697 5.526s-3.72.59-4.405-3.673c-.697-4.344 1-4.58 1.664-5.008 0 0 .42-.187 1.022-.183zm1.64 14.393s2.965 1.87 3.243 3.243c.313 1.537.334 2.657-1.93 3.883-.667.363-1.84.405-2.577.408-1.815.008-3.185-.712-3.862-1.072-.352-.188-2.307-2.45-.86-4.473.364-.51.768-.735 1.143-.994.796-.553 1.58-.81 3.056-.943.49-.044 1.145-.007 1.787-.052z" fill="#000"/></svg>