<svg xmlns="http://www.w3.org/2000/svg" width="60" height="60" viewBox="0 0 60 60"><path d="M42.206 45.968C48.786 45.503 54 40.078 54 33.474c0-6.528-5.093-11.905-11.568-12.477-.348-2.814-1.644-5.415-3.728-7.425-2.39-2.305-5.546-3.57-8.888-3.57-3.343 0-6.5 1.266-8.888 3.57-2.092 2.02-3.393 4.635-3.732 7.464-2.87.334-5.523 1.616-7.572 3.677C7.286 27.068 6 30.18 6 33.473c0 6.605 5.21 12.032 11.793 12.496l-.617-3.088C12.542 42.157 9 38.205 9 33.472c0-2.5.973-4.853 2.754-6.646 1.564-1.574 3.587-2.555 5.79-2.81l2.35-.274.282-2.35c.257-2.15 1.245-4.126 2.835-5.66 1.83-1.764 4.237-2.73 6.806-2.73 2.568 0 4.978.967 6.805 2.73 1.584 1.526 2.57 3.493 2.834 5.633l.297 2.407 2.417.213c4.98.44 8.832 4.568 8.832 9.49 0 4.728-3.545 8.68-8.177 9.407l-.617 3.087zm-1.394-6.498H30.37v3.13h7.432c-.363 4.39-3.947 6.263-7.33 6.263-4.328 0-8.105-3.47-8.105-8.335 0-4.74 3.6-8.388 8.115-8.388 3.483 0 5.535 2.263 5.535 2.263l2.15-2.27S35.408 29 30.373 29C23.96 29 19 34.517 19 40.474 19 46.31 23.666 52 30.536 52 36.578 52 41 47.784 41 41.547c0-1.316-.187-2.076-.187-2.076z"/></svg>