<svg xmlns="http://www.w3.org/2000/svg" viewBox="0 0 60 60" width="60" height="60"><defs><linearGradient x1=".5" x2=".5" y2="1"><stop stop-color="#20A8F1" offset="0%"/><stop stop-color="#62C6ED" offset="100%"/></linearGradient></defs><g transform="matrix(.089 0 0 .089 7.629 11.699)"><path d="M376.453 387.847H135.66C60.908 387.847.123 327.305.123 252.882c0-35.49 13.72-69.015 38.656-94.382 21.84-22.2 50.134-36.02 80.74-39.615 3.616-30.48 17.48-58.658 39.794-80.4C184.79 13.644 218.45 0 254.094 0c35.637 0 69.306 13.646 94.783 38.474 22.22 21.65 36.045 49.676 39.75 79.993 69.05 6.16 123.363 64.097 123.363 134.425 0 74.413-60.826 134.955-135.547 134.955h.01z" fill="none"/><path d="M376.453 387.847H135.66C60.908 387.847.123 327.305.123 252.882c0-35.49 13.72-69.015 38.656-94.382 21.84-22.2 50.134-36.02 80.74-39.615 3.616-30.48 17.48-58.658 39.794-80.4C184.79 13.644 218.45 0 254.094 0c35.637 0 69.306 13.646 94.783 38.474 22.22 21.65 36.045 49.676 39.75 79.993 69.05 6.16 123.363 64.097 123.363 134.425 0 74.413-60.826 134.955-135.547 134.955zm-1.024-28.31h1.023c59.064 0 107.11-47.844 107.11-106.655 0-58.8-48.046-106.644-107.11-106.644h-1.075c-7.71 0-14.03-6.11-14.203-13.81-1.33-57.435-49.357-104.138-107.07-104.138-57.712 0-105.758 46.723-107.08 104.16-.173 7.556-6.286 13.646-13.885 13.82-57.67 1.323-104.59 49.146-104.59 106.622 0 58.812 48.045 106.655 107.11 106.655h.87l.338-.02c.307 0 .614 0 .92.02H375.4z" fill="#333"/></g><path fill="#333" d="M24.89 28.858l5.44 5.44-1.497 1.496-5.44-5.44z"/><path fill="#333" d="M23.394 38.24l5.44-5.44 1.496 1.497-5.44 5.44z"/><path fill="#333" d="M30.413 31.46l5.44-5.438 1.496 1.496-5.44 5.44z"/><path fill="#333" d="M35.853 36.9l-5.44-5.44 1.497-1.496 5.44 5.44z"/></svg>