<svg xmlns="http://www.w3.org/2000/svg" viewBox="0 0 512 388" width="512" height="388"><defs><linearGradient x1="50%" y1="0%" x2="50%" y2="100%"><stop stop-color="#20A8F1" offset="0%"/><stop stop-color="#62C6ED" offset="100%"/></linearGradient></defs><g><path d="M376.453 387.847H135.66C60.908 387.847.123 327.305.123 252.882c0-35.49 13.72-69.015 38.656-94.382 21.84-22.2 50.134-36.02 80.74-39.615 3.616-30.48 17.48-58.658 39.794-80.4C184.79 13.644 218.45 0 254.094 0c35.637 0 69.306 13.646 94.783 38.474 22.22 21.65 36.045 49.676 39.75 79.993 69.05 6.16 123.363 64.097 123.363 134.425 0 74.413-60.826 134.955-135.547 134.955h.01z" fill="#fff"/><path d="M376.453 387.847H135.66C60.908 387.847.123 327.305.123 252.882c0-35.49 13.72-69.015 38.656-94.382 21.84-22.2 50.134-36.02 80.74-39.615 3.616-30.48 17.48-58.658 39.794-80.4C184.79 13.644 218.45 0 254.094 0c35.637 0 69.306 13.646 94.783 38.474 22.22 21.65 36.045 49.676 39.75 79.993 69.05 6.16 123.363 64.097 123.363 134.425 0 74.413-60.826 134.955-135.547 134.955zm-1.024-28.31h1.023c59.064 0 107.11-47.844 107.11-106.655 0-58.8-48.046-106.644-107.11-106.644h-1.075c-7.71 0-14.03-6.11-14.203-13.81-1.33-57.435-49.357-104.138-107.07-104.138-57.712 0-105.758 46.723-107.08 104.16-.173 7.556-6.286 13.646-13.885 13.82-57.67 1.323-104.59 49.146-104.59 106.622 0 58.812 48.045 106.655 107.11 106.655h.87l.338-.02c.307 0 .614 0 .92.02H375.4z" fill="#21a8f1"/></g><path fill="#21a8f1" d="M194.263 193.12l61.224 61.224-16.836 16.836-61.223-61.223z"/><path fill="#21a8f1" d="M177.428 298.718l61.223-61.223 16.838 16.836-61.224 61.224z"/><path fill="#21a8f1" d="M256.434 222.417l61.224-61.224 16.836 16.837-61.223 61.223z"/><path fill="#21a8f1" d="M317.66 283.627l-61.225-61.224 16.836-16.836 61.225 61.224z"/></svg>