<svg xmlns="http://www.w3.org/2000/svg" width="60" height="60" viewBox="0 0 60 60"><title>nirc</title><desc>Created with Sketch.</desc><g fill="none"><path d="M30 58.75c15.878 0 28.75-12.872 28.75-28.75S45.878 1.25 30 1.25 1.25 14.122 1.25 30 14.122 58.75 30 58.75zM30 60C13.43 60 0 46.57 0 30S13.43 0 30 0s30 13.43 30 30-13.43 30-30 30z" fill-opacity=".011" fill="#fff"/><path d="M21.848 26.04c.884 0 1.67.396 2.26.99.588.594.98 1.386.98 2.277 0 .89-.392 1.683-.98 2.277-.59.594-1.376.99-2.26.99-.884 0-1.67-.396-2.26-.99-.588-.594-.98-1.386-.98-2.277 0-.89.392-1.683.98-2.277.59-.594 1.376-.99 2.26-.99zM30 10c5.99 0 11.49 2.178 15.42 5.545C49.446 19.01 52 23.86 52 29.307c0 5.346-2.455 10.198-6.58 13.762-3.93 3.465-9.43 5.544-15.42 5.544-1.768 0-3.536-.198-5.304-.594-1.473-.297-2.848-.792-4.125-1.287l-5.302 2.87c-.49.298-1.08.397-1.572.397-.59 0-1.08-.297-1.57-.594-.492-.396-.787-.792-.983-1.386-.197-.495-.197-1.09-.098-1.683l1.276-5.644c-1.275-1.485-2.258-3.168-3.043-4.95C8.49 33.763 8 31.583 8 29.307c0-5.347 2.455-10.198 6.58-13.762C18.51 12.178 23.91 10 30 10zm13.26 8.12c-3.34-2.97-8.055-4.754-13.26-4.754s-9.92 1.783-13.26 4.753c-3.338 2.87-5.302 6.83-5.302 11.187 0 1.782.392 3.564.982 5.148.687 1.684 1.67 3.17 2.848 4.555.393.396.59.99.49 1.584l-1.276 5.545 5.206-2.774c.49-.198.982-.297 1.473-.1 1.376.595 2.75 1.09 4.224 1.387 1.473.297 2.946.496 4.518.496 5.205 0 9.92-1.784 13.26-4.754 3.338-2.87 5.302-6.832 5.302-11.188.1-4.258-1.964-8.218-5.205-11.09zM22.633 28.415c-.197-.198-.49-.297-.786-.297-.294 0-.59.098-.884.296-.196.198-.393.495-.393.792 0 .297.1.594.394.89.197.2.49.397.884.397.295 0 .59-.1.786-.396.196-.2.295-.496.295-.892.097-.198-.1-.495-.296-.792zM30 26.04c.884 0 1.67.396 2.26.99.588.594.98 1.386.98 2.277 0 .89-.392 1.683-.98 2.277-.59.594-1.376.99-2.26.99-.884 0-1.67-.396-2.26-.99-.588-.594-.98-1.386-.98-2.277 0-.89.392-1.683.98-2.277.492-.594 1.278-.99 2.26-.99zm.786 2.376c-.197-.198-.49-.297-.786-.297-.295 0-.59.098-.884.296-.196.198-.295.495-.295.792 0 .297.1.594.296.89.197.2.49.397.884.397.295 0 .59-.1.786-.396.196-.2.294-.496.294-.892.1-.198-.098-.495-.294-.792zm7.268-2.376c.883 0 1.67.396 2.258.99.59.594.983 1.386.983 2.277 0 .89-.393 1.683-.983 2.277-.59.594-1.374.99-2.258.99-.884 0-1.67-.396-2.26-.99-.59-.594-.98-1.386-.98-2.277-.002-.89.39-1.683.98-2.277.59-.594 1.376-.99 2.26-.99zm.883 2.376c-.196-.198-.49-.297-.785-.297-.295 0-.59.098-.884.296-.197.198-.393.495-.393.792 0 .297.098.594.393.89.196.2.49.397.884.397.294 0 .59-.1.785-.396.197-.2.295-.496.295-.892 0-.198-.098-.495-.294-.792z" fill="#000"/></g></svg>