<svg xmlns="http://www.w3.org/2000/svg" viewBox="0 0 100 100" enable-background="new 0 0 100 100" width="100" height="100"><path d="M42.5 47c.9 0 1.7.4 2.3 1 .6.6 1 1.4 1 2.3 0 .9-.4 1.7-1 2.3-.6.6-1.4 1-2.3 1-.9 0-1.7-.4-2.3-1-.6-.6-1-1.4-1-2.3 0-.9.4-1.7 1-2.3.6-.6 1.4-1 2.3-1zm8.3-16.2c6.1 0 11.7 2.2 15.7 5.6 4.1 3.5 6.7 8.4 6.7 13.9 0 5.4-2.5 10.3-6.7 13.9-4 3.5-9.6 5.6-15.7 5.6-1.8 0-3.6-.2-5.4-.6-1.5-.3-2.9-.8-4.2-1.3l-5.4 2.9c-.5.3-1.1.4-1.6.4-.6 0-1.1-.3-1.6-.6-.5-.4-.8-.8-1-1.4-.2-.5-.2-1.1-.1-1.7l1.3-5.7c-1.3-1.5-2.3-3.2-3.1-5-.8-2-1.3-4.2-1.3-6.5 0-5.4 2.5-10.3 6.7-13.9 4-3.4 9.5-5.6 15.7-5.6zM64.3 39c-3.4-3-8.2-4.8-13.5-4.8-5.3 0-10.1 1.8-13.5 4.8-3.4 2.9-5.4 6.9-5.4 11.3 0 1.8.4 3.6 1 5.2.7 1.7 1.7 3.2 2.9 4.6.4.4.6 1 .5 1.6L35 67.3l5.3-2.8c.5-.2 1-.3 1.5-.1 1.4.6 2.8 1.1 4.3 1.4 1.5.3 3 .5 4.6.5 5.3 0 10.1-1.8 13.5-4.8 3.4-2.9 5.4-6.9 5.4-11.3.1-4.3-2-8.3-5.3-11.2zm-21 10.4c-.2-.2-.5-.3-.8-.3-.3 0-.6.1-.9.3-.2.2-.4.5-.4.8 0 .3.1.6.4.9.2.2.5.4.9.4.3 0 .6-.1.8-.4.2-.2.3-.5.3-.9.1-.2-.1-.5-.3-.8zm7.5-2.4c.9 0 1.7.4 2.3 1 .6.6 1 1.4 1 2.3 0 .9-.4 1.7-1 2.3-.6.6-1.4 1-2.3 1-.9 0-1.7-.4-2.3-1-.6-.6-1-1.4-1-2.3 0-.9.4-1.7 1-2.3.5-.6 1.3-1 2.3-1zm.8 2.4c-.2-.2-.5-.3-.8-.3-.3 0-.6.1-.9.3-.2.2-.3.5-.3.8 0 .3.1.6.3.9.2.2.5.4.9.4.3 0 .6-.1.8-.4.2-.2.3-.5.3-.9.1-.2-.1-.5-.3-.8zM59 47c.9 0 1.7.4 2.3 1 .6.6 1 1.4 1 2.3 0 .9-.4 1.7-1 2.3-.6.6-1.4 1-2.3 1-.9 0-1.7-.4-2.3-1-.6-.6-1-1.4-1-2.3 0-.9.4-1.7 1-2.3.6-.6 1.4-1 2.3-1zm.9 2.4c-.2-.2-.5-.3-.8-.3-.3 0-.6.1-.9.3-.2.2-.4.5-.4.8 0 .3.1.6.4.9.2.2.5.4.9.4.3 0 .6-.1.8-.4.2-.2.3-.5.3-.9 0-.2-.1-.5-.3-.8z"/></svg>