<svg xmlns="http://www.w3.org/2000/svg" width="60" height="60" viewBox="0 0 60 60"><title>notes</title><desc>Created with Sketch.</desc><path fill="#fff" fill-opacity=".011" d="M30 58.75c15.88 0 28.75-12.872 28.75-28.75S45.88 1.25 30 1.25C14.122 1.25 1.25 14.122 1.25 30S14.122 58.75 30 58.75zM30 60C13.432 60 0 46.568 0 30S13.432 0 30 0s30 13.432 30 30-13.432 30-30 30z"/><path d="M36 12.5V20h7.5zM34 11H15v38h30V22H34V11zm0 26H18v-2h16v2zm8-5H18v-2h24v2zm0-7v2H18v-2h24z" fill="none"/><path d="M35.5 8H15c-1.652 0-3 1.346-3 3.007v37.986C12 50.66 13.347 52 15.007 52h29.985C46.654 52 48 50.66 48 49.008V20.5L35.5 8zm.5 4.5l7.5 7.5H36v-7.5zM45 49H15V11h19v11h11v27zM18 25h24v2H18zm0 5h24v2H18zm0 5h16v2H18z"/></svg>