<svg xmlns="http://www.w3.org/2000/svg" viewBox="0 0 100 100" enable-background="new 0 0 100 100" width="100" height="100"><path d="M39 64.8c-.7 0-1.2-.5-1.2-1.2 0-.6.5-1.2 1.2-1.2h23c.7 0 1.2.5 1.2 1.2s-.5 1.2-1.2 1.2H39zm-5.7-39.3h23.4c.5 0 1 .2 1.4.6l14.3 14.3c.4.4.6.9.6 1.4V71.7c0 1.5-.6 2.8-1.5 3.7-1 .9-2.3 1.5-3.7 1.5H33.3c-1.5 0-2.8-.6-3.7-1.6-.9-1-1.6-2.3-1.6-3.7V30.7c0-1.5.6-2.8 1.6-3.7.9-1 2.2-1.5 3.7-1.5zm22.2 3.9H33.3c-.4 0-.7.2-.9.4-.2.2-.4.6-.4.9v40.9c0 .4.1.7.4 1 .2.2.6.4.9.4h34.4c.4 0 .7-.2.9-.4.2-.3.4-.6.4-1V42.9h-9c-1.2 0-2.4-.5-3.2-1.3l-.1-.1c-.8-.8-1.2-1.9-1.2-3.1v-9zM67 40.6l-9.1-9.1v7c0 .6.2 1.1.6 1.5.4.4.9.6 1.5.6h7zm-28 7.5c-.7 0-1.2-.5-1.2-1.2 0-.6.5-1.2 1.2-1.2h23c.7 0 1.2.5 1.2 1.2s-.5 1.2-1.2 1.2H39zm0 8.4c-.7 0-1.2-.5-1.2-1.2 0-.6.5-1.2 1.2-1.2h23c.7 0 1.2.5 1.2 1.2s-.5 1.2-1.2 1.2H39z"/></svg>