<svg xmlns="http://www.w3.org/2000/svg" viewBox="0 0 100 100" enable-background="new 0 0 100 100" width="100" height="100"><path d="M50.3 40.2c3 0 5.8 1.2 7.8 3.2s3.2 4.8 3.2 7.8-1.2 5.8-3.2 7.8-4.7 3.2-7.8 3.2c-3.1 0-5.8-1.2-7.8-3.2s-3.2-4.8-3.2-7.8c0-3.1 1.2-5.8 3.2-7.8s4.8-3.2 7.8-3.2zm-9-.7c.8.7.8 2 0 2.7-.8.8-2 .8-2.7 0l-6.1-6.1c-.8-.8-.8-2 0-2.7.8-.8 2-.8 2.7 0l6.1 6.1zm-5.7 9.8c1.1 0 1.9.9 1.9 1.9 0 1.1-.9 2-1.9 2H27c-1.1 0-1.9-.9-1.9-2s.9-1.9 1.9-1.9h8.6zm2.9 11c.8-.8 2-.8 2.8 0 .7.7.7 2 0 2.7l-6.1 6.1c-.8.8-2 .8-2.7 0-.8-.7-.8-2 0-2.7l6-6.1zm9.9 5.7c0-1.1.9-2 1.9-2 1.1 0 1.9.9 1.9 2v8.6c0 1.1-.9 1.9-1.9 1.9-1.1 0-1.9-.9-1.9-1.9V66zm10.9-3c-.8-.8-.8-2 0-2.7.7-.8 2-.8 2.7 0l6.1 6.1c.8.7.8 2 0 2.7-.8.8-2 .8-2.7 0L59.3 63zm5.7-9.8c-1.1 0-1.9-.9-1.9-1.9 0-1.1.9-2 1.9-2h8.6c1.1 0 1.9.9 1.9 2s-.9 1.9-1.9 1.9H65zm-2.9-11c-.7.8-2 .8-2.7 0-.8-.7-.8-2 0-2.7l6.1-6.1c.8-.8 2-.8 2.7 0 .8.7.8 2 0 2.7l-6.1 6.1zm-9.9-5.7c0 1.1-.9 2-1.9 2-1.1 0-1.9-.9-1.9-2V28c0-1.1.9-1.9 1.9-1.9 1.1 0 1.9.9 1.9 1.9v8.5zm3.2 9.7c-1.3-1.3-3.1-2.1-5.1-2.1-2 0-3.8.8-5.1 2.1-1.3 1.3-2.1 3.1-2.1 5.1 0 2 .8 3.8 2.1 5.1 1.3 1.3 3.1 2.1 5.1 2.1 2 0 3.8-.8 5.1-2.1 1.3-1.3 2.1-3.1 2.1-5.1 0-2-.8-3.8-2.1-5.1z"/></svg>