<svg xmlns="http://www.w3.org/2000/svg" width="60" height="60" viewBox="0 0 60 60"><title>owm</title><desc>Created with Sketch.</desc><path fill="#fff" fill-opacity=".011" d="M30 58.75c15.88 0 28.75-12.872 28.75-28.75S45.88 1.25 30 1.25C14.122 1.25 1.25 14.122 1.25 30S14.122 58.75 30 58.75zM30 60C13.432 60 0 46.568 0 30S13.432 0 30 0s30 13.432 30 30-13.432 30-30 30z"/><path d="M18.69 39.896l-5.664 5.663c-.382.38-.388 1.02.003 1.41.393.393 1.02.392 1.41.003l5.663-5.663c.382-.382.388-1.02-.003-1.41-.393-.394-1.022-.392-1.41-.004zM18.69 20.104c.38.382 1.02.388 1.41-.003.393-.393.392-1.02.003-1.41l-5.663-5.663c-.382-.382-1.02-.388-1.41.003-.394.394-.393 1.022-.004 1.41l5.663 5.664zM16 30c0-.556-.446-1-.996-1H6.996c-.54 0-.996.448-.996 1 0 .557.446 1 .996 1h8.01c.538 0 .994-.447.994-1zM30 16c.557 0 1-.446 1-.996V6.996c0-.54-.447-.996-1-.996-.556 0-1 .446-1 .996v8.01c0 .538.448.994 1 .994zM41.31 20.104l5.664-5.663c.382-.38.388-1.02-.003-1.41-.393-.393-1.02-.392-1.41-.003l-5.663 5.663c-.382.382-.388 1.02.003 1.41.393.394 1.022.393 1.41.004zM41.31 39.896c-.38-.382-1.02-.388-1.41.003-.394.393-.392 1.02-.003 1.41l5.663 5.663c.382.382 1.02.388 1.41-.003.394-.394.393-1.022.004-1.41l-5.663-5.664zM53.004 29h-8.008c-.54 0-.996.448-.996 1 0 .557.445 1 .996 1h8.008c.54 0 .996-.447.996-1 0-.556-.445-1-.996-1zM30 18c-6.627 0-12 5.373-12 12s5.373 12 12 12 12-5.373 12-12-5.373-12-12-12zm0 21c-4.97 0-9-4.03-9-9s4.03-9 9-9 9 4.03 9 9-4.03 9-9 9zM30 44c-.556 0-1 .445-1 .996v8.008c0 .54.448.996 1 .996.557 0 1-.445 1-.996v-8.008c0-.54-.447-.996-1-.996z"/></svg>