<svg xmlns="http://www.w3.org/2000/svg" width="60" height="60" viewBox="0 0 60 60"><title>photos</title><desc>Created with Sketch.</desc><path fill="#fff" fill-opacity=".011" d="M30 58.75c15.88 0 28.75-12.872 28.75-28.75S45.88 1.25 30 1.25C14.122 1.25 1.25 14.122 1.25 30S14.122 58.75 30 58.75zM30 60C13.432 60 0 46.568 0 30S13.432 0 30 0s30 13.432 30 30-13.432 30-30 30z"/><path d="M20.34 26.087c2.186 0 4.008-1.692 4.008-3.878s-1.75-3.95-4.01-3.95c-2.186 0-4.008 1.763-4.08 3.95 0 2.115 1.822 3.877 4.08 3.877zm7.945 12.267l3.06 2.96c.44.424.44 1.06 0 1.48s-1.092.424-1.53 0l-3.79-3.665-6.34-6.135L10 42.5V46h40v-3.204l-13.113-12.76-8.602 8.318zM10 39.5l8.88-8.69c.44-.422 1.095-.422 1.532 0l6.342 6.135 9.33-9.024c.438-.422 1.094-.422 1.53 0L50 40V14H10v25.5zm10.34-23.283c3.425 0 6.195 2.68 6.195 5.993 0 3.314-2.77 5.993-6.196 5.993-3.354 0-6.124-2.68-6.197-5.993 0-3.314 2.77-5.993 6.196-5.993z" fill="none"/><path d="M50 11H10c-1.65 0-3 1.342-3 2.998v32.004C7 47.647 8.343 49 10 49h40c1.648 0 3-1.342 3-2.998V13.998C53 12.353 51.656 11 50 11zm0 35H10v-3.5l9.684-9.504 6.34 6.134 3.792 3.666c.438.423 1.093.423 1.53 0s.438-1.058 0-1.48l-3.06-2.96 8.6-8.32L50 42.796V46zm0-6L37.615 27.92c-.438-.423-1.094-.423-1.53 0l-9.33 9.024-6.343-6.134c-.437-.423-1.093-.423-1.53 0L10 39.5V14h40v26zM20.34 28.202c3.425 0 6.195-2.68 6.195-5.993 0-3.314-2.77-5.994-6.196-5.994s-6.197 2.68-6.197 5.993c.073 3.313 2.843 5.992 6.196 5.992zm0-9.94c2.26 0 4.008 1.762 4.008 3.948s-1.822 3.878-4.01 3.878c-2.26 0-4.08-1.763-4.08-3.878.072-2.186 1.895-3.948 4.08-3.948z"/></svg>