<svg xmlns="http://www.w3.org/2000/svg" viewBox="0 0 100 100" enable-background="new 0 0 100 100" width="100" height="100"><path d="M80.9 24.6H22.5c-1.3 0-2.4 1.1-2.4 2.4v49.1c0 1.3 1.1 2.4 2.4 2.4h58.3c1.3 0 2.4-1.1 2.4-2.4V27c.1-1.4-1-2.4-2.3-2.4zm-2.5 49.1H25v-5.4l12.5-12.5 8.7 8.7 5.2 5.2c.6.6 1.5.6 2.1 0 .6-.6.6-1.5 0-2.1l-4.2-4.2 11.8-11.8L78.4 69v4.7zm0-8.8L62.1 48.6c-.6-.6-1.5-.6-2.1 0L47.2 61.4l-8.7-8.7c-.6-.6-1.5-.6-2.1 0L25 64.2V29.4h53.5v35.5h-.1zM38.4 49c4.7 0 8.5-3.8 8.5-8.5S43.1 32 38.4 32s-8.5 3.8-8.5 8.5c.1 4.7 3.9 8.5 8.5 8.5zm0-14.1c3.1 0 5.5 2.5 5.5 5.6 0 3.1-2.5 5.5-5.5 5.5-3.1 0-5.6-2.5-5.6-5.5.1-3.1 2.6-5.6 5.6-5.6z"/></svg>