<svg xmlns="http://www.w3.org/2000/svg" width="60" height="60" viewBox="0 0 60 60"><title>polybios</title><desc>Created with Sketch.</desc><path d="M46.003 24H43v-5c0-.413-.052-1.076-.204-1.91-.252-1.38-.705-2.76-1.418-4.06C39.32 9.274 35.586 7 30 7s-9.32 2.273-11.378 6.03c-.712 1.3-1.166 2.682-1.418 4.06-.152.834-.204 1.497-.204 1.91v5h-3.002C12.352 24 11 25.343 11 27v24c0 1.652 1.342 3 2.998 3h32.005C47.65 54 49 52.657 49 51V27c0-1.653-1.34-3-2.997-3zM20 19l.018-.334c.024-.31.068-.66.137-1.037.198-1.083.552-2.163 1.098-3.16C22.79 11.666 25.523 10 30 10s7.21 1.665 8.747 4.47c.545.997.9 2.077 1.1 3.16.067.377.11.727.136 1.036L40 19v5H20v-5zm26 32H14V27h32v24zM16.88 33.49c0-.607.063-1.14.19-1.596s.305-.834.535-1.135c.23-.3.505-.526.825-.676.32-.15.677-.225 1.07-.225.84 0 1.487.294 1.94.884s.68 1.505.68 2.745c0 .612-.063 1.147-.19 1.603-.127.457-.305.837-.535 1.14-.23.304-.507.53-.83.68-.323.15-.682.227-1.075.227-.847 0-1.493-.312-1.94-.936-.447-.622-.67-1.527-.67-2.714zm3.96 0l-.005-.305-.015-.285-2.45 2.23c.207.605.583.91 1.13.91.427 0 .757-.204.99-.61.233-.407.35-1.053.35-1.94zm-2.68 0l.005.285.015.274 2.44-2.23c-.2-.573-.577-.86-1.13-.86-.427 0-.755.205-.985.615-.23.41-.345 1.048-.345 1.915zm5.72 0c0-.607.063-1.14.19-1.596s.305-.834.535-1.135c.23-.3.505-.526.825-.676.32-.15.677-.225 1.07-.225.84 0 1.487.294 1.94.884s.68 1.505.68 2.745c0 .612-.063 1.147-.19 1.603-.127.457-.305.837-.535 1.14-.23.304-.507.53-.83.68-.323.15-.682.227-1.075.227-.847 0-1.493-.312-1.94-.936-.447-.622-.67-1.527-.67-2.714zm3.96 0l-.005-.305-.015-.285-2.45 2.23c.207.605.583.91 1.13.91.427 0 .757-.204.99-.61.233-.407.35-1.053.35-1.94zm-2.68 0l.005.285.015.274 2.44-2.23c-.2-.573-.577-.86-1.13-.86-.427 0-.755.205-.985.615-.23.41-.345 1.048-.345 1.915zm6.4 2.41h1.53v-4.37l-1.32 1.01-.6-.8L33.45 30h.88v5.9h1.5V37h-4.27v-1.1zm6.32-2.41c0-.607.063-1.14.19-1.596s.305-.834.535-1.135c.23-.3.504-.526.824-.676s.677-.225 1.07-.225c.84 0 1.485.294 1.938.884s.68 1.505.68 2.745c0 .612-.062 1.147-.19 1.603-.126.457-.304.837-.534 1.14-.23.304-.506.53-.83.68-.322.15-.682.227-1.074.227-.848 0-1.493-.312-1.94-.936-.446-.622-.67-1.527-.67-2.714zm3.96 0l-.005-.305-.015-.285-2.45 2.23c.207.605.583.91 1.13.91.427 0 .757-.204.99-.61.233-.407.35-1.053.35-1.94zm-2.68 0l.005.285.015.274 2.44-2.23c-.2-.573-.577-.86-1.13-.86-.428 0-.756.205-.985.615-.23.41-.345 1.048-.345 1.915zm-22.28 11c0-.607.063-1.14.19-1.596s.305-.834.535-1.135c.23-.3.505-.526.825-.676.32-.15.677-.226 1.07-.226.84 0 1.487.296 1.94.886s.68 1.505.68 2.745c0 .612-.063 1.147-.19 1.603-.127.457-.305.837-.535 1.14-.23.304-.507.53-.83.68-.323.15-.682.227-1.075.227-.847 0-1.493-.312-1.94-.936-.447-.622-.67-1.527-.67-2.714zm3.96 0l-.005-.305-.015-.285-2.45 2.23c.207.605.583.91 1.13.91.427 0 .757-.204.99-.61.233-.407.35-1.053.35-1.94zm-2.68 0l.005.285.015.274 2.44-2.23c-.2-.573-.577-.86-1.13-.86-.427 0-.755.205-.985.615-.23.41-.345 1.048-.345 1.915zm6.4 2.41h1.53v-4.37l-1.32 1.01-.6-.8L26.45 41h.88v5.9h1.5V48h-4.27v-1.1zm6.32-2.41c0-.607.063-1.14.19-1.596s.305-.834.535-1.135c.23-.3.504-.526.824-.676s.677-.226 1.07-.226c.84 0 1.485.296 1.938.886s.68 1.505.68 2.745c0 .612-.062 1.147-.19 1.603-.126.457-.304.837-.534 1.14-.23.304-.506.53-.83.68-.322.15-.682.227-1.074.227-.848 0-1.493-.312-1.94-.936-.446-.622-.67-1.527-.67-2.714zm3.96 0l-.005-.305-.015-.285-2.45 2.23c.207.605.583.91 1.13.91.427 0 .757-.204.99-.61.233-.407.35-1.053.35-1.94zm-2.68 0l.005.285.015.274 2.44-2.23c-.2-.573-.577-.86-1.13-.86-.428 0-.756.205-.985.615-.23.41-.345 1.048-.345 1.915zm6.4 2.41h1.53v-4.37l-1.32 1.01-.6-.8L40.45 41h.88v5.9h1.5V48h-4.27v-1.1z"/></svg>