<svg xmlns="http://www.w3.org/2000/svg" width="60" height="60" viewBox="0 0 60 60"><title>remote_storage</title><desc>Created with Sketch.</desc><path fill="#fff" fill-opacity=".011" d="M30 58.75c15.88 0 28.75-12.872 28.75-28.75S45.88 1.25 30 1.25C14.122 1.25 1.25 14.122 1.25 30S14.122 58.75 30 58.75zM30 60C13.432 60 0 46.568 0 30S13.432 0 30 0s30 13.432 30 30-13.432 30-30 30z"/><path d="M31 7L11 19v22l20 12 20-12V19L31 7zM14 21.34L29 30l-15 8.66V21.34zm16 27.072l-14.31-8.418L30 31.732v16.68zm0-20.144l-14.31-8.262L30 11.588v16.68zm2-16.68l14.31 8.417L32 28.268v-16.68zm0 36.824v-16.68l14.31 8.262L32 48.412zm16-9.752L33 30l15-8.66v17.32z"/></svg>