<svg xmlns="http://www.w3.org/2000/svg" width="128" height="128" viewBox="0 0 128 128"><g transform="matrix(.615 0 0 .596 24.656 25.322)" stroke-miterlimit="10" stroke="#000" stroke-width="8" fill="none"><path d="M119.088 64.32c0-9.702-.044-19.405.034-29.107.017-2.13-.557-3.48-2.542-4.612C99.835 21.04 83.146 11.384 66.484 1.68c-1.8-1.048-3.186-1.037-4.98.007-16.662 9.704-33.358 19.35-50.09 28.934-1.798 1.03-2.546 2.198-2.54 4.285.066 19.406.07 38.812-.003 58.217-.007 2.106.752 3.235 2.548 4.263 16.644 9.523 33.254 19.105 49.816 28.77 2.018 1.18 3.53 1.17 5.544-.005 16.47-9.61 32.985-19.145 49.544-28.602 2.007-1.146 2.848-2.412 2.818-4.758-.123-9.49-.05-18.98-.052-28.47z"/><path d="M61.02 67.658C46.727 75.423 26.79 86.382 13 93.875c-.15-.256.148-.494-.003-.75C26.39 84.92 45.483 73.23 59.372 64.722L14.124 35.746l.458-.806 47.71 24.703c.42-17.27.833-34.114 1.244-50.96l.915-.015L65.7 59.63l47.665-24.658.466.8c-14.878 9.524-29.757 19.05-45.218 28.946 13.882 8.502 32.718 18.81 46.138 27.032-.147.256-.77.87-.918 1.125-13.787-7.487-32.514-17.42-46.862-25.21l-2.54 55.58-.862.003-2.55-55.59z"/></g></svg>