<svg xmlns="http://www.w3.org/2000/svg" width="60" height="60" viewBox="0 0 60 60"><title>settings</title><desc>Created with Sketch.</desc><g fill="none"><path d="M30 58.75c15.878 0 28.75-12.872 28.75-28.75S45.878 1.25 30 1.25 1.25 14.122 1.25 30 14.122 58.75 30 58.75zM30 60C13.43 60 0 46.57 0 30S13.43 0 30 0s30 13.43 30 30-13.43 30-30 30z" fill-opacity=".011" fill="#fff"/><path d="M31.833 52h-3.666c-1.517 0-2.75-1.234-2.75-2.75v-3.414c-1.174-.34-2.303-.807-3.375-1.4l-2.414 2.416c-1.04 1.04-2.85 1.038-3.89 0l-2.593-2.592c-.52-.52-.806-1.21-.806-1.945 0-.734.286-1.425.805-1.944l2.416-2.415c-.59-1.07-1.06-2.198-1.397-3.373H10.75c-1.516 0-2.75-1.233-2.75-2.75v-3.666c0-.735.286-1.426.805-1.945.52-.517 1.21-.804 1.945-.804h3.414c.34-1.172.806-2.302 1.4-3.373l-2.416-2.415c-1.072-1.073-1.072-2.816 0-3.89l2.592-2.592c1.04-1.038 2.85-1.04 3.89 0l2.415 2.416c1.07-.592 2.2-1.06 3.372-1.398V10.75c0-1.516 1.233-2.75 2.75-2.75h3.666c1.517 0 2.75 1.234 2.75 2.75v3.414c1.174.34 2.303.807 3.372 1.398l2.415-2.416c1.04-1.038 2.85-1.04 3.89 0l2.593 2.592c.52.52.806 1.21.806 1.945 0 .734-.287 1.425-.807 1.944l-2.415 2.415c.593 1.07 1.06 2.2 1.4 3.374h3.412c1.516 0 2.75 1.234 2.75 2.75v3.666c0 .736-.286 1.426-.805 1.945-.52.518-1.21.805-1.945.805h-3.414c-.34 1.174-.807 2.304-1.398 3.374l2.414 2.415c1.073 1.074 1.073 2.817 0 3.89l-2.592 2.593c-1.04 1.038-2.85 1.038-3.89 0l-2.413-2.416c-1.07.593-2.2 1.06-3.373 1.4v3.413c0 1.516-1.234 2.75-2.75 2.75zm0-3c-.14 0-.25.11-.25.25v-5.668l2.167-.627c.96-.28 1.884-.66 2.755-1.143l1.977-1.093 1.597 1.597 2.41 2.414c-.13-.13-.22-.13-.352.002l2.593-2.594c-.098.1-.098.255 0 .354l-2.414-2.415-1.596-1.597 1.092-1.975c.482-.874.865-1.796 1.142-2.756l.627-2.168h5.67c-.06 0-.133.03-.176.073-.044.044-.074.117-.074.177v-3.666c0 .14.11.25.25.25h-5.67l-.625-2.17c-.276-.956-.658-1.877-1.142-2.752l-1.093-1.976 1.597-1.597 2.416-2.416c-.044.044-.074.117-.074.18 0 .06.03.133.072.176l-2.594-2.593c.133.133.22.133.354 0l-2.416 2.416-1.596 1.596-1.976-1.092c-.873-.483-1.796-.865-2.754-1.142l-2.167-.627v-5.67c0 .14.11.25.25.25h-3.666c.14 0 .25-.11.25-.25v5.67l-2.168.626c-.957.276-1.88.658-2.755 1.142l-1.975 1.09-1.596-1.595-2.416-2.416c.133.133.22.133.354 0L15.27 17.86c.098-.098.098-.254 0-.353l2.414 2.415 1.597 1.597-1.092 1.975c-.482.87-.864 1.794-1.143 2.755l-.627 2.166H10.75c.06 0 .133-.03.176-.073.044-.044.074-.117.074-.177v3.666c0-.14-.11-.25-.25-.25H16.42l.626 2.17c.275.957.657 1.878 1.14 2.75l1.093 1.977-1.598 1.596-2.417 2.418c.044-.044.074-.117.074-.18 0-.06-.03-.133-.074-.176l2.592 2.59c-.13-.13-.22-.13-.352.003l2.415-2.414 1.597-1.597 1.976 1.09c.876.485 1.798.867 2.757 1.144l2.167.627v5.67c0-.14-.11-.25-.25-.25h3.666zM30 39c-4.963 0-9-4.037-9-9s4.037-9 9-9 9 4.037 9 9-4.036 9-9 9zm0-2c3.86 0 7-3.142 7-7s-3.142-7-7-7-7 3.142-7 7 3.142 7 7 7z" fill="#000"/></g></svg>