<svg xmlns="http://www.w3.org/2000/svg" height="48" viewBox="0 0 48 48" width="48"><g><path d="M26 48h-4c-1.654 0-3-1.346-3-3v-3.724c-1.28-.37-2.512-.88-3.68-1.527l-2.635 2.634c-1.134 1.134-3.11 1.132-4.243 0l-2.83-2.828c-.566-.566-.878-1.32-.878-2.12s.312-1.556.88-2.122l2.634-2.636c-.645-1.166-1.156-2.398-1.525-3.68H3c-1.654 0-3-1.345-3-3v-4c0-.8.312-1.554.878-2.12.567-.566 1.32-.88 2.122-.88h3.724c.37-1.277.88-2.51 1.526-3.678l-2.634-2.635c-1.17-1.17-1.17-3.072 0-4.242l2.828-2.83c1.133-1.13 3.11-1.133 4.243 0l2.635 2.636c1.168-.646 2.4-1.157 3.678-1.526V3c0-1.654 1.346-3 3-3h4c1.654 0 3 1.346 3 3v3.724c1.28.37 2.512.88 3.678 1.525l2.635-2.636c1.134-1.132 3.11-1.134 4.243 0l2.83 2.828c.566.566.878 1.32.878 2.12s-.312 1.556-.88 2.122l-2.633 2.635c.647 1.167 1.158 2.4 1.527 3.68H45c1.654 0 3 1.345 3 3v4c0 .8-.312 1.554-.878 2.12S45.802 29 45 29h-3.724c-.37 1.28-.88 2.512-1.526 3.68l2.634 2.634c1.17 1.17 1.17 3.072 0 4.242l-2.828 2.83c-1.134 1.132-3.11 1.132-4.243 0L32.68 39.75c-1.168.646-2.4 1.156-3.68 1.526V45c0 1.654-1.345 3-3 3zM15.157 37.498c.18 0 .36.048.52.146 1.417.866 2.95 1.502 4.558 1.89.45.11.765.51.765.973V45c0 .552.45 1 1 1h4c.55 0 1-.448 1-1v-4.493c0-.462.316-.863.765-.972 1.606-.39 3.14-1.023 4.556-1.89.397-.24.903-.18 1.23.146l3.178 3.18c.375.374 1.04.376 1.415 0l2.828-2.83c.39-.39.39-1.023 0-1.413l-3.178-3.18c-.327-.325-.387-.834-.146-1.228.865-1.415 1.5-2.948 1.89-4.557.107-.45.51-.766.97-.766H45c.267 0 .52-.104.708-.293.188-.186.292-.437.292-.705v-4c0-.553-.45-1-1-1h-4.493c-.462 0-.864-.317-.972-.767-.388-1.607-1.023-3.14-1.89-4.556-.24-.394-.18-.9.147-1.23l3.18-3.178c.185-.188.292-.445.292-.708s-.107-.52-.293-.707l-2.828-2.828c-.378-.377-1.037-.377-1.415 0l-3.18 3.18c-.325.327-.832.388-1.228.145-1.414-.864-2.946-1.5-4.555-1.89-.448-.106-.765-.507-.765-.97V3c0-.552-.45-1-1-1h-4c-.55 0-1 .448-1 1v4.493c0 .462-.316.863-.765.972-1.606.388-3.14 1.023-4.556 1.89-.396.24-.903.18-1.23-.147l-3.178-3.18c-.378-.376-1.037-.376-1.415 0L7.03 9.86c-.39.39-.39 1.023 0 1.413l3.18 3.18c.326.326.386.835.145 1.23-.866 1.415-1.5 2.948-1.89 4.554-.107.45-.51.766-.97.766H3c-.267 0-.52.104-.708.293C2.104 21.48 2 21.73 2 22v4c0 .55.45 1 1 1h4.493c.462 0 .864.315.972.765.39 1.608 1.024 3.14 1.89 4.555.24.394.18.9-.147 1.23l-3.18 3.18c-.185.186-.292.443-.292.706s.107.52.293.707l2.828 2.828c.377.378 1.037.378 1.415 0l3.178-3.178c.193-.194.448-.294.707-.294zM24 34c-5.514 0-10-4.486-10-10s4.486-10 10-10 10 4.486 10 10-4.485 10-10 10zm0-18c-4.41 0-8 3.59-8 8s3.59 8 8 8 8-3.59 8-8-3.588-8-8-8z"/></g></svg>