<svg xmlns="http://www.w3.org/2000/svg" width="60" height="60" viewBox="0 0 60 60"><title>shout IRC</title><desc>Created with Sketch.</desc><path d="M30 8C17.85 8 8 17.402 8 29c0 5.316 2.07 10.172 5.48 13.87h.002l-1.178 7.655c-.168 1.09.505 1.57 1.488 1.078l7.028-3.514C23.614 49.315 26.723 50 30 50c12.15 0 22-9.402 22-21S42.15 8 30 8zm5.318 31.532c-1.483 1.188-3.55 1.78-6.194 1.78-2.438 0-4.594-.457-6.47-1.375v-4.5c1.543.688 2.847 1.172 3.915 1.453 1.067.28 2.043.422 2.93.422 1.062 0 1.877-.203 2.443-.608.568-.406.853-1.01.853-1.813 0-.446-.125-.845-.375-1.194-.25-.348-.615-.685-1.102-1.008-.483-.322-1.47-.838-2.96-1.547-1.396-.655-2.443-1.285-3.14-1.89-.7-.604-1.256-1.307-1.673-2.11-.417-.8-.625-1.74-.625-2.812 0-2.02.685-3.61 2.055-4.766 1.37-1.156 3.263-1.734 5.68-1.734 1.187 0 2.32.14 3.397.422s2.206.677 3.383 1.188l-1.562 3.766c-1.22-.5-2.227-.85-3.023-1.047-.797-.198-1.58-.297-2.352-.297-.917 0-1.62.214-2.11.64-.49.428-.733.985-.733 1.673 0 .427.1.8.297 1.117.198.318.513.625.945.922s1.456.83 3.07 1.602c2.135 1.02 3.6 2.044 4.39 3.07.794 1.026 1.19 2.284 1.19 3.773 0 2.063-.742 3.687-2.23 4.875z"/></svg>