<svg xmlns="http://www.w3.org/2000/svg" height="60" viewBox="0 0 60 60" width="60"><path d="M49.178 40.1H47.11v-5.672c0-2.718-2.487-4.93-5.544-4.93h-9.732v-8.325h11.863c1.88 0 3.412-1.36 3.412-3.033v-5.954c0-1.673-1.53-3.033-3.412-3.033H17.413c-1.88 0-3.41 1.36-3.41 3.033v5.953c0 1.672 1.53 3.032 3.41 3.032h11.862v8.326H19.45c-3.056 0-5.544 2.21-5.544 4.93v5.67H11.84c-1.883 0-3.413 1.36-3.413 3.034v5.952c0 1.674 1.53 3.035 3.412 3.035h6.692c1.88 0 3.41-1.362 3.41-3.035v-5.952c0-1.673-1.53-3.033-3.41-3.033h-2.068v-5.67c0-1.465 1.34-2.656 2.985-2.656h9.825v8.563h-1.8c-1.88 0-3.41 1.36-3.41 3.034v5.477c0 1.673 1.53 3.035 3.41 3.035h6.16c1.88 0 3.41-1.362 3.41-3.035V43.37c0-1.672-1.53-3.033-3.41-3.033h-1.8v-8.564h9.73c1.647 0 2.985 1.19 2.985 2.655v5.67h-2.068c-1.88 0-3.41 1.36-3.41 3.034v5.953c0 1.672 1.53 3.033 3.41 3.033h6.695c1.88 0 3.41-1.36 3.41-3.033v-5.953c.002-1.673-1.528-3.033-3.41-3.033zM16.56 18.14v-5.954c0-.418.383-.758.854-.758H43.7c.47 0 .852.34.852.758v5.953c0 .417-.383.757-.853.757H17.412c-.47 0-.852-.34-.852-.758zm2.826 24.992v5.953c0 .418-.383.758-.853.758H11.84c-.472 0-.854-.34-.854-.758v-5.953c0-.418.382-.76.853-.76h6.692c.47.002.854.342.854.76zm15.1.238v5.477c0 .418-.38.76-.852.76h-6.158c-.47 0-.855-.342-.855-.76V43.37c0-.418.385-.76.856-.76h6.158c.472.002.853.342.853.76zm15.544 5.715c0 .418-.382.76-.853.76h-6.695c-.47 0-.853-.342-.853-.76v-5.952c0-.418.383-.76.852-.76h6.695c.47 0 .853.342.853.76v5.952z" fill="#231f20"/></svg>