<svg xmlns="http://www.w3.org/2000/svg" width="60" height="60" viewBox="0 0 60 60"><title>state</title><desc>Created with Sketch.</desc><g fill="none"><path d="M30 58.75c15.878 0 28.75-12.872 28.75-28.75S45.878 1.25 30 1.25 1.25 14.122 1.25 30 14.122 58.75 30 58.75zM30 60C13.43 60 0 46.57 0 30S13.43 0 30 0s30 13.43 30 30-13.43 30-30 30z" fill-opacity=".011" fill="#fff"/><path d="M29 29v-8H16.996C15.34 21 14 19.658 14 18.003v-6.006C14 10.342 15.334 9 16.996 9h26.008C44.66 9 46 10.342 46 11.997v6.006C46 19.658 44.666 21 43.004 21H31v8h9c3.314 0 6.004 2.69 6.004 6v4h2C49.657 39 51 40.342 51 41.997v6.006C51 49.658 49.658 51 48.003 51h-6.006C40.342 51 39 49.658 39 48.003v-6.006C39 40.342 40.342 39 41.997 39h2.007v-4c0-2.205-1.795-4-4.005-4h-9v8h2.003C34.658 39 36 40.342 36 41.997v6.006C36 49.658 34.658 51 33.003 51h-6.006C25.342 51 24 49.658 24 48.003v-6.006C24 40.342 25.342 39 26.997 39H29v-8h-8.995C17.787 31 16 32.787 16 35v4h2.003C19.658 39 21 40.342 21 41.997v6.006C21 49.658 19.658 51 18.003 51h-6.006C10.342 51 9 49.658 9 48.003v-6.006C9 40.342 10.342 39 11.997 39H14v-4c0-3.317 2.682-6 6.005-6H29zM17 12.99c0-.546.45-.99 1.003-.99h23.994c.554 0 1.003.45 1.003.99v4.02c0 .546-.45.99-1.003.99H18.003C17.45 18 17 17.55 17 17.01v-4.02zm-5 30c0-.546.45-.99.99-.99h4.02c.546 0 .99.45.99.99v4.02c0 .546-.45.99-.99.99h-4.02c-.546 0-.99-.45-.99-.99v-4.02zm30 0c0-.546.45-.99.99-.99h4.02c.546 0 .99.45.99.99v4.02c0 .546-.45.99-.99.99h-4.02c-.546 0-.99-.45-.99-.99v-4.02zm-15 0c0-.546.45-.99.99-.99h4.02c.546 0 .99.45.99.99v4.02c0 .546-.45.99-.99.99h-4.02c-.546 0-.99-.45-.99-.99v-4.02z" fill="#000"/></g></svg>