<svg xmlns="http://www.w3.org/2000/svg" width="60" height="60" viewBox="0 0 60 60"><title>store</title><desc>Created with Sketch.</desc><path fill="#fff" fill-opacity=".011" d="M30 58.75c15.878 0 28.75-12.872 28.75-28.75S45.878 1.25 30 1.25 1.25 14.122 1.25 30 14.122 58.75 30 58.75zM30 60C13.43 60 0 46.568 0 30 0 13.43 13.43 0 30 0c16.568 0 30 13.43 30 30 0 16.568-13.432 30-30 30z"/><path d="M29 10C17.954 10 9 18.954 9 30s8.954 20 20 20 20-8.954 20-20-8.954-20-20-20zm12 21.5H30.5V42h-3V31.5H17v-3h10.5V18h3v10.5H41v3z" fill="none"/><path d="M29 7C16.297 7 6 17.297 6 30s10.297 23 23 23 23-10.297 23-23S41.703 7 29 7zm0 43C17.954 50 9 41.046 9 30s8.954-20 20-20 20 8.954 20 20-8.954 20-20 20zm1.5-32h-3v10.5H17v3h10.5V42h3V31.5H41v-3H30.5z"/></svg>