<svg xmlns="http://www.w3.org/2000/svg" height="32" viewBox="0 0 32 32" width="32"><g stroke="#fff" stroke-linecap="round" stroke-linejoin="round" stroke-miterlimit="10" stroke-width="2" fill="none"><path d="M649 138h26v18h-14M653 156h-4v-14M661 156l-8 6v-6"/></g><path d="M16 30c-3.74 0-7.255-1.456-9.9-4.1C1.78 21.577.754 15.024 3.548 9.594c.253-.49.855-.684 1.347-.432.49.252.685.855.432 1.347-2.395 4.655-1.516 10.27 2.19 13.975C9.78 26.752 12.793 28 16 28c3.205 0 6.22-1.248 8.485-3.515S28 19.205 28 16c0-3.206-1.248-6.22-3.515-8.485S19.205 4 16 4c-3.206 0-6.22 1.25-8.485 3.515-.39.39-1.023.39-1.414 0s-.39-1.023 0-1.414C8.746 3.458 12.26 2 16 2s7.256 1.457 9.9 4.1C28.543 8.746 30 12.26 30 16s-1.456 7.255-4.1 9.9C23.255 28.543 19.74 30 16 30zM16 22c-.552 0-1-.447-1-1V11c0-.552.448-1 1-1s1 .448 1 1v10c0 .553-.448 1-1 1zM21 17H11c-.552 0-1-.448-1-1s.448-1 1-1h10c.553 0 1 .448 1 1s-.447 1-1 1z"/></svg>