<svg xmlns="http://www.w3.org/2000/svg" width="60" height="60" viewBox="0 0 60 60"><title>sync</title><desc>Created with Sketch.</desc><g fill="none"><path d="M30 58.75c15.878 0 28.75-12.872 28.75-28.75S45.878 1.25 30 1.25 1.25 14.122 1.25 30 14.122 58.75 30 58.75zM30 60C13.43 60 0 46.57 0 30S13.43 0 30 0s30 13.43 30 30-13.43 30-30 30z" fill-opacity=".011" fill="#fff"/><path d="M17.345 45.928C10.975 45.255 6 39.926 6 33.473c0-3.295 1.287-6.406 3.625-8.76 2.048-2.062 4.7-3.344 7.572-3.678.338-2.83 1.64-5.445 3.73-7.463 2.39-2.305 5.546-3.572 8.89-3.572 3.34 0 6.498 1.267 8.887 3.57 2.084 2.01 3.38 4.612 3.728 7.426C48.907 21.568 54 26.946 54 33.473c0 6.453-4.978 11.782-11.345 12.455l-.495-2.966c4.953-.434 8.84-4.536 8.84-9.49 0-4.92-3.853-9.048-8.832-9.487l-2.416-.214-.297-2.406c-.265-2.14-1.25-4.107-2.834-5.634-1.826-1.762-4.235-2.73-6.804-2.73-2.57 0-4.978.968-6.805 2.73-1.59 1.536-2.577 3.513-2.835 5.662l-.28 2.35-2.352.273c-2.202.256-4.225 1.237-5.79 2.81C9.974 28.62 9 30.972 9 33.474c0 4.955 3.885 9.055 8.84 9.49l-.495 2.965zM36.3 39.714h-2.442l1.79-1.79c-1.09-1.997-3.21-3.352-5.647-3.352-3.108 0-5.703 2.208-6.3 5.142h-2.61C21.717 35.354 25.467 32 30 32c3.142 0 5.91 1.61 7.52 4.052l1.48-1.48v5.142H36.3zM30 47.428c3.108 0 5.703-2.208 6.3-5.142h2.61C38.283 46.646 34.533 50 30 50c-3.142 0-5.91-1.61-7.52-4.052L21 47.428v-5.144h5.144l-1.79 1.79c1.09 1.998 3.21 3.352 5.647 3.352v.002z" fill="#000"/></g></svg>