<svg xmlns="http://www.w3.org/2000/svg" height="100" viewBox="0 0 100 100" width="100"><title/><path d="M50.753 69.434c4.618 0 8.473-3.32 9.358-7.728h3.877C63.06 68.26 57.49 73.3 50.757 73.3c-4.67 0-8.78-2.42-11.17-6.09l-2.2 2.224v-7.73h7.64l-2.66 2.688c1.62 3.003 4.77 5.04 8.39 5.04zM60.11 57.84h-3.625l2.66-2.687c-1.62-3.004-4.77-5.04-8.39-5.04-4.618 0-8.472 3.32-9.358 7.728H37.52c.93-6.553 6.5-11.592 13.233-11.592 4.668 0 8.778 2.42 11.17 6.09l2.2-2.225v7.728h-.136zM20.2 55.91c0-4.284 2.306-8.035 5.733-10.042.2-9.427 7.816-17.01 17.185-17.01 6.174 0 11.59 3.296 14.62 8.243 1.117-.335 2.3-.513 3.524-.513 5.318 0 9.854 3.383 11.622 8.14 4.857 1.343 8.43 5.842 8.43 11.18 0 6.39-5.13 11.594-11.457 11.594H66.16c.597-1.213 1.06-2.51 1.36-3.864h2.342c4.215 0 7.632-3.468 7.632-7.728 0-4.268-3.425-7.728-7.632-7.728h-.058c-.475-4.348-4.118-7.728-8.542-7.728-2.02 0-3.876.705-5.342 1.885-1.66-5.562-6.763-9.613-12.8-9.613-7.383 0-13.366 6.055-13.366 13.526 0 .727.055 1.44.164 2.134-3.377.798-5.893 3.87-5.893 7.527 0 4.27 3.425 7.73 7.632 7.73h1.917v3.864h-1.91c-6.327 0-11.457-5.19-11.457-11.593zm0 0"/></svg>