<svg xmlns="http://www.w3.org/2000/svg" width="60" height="60" viewBox="0 0 60 60"><title>term</title><desc>Created with Sketch.</desc><g fill="none"><path d="M30 58.75c15.878 0 28.75-12.872 28.75-28.75S45.878 1.25 30 1.25 1.25 14.122 1.25 30 14.122 58.75 30 58.75zM30 60C13.43 60 0 46.57 0 30S13.43 0 30 0s30 13.43 30 30-13.43 30-30 30z" fill-opacity=".011" fill="#fff"/><path d="M9 15.013V11l25.058 10.28v3.666L9 35.226v-4.03l20.14-8.07L9 15.014zM27 47c0-.553.447-1 1-1h22c.552 0 1 .443 1 1v1c0 .553-.447 1-1 1H28c-.552 0-1-.443-1-1v-1z" fill="#000"/></g></svg>