<svg xmlns="http://www.w3.org/2000/svg" viewBox="0 0 100 100" enable-background="new 0 0 100 100" width="100" height="100"><path d="M37.3 55.2c-1.3 0-2.4 1-2.4 2.3 0 1.3 1 2.3 2.4 2.3 1.3 0 2.3-1 2.3-2.3 0-1.3-1-2.3-2.3-2.3zm0 9.9c-1.3 0-2.4 1-2.4 2.3 0 1.3 1 2.3 2.4 2.3 1.3 0 2.3-1 2.3-2.3 0-1.3-1-2.3-2.3-2.3zm0-19.8c-1.3 0-2.4 1.1-2.4 2.3 0 1.3 1 2.3 2.4 2.3 1.3 0 2.3-1 2.3-2.3 0-1.3-1-2.3-2.3-2.3zm38-14.8h-6.4v-1.3c0-.8-.6-1.4-1.4-1.4H60c-.4-1.7-1.3-3.2-2.5-4.3-1.7-1.7-4-2.7-6.5-2.7s-4.8 1-6.5 2.7c-1.2 1.2-2 2.7-2.4 4.3h-7.5c-.8 0-1.4.6-1.4 1.4v1.3h-6.4c-1.3 0-2.4 1-2.4 2.3v48c0 1.3 1 2.3 2.4 2.3h48.7c1.3 0 2.3-1 2.3-2.3v-48c-.1-1.3-1.2-2.3-2.5-2.3zm-28.8-5.1c1.2-1.2 2.8-1.9 4.5-1.9 1.8 0 3.4.7 4.5 1.9.7.7 1.2 1.5 1.5 2.3H45c.3-.8.8-1.6 1.5-2.3zm-10.6 5.2h30.2V35H35.9v-4.4zM73 78.5H29V35.1h4.1v1.3c0 .8.6 1.4 1.4 1.4h33c.8 0 1.4-.6 1.4-1.4v-1.3H73v43.4zm-8.4-32.3H44.3c-.8 0-1.4.6-1.4 1.4s.6 1.4 1.4 1.4h20.4c.8 0 1.4-.6 1.4-1.4s-.7-1.4-1.5-1.4zm0 19.8H44.3c-.8 0-1.4.6-1.4 1.4s.6 1.4 1.4 1.4h20.4c.8 0 1.4-.6 1.4-1.4s-.7-1.4-1.5-1.4zm0-9.9H44.3c-.8 0-1.4.6-1.4 1.4 0 .8.6 1.4 1.4 1.4h20.4c.8 0 1.4-.6 1.4-1.4-.1-.7-.7-1.4-1.5-1.4z"/></svg>