<svg xmlns="http://www.w3.org/2000/svg" width="60" height="60" viewBox="0 0 60 60"><title>todos</title><desc>Created with Sketch.</desc><path fill="#fff" fill-opacity=".011" d="M30 58.75c15.88 0 28.75-12.872 28.75-28.75S45.88 1.25 30 1.25C14.122 1.25 1.25 14.122 1.25 30S14.122 58.75 30 58.75zM30 60C13.432 60 0 46.568 0 30S13.432 0 30 0s30 13.432 30 30-13.432 30-30 30z"/><path d="M25 41h15v2H25z"/><circle cx="21" cy="28" r="2"/><circle cx="21" cy="35" r="2"/><circle cx="21" cy="42" r="2"/><path d="M25 34h15v2H25zM44.992 14H42v-2h-6s0-6-6-6-6 6-6 6h-6v2h-2.993C13.347 14 12 15.346 12 17.006v33.988C12 52.658 13.347 54 15.007 54h29.985C46.654 54 48 52.654 48 50.994V17.006C48 15.342 46.653 14 44.992 14zM30 8c4 0 4 4 4 4h-8s0-4 4-4zm-10 6h20v3H20v-3zm25 36c0 .553-.447 1-.998 1H15.998c-.55 0-.998-.455-.998-1V18c0-.553.447-1 .998-1H18v2h24v-2h2.002c.55 0 .998.455.998 1v32zM25 27h15v2H25z"/></svg>