<svg xmlns="http://www.w3.org/2000/svg" width="60" height="60" viewBox="0 0 60 60"><title>cozy-default</title><desc>Created with Sketch.</desc><path d="M48.463 17.881l-17-9.5c-.908-.508-2.017-.508-2.926 0l-17 9.5c-.949.53-1.537 1.532-1.537 2.619v19c0 1.087.588 2.089 1.537 2.619l17 9.5c.909.508 2.018.508 2.926 0l17-9.5c.949-.53 1.537-1.532 1.537-2.619v-19c0-1.087-.588-2.089-1.537-2.619zm-18.463-6.881l16.023 8.954-16.023 8.902-16.023-8.902 16.023-8.954zm-17 28.5v-17.801l16 8.889v17.854l-16-8.942zm18 8.941v-17.853l16-8.888v17.8l-16 8.941z"/></svg>