<svg width="17" height="20" viewBox="0 0 17 20" xmlns="http://www.w3.org/2000/svg"><title>linux</title><path d="M1.95 18.924c1.054.126 2.237.81 3.226.93.996.126 1.305-.68 1.305-.68s1.12-.25 2.298-.278c1.178-.034 2.294.245 2.294.245s.216.497.62.714c.403.22 1.273.25 1.83-.338.56-.592 2.048-1.338 2.885-1.805.84-.466.687-1.18.16-1.396-.53-.218-.964-.56-.93-1.215.03-.65-.466-1.085-.466-1.085s.434-1.43.03-2.614c-.404-1.18-1.735-3.078-2.758-4.503-1.025-1.43-.156-3.082-1.088-5.193C10.42-.41 8.004-.286 6.7.617c-1.304.9-.904 3.136-.84 4.196.063 1.054.028 1.81-.093 2.08-.12.276-.96 1.276-1.518 2.114-.56.843-.964 2.582-1.37 3.3-.4.713-.12 1.363-.12 1.363s-.28.095-.5.563c-.217.462-.65.684-1.43.834-.773.16-.773.66-.585 1.22.187.556 0 .87-.217 1.582-.217.712.865.93 1.922 1.054zm10.944-3.253c.553.242 1.347-.095 1.59-.337.24-.24.41-.6.41-.6s.243.12.218.504c-.026.388.166.942.528 1.135.363.19.915.457.63.724-.294.268-1.908.918-2.39 1.427-.48.505-1.108.918-1.49.796-.387-.122-.725-.65-.56-1.426.172-.77.317-1.618.293-2.102-.025-.484-.12-1.135 0-1.23.12-.096.312-.05.312-.05s-.096.917.458 1.158zM9.304 2.606c.534 0 .964.53.964 1.18 0 .463-.217.863-.533 1.055-.08-.032-.164-.07-.255-.108.192-.095.325-.338.325-.617 0-.366-.225-.667-.506-.667-.277 0-.506.3-.506.667 0 .135.033.268.087.372-.165-.067-.316-.124-.436-.17-.063-.16-.1-.34-.1-.53 0-.65.428-1.18.96-1.18v-.002zM7.987 4.64c.262.046.983.358 1.25.455.265.092.56.262.532.433-.033.176-.17.176-.533.397-.358.217-1.14.7-1.39.734-.25.032-.392-.108-.658-.28-.266-.175-.766-.585-.64-.8 0 0 .39-.3.562-.455.168-.16.61-.534.876-.485zm-1.15-1.847c.42 0 .763.5.763 1.118 0 .113-.014.218-.034.323-.104.033-.208.087-.31.175-.047.042-.094.078-.134.12.065-.125.09-.304.06-.492-.056-.333-.28-.578-.502-.546-.22.037-.354.343-.3.68.057.34.278.588.504.55l.037-.012c-.106.105-.206.196-.312.27-.303-.142-.527-.566-.527-1.067 0-.62.336-1.117.756-1.117zm-2.338 8.08c.434-.685.713-2.178 1.145-2.675.437-.496.774-1.55.62-2.018 0 0 .933 1.118 1.58.934.652-.19 2.112-1.277 2.328-1.09.218.188 2.08 4.288 2.266 5.593.188 1.305-.125 2.302-.125 2.302s-.712-.188-.802.245c-.093.438-.093 2.023-.093 2.023s-.962 1.336-2.45 1.556c-1.49.216-2.236.058-2.236.058l-.838-.96s.65-.095.558-.75c-.093-.65-1.987-1.55-2.328-2.36-.34-.81-.063-2.177.376-2.86zM.816 15.766c.074-.32 1.04-.32 1.41-.545.37-.225.445-.872.745-1.043.296-.176.842.445 1.066.795.22.34 1.066 1.836 1.412 2.207.35.374.67.872.57 1.317-.095.444-.62.77-.62.77-.47.146-1.782-.42-2.377-.67-.595-.252-2.11-.327-2.305-.548-.2-.226.096-.72.175-1.193.07-.476-.15-.772-.074-1.094z" fill="#32363F" fill-rule="evenodd"/></svg>
