<svg xmlns="http://www.w3.org/2000/svg" viewBox="0 0 32 32" width="12" fill="#FFF">
    <path d="M16,0 C7.163444,-5.41083001e-16 1.082166e-15,7.163444 0,16 C-1.082166e-15,24.836556 7.163444,32 16,32 C24.836556,32 32,24.836556 32,16 C32,7.163444 24.836556,5.41083001e-16 16,0 M15.9999998,2 C23.7319862,2.00000012 29.9999996,8.26801358 29.9999996,16 C29.9999996,23.7319864 23.7319862,29.9999999 15.9999998,30 C8.26801338,29.9999999 2,23.7319864 2,16 C2,8.26801358 8.26801338,2.00000012 15.9999998,2" id="Shape" opacity="0.5"></path>
    <path d="M16,0 C24.836556,5.41083001e-16 32,7.163444 32,16 L30,16 C30,8.5 23.5,2 16,2 L16,0 Z" id="Shape">
        <animateTransform attributeName="transform" type="rotate" from="0 16 16" to="360 16 16" dur="1.2s" repeatCount="indefinite" />
    </path>
</svg>
